<svg width="16" height="16" viewBox="0 0 16 16" fill="none" xmlns="http://www.w3.org/2000/svg">
<path fill-rule="evenodd" clip-rule="evenodd" d="M7.9987 14.6667C4.856 14.6667 3.28465 14.6667 2.30834 13.6904C1.33203 12.7141 1.33203 11.1427 1.33203 8.00004C1.33203 4.85734 1.33203 3.286 2.30834 2.30968C3.28465 1.33337 4.856 1.33337 7.9987 1.33337C11.1414 1.33337 12.7127 1.33337 13.6891 2.30968C14.6654 3.286 14.6654 4.85734 14.6654 8.00004C14.6654 11.1427 14.6654 12.7141 13.6891 13.6904C12.7127 14.6667 11.1414 14.6667 7.9987 14.6667ZM7.9987 5.50004C8.27484 5.50004 8.4987 5.7239 8.4987 6.00004V7.50006H9.9987C10.2748 7.50006 10.4987 7.72391 10.4987 8.00006C10.4987 8.2762 10.2748 8.50006 9.9987 8.50006H8.4987L8.4987 10C8.4987 10.2762 8.27484 10.5 7.9987 10.5C7.72256 10.5 7.4987 10.2762 7.4987 10V8.50006H5.9987C5.72256 8.50006 5.4987 8.2762 5.4987 8.00006C5.4987 7.72392 5.72256 7.50006 5.9987 7.50006H7.4987L7.4987 6.00004C7.4987 5.7239 7.72256 5.50004 7.9987 5.50004Z" fill="#3B63B8"/>
</svg>
