<svg width="14" height="12" viewBox="0 0 14 12" fill="none" xmlns="http://www.w3.org/2000/svg">
<path fill-rule="evenodd" clip-rule="evenodd" d="M2.53984 5.17433C4.48541 1.72478 5.4582 0 6.9987 0C8.5392 0 9.51198 1.72477 11.4576 5.17432L11.7 5.60418C13.3168 8.47074 14.1251 9.90401 13.3945 10.952C12.6639 12 10.8563 12 7.24114 12H6.75626C3.14107 12 1.33348 12 0.602869 10.952C-0.127741 9.90401 0.680639 8.47074 2.2974 5.60418L2.53984 5.17433ZM6.9987 2.83333C7.27484 2.83333 7.4987 3.05719 7.4987 3.33333V6.66667C7.4987 6.94281 7.27484 7.16667 6.9987 7.16667C6.72256 7.16667 6.4987 6.94281 6.4987 6.66667V3.33333C6.4987 3.05719 6.72256 2.83333 6.9987 2.83333ZM6.9987 9.33333C7.36689 9.33333 7.66536 9.03486 7.66536 8.66667C7.66536 8.29848 7.36689 8 6.9987 8C6.63051 8 6.33203 8.29848 6.33203 8.66667C6.33203 9.03486 6.63051 9.33333 6.9987 9.33333Z" fill="#F2C836"/>
</svg>
