<svg width="24" height="24" viewBox="0 0 24 24" fill="none" xmlns="http://www.w3.org/2000/svg">
<g opacity="0.8" clip-path="url(#clip0_2475_30370)">
<path d="M13.5731 6.71915L14.191 6.10123C15.2148 5.07742 16.8747 5.07742 17.8985 6.10123C18.9223 7.12503 18.9223 8.78494 17.8985 9.80874L17.2806 10.4267M13.5731 6.71915C13.5731 6.71915 13.6503 8.03223 14.8089 9.19082C15.9675 10.3494 17.2806 10.4267 17.2806 10.4267M13.5731 6.71915L7.89222 12.4C7.50745 12.7847 7.31506 12.9771 7.14961 13.1893C6.95443 13.4395 6.7871 13.7102 6.65057 13.9967C6.53483 14.2396 6.44879 14.4977 6.27671 15.0139L5.54755 17.2014M17.2806 10.4267L11.5997 16.1075C11.215 16.4923 11.0226 16.6847 10.8105 16.8501C10.5602 17.0453 10.2895 17.2126 10.003 17.3491C9.76014 17.4649 9.50202 17.5509 8.98579 17.723L6.79829 18.4522M6.79829 18.4522L6.26357 18.6304C6.00953 18.7151 5.72945 18.649 5.5401 18.4596C5.35074 18.2703 5.28463 17.9902 5.36931 17.7361L5.54755 17.2014M6.79829 18.4522L5.54755 17.2014" stroke="#3B63B8" stroke-width="1.5"/>
</g>
<defs>
<clipPath id="clip0_2475_30370">
<rect width="16" height="16" fill="white" transform="translate(4 4)"/>
</clipPath>
</defs>
</svg>
