<svg width="16" height="16" viewBox="0 0 16 16" fill="none" xmlns="http://www.w3.org/2000/svg">
<path d="M1.33301 7.99996C1.33301 5.4858 1.33301 4.22872 2.11406 3.44767C2.89511 2.66663 4.15218 2.66663 6.66634 2.66663H9.33301C11.8472 2.66663 13.1042 2.66663 13.8853 3.44767C14.6663 4.22872 14.6663 5.4858 14.6663 7.99996V9.33329C14.6663 11.8475 14.6663 13.1045 13.8853 13.8856C13.1042 14.6666 11.8472 14.6666 9.33301 14.6666H6.66634C4.15218 14.6666 2.89511 14.6666 2.11406 13.8856C1.33301 13.1045 1.33301 11.8475 1.33301 9.33329V7.99996Z" stroke="#000" stroke-width="1.2"/>
<path d="M4.66699 2.66663V1.66663" stroke="#000" stroke-width="1.2" stroke-linecap="round"/>
<path d="M11.333 2.66663V1.66663" stroke="#000" stroke-width="1.2" stroke-linecap="round"/>
<path d="M1.66699 6H14.3337" stroke="#000" stroke-width="1.2" stroke-linecap="round"/>
<path d="M12.0003 11.3333C12.0003 11.7015 11.7018 12 11.3337 12C10.9655 12 10.667 11.7015 10.667 11.3333C10.667 10.9651 10.9655 10.6667 11.3337 10.6667C11.7018 10.6667 12.0003 10.9651 12.0003 11.3333Z" fill="#000"/>
<path d="M12.0003 8.66667C12.0003 9.03486 11.7018 9.33333 11.3337 9.33333C10.9655 9.33333 10.667 9.03486 10.667 8.66667C10.667 8.29848 10.9655 8 11.3337 8C11.7018 8 12.0003 8.29848 12.0003 8.66667Z" fill="#000"/>
<path d="M8.66634 11.3333C8.66634 11.7015 8.36786 12 7.99967 12C7.63148 12 7.33301 11.7015 7.33301 11.3333C7.33301 10.9651 7.63148 10.6667 7.99967 10.6667C8.36786 10.6667 8.66634 10.9651 8.66634 11.3333Z" fill="#000"/>
<path d="M8.66634 8.66667C8.66634 9.03486 8.36786 9.33333 7.99967 9.33333C7.63148 9.33333 7.33301 9.03486 7.33301 8.66667C7.33301 8.29848 7.63148 8 7.99967 8C8.36786 8 8.66634 8.29848 8.66634 8.66667Z" fill="#000"/>
<path d="M5.33333 11.3333C5.33333 11.7015 5.03486 12 4.66667 12C4.29848 12 4 11.7015 4 11.3333C4 10.9651 4.29848 10.6667 4.66667 10.6667C5.03486 10.6667 5.33333 10.9651 5.33333 11.3333Z" fill="#000"/>
<path d="M5.33333 8.66667C5.33333 9.03486 5.03486 9.33333 4.66667 9.33333C4.29848 9.33333 4 9.03486 4 8.66667C4 8.29848 4.29848 8 4.66667 8C5.03486 8 5.33333 8.29848 5.33333 8.66667Z" fill="#000"/>
</svg>
