<svg width="164" height="120" viewBox="0 0 164 120" fill="none" xmlns="http://www.w3.org/2000/svg">
<g clip-path="url(#clip0_2396_14695)">
<path d="M40.2633 135.005L48.9336 82.4609L199.714 115.087L159.869 219.527L40.2633 135.005Z" fill="#FFE5DD"/>
<path d="M67.6158 146.353C67.6047 146.353 67.6047 146.353 67.5936 146.353C67.3272 146.342 67.1163 146.12 67.1274 145.853C67.1385 145.476 68.6592 107.879 69.7914 88.8979C69.8025 88.6315 70.0356 88.4095 70.302 88.4428C70.5684 88.4539 70.7682 88.687 70.7571 88.9534C69.636 107.924 68.1153 145.509 68.0931 145.886C68.0931 146.142 67.8711 146.353 67.6158 146.353Z" fill="#262A39"/>
<path d="M100.206 62.9239C97.0646 62.9239 93.8677 62.4577 92.0473 61.4143C91.8141 61.2811 91.7364 60.9925 91.8697 60.7593C92.0029 60.5262 92.2915 60.4485 92.5246 60.5817C96.2542 62.713 105.556 62.158 107.887 60.6039C108.109 60.4596 108.409 60.5151 108.553 60.7371C108.698 60.9592 108.642 61.2589 108.42 61.4032C106.966 62.3689 103.625 62.9239 100.206 62.9239Z" fill="#262A39"/>
<path d="M116.368 27.6582C116.323 26.2596 116.135 24.9276 115.813 23.6955C113.97 16.4026 107.776 12.0402 102.459 10.9413C94.4336 9.28736 88.7059 9.84237 84.9762 12.6285C81.8348 14.9707 80.0699 18.8225 79.5815 24.4059C78.5936 35.7281 78.1051 55.2534 77.9941 59.8378C78.3271 59.9155 78.638 60.0265 78.9488 60.1486C79.0376 56.1747 79.5371 36.0278 80.5361 24.4836C81.0023 19.1888 82.634 15.559 85.5534 13.3944C89.0611 10.7859 94.5335 10.2864 102.27 11.8737C106.022 12.6507 112.904 16.0585 114.891 23.9175C115.191 25.083 115.369 26.3484 115.413 27.6693C115.48 29.8672 115.469 34.385 114.647 40.0239C114.447 41.367 114.27 42.4104 114.07 43.3984L113.926 44.1421C113.359 46.9615 112.616 49.7033 111.694 52.2897C108.664 60.8923 104.013 67.2195 97.8747 71.1156C96.2207 69.6726 87.3183 61.7026 85.8642 55.4088C85.8087 55.1535 85.5423 54.9981 85.287 55.0536C85.0317 55.1091 84.8652 55.3755 84.9318 55.6308C86.6079 62.8349 97.0865 71.704 97.5306 72.0814C97.686 72.2146 97.9191 72.2257 98.0967 72.1258C104.568 68.1297 109.452 61.5583 112.616 52.6116C113.548 49.9808 114.314 47.1946 114.88 44.3308L115.025 43.5982C115.224 42.5881 115.402 41.5335 115.602 40.1682C116.434 34.4738 116.434 29.8783 116.368 27.6582Z" fill="#262A39"/>
<path d="M85.2327 67.5409C85.1661 66.9304 84.2004 66.9304 84.267 67.5409C85.0218 73.9013 85.7766 80.2618 86.5314 86.6222C86.598 87.2327 87.5637 87.2327 87.4971 86.6222C86.7312 80.2729 85.9875 73.9124 85.2327 67.5409Z" fill="#262A39"/>
<path d="M112.794 65.077C112.217 72.381 111.651 79.6849 111.074 86.9889C111.029 87.6105 111.984 87.5994 112.039 86.9889C112.617 79.6849 113.183 72.381 113.76 65.077C113.804 64.4665 112.839 64.4665 112.794 65.077Z" fill="#262A39"/>
<path d="M95.7558 72.9693C94.6901 74.5566 93.6245 76.1439 92.57 77.7313C92.2259 78.2419 93.0584 78.7303 93.4025 78.2197C94.4681 76.6323 95.5338 75.045 96.5883 73.4577C96.9324 72.936 96.0999 72.4587 95.7558 72.9693Z" fill="#262A39"/>
<path d="M99.2073 146.352C98.9409 146.352 98.7299 146.141 98.7299 145.875L97.3535 71.7366C97.3535 71.4702 97.5644 71.2482 97.8308 71.2482C98.1083 71.2149 98.3192 71.4591 98.3192 71.7255L99.6957 145.864C99.6957 146.119 99.4848 146.341 99.2073 146.352Z" fill="#262A39"/>
<path d="M131.677 146.353C131.422 146.353 131.211 146.153 131.2 145.898L128.192 93.4827C128.181 93.2163 128.381 92.9943 128.647 92.9721C128.913 92.9388 129.135 93.1608 129.158 93.4272L132.166 145.842C132.177 146.109 131.977 146.331 131.711 146.353C131.7 146.353 131.688 146.353 131.677 146.353Z" fill="#262A39"/>
<path d="M92.5251 59.8047C91.7591 59.5272 90.7046 59.3718 90.2051 60.2154C89.9387 60.6705 90.0164 61.2699 90.0164 61.7694C90.0164 62.4576 90.0275 63.1458 90.0275 63.8341C90.0275 64.4557 90.9932 64.4557 90.9932 63.8341C90.9932 63.1014 90.9821 62.3577 90.9821 61.6251C90.9821 61.3476 90.8822 60.8148 91.1375 60.615C91.4372 60.3819 91.97 60.6372 92.2698 60.7482C92.8581 60.9369 93.1134 60.0156 92.5251 59.8047Z" fill="#262A39"/>
<path d="M94.0009 62.1575C94.0231 61.5359 93.0574 61.5359 93.0352 62.1575C92.9686 64.0334 93.0907 65.8983 93.4015 67.752C93.5014 68.3625 94.4338 68.1072 94.3339 67.4967C94.0342 65.7207 93.9343 63.9446 94.0009 62.1575Z" fill="#262A39"/>
<path d="M96.7976 62.39C96.8198 61.7684 95.8652 61.7684 95.8319 62.39C95.7542 64.3326 95.8319 66.2529 96.065 68.1844C96.1427 68.7949 97.0973 68.7949 97.0307 68.1844C96.7865 66.2529 96.7199 64.3326 96.7976 62.39Z" fill="#262A39"/>
<path d="M100.517 62.7902C100.45 62.1797 99.4957 62.1686 99.5512 62.7902C99.7399 64.6328 99.8509 66.4866 99.862 68.3403C99.862 68.9619 100.828 68.9619 100.828 68.3403C100.817 66.4866 100.717 64.6328 100.517 62.7902Z" fill="#262A39"/>
<path d="M104.47 63.0678C104.448 62.4462 103.482 62.4462 103.504 63.0678C103.549 64.1001 103.593 65.1324 103.626 66.1647C103.649 66.7864 104.614 66.7864 104.592 66.1647C104.559 65.1324 104.514 64.1001 104.47 63.0678Z" fill="#262A39"/>
<path d="M102.603 67.3968C99.8838 68.1405 97.1753 68.1516 94.4447 67.4301C93.8453 67.2747 93.59 68.196 94.1894 68.3625C97.0754 69.1284 99.9726 69.1284 102.859 68.3403C103.458 68.1627 103.203 67.2303 102.603 67.3968Z" fill="#262A39"/>
<path d="M146.338 146.353C146.083 146.353 145.872 146.153 145.861 145.887C145.85 145.62 144.751 118.547 140.744 93.5269C136.77 68.7623 122.029 61.5027 121.885 61.4361C121.685 61.3473 121.574 61.1253 121.618 60.9144C124.282 46.5618 128.201 23.1625 127.368 21.4975C126.291 19.4883 109.486 10.4639 97.8526 10.9745C97.5973 11.0078 95.0775 10.6637 95.0664 10.3973C95.0553 10.1308 97.5418 10.0309 97.8082 10.0198C109.552 9.49814 126.835 18.4893 128.212 21.0535C129.444 23.3401 123.916 53.7437 122.617 60.7479C124.871 62.0022 137.969 70.1831 141.687 93.3826C145.706 118.458 146.805 145.587 146.816 145.853C146.827 146.12 146.616 146.342 146.338 146.353Z" fill="#262A39"/>
<path d="M115.889 27.6693C115.845 26.2929 115.656 25.0052 115.345 23.8175C114.813 22.7519 114.113 21.7418 113.203 20.8204C111.016 18.112 106.854 16.5468 100.405 15.5367C93.5779 14.4822 88.716 16.2915 86.3184 20.0101C87.717 20.4097 91.0693 18.889 91.8685 19.0333C94.3549 21.9416 98.8727 25.2827 102.369 26.9145C103.246 27.3141 104.156 27.6804 105.078 27.969C104.878 30.1335 105.178 32.3092 106.088 34.3405C106.587 35.4616 107.853 36.7715 108.508 37.6151C109.684 37.8038 110.317 37.7039 111.15 37.7927C111.183 37.8038 111.205 37.826 111.249 37.826C112.804 38.1035 113.902 38.7584 114.89 39.9794C114.946 40.0571 115.035 40.0904 115.123 40.1015C115.845 35.173 115.989 30.7662 115.889 27.6693Z" fill="#262A39"/>
<path d="M91.2907 40.9887C91.2685 40.9887 91.2463 40.9887 91.213 40.9776C90.0141 40.7889 89.115 40.3005 88.6821 39.5901C88.3824 39.0906 88.3269 38.5134 88.5156 37.914C88.9485 36.6041 90.9133 36.4154 91.8235 36.3932L92.434 32.4527C92.4784 32.1863 92.7226 32.0197 92.9779 32.0531C93.2443 32.0975 93.4219 32.3417 93.3775 32.6081L92.7004 36.9594C92.6671 37.2036 92.4451 37.3923 92.2009 37.3701C91.4017 37.3368 89.6589 37.4922 89.4258 38.2248C89.3148 38.5578 89.337 38.8353 89.4924 39.0906C89.7699 39.5457 90.4582 39.8898 91.3462 40.0341C91.6126 40.0785 91.7902 40.3227 91.7458 40.5891C91.7236 40.8222 91.5238 40.9887 91.2907 40.9887Z" fill="#262A39"/>
<path d="M89.7707 29.7005L89.4821 30.6107C89.1047 31.7873 87.2731 31.2101 87.6505 30.0224L87.9391 29.1121C88.3165 27.9355 90.1481 28.5127 89.7707 29.7005Z" fill="#262A39"/>
<path d="M100.538 32.3753L100.25 33.2855C99.8722 34.4621 98.0407 33.8849 98.4181 32.6972L98.7067 31.7869C99.0841 30.6103 100.916 31.1875 100.538 32.3753Z" fill="#262A39"/>
<path d="M99.7279 27.8463C100.516 27.8907 101.293 27.9795 102.059 28.1793C102.658 28.3347 102.303 29.2227 101.704 29.0784C101.027 28.9008 100.316 28.8453 99.6169 28.812C99.0064 28.7676 99.1063 27.813 99.7279 27.8463Z" fill="#262A39"/>
<path d="M87.917 24.2716C88.4721 24.0718 89.0604 23.9608 89.6043 23.7166C90.1593 23.4613 90.6699 24.2827 90.1038 24.538C89.4822 24.8155 88.8273 24.9598 88.1946 25.1929C87.6062 25.4149 87.3398 24.4825 87.917 24.2716Z" fill="#262A39"/>
<path d="M111.441 45.1069C110.942 45.1069 110.376 45.0514 109.743 44.9293C109.488 44.8738 109.31 44.6296 109.366 44.3632C109.421 44.1079 109.665 43.9414 109.932 43.9858C111.841 44.3632 113.351 44.0635 114.205 43.1644C114.383 42.9757 114.694 42.9646 114.882 43.1422C115.071 43.3198 115.082 43.6306 114.905 43.8193C114.394 44.3632 113.351 45.1069 111.441 45.1069Z" fill="#262A39"/>
<path d="M115.126 40.5795C114.915 40.5795 114.738 40.4463 114.671 40.2687C114.172 39.3473 112.751 38.1929 108.821 37.7933C108.555 37.7711 108.366 37.5269 108.388 37.2716C108.411 37.0052 108.666 36.8165 108.921 36.8387C112.473 37.205 114.705 38.2262 115.548 39.8802C115.581 39.9468 115.604 40.0245 115.604 40.1022C115.604 40.3686 115.382 40.5795 115.126 40.5795Z" fill="#262A39"/>
<path d="M92.2919 61.4799C92.2364 61.4799 92.1698 61.4688 92.1143 61.4466C91.9589 61.38 91.8479 61.2468 91.8257 61.0914L91.304 58.3496C88.9618 57.7946 86.1757 56.8511 84.2442 55.3081C79.6154 51.5785 81.1251 42.9869 83.6337 28.7342C83.889 27.2578 84.1554 25.726 84.4329 24.1387C85.7205 16.6571 91.1264 13.6157 100.484 15.0698C106.112 15.9467 109.93 17.6894 112.15 20.4201C114.17 22.8955 114.825 26.1367 114.17 30.3437L112.983 37.9474C112.938 38.2138 112.694 38.3914 112.439 38.347C112.172 38.3026 111.995 38.0584 112.039 37.792L113.227 30.1883C113.837 26.2699 113.238 23.2729 111.406 21.0195C109.342 18.4887 105.723 16.8569 100.34 16.0133C91.4705 14.6369 86.5753 17.3453 85.3875 24.2941C85.11 25.8814 84.8436 27.4133 84.5883 28.8896C82.1463 42.7871 80.6699 51.1788 84.8547 54.5533C88.4401 57.4394 95.6331 58.1165 95.7108 58.1276C95.9106 58.1498 96.0771 58.283 96.1326 58.4828C96.1881 58.6826 96.1104 58.8824 95.9439 59.0045L92.5805 61.4022C92.4917 61.4466 92.3918 61.4799 92.2919 61.4799ZM92.3141 58.5716L92.6249 60.17L94.3676 58.9268C93.8126 58.8491 93.1133 58.7381 92.3141 58.5716Z" fill="#262A39"/>
<path d="M91.7031 57.9395L92.2914 60.992L95.6548 58.6055L91.7031 57.9395Z" fill="#262A39"/>
<path d="M112.15 52.4543C113.127 49.7125 113.859 46.9375 114.403 44.2401C114.226 44.1291 113.937 44.1513 113.782 44.2956C112.782 45.1614 111.484 45.2058 110.374 44.5065C110.329 44.4732 110.274 44.4732 110.241 44.4621C110.096 44.34 109.874 44.3289 109.708 44.4066C109.575 44.4177 109.441 44.4732 109.353 44.6286C108.054 46.8043 107.987 49.1686 108.154 51.644C108.287 53.642 108.465 55.74 110.44 56.7279C110.762 56.8944 111.162 56.6946 111.162 56.3172C111.184 55.3737 111.284 54.4856 111.45 53.5976C111.473 53.5532 111.495 53.5199 111.506 53.4644C111.517 53.4089 111.517 53.3645 111.528 53.309C111.606 52.9649 111.695 52.6208 111.772 52.2767C111.894 52.3322 112.017 52.3988 112.15 52.4543Z" fill="#262A39"/>
<path d="M91.6364 57.8394C90.2377 57.6951 88.8724 57.4287 87.5515 56.8182C87.2296 56.6628 87.0409 56.4408 86.9743 56.1855C80.414 53.9876 81.3131 43.4535 82.734 38.0921C82.7562 38.0033 82.7562 37.9367 82.734 37.859C82.7673 37.7702 82.8006 37.6814 82.8339 37.5926C82.8561 36.1717 82.9893 34.7509 83.1225 33.3301C82.9671 33.3967 82.8339 33.5299 82.8228 33.7408C82.1457 41.8773 71.9112 46.828 72.7105 55.1531C73.4875 63.1786 83.7996 63.1342 89.5828 64.1776C89.8603 64.222 90.2266 64.0555 90.1933 63.7114C90.0046 61.9465 90.9037 61.1806 91.5809 59.682C91.8029 59.1936 92.0249 58.9272 91.8584 58.35C91.8251 58.1613 91.7474 57.9948 91.6364 57.8394Z" fill="#262A39"/>
<path d="M49.6331 106.148C49.511 106.148 49.3889 106.104 49.289 106.004C49.1003 105.815 49.1003 105.516 49.289 105.327C49.4666 105.161 53.5626 101.153 57.3922 103.595C57.6142 103.74 57.6808 104.039 57.5365 104.261C57.3922 104.483 57.0925 104.55 56.8704 104.406C53.6847 102.385 49.9994 105.971 49.9661 106.004C49.8773 106.104 49.7552 106.148 49.6331 106.148Z" fill="#262A39"/>
<path d="M53.2527 110.532C53.1306 110.532 52.9974 110.487 52.9086 110.387C47.7692 105.07 45.8378 100.697 44.2838 90.8953C42.9739 82.6256 40.8538 72.5133 35.9253 67.5959C32.0624 63.733 27.5224 61.9015 25.9795 62.3011C25.6909 62.3788 25.6576 62.5009 25.6354 62.5453C25.369 63.4444 27.1672 64.6543 28.366 65.4646C28.9876 65.8864 29.5204 66.2416 29.8534 66.5747C30.3752 67.0964 30.242 67.9067 30.0644 69.0389C29.7424 71.0369 29.2651 74.0673 31.8182 77.7304C31.9736 77.9524 31.9181 78.2521 31.6961 78.3964C31.4741 78.5518 31.1744 78.4963 31.0301 78.2743C28.255 74.2893 28.7989 70.9037 29.1208 68.8835C29.2318 68.162 29.3539 67.4183 29.1874 67.2518C28.921 66.9854 28.3993 66.6302 27.8443 66.2638C26.2459 65.1871 24.2589 63.844 24.7362 62.2678C24.8694 61.8237 25.2357 61.5018 25.7575 61.3686C27.811 60.858 32.6618 62.956 36.6246 66.9188C41.7196 72.0027 43.8397 81.8264 45.2495 90.751C46.7813 100.441 48.5795 104.515 53.6079 109.732C53.7967 109.921 53.7856 110.232 53.5968 110.409C53.4858 110.487 53.3748 110.532 53.2527 110.532Z" fill="#262A39"/>
<path d="M29.6527 68.9284C29.575 68.9284 29.4973 68.9062 29.4195 68.8729C24.7131 66.3087 17.7532 65.121 14.5119 66.3198C13.746 66.5973 13.2687 66.9969 13.08 67.4964C12.9912 67.7406 12.7026 67.8627 12.4584 67.7739C12.2142 67.674 12.081 67.3965 12.1809 67.1523C12.4695 66.3864 13.1466 65.7981 14.1789 65.4207C17.6866 64.1109 24.8796 65.3097 29.8747 68.0292C30.1078 68.1513 30.1966 68.451 30.0634 68.6842C29.9857 68.8396 29.8303 68.9284 29.6527 68.9284Z" fill="#262A39"/>
<path d="M10.561 69.628C10.5055 69.628 10.4389 69.6169 10.3834 69.5947C10.1392 69.4948 10.0171 69.2173 10.117 68.9731C10.9717 66.8308 13.4249 66.0981 23.4484 68.6845C23.7037 68.7511 23.8591 69.0175 23.7925 69.2728C23.7259 69.5281 23.4595 69.6835 23.2042 69.6169C13.3916 67.0861 11.5378 67.9852 11.005 69.3283C10.9384 69.517 10.7608 69.628 10.561 69.628Z" fill="#262A39"/>
<path d="M9.17232 71.6602C9.11682 71.6602 9.05022 71.6491 8.99472 71.6269C8.75051 71.527 8.62841 71.2495 8.72831 71.0053C9.58303 68.863 12.0362 68.1304 22.0597 70.7167C22.315 70.7833 22.4704 71.0497 22.4038 71.305C22.3372 71.5603 22.0708 71.7157 21.8155 71.6491C12.0029 69.1183 10.1491 70.0174 9.61633 71.3605C9.54973 71.5492 9.36102 71.6602 9.17232 71.6602Z" fill="#262A39"/>
<path d="M26.0563 97.1346C25.8454 97.1346 25.6456 96.9903 25.5901 96.7683C25.4569 96.2244 25.3126 95.2475 25.1461 94.0043C24.5023 89.3866 23.1702 79.7627 19.1298 77.8424C16.6877 76.6768 14.2124 76.033 12.2143 75.5224C9.59466 74.8342 8.00733 74.4235 8.02953 73.2469C8.04063 72.6253 8.28483 72.1369 8.76214 71.7705C9.70566 71.049 12.0478 70.383 21.3942 72.7918C21.6495 72.8584 21.8049 73.1248 21.7383 73.3801C21.6717 73.6354 21.4053 73.7908 21.15 73.7242C12.9025 71.5929 10.1719 71.9037 9.33935 72.5365C9.10625 72.7141 8.99525 72.9361 8.98415 73.2691C8.97305 73.6798 10.9822 74.2015 12.4474 74.59C14.4788 75.1228 17.0096 75.7777 19.5294 76.9765C24.0472 79.1189 25.3792 88.7206 26.0896 93.8822C26.2561 95.0921 26.3893 96.0468 26.5114 96.5463C26.578 96.8016 26.4226 97.068 26.1562 97.1346C26.134 97.1346 26.0896 97.1346 26.0563 97.1346Z" fill="#262A39"/>
<path d="M53.9057 140.636C52.8401 140.636 51.7522 140.547 50.6644 140.381C42.4502 139.104 34.447 133.177 29.241 124.508C20.938 110.677 21.4486 96.0465 21.4597 95.8911C21.4708 95.7357 21.5374 95.6025 21.6706 95.5137C21.7927 95.4249 21.9481 95.4027 22.0924 95.4471C30.018 98.0113 43.6491 93.327 44.4705 91.9727C44.4594 91.7507 44.6037 91.5398 44.8257 91.4732C45.081 91.4066 45.3474 91.5509 45.414 91.8062C45.5028 92.117 45.3807 92.4389 45.0477 92.7497C43.0385 94.6812 30.3399 98.6773 22.4254 96.5349C22.4365 99.4432 22.8916 112.02 30.0846 123.997C35.1352 132.422 42.8942 138.183 50.8309 139.415C56.8028 140.336 62.5084 138.583 67.3148 134.342C67.5146 134.165 67.8143 134.187 67.9919 134.387C68.1695 134.587 68.1473 134.886 67.9475 135.064C63.7738 138.738 58.9785 140.636 53.9057 140.636Z" fill="#262A39"/>
<path d="M28.5423 93.5942C27.5433 93.5942 26.511 93.5609 25.4564 93.4943C25.19 93.4721 24.9902 93.2501 25.0124 92.9837C25.0346 92.7173 25.2566 92.5175 25.523 92.5397C34.0591 93.0836 40.7859 91.3741 43.9605 87.8443C44.1381 87.6445 44.4378 87.6334 44.6376 87.811C44.8374 87.9886 44.8485 88.2883 44.6709 88.4881C41.6961 91.7849 35.9129 93.5942 28.5423 93.5942Z" fill="#262A39"/>
<path d="M28.521 96.9018C28.5321 96.9573 28.5432 97.0128 28.5765 97.0572C28.854 97.0128 29.1315 96.9684 29.4201 96.924C29.4534 96.8463 29.4756 96.7464 29.4534 96.6465L28.9761 93.2276C28.8873 92.6171 27.966 92.8724 28.0437 93.4829L28.521 96.9018Z" fill="#262A39"/>
<path d="M33.7159 95.3811C33.3829 94.6595 33.2497 93.9047 33.2719 93.1166C33.2941 92.495 32.3284 92.495 32.3062 93.1166C32.2729 94.0823 32.4838 94.9925 32.8834 95.8584C33.1498 96.4356 33.9823 95.9472 33.7159 95.3811Z" fill="#262A39"/>
<path d="M39.2321 94.5599C38.9879 93.6608 38.8769 92.7505 38.8769 91.807C38.8769 91.1854 37.9111 91.1854 37.9111 91.807C37.9111 92.8283 38.0443 93.8273 38.2996 94.8152C38.4661 95.4035 39.3986 95.1593 39.2321 94.5599Z" fill="#262A39"/>
<path d="M43.4949 92.8508C43.3062 91.9184 43.1175 90.986 42.9288 90.0536C42.8067 89.443 41.8742 89.7094 41.9963 90.3089C42.1851 91.2413 42.3738 92.1737 42.5625 93.1061C42.6846 93.7055 43.617 93.4502 43.4949 92.8508Z" fill="#262A39"/>
<path d="M77.9827 60.4482C77.9827 60.5148 77.9827 60.5814 77.9827 60.6258C76.7284 61.8247 68.0369 70.4385 62.0649 83.9252C57.969 93.1495 54.4724 102.363 54.4391 102.463C54.3503 102.707 54.4724 102.984 54.7166 103.084C54.7721 103.106 54.8276 103.118 54.8831 103.118C55.0718 103.118 55.2605 102.995 55.3271 102.807C55.3604 102.718 58.857 93.5269 62.9308 84.3248C69.269 70.0166 78.682 61.2808 78.7708 61.192C78.8707 61.1032 78.9262 60.9811 78.9262 60.8478C78.9262 60.8478 78.9262 60.8256 78.9262 60.7923C78.6265 60.6591 78.3046 60.537 77.9827 60.4482Z" fill="#262A39"/>
<path d="M28.4985 105.704C26.5449 105.704 24.5247 105.482 22.4933 104.949C22.238 104.882 22.0826 104.616 22.1492 104.361C22.2158 104.105 22.4822 103.939 22.7375 104.016C34.7369 107.147 46.2811 99.1324 46.3921 99.0547C46.603 98.8993 46.9138 98.9548 47.0581 99.1657C47.2135 99.3877 47.158 99.6874 46.9471 99.8317C46.8472 99.9094 38.4999 105.704 28.4985 105.704Z" fill="#262A39"/>
<path d="M91.4237 44.785C90.8822 45.2669 90.0101 45.7897 89.3213 45.2812C88.8255 44.9147 88.2006 45.6507 88.7109 46.0113C89.7697 46.7849 91.0621 46.3797 91.9753 45.5608C92.4283 45.174 91.8854 44.3777 91.4237 44.785Z" fill="#262A39"/>
</g>
<defs>
<clipPath id="clip0_2396_14695">
<path d="M0 0H164V88C164 105.673 149.673 120 132 120H0V0Z" fill="white"/>
</clipPath>
</defs>
</svg>
