<svg width="16" height="16" viewBox="0 0 16 16" fill="none" xmlns="http://www.w3.org/2000/svg">
<path d="M7.72066 3.18401C8.18381 2.00342 8.41539 1.41312 8.89969 1.34035C9.38399 1.26758 9.80028 1.76053 10.6329 2.74643L10.8483 3.00149C11.0848 3.28165 11.2031 3.42173 11.364 3.50172C11.5248 3.5817 11.71 3.59254 12.0804 3.61422L12.4176 3.63395C13.7209 3.71023 14.3725 3.74836 14.5987 4.17443C14.8248 4.60051 14.4757 5.13234 13.7774 6.196L13.5967 6.47118C13.3983 6.77344 13.2991 6.92457 13.2723 7.09712C13.2455 7.26968 13.2941 7.44412 13.3914 7.793L13.48 8.11063C13.8223 9.33836 13.9935 9.95222 13.649 10.2883C13.3044 10.6244 12.6724 10.4602 11.4082 10.1316L11.0812 10.0466C10.722 9.95329 10.5423 9.90662 10.3649 9.93328C10.1875 9.95993 10.0324 10.0569 9.72216 10.2509L9.43972 10.4274C8.34798 11.1099 7.80211 11.4512 7.36303 11.2328C6.92395 11.0145 6.88245 10.3811 6.79945 9.11443L6.77798 8.78672C6.75439 8.42676 6.74259 8.24679 6.65975 8.09071C6.57691 7.93463 6.4324 7.82012 6.14338 7.5911L5.88026 7.3826C4.86318 6.57668 4.35465 6.17372 4.42782 5.70268C4.50099 5.23163 5.10741 5.00446 6.32024 4.55011L6.63402 4.43257C6.97867 4.30346 7.15099 4.2389 7.2772 4.11579C7.40341 3.99267 7.46922 3.82492 7.60084 3.48944L7.72066 3.18401Z" fill="#FF542C"/>
<path d="M3.53969 6.39496C1.91496 7.9473 0.849679 10.537 1.55384 14.6666C2.18236 12.9308 3.90452 11.4936 5.94113 10.635C5.87007 10.2399 5.83854 9.75738 5.8053 9.24866L5.77931 8.8519C5.77326 8.7596 5.76865 8.68959 5.76372 8.62934C5.76167 8.60432 5.75976 8.58335 5.75796 8.56569C5.74248 8.55243 5.72362 8.53666 5.70045 8.51771C5.65217 8.47822 5.59552 8.4333 5.52153 8.37467L5.20473 8.12366C4.74266 7.75763 4.31224 7.41668 4.0163 7.10234C3.84755 6.9231 3.65885 6.68672 3.53969 6.39496Z" fill="#FF542C"/>
<path d="M6.89743 10.2818C6.89399 10.2569 6.89066 10.2315 6.88744 10.2055L6.92484 10.2731C6.9157 10.276 6.90656 10.2789 6.89743 10.2818Z" fill="#FF542C"/>
</svg>
