<svg width="16" height="16" viewBox="0 0 16 16" fill="none" xmlns="http://www.w3.org/2000/svg">
<path fill-rule="evenodd" clip-rule="evenodd" d="M9.08453 13.6479L8.72313 14.2585C8.40102 14.8027 7.59635 14.8027 7.27423 14.2585L6.91284 13.6479C6.63252 13.1743 6.49236 12.9375 6.26723 12.8066C6.04209 12.6757 5.75865 12.6708 5.19175 12.661C4.35484 12.6466 3.82996 12.5953 3.38975 12.413C2.57299 12.0747 1.92408 11.4257 1.58577 10.609C1.33203 9.99642 1.33203 9.21985 1.33203 7.66671V7.00004C1.33203 4.81775 1.33203 3.72661 1.82323 2.92505C2.09808 2.47653 2.47518 2.09943 2.9237 1.82457C3.72527 1.33337 4.81641 1.33337 6.9987 1.33337H8.9987C11.181 1.33337 12.2721 1.33337 13.0737 1.82457C13.5222 2.09943 13.8993 2.47653 14.1742 2.92505C14.6654 3.72661 14.6654 4.81775 14.6654 7.00004V7.66671C14.6654 9.21985 14.6654 9.99642 14.4116 10.609C14.0733 11.4257 13.4244 12.0747 12.6076 12.413C12.1674 12.5953 11.6425 12.6466 10.8056 12.661C10.2387 12.6708 9.95527 12.6757 9.73014 12.8066C9.50501 12.9375 9.36485 13.1743 9.08453 13.6479ZM5.33203 7.83337C5.05589 7.83337 4.83203 8.05723 4.83203 8.33337C4.83203 8.60952 5.05589 8.83337 5.33203 8.83337H8.9987C9.27484 8.83337 9.4987 8.60952 9.4987 8.33337C9.4987 8.05723 9.27484 7.83337 8.9987 7.83337H5.33203ZM4.83203 6.00004C4.83203 5.7239 5.05589 5.50004 5.33203 5.50004H10.6654C10.9415 5.50004 11.1654 5.7239 11.1654 6.00004C11.1654 6.27618 10.9415 6.50004 10.6654 6.50004H5.33203C5.05589 6.50004 4.83203 6.27618 4.83203 6.00004Z" fill="#3B63B8"/>
</svg>
