<svg width="16" height="15" viewBox="0 0 16 15" fill="none" xmlns="http://www.w3.org/2000/svg">
<path fill-rule="evenodd" clip-rule="evenodd" d="M9.99967 0.333374H11.333C12.5901 0.333374 13.2186 0.333374 13.6091 0.723898C13.9997 1.11442 13.9997 1.74296 13.9997 3.00004V13.1667H14.6663C14.9425 13.1667 15.1663 13.3906 15.1663 13.6667C15.1663 13.9429 14.9425 14.1667 14.6663 14.1667H1.33301C1.05687 14.1667 0.833008 13.9429 0.833008 13.6667C0.833008 13.3906 1.05687 13.1667 1.33301 13.1667H1.99967V5.00004C1.99967 3.74296 1.99967 3.11442 2.3902 2.7239C2.78072 2.33337 3.40926 2.33337 4.66634 2.33337H7.33301C8.59009 2.33337 9.21863 2.33337 9.60915 2.7239C9.99967 3.11442 9.99967 3.74296 9.99967 5.00004V13.1667H10.9997V5.00004L10.9997 4.94038C10.9997 4.36329 10.9998 3.83418 10.9419 3.40376C10.8782 2.92979 10.7283 2.42882 10.3163 2.01679C9.90423 1.60476 9.40326 1.45483 8.92929 1.39111C8.50493 1.33405 7.98464 1.33331 7.41701 1.33337C7.47321 1.0752 7.567 0.880431 7.72353 0.723898C8.11406 0.333374 8.7426 0.333374 9.99967 0.333374ZM3.49967 4.33337C3.49967 4.05723 3.72353 3.83337 3.99967 3.83337H7.99967C8.27582 3.83337 8.49967 4.05723 8.49967 4.33337C8.49967 4.60952 8.27582 4.83337 7.99967 4.83337H3.99967C3.72353 4.83337 3.49967 4.60952 3.49967 4.33337ZM3.49967 6.33337C3.49967 6.05723 3.72353 5.83337 3.99967 5.83337H7.99967C8.27582 5.83337 8.49967 6.05723 8.49967 6.33337C8.49967 6.60952 8.27582 6.83337 7.99967 6.83337H3.99967C3.72353 6.83337 3.49967 6.60952 3.49967 6.33337ZM3.49967 8.33337C3.49967 8.05723 3.72353 7.83337 3.99967 7.83337H7.99967C8.27582 7.83337 8.49967 8.05723 8.49967 8.33337C8.49967 8.60952 8.27582 8.83337 7.99967 8.83337H3.99967C3.72353 8.83337 3.49967 8.60952 3.49967 8.33337ZM5.99967 11.1667C6.27582 11.1667 6.49967 11.3906 6.49967 11.6667V13.1667H5.49967V11.6667C5.49967 11.3906 5.72353 11.1667 5.99967 11.1667Z" fill="#FF542C"/>
</svg>
