<svg width="16" height="16" viewBox="0 0 16 16" fill="none" xmlns="http://www.w3.org/2000/svg">
<path d="M10.6667 2.66785C12.1167 2.67592 12.902 2.74022 13.4142 3.25247C14 3.83826 14 4.78107 14 6.66669V10.6667C14 12.5523 14 13.4951 13.4142 14.0809C12.8284 14.6667 11.8856 14.6667 10 14.6667H6C4.11438 14.6667 3.17157 14.6667 2.58579 14.0809C2 13.4951 2 12.5523 2 10.6667V6.66669C2 4.78107 2 3.83826 2.58579 3.25247C3.09804 2.74022 3.88332 2.67592 5.33333 2.66785" stroke="#626C76" stroke-width="1.5"/>
<path d="M5.33301 9.33337H10.6663" stroke="#626C76" stroke-width="1.2" stroke-linecap="round"/>
<path d="M4.66699 7H11.3337" stroke="#626C76" stroke-width="1.2" stroke-linecap="round"/>
<path d="M6 11.6666H10" stroke="#626C76" stroke-width="1.2" stroke-linecap="round"/>
<path d="M5.33301 2.33337C5.33301 1.78109 5.78072 1.33337 6.33301 1.33337H9.66634C10.2186 1.33337 10.6663 1.78109 10.6663 2.33337V3.00004C10.6663 3.55233 10.2186 4.00004 9.66634 4.00004H6.33301C5.78072 4.00004 5.33301 3.55233 5.33301 3.00004V2.33337Z" stroke="#626C76" stroke-width="1.5"/>
</svg>
