<svg width="16" height="16" viewBox="0 0 16 16" fill="none" xmlns="http://www.w3.org/2000/svg">
<path d="M2.02285 4.37155C1.85969 3.99083 1.41878 3.81447 1.03806 3.97763C0.657334 4.1408 0.480971 4.58171 0.644137 4.96243L2.02285 4.37155ZM10.3916 8.88613L10.1169 8.18824L10.1169 8.18824L10.3916 8.88613ZM6.23734 9.29517C6.46325 8.94798 6.36493 8.48339 6.01774 8.25749C5.67056 8.03158 5.20597 8.1299 4.98007 8.47709L6.23734 9.29517ZM4.03819 9.92462C3.81228 10.2718 3.9106 10.7364 4.25779 10.9623C4.60498 11.1882 5.06956 11.0899 5.29547 10.7427L4.03819 9.92462ZM15.3562 4.96243C15.5194 4.58171 15.343 4.1408 14.9623 3.97763C14.5815 3.81447 14.1406 3.99083 13.9775 4.37155L15.3562 4.96243ZM12.6668 7.41955L12.1536 6.8727H12.1535L12.6668 7.41955ZM13.1365 8.94988C13.4294 9.24277 13.9043 9.24277 14.1972 8.94988C14.4901 8.65699 14.4901 8.18211 14.1972 7.88922L13.1365 8.94988ZM7.25016 11.0003C7.25016 11.4145 7.58595 11.7503 8.00016 11.7503C8.41438 11.7503 8.75016 11.4145 8.75016 11.0003H7.25016ZM10.7049 10.7427C10.9308 11.0899 11.3953 11.1882 11.7425 10.9623C12.0897 10.7364 12.188 10.2718 11.9621 9.92462L10.7049 10.7427ZM3.86383 7.94988C4.15672 7.65699 4.15672 7.18211 3.86383 6.88922C3.57093 6.59633 3.09606 6.59633 2.80317 6.88922L3.86383 7.94988ZM1.80317 7.88922C1.51027 8.18211 1.51027 8.65699 1.80317 8.94988C2.09606 9.24277 2.57093 9.24277 2.86383 8.94988L1.80317 7.88922ZM8.00016 8.58366C5.94294 8.58366 4.46149 7.5616 3.46642 6.48999C2.96911 5.95442 2.60383 5.4165 2.36338 5.01255C2.24358 4.81128 2.15594 4.64525 2.09937 4.5321C2.07111 4.47559 2.05069 4.43244 2.03797 4.4049C2.03161 4.39114 2.02718 4.38128 2.02467 4.37563C2.02341 4.3728 2.02263 4.37102 2.02233 4.37033C2.02218 4.36999 2.02215 4.36991 2.02224 4.37011C2.02228 4.37022 2.02235 4.37039 2.02246 4.37063C2.02251 4.37074 2.02261 4.37098 2.02263 4.37104C2.02274 4.37129 2.02285 4.37155 1.3335 4.66699C0.644137 4.96243 0.644267 4.96273 0.644405 4.96305C0.644461 4.96319 0.644606 4.96352 0.644719 4.96379C0.644944 4.96431 0.645201 4.9649 0.645489 4.96557C0.646065 4.9669 0.646767 4.96852 0.647595 4.97042C0.649252 4.97421 0.651413 4.97913 0.654082 4.98513C0.65942 4.99713 0.666793 5.01349 0.676222 5.0339C0.695075 5.07472 0.722183 5.13183 0.757728 5.20292C0.828761 5.34499 0.933827 5.54354 1.07444 5.77977C1.35483 6.25082 1.78121 6.87956 2.36723 7.51066C3.53884 8.77239 5.39072 10.0837 8.00016 10.0837V8.58366ZM10.1169 8.18824C9.49784 8.43192 8.79522 8.58366 8.00016 8.58366V10.0837C8.99172 10.0837 9.88029 9.8934 10.6663 9.58401L10.1169 8.18824ZM4.98007 8.47709L4.03819 9.92462L5.29547 10.7427L6.23734 9.29517L4.98007 8.47709ZM14.6668 4.66699C13.9775 4.37155 13.9775 4.3714 13.9776 4.37125C13.9776 4.37121 13.9777 4.37107 13.9777 4.37098C13.9778 4.37081 13.9779 4.37067 13.9779 4.37054C13.978 4.37029 13.9781 4.37013 13.9781 4.37005C13.9782 4.3699 13.9781 4.3701 13.9779 4.37063C13.9774 4.3717 13.9763 4.37412 13.9747 4.37785C13.9713 4.38532 13.9656 4.398 13.9574 4.41552C13.9411 4.45056 13.9151 4.50483 13.8792 4.57519C13.8073 4.71608 13.6964 4.92047 13.5449 5.16358C13.2406 5.65198 12.78 6.28472 12.1536 6.8727L13.1801 7.9664C13.9261 7.26623 14.4654 6.52269 14.818 5.95685C14.995 5.67284 15.1267 5.43062 15.2155 5.25668C15.2598 5.16962 15.2936 5.09942 15.3169 5.04935C15.3286 5.0243 15.3377 5.00427 15.3442 4.98965C15.3475 4.98234 15.3501 4.97639 15.3521 4.97183C15.3531 4.96956 15.3539 4.96763 15.3546 4.96606C15.355 4.96528 15.3553 4.96458 15.3555 4.96398C15.3557 4.96367 15.3558 4.96339 15.3559 4.96314C15.3559 4.96301 15.356 4.96283 15.356 4.96277C15.3561 4.9626 15.3562 4.96243 14.6668 4.66699ZM12.1535 6.8727C11.5988 7.39336 10.9225 7.87117 10.1169 8.18824L10.6663 9.58401C11.6841 9.18341 12.5177 8.58813 13.1801 7.9664L12.1535 6.8727ZM12.1365 7.94988L13.1365 8.94988L14.1972 7.88922L13.1972 6.88922L12.1365 7.94988ZM7.25016 9.33366V11.0003H8.75016V9.33366H7.25016ZM9.76298 9.29517L10.7049 10.7427L11.9621 9.92462L11.0203 8.47709L9.76298 9.29517ZM2.80317 6.88922L1.80317 7.88922L2.86383 8.94988L3.86383 7.94988L2.80317 6.88922Z" fill="#3B63B8"/>
</svg>
