<svg width="16" height="16" viewBox="0 0 16 16" fill="none" xmlns="http://www.w3.org/2000/svg">
<path d="M12.12 5.35939L12.429 5.05043C12.9409 4.53853 13.7708 4.53853 14.2827 5.05043C14.7946 5.56233 14.7946 6.39229 14.2827 6.90419L13.9738 7.21315M12.12 5.35939C12.12 5.35939 12.1586 6.01593 12.7379 6.59523C13.3172 7.17453 13.9738 7.21315 13.9738 7.21315M12.12 5.35939L9.27961 8.1998C9.08722 8.39219 8.99103 8.48838 8.9083 8.59445C8.81071 8.71956 8.72705 8.85494 8.65878 8.99818C8.60091 9.11961 8.55789 9.24866 8.47185 9.50678L8.19639 10.3332L8.10727 10.6005M13.9738 7.21315L11.1334 10.0536C10.941 10.2459 10.8448 10.3421 10.7387 10.4249C10.6136 10.5225 10.4782 10.6061 10.335 10.6744C10.2136 10.7323 10.0845 10.7753 9.82639 10.8613L9 11.1368L8.73264 11.2259M8.73264 11.2259L8.46528 11.315C8.33826 11.3574 8.19822 11.3243 8.10354 11.2296C8.00887 11.135 7.97581 10.9949 8.01815 10.8679L8.10727 10.6005M8.73264 11.2259L8.10727 10.6005" stroke="#626C76" stroke-width="1.2"/>
<path d="M5.33398 8.6665H7.00065" stroke="#626C76" stroke-width="1.2" stroke-linecap="round"/>
<path d="M5.33398 6H9.66732" stroke="#626C76" stroke-width="1.2" stroke-linecap="round"/>
<path d="M5.33398 11.3335H6.33398" stroke="#626C76" stroke-width="1.2" stroke-linecap="round"/>
<path d="M13.219 2.11454C12.4379 1.3335 11.1808 1.3335 8.66667 1.3335H7.33333C4.81918 1.3335 3.5621 1.3335 2.78105 2.11454C2 2.89559 2 4.15267 2 6.66683V9.3335C2 11.8477 2 13.1047 2.78105 13.8858C3.5621 14.6668 4.81918 14.6668 7.33333 14.6668H8.66667C11.1808 14.6668 12.4379 14.6668 13.219 13.8858C13.8477 13.2571 13.9703 12.3199 13.9942 10.6668" stroke="#626C76" stroke-width="1.5" stroke-linecap="round"/>
</svg>
