<svg width="16" height="16" viewBox="0 0 16 16" fill="none" xmlns="http://www.w3.org/2000/svg">
<g opacity="0.8">
<path d="M13.5414 8.43119L13.8865 7.14329C14.2893 5.6399 14.4907 4.88821 14.3391 4.23769C14.2193 3.72405 13.9499 3.25746 13.565 2.89692C13.0774 2.44031 12.3258 2.23889 10.8224 1.83606C9.31898 1.43323 8.56728 1.23181 7.91677 1.38349C7.40313 1.50326 6.93654 1.77264 6.576 2.15759C6.18505 2.575 5.98118 3.18606 5.6778 4.29675C5.62685 4.48329 5.57309 4.68393 5.51516 4.9001L5.51514 4.90019L5.17005 6.18809C4.76721 7.69148 4.5658 8.44317 4.71748 9.09369C4.83724 9.60733 5.10663 10.0739 5.49157 10.4345C5.97909 10.8911 6.73079 11.0925 8.23417 11.4953C9.58924 11.8584 10.3336 12.0579 10.9437 11.9826C11.0104 11.9744 11.0756 11.9629 11.1398 11.9479C11.6534 11.8281 12.12 11.5587 12.4805 11.1738C12.9372 10.6863 13.1386 9.93458 13.5414 8.43119Z" stroke="#3B63B8"/>
<path d="M10.943 11.9827C10.804 12.4084 10.5596 12.7935 10.231 13.1012C9.74346 13.5579 8.99177 13.7593 7.48838 14.1621C5.98499 14.5649 5.2333 14.7664 4.58278 14.6147C4.06915 14.4949 3.60255 14.2255 3.24202 13.8406C2.7854 13.3531 2.58398 12.6014 2.18115 11.098L1.83606 9.81008C1.43323 8.30669 1.23181 7.555 1.38349 6.90448C1.50326 6.39084 1.77264 5.92425 2.15759 5.56372C2.64511 5.1071 3.3968 4.90568 4.90019 4.50285C5.18461 4.42664 5.44213 4.35764 5.67715 4.29688" stroke="#3B63B8"/>
</g>
</svg>
