<svg width="12" height="12" viewBox="0 0 12 12" fill="none" xmlns="http://www.w3.org/2000/svg">
<path d="M10.8045 6.78078L10.9191 5.56316C11.0091 4.60685 11.0541 4.12869 10.8905 3.93104C10.802 3.82411 10.6817 3.7586 10.553 3.7473C10.3152 3.72641 10.0165 4.06645 9.41906 4.74653C9.11012 5.09825 8.95564 5.2741 8.78331 5.30133C8.68783 5.31642 8.59054 5.30091 8.50237 5.25654C8.34324 5.17646 8.23715 4.95906 8.02496 4.52426L6.90653 2.23243C6.50558 1.41081 6.3051 1 6 1C5.6949 1 5.49442 1.41081 5.09347 2.23243L3.97504 4.52426C3.76285 4.95906 3.65676 5.17646 3.49763 5.25654C3.40946 5.30091 3.31217 5.31642 3.21669 5.30133C3.04436 5.2741 2.88988 5.09825 2.58093 4.74653C1.98354 4.06645 1.68484 3.72641 1.44699 3.7473C1.31833 3.7586 1.19799 3.82411 1.10949 3.93104C0.945898 4.12869 0.9909 4.60685 1.0809 5.56316L1.1955 6.78078C1.38433 8.78708 1.47874 9.79023 2.07005 10.3951C2.66136 11 3.54758 11 5.32004 11H6.67996C8.45242 11 9.33864 11 9.92995 10.3951C10.5213 9.79023 10.6157 8.78708 10.8045 6.78078Z" fill="#FD9B53"/>
</svg>
