<svg width="16" height="16" viewBox="0 0 16 16" fill="none" xmlns="http://www.w3.org/2000/svg">
<path d="M14.6673 8.00004C14.6673 4.31814 11.6825 1.33337 8.00065 1.33337C4.31875 1.33337 1.33398 4.31814 1.33398 8.00004C1.33398 11.6819 4.31875 14.6667 8.00065 14.6667C11.6825 14.6667 14.6673 11.6819 14.6673 8.00004ZM8.00065 4.16671C8.27679 4.16671 8.50065 4.39057 8.50065 4.66671V8.66671C8.50065 8.94285 8.27679 9.16671 8.00065 9.16671C7.72451 9.16671 7.50065 8.94285 7.50065 8.66671V4.66671C7.50065 4.39057 7.72451 4.16671 8.00065 4.16671ZM8.00065 11.3334C8.36884 11.3334 8.66732 11.0349 8.66732 10.6667C8.66732 10.2985 8.36884 10 8.00065 10C7.63246 10 7.33398 10.2985 7.33398 10.6667C7.33398 11.0349 7.63246 11.3334 8.00065 11.3334Z" fill="#FC6E6E"/>
<path d="M14.6673 8.00004C14.6673 4.31814 11.6825 1.33337 8.00065 1.33337C4.31875 1.33337 1.33398 4.31814 1.33398 8.00004C1.33398 11.6819 4.31875 14.6667 8.00065 14.6667C11.6825 14.6667 14.6673 11.6819 14.6673 8.00004ZM8.00065 4.16671C8.27679 4.16671 8.50065 4.39057 8.50065 4.66671V8.66671C8.50065 8.94285 8.27679 9.16671 8.00065 9.16671C7.72451 9.16671 7.50065 8.94285 7.50065 8.66671V4.66671C7.50065 4.39057 7.72451 4.16671 8.00065 4.16671ZM8.00065 11.3334C8.36884 11.3334 8.66732 11.0349 8.66732 10.6667C8.66732 10.2985 8.36884 10 8.00065 10C7.63246 10 7.33398 10.2985 7.33398 10.6667C7.33398 11.0349 7.63246 11.3334 8.00065 11.3334Z" stroke="#FC6E6E"/>
</svg>
