<svg width="16" height="16" viewBox="0 0 16 16" fill="none" xmlns="http://www.w3.org/2000/svg">
<path d="M1.33301 7.99996C1.33301 5.4858 1.33301 4.22872 2.11406 3.44767C2.89511 2.66663 4.15218 2.66663 6.66634 2.66663H9.33301C11.8472 2.66663 13.1042 2.66663 13.8853 3.44767C14.6663 4.22872 14.6663 5.4858 14.6663 7.99996V9.33329C14.6663 11.8475 14.6663 13.1045 13.8853 13.8856C13.1042 14.6666 11.8472 14.6666 9.33301 14.6666H6.66634C4.15218 14.6666 2.89511 14.6666 2.11406 13.8856C1.33301 13.1045 1.33301 11.8475 1.33301 9.33329V7.99996Z" stroke="#3B63B8" stroke-width="1.2"/>
<path d="M4.66699 2.66663V1.66663" stroke="#3B63B8" stroke-width="1.2" stroke-linecap="round"/>
<path d="M11.333 2.66663V1.66663" stroke="#3B63B8" stroke-width="1.2" stroke-linecap="round"/>
<path d="M1.66699 6H14.3337" stroke="#3B63B8" stroke-width="1.2" stroke-linecap="round"/>
<path d="M11.5003 11.3333C11.5003 11.4254 11.4257 11.5 11.3337 11.5C11.2416 11.5 11.167 11.4254 11.167 11.3333C11.167 11.2413 11.2416 11.1667 11.3337 11.1667C11.4257 11.1667 11.5003 11.2413 11.5003 11.3333ZM11.5003 8.66667C11.5003 8.75871 11.4257 8.83333 11.3337 8.83333C11.2416 8.83333 11.167 8.75871 11.167 8.66667C11.167 8.57462 11.2416 8.5 11.3337 8.5C11.4257 8.5 11.5003 8.57462 11.5003 8.66667Z" fill="#626C76" stroke="#3B63B8"/>
<path d="M8.16634 11.3333C8.16634 11.4254 8.09172 11.5 7.99967 11.5C7.90763 11.5 7.83301 11.4254 7.83301 11.3333C7.83301 11.2413 7.90763 11.1667 7.99967 11.1667C8.09172 11.1667 8.16634 11.2413 8.16634 11.3333ZM8.16634 8.66667C8.16634 8.75871 8.09172 8.83333 7.99967 8.83333C7.90763 8.83333 7.83301 8.75871 7.83301 8.66667C7.83301 8.57462 7.90763 8.5 7.99967 8.5C8.09172 8.5 8.16634 8.57462 8.16634 8.66667Z" fill="#626C76" stroke="#3B63B8"/>
<path d="M4.83333 11.3333C4.83333 11.4254 4.75871 11.5 4.66667 11.5C4.57462 11.5 4.5 11.4254 4.5 11.3333C4.5 11.2413 4.57462 11.1667 4.66667 11.1667C4.75871 11.1667 4.83333 11.2413 4.83333 11.3333ZM4.83333 8.66667C4.83333 8.75871 4.75871 8.83333 4.66667 8.83333C4.57462 8.83333 4.5 8.75871 4.5 8.66667C4.5 8.57462 4.57462 8.5 4.66667 8.5C4.75871 8.5 4.83333 8.57462 4.83333 8.66667Z" fill="#626C76" stroke="#3B63B8"/>
</svg>
