<svg width="16" height="16" viewBox="0 0 16 16" fill="none" xmlns="http://www.w3.org/2000/svg">
<g opacity="0.8">
<path d="M2 6.66671C2 4.15255 2 2.89547 2.78105 2.11442C3.5621 1.33337 4.81918 1.33337 7.33333 1.33337H8.66667C11.1808 1.33337 12.4379 1.33337 13.219 2.11442C14 2.89547 14 4.15255 14 6.66671V9.33337C14 11.8475 14 13.1046 13.219 13.8857C12.4379 14.6667 11.1808 14.6667 8.66667 14.6667H7.33333C4.81918 14.6667 3.5621 14.6667 2.78105 13.8857C2 13.1046 2 11.8475 2 9.33337V6.66671Z" stroke="#626C76" stroke-width="1.5"/>
<path d="M5.33301 6.66663H10.6663" stroke="#626C76" stroke-width="1.5" stroke-linecap="round"/>
<path d="M5.33301 9.33337H8.66634" stroke="#626C76" stroke-width="1.5" stroke-linecap="round"/>
</g>
</svg>
