<svg width="16" height="16" viewBox="0 0 16 16" fill="none" xmlns="http://www.w3.org/2000/svg">
<path d="M5.67294 1.33338H10.3263C10.4813 1.33334 10.6002 1.33331 10.704 1.34347C11.4426 1.41572 12.0471 1.85976 12.3034 2.45789H3.69586C3.9522 1.85976 4.55671 1.41572 5.29525 1.34347C5.39912 1.33331 5.51795 1.33334 5.67294 1.33338Z" fill="#FF542C"/>
<path d="M4.20669 3.14879C3.2796 3.14879 2.51943 3.70862 2.26574 4.45131C2.26045 4.4668 2.25538 4.48236 2.25054 4.498C2.51597 4.41762 2.79221 4.3651 3.07186 4.32925C3.79211 4.23692 4.70233 4.23696 5.75969 4.23702H10.3544C11.4118 4.23696 12.322 4.23692 13.0422 4.32925C13.3219 4.3651 13.5981 4.41762 13.8636 4.498C13.8587 4.48236 13.8537 4.4668 13.8484 4.45131C13.5947 3.70862 12.8345 3.14879 11.9074 3.14879H4.20669Z" fill="#FF542C"/>
<path fill-rule="evenodd" clip-rule="evenodd" d="M5.78127 5.02807H10.2181C12.468 5.02807 13.5929 5.02807 14.2248 5.68596C14.8567 6.34384 14.708 7.36025 14.4107 9.39307L14.1287 11.3208C13.8955 12.915 13.7789 13.712 13.1808 14.1894C12.5827 14.6667 11.7005 14.6667 9.9361 14.6667H6.06325C4.29888 14.6667 3.41669 14.6667 2.81857 14.1894C2.22044 13.712 2.10385 12.915 1.87066 11.3208L1.58868 9.39307C1.29133 7.36025 1.14265 6.34384 1.77455 5.68596C2.40645 5.02807 3.53139 5.02807 5.78127 5.02807ZM5.33301 12.0001C5.33301 11.724 5.58174 11.5001 5.88856 11.5001H10.1108C10.4176 11.5001 10.6663 11.724 10.6663 12.0001C10.6663 12.2763 10.4176 12.5001 10.1108 12.5001H5.88856C5.58174 12.5001 5.33301 12.2763 5.33301 12.0001Z" fill="#FF542C"/>
</svg>
