<svg width="16" height="16" viewBox="0 0 16 16" fill="none" xmlns="http://www.w3.org/2000/svg">
<path fill-rule="evenodd" clip-rule="evenodd" d="M2.78105 2.11442C2 2.89547 2 4.15255 2 6.66671V9.33337C2 11.8475 2 13.1046 2.78105 13.8857C3.5621 14.6667 4.81918 14.6667 7.33333 14.6667H8.66667C11.1808 14.6667 12.4379 14.6667 13.219 13.8857C14 13.1046 14 11.8475 14 9.33337V6.66671C14 4.15255 14 2.89547 13.219 2.11442C12.4379 1.33337 11.1808 1.33337 8.66667 1.33337H7.33333C4.81918 1.33337 3.5621 1.33337 2.78105 2.11442ZM5.33333 6.16671C5.05719 6.16671 4.83333 6.39056 4.83333 6.66671C4.83333 6.94285 5.05719 7.16671 5.33333 7.16671H10.6667C10.9428 7.16671 11.1667 6.94285 11.1667 6.66671C11.1667 6.39056 10.9428 6.16671 10.6667 6.16671H5.33333ZM5.33333 8.83337C5.05719 8.83337 4.83333 9.05723 4.83333 9.33337C4.83333 9.60952 5.05719 9.83337 5.33333 9.83337H8.66667C8.94281 9.83337 9.16667 9.60952 9.16667 9.33337C9.16667 9.05723 8.94281 8.83337 8.66667 8.83337H5.33333Z" fill="#3B63B8"/>
</svg>
