<svg width="16" height="16" viewBox="0 0 16 16" fill="none" xmlns="http://www.w3.org/2000/svg">
<path d="M14.1279 1.87082C14.8445 2.58749 14.8445 3.74943 14.1279 4.46609L13.7975 4.79645C13.7013 4.77563 13.5802 4.74392 13.4421 4.69602C13.0725 4.56781 12.5869 4.32551 12.13 3.86866C11.6732 3.41182 11.4309 2.92615 11.3027 2.55659C11.2548 2.41853 11.2231 2.29739 11.2022 2.20119L11.5326 1.87082C12.2493 1.15416 13.4112 1.15416 14.1279 1.87082Z" fill="#3B63B8"/>
<path d="M9.71875 8.87521C9.4494 9.14455 9.31473 9.27922 9.16624 9.39504C8.99108 9.53166 8.80155 9.6488 8.60102 9.74437C8.43102 9.82539 8.25034 9.88561 7.88898 10.0061L5.98342 10.6413C5.8056 10.7005 5.60954 10.6542 5.47699 10.5217C5.34445 10.3892 5.29816 10.1931 5.35744 10.0153L5.99263 8.10971C6.11308 7.74835 6.17331 7.56767 6.25432 7.39767C6.34989 7.19714 6.46703 7.00761 6.60365 6.83245C6.71947 6.68396 6.85414 6.54929 7.12348 6.27995L10.4009 3.00256C10.5767 3.46535 10.8849 4.03775 11.4229 4.57577C11.9609 5.11379 12.5333 5.42197 12.9961 5.59782L9.71875 8.87521Z" fill="#3B63B8"/>
<path d="M13.6891 13.6904C14.6654 12.714 14.6654 11.1427 14.6654 8C14.6654 6.96782 14.6654 6.10515 14.6308 5.37739L10.3893 9.61885C10.1552 9.85311 9.97925 10.0291 9.78126 10.1836C9.54883 10.3648 9.29734 10.5203 9.03124 10.6471C8.80458 10.7551 8.56845 10.8338 8.2542 10.9384L6.29965 11.5899C5.76248 11.769 5.17026 11.6292 4.76989 11.2288C4.36951 10.8284 4.2297 10.2362 4.40876 9.69904L5.06027 7.74449C5.16494 7.43023 5.24358 7.19411 5.3516 6.96745C5.47842 6.70135 5.63385 6.44986 5.81514 6.21743C5.96956 6.01945 6.14558 5.84351 6.37985 5.60935L10.6213 1.36792C9.89354 1.33333 9.03087 1.33333 7.9987 1.33333C4.856 1.33333 3.28465 1.33333 2.30834 2.30964C1.33203 3.28595 1.33203 4.8573 1.33203 8C1.33203 11.1427 1.33203 12.714 2.30834 13.6904C3.28465 14.6667 4.856 14.6667 7.9987 14.6667C11.1414 14.6667 12.7127 14.6667 13.6891 13.6904Z" fill="#3B63B8"/>
</svg>
