<svg width="16" height="16" viewBox="0 0 16 16" fill="none" xmlns="http://www.w3.org/2000/svg">
<path d="M1.33301 10.7626V3.33203C1.33301 2.59992 1.92387 2.00518 2.65461 2.05009C3.30552 2.09009 4.07533 2.16917 4.66634 2.32513C5.36581 2.5097 6.19708 2.90284 6.85451 3.25047C7.05921 3.35871 7.27689 3.43379 7.49967 3.47612L7.49968 13.5952C7.29771 13.5507 7.10068 13.4788 6.91462 13.3797C6.2483 13.0245 5.38731 12.6127 4.66634 12.4224C4.08187 12.2682 3.32253 12.1891 2.67625 12.1487C1.93704 12.1025 1.33301 11.5032 1.33301 10.7626Z" fill="#FF542C"/>
<path d="M8.49968 13.5952C8.70164 13.5507 8.89867 13.4788 9.08473 13.3797C9.75105 13.0245 10.612 12.6127 11.333 12.4224C11.9175 12.2682 12.6768 12.1891 13.3231 12.1487C14.0623 12.1025 14.6663 11.5032 14.6663 10.7626V3.28896C14.6663 2.57399 14.1022 1.9871 13.3877 2.01199C12.6353 2.0382 11.6976 2.11618 10.9997 2.32513C10.3946 2.50627 9.68988 2.86962 9.11557 3.202C8.92125 3.31446 8.71356 3.39706 8.49967 3.44944L8.49968 13.5952Z" fill="#FF542C"/>
</svg>
