<svg width="288" height="272" viewBox="0 0 288 272" fill="none" xmlns="http://www.w3.org/2000/svg">
<path d="M116.38 170.14C116.38 188.164 106.554 201.397 92.4796 207.043C87.8243 208.902 82.7212 209.934 77.3467 210.042C77.0617 210.056 76.7631 210.056 76.4781 210.056C54.437 210.056 36.5625 192.181 36.5625 170.154C36.5625 162.377 38.4355 155.116 41.9642 148.968C42.8735 147.366 43.905 145.833 45.0586 144.408L46.4294 142.779L46.4837 142.711C53.3783 135.029 63.6117 130.252 76.4781 130.252C98.5191 130.211 116.38 148.086 116.38 170.14Z" fill="#FFD2C4"/>
<path d="M192.004 97.0409L185.91 103.121L159.092 76.2756C160.123 74.4705 161.29 72.7469 162.58 71.1318L164.127 69.286L164.195 69.2181L192.004 97.0409Z" fill="#FF7E60"/>
<path d="M73.6553 111.196C72.2845 109.703 70.9816 108.156 69.7872 106.514C69.3936 105.971 68.4707 106.5 68.8779 107.043C70.113 108.767 71.4702 110.382 72.9088 111.943C73.3703 112.459 74.1167 111.699 73.6553 111.196Z" fill="#FFD2C4"/>
<path d="M83.1826 89.3183V92.1413C83.1826 92.8199 84.2412 92.8199 84.2412 92.1413V89.3183C84.2412 88.6262 83.1826 88.6262 83.1826 89.3183Z" fill="#FFD2C4"/>
<path d="M199.835 160.545L205.657 158.753L203.974 164.766L199.835 160.545Z" fill="#FF7E60"/>
<path d="M184.58 115.892L180.115 119.353L184.58 123.086L188.598 119.353L184.58 115.892Z" fill="#C3DDF0"/>
<path d="M190.891 178.27C189.86 177.32 188.733 176.492 187.797 175.447C187.335 174.931 186.589 175.691 187.05 176.193C187.987 177.238 189.127 178.066 190.145 179.016C190.647 179.491 191.393 178.731 190.891 178.27Z" fill="#FF7E60"/>
<path d="M47.8008 67.3177V74.8231L55.5233 69.0956L47.8008 67.3177Z" fill="#C3DDF0"/>
<path d="M210.911 85.3823C205.088 85.3823 200.352 80.6457 200.352 74.8233C200.352 68.6072 204.695 64.2642 210.911 64.2642C216.733 64.2642 221.47 69.0008 221.47 74.8233C221.47 80.9443 217.032 85.3823 210.911 85.3823ZM210.911 65.3228C205.319 65.3228 201.41 69.2315 201.41 74.8233C201.41 80.0621 205.672 84.3237 210.911 84.3237C216.421 84.3237 220.411 80.3335 220.411 74.8233C220.411 69.5844 216.149 65.3228 210.911 65.3228Z" fill="#262A39"/>
<path d="M203.392 144.896C203.242 144.896 203.093 144.828 202.998 144.72C201.288 142.792 200.338 140.295 200.338 137.716C200.338 131.5 204.681 127.157 210.897 127.157C216.719 127.157 221.456 131.894 221.456 137.716C221.456 138.911 221.293 140.064 220.954 141.15C220.913 141.299 220.791 141.422 220.642 141.489C215.281 143.634 209.472 144.774 203.392 144.896ZM210.911 128.216C205.319 128.216 201.41 132.125 201.41 137.716C201.41 139.956 202.197 142.127 203.636 143.837C209.404 143.702 214.914 142.616 220.031 140.594C220.289 139.684 220.411 138.721 220.411 137.716C220.411 132.478 216.149 128.216 210.911 128.216Z" fill="#262A39"/>
<path d="M213.992 120.439C208.237 120.439 203.039 117.263 200.419 112.133C200.284 111.875 200.392 111.549 200.65 111.414C200.908 111.278 201.234 111.386 201.37 111.644C203.812 116.408 208.644 119.367 213.992 119.367C222.203 119.367 228.161 113.409 228.161 105.198C228.161 97.3801 221.809 91.0283 213.992 91.0283C205.645 91.0283 199.822 96.8508 199.822 105.198C199.822 105.496 199.592 105.727 199.293 105.727C198.994 105.727 198.764 105.496 198.764 105.198C198.764 96.2265 205.02 89.9697 213.992 89.9697C222.393 89.9697 229.219 96.7965 229.219 105.198C229.219 114.033 222.813 120.439 213.992 120.439Z" fill="#262A39"/>
<path d="M215.443 69.3266C213.57 72.0546 211.453 74.8776 210.408 78.0535C209.282 76.7099 208.223 75.3119 207.096 73.9683C206.649 73.4525 205.902 74.199 206.35 74.7148C207.68 76.2891 208.902 77.9585 210.259 79.5193C210.517 79.8179 211.046 79.655 211.141 79.2886C212.01 75.8005 214.371 72.7604 216.366 69.8559C216.746 69.2995 215.823 68.7702 215.443 69.3266Z" fill="#262A39"/>
<path d="M213.476 135.314C212.227 137.174 211.114 139.128 209.703 140.879C208.861 140.159 208.237 139.236 207.409 138.49C206.907 138.029 206.16 138.775 206.663 139.236C207.667 140.146 208.413 141.286 209.513 142.087C209.689 142.209 210.015 142.168 210.151 142.005C211.766 140.092 213.001 137.92 214.385 135.843C214.765 135.273 213.856 134.744 213.476 135.314Z" fill="#262A39"/>
<path d="M212.893 94.9236V108.55C212.893 109.229 213.951 109.229 213.951 108.55V94.9236C213.951 94.245 212.893 94.245 212.893 94.9236Z" fill="#262A39"/>
<path d="M213.815 113.259C213.923 112.757 214.018 112.242 214.086 111.739C214.181 111.074 213.15 110.844 213.055 111.522C212.987 112.038 212.892 112.54 212.783 113.042C212.634 113.707 213.665 113.938 213.815 113.259Z" fill="#262A39"/>
<path d="M189.67 129.695H168.688C168.389 129.695 168.158 129.464 168.158 129.166C168.158 128.867 168.389 128.636 168.688 128.636H189.67C189.969 128.636 190.199 128.867 190.199 129.166C190.199 129.464 189.969 129.695 189.67 129.695Z" fill="#262A39"/>
<path d="M189.671 75.9225H175.542C175.243 75.9225 175.013 75.6918 175.013 75.3932C175.013 75.0946 175.243 74.8639 175.542 74.8639H189.671C189.969 74.8639 190.2 75.0946 190.2 75.3932C190.2 75.6782 189.969 75.9225 189.671 75.9225Z" fill="#262A39"/>
<path d="M191.557 105.564H157.79C157.776 105.564 157.763 105.564 157.749 105.564C157.83 105.917 157.898 106.27 157.953 106.623H191.571C191.869 106.623 192.1 106.392 192.1 106.093C192.086 105.808 191.842 105.564 191.557 105.564Z" fill="#262A39"/>
<path d="M202.414 151.03C196.117 151.03 189.982 149.918 184.173 147.705C180.02 146.158 176.044 144.027 172.352 141.394C158.834 131.704 150.759 116.001 150.759 99.3886C150.759 68.9735 171.999 47.7332 202.414 47.7332C230.888 47.7332 254.056 70.9007 254.056 99.3886C254.056 129.315 232.327 151.03 202.414 151.03ZM202.414 48.7918C172.623 48.7918 151.817 69.5978 151.817 99.3886C151.817 115.662 159.73 131.039 172.976 140.539C176.586 143.118 180.482 145.194 184.553 146.728C190.24 148.886 196.252 149.972 202.414 149.972C231.73 149.972 252.997 128.704 252.997 99.3886C252.997 71.4843 230.305 48.7918 202.414 48.7918Z" fill="#262A39"/>
<path d="M202.415 144.909C177.307 144.909 156.881 124.483 156.881 99.3884C156.881 90.5937 159.012 82.2468 163.043 75.2436C164.074 73.4385 165.255 71.6742 166.571 70.0319L168.132 68.1725C168.132 68.1725 168.2 68.0911 168.214 68.0911C176.56 58.7807 188.395 53.8676 202.415 53.8676C227.51 53.8676 247.936 74.2936 247.936 99.402C247.936 118.919 237.743 134.649 220.67 141.489C215.295 143.647 209.486 144.787 203.42 144.909C203.08 144.909 202.741 144.909 202.415 144.909ZM202.415 54.9126C188.694 54.9126 177.144 59.7036 169.001 68.7833L167.399 70.6834C166.123 72.2849 164.97 73.995 163.965 75.7594C160.03 82.6133 157.939 90.7837 157.939 99.3884C157.939 123.9 177.89 143.851 202.415 143.851C202.741 143.851 203.067 143.851 203.379 143.837C209.323 143.728 215.01 142.602 220.263 140.498C236.916 133.821 246.864 118.457 246.864 99.3884C246.864 74.8636 226.926 54.9126 202.415 54.9126Z" fill="#262A39"/>
<path d="M138.219 223.709C138.124 223.709 138.029 223.682 137.947 223.628L129.777 218.62C129.533 218.47 129.451 218.158 129.587 217.914L137.812 203.093C137.947 202.835 138.273 202.74 138.531 202.89C138.789 203.025 138.884 203.351 138.734 203.609L130.754 217.982L138.029 222.447L147.991 206.052C148.14 205.808 148.466 205.726 148.724 205.876C148.968 206.025 149.049 206.351 148.9 206.608L138.667 223.465C138.599 223.587 138.477 223.669 138.341 223.709C138.314 223.709 138.259 223.709 138.219 223.709Z" fill="#262A39"/>
<path d="M158.332 190.594C158.237 190.594 158.142 190.567 158.061 190.512C157.817 190.363 157.735 190.037 157.885 189.78L183.916 146.932C184.065 146.688 184.391 146.607 184.649 146.756C184.893 146.905 184.974 147.231 184.825 147.489L158.794 190.336C158.685 190.499 158.509 190.594 158.332 190.594Z" fill="#262A39"/>
<path d="M149.035 184.323C148.954 184.323 148.859 184.296 148.777 184.256C148.52 184.12 148.425 183.794 148.574 183.536L172.203 140.703C172.339 140.445 172.664 140.35 172.922 140.499C173.18 140.635 173.275 140.961 173.126 141.218L149.497 184.052C149.402 184.228 149.212 184.323 149.035 184.323Z" fill="#262A39"/>
<path d="M158.333 190.593C158.238 190.593 158.143 190.566 158.062 190.512C157.817 190.363 157.736 190.037 157.885 189.779L177.226 157.925C173.724 156.134 170.209 154.397 166.761 152.754L150.692 181.867C150.556 182.124 150.231 182.219 149.973 182.07C149.715 181.934 149.62 181.609 149.769 181.351L166.083 151.804C166.219 151.56 166.517 151.465 166.775 151.587C170.548 153.365 174.403 155.265 178.23 157.247C178.366 157.315 178.461 157.437 178.501 157.573C178.542 157.708 178.515 157.871 178.447 157.993L158.795 190.336C158.686 190.498 158.51 190.593 158.333 190.593Z" fill="#262A39"/>
<path d="M140.716 219.61C140.621 219.61 140.54 219.583 140.458 219.543L131.989 214.657C131.745 214.507 131.65 214.195 131.786 213.937L137.825 203.093C137.961 202.835 138.287 202.74 138.545 202.89C138.803 203.025 138.898 203.351 138.748 203.609L132.967 214.005L140.526 218.362L148.004 206.052C148.154 205.808 148.479 205.726 148.737 205.876C148.982 206.025 149.063 206.351 148.914 206.608L141.164 219.366C141.069 219.516 140.893 219.61 140.716 219.61Z" fill="#262A39"/>
<path d="M190.322 102.863C190.186 102.863 190.05 102.809 189.942 102.714L163.123 75.8679C162.96 75.705 162.92 75.4336 163.042 75.23C164.073 73.4249 165.254 71.6606 166.57 70.0183L168.131 68.159C168.226 68.0504 168.403 67.9418 168.552 67.9282C168.701 67.9282 168.878 67.9418 168.986 68.0504L196.809 95.8732C196.904 95.9682 196.958 96.1039 196.958 96.2532C196.958 96.3889 196.904 96.5246 196.809 96.6332L190.715 102.714C190.593 102.809 190.457 102.863 190.322 102.863ZM164.155 75.4064L190.322 101.573L195.669 96.2396L168.633 69.2176L167.398 70.6969C166.204 72.1763 165.118 73.7642 164.155 75.4064Z" fill="#262A39"/>
<path d="M199.293 105.211L196.104 96.715L190.797 102.022L199.293 105.211Z" fill="#262A39"/>
<path d="M199.292 105.741C199.224 105.741 199.17 105.727 199.102 105.713L190.606 102.524C190.443 102.456 190.308 102.32 190.28 102.144C190.253 101.968 190.294 101.791 190.43 101.655L195.736 96.3487C195.859 96.2266 196.049 96.1723 196.225 96.1994C196.401 96.2401 196.551 96.3623 196.605 96.5251L199.794 105.021C199.862 105.211 199.822 105.428 199.672 105.578C199.564 105.686 199.428 105.741 199.292 105.741ZM191.746 101.818L198.383 104.302L195.899 97.6652L191.746 101.818Z" fill="#262A39"/>
<path d="M148.058 206.852C145.33 206.852 141.584 205.753 136.549 202.347C131.025 198.614 129.139 198.736 121.199 199.225C116.462 199.524 109.975 199.917 99.5379 199.741C65.4583 199.13 48.3711 189.752 47.326 171.063C46.1317 149.619 63.1918 138.558 76.1396 132.097C88.9245 125.718 111.644 125.257 111.861 125.257C112.174 125.257 112.391 125.488 112.404 125.773C112.404 126.071 112.174 126.302 111.889 126.316C111.658 126.316 89.1824 126.777 76.6146 133.047C63.9383 139.372 47.231 150.189 48.3846 171.009C49.389 189.032 66.1369 198.085 99.5515 198.682C109.961 198.872 116.422 198.465 121.131 198.166C128.962 197.678 131.324 197.528 137.146 201.464C146.511 207.789 150.922 205.794 152.713 204.043C152.917 203.839 153.256 203.839 153.46 204.057C153.663 204.26 153.663 204.599 153.446 204.803C152.456 205.78 150.745 206.852 148.058 206.852Z" fill="#262A39"/>
<path d="M151.288 178.813C151.193 178.813 151.098 178.785 151.003 178.731C147.515 176.532 131.255 176.166 115.539 175.827C103.161 175.555 90.3762 175.27 83.1965 174.089C76.9262 173.058 73.5468 170.004 74.1575 165.905C74.8497 161.223 81.0657 156.283 87.7432 157.179C88.0146 157.219 88.2047 157.436 88.2047 157.708C88.2047 157.993 88.0961 164.643 82.3958 169.556C82.1786 169.746 81.8393 169.719 81.6493 169.502C81.4593 169.285 81.4865 168.946 81.7036 168.756C86.196 164.874 86.9832 159.744 87.1189 158.169C81.1879 157.654 75.8269 161.956 75.2161 166.055C74.7004 169.543 77.6727 172.094 83.3866 173.031C90.4848 174.198 103.243 174.483 115.58 174.754C132.165 175.121 147.84 175.46 151.586 177.822C151.831 177.985 151.912 178.31 151.749 178.555C151.627 178.731 151.464 178.813 151.288 178.813Z" fill="#262A39"/>
<path d="M75.4747 163.585C75.2576 163.585 75.0676 163.449 74.9861 163.245C72.8825 157.762 62.527 150.379 53.0672 151.791C52.7822 151.831 52.5107 151.628 52.47 151.343C52.4293 151.058 52.6329 150.786 52.9179 150.745C63.0156 149.239 73.7104 156.934 75.9769 162.865C76.0855 163.137 75.9498 163.449 75.6783 163.544C75.5969 163.571 75.529 163.585 75.4747 163.585Z" fill="#262A39"/>
<path d="M158.44 189.073C158.087 189.874 157.572 189.942 157.368 189.955C154.939 190.227 150.026 185.192 148.858 182.341C148.75 182.07 148.438 181.948 148.166 182.056C147.895 182.165 147.773 182.477 147.881 182.749C149.048 185.599 153.975 191.028 157.192 191.028C157.287 191.028 157.395 191.028 157.49 191.014C158.318 190.919 159.377 190.39 159.73 188.408C159.295 188.598 158.861 188.815 158.44 189.073Z" fill="#262A39"/>
<path d="M156.825 195.805C154.749 195.805 152.197 195.126 149.211 193.239C148.967 193.09 148.886 192.751 149.049 192.506C149.198 192.262 149.524 192.181 149.781 192.344C157.993 197.501 161.603 192.941 161.996 192.398C163.096 190.864 162.594 187.593 161.006 185.924C160.802 185.707 160.816 185.381 161.019 185.178C161.236 184.974 161.562 184.988 161.766 185.191C163.72 187.254 164.249 191.054 162.851 193.009C161.888 194.352 159.866 195.805 156.825 195.805Z" fill="#262A39"/>
<path d="M155.279 200.419C152.999 200.419 150.067 199.157 146.172 197.325C145.901 197.202 145.792 196.89 145.914 196.619C146.036 196.361 146.348 196.239 146.62 196.361C151.967 198.872 155.36 200.27 157.437 198.668C159.459 197.094 159.228 195.452 159.215 195.384C159.174 195.099 159.364 194.827 159.649 194.773C159.934 194.719 160.206 194.922 160.26 195.207C160.273 195.302 160.626 197.528 158.088 199.51C157.274 200.134 156.351 200.419 155.279 200.419Z" fill="#262A39"/>
<path d="M152.428 204.627C150.148 204.627 147.217 203.365 143.321 201.532C143.05 201.41 142.941 201.098 143.064 200.827C143.186 200.569 143.498 200.447 143.769 200.569C149.117 203.08 152.51 204.477 154.586 202.876C156.608 201.302 156.378 199.659 156.364 199.591C156.323 199.306 156.513 199.035 156.798 198.981C157.084 198.926 157.355 199.116 157.409 199.415C157.423 199.51 157.776 201.736 155.238 203.717C154.423 204.355 153.5 204.627 152.428 204.627Z" fill="#262A39"/>
<path d="M81.5961 173.75C81.5825 173.75 81.5553 173.75 81.5418 173.75C81.2568 173.723 81.0396 173.451 81.0667 173.166L82.7497 157.911C82.7768 157.626 83.0347 157.409 83.3333 157.436C83.6183 157.463 83.8355 157.735 83.8083 158.02L82.1254 173.275C82.0847 173.546 81.8675 173.75 81.5961 173.75Z" fill="#262A39"/>
<path d="M88.002 157.599L83.2653 157.952L82.5596 168.511L86.2512 164.046L88.002 157.599Z" fill="#262A39"/>
<path d="M125.786 139.888C125.053 139.888 124.239 139.82 123.356 139.671C118.023 138.775 112.743 134.052 110.924 130.17C110.056 128.324 109.961 126.709 110.653 125.515C110.802 125.257 111.128 125.176 111.372 125.325C111.63 125.474 111.712 125.8 111.562 126.044C110.924 127.157 111.386 128.65 111.888 129.709C113.598 133.346 118.538 137.771 123.546 138.612C126.288 139.074 128.175 138.789 129.152 137.757C130.007 136.861 130.224 135.341 129.803 133.238C129.749 132.953 129.925 132.668 130.21 132.613C130.495 132.559 130.78 132.735 130.835 133.02C131.337 135.491 131.025 137.336 129.912 138.49C129.016 139.426 127.632 139.888 125.786 139.888Z" fill="#262A39"/>
<path d="M148.383 177.795C148.084 177.795 147.854 177.564 147.854 177.266C147.854 148.425 143.619 137.065 131.608 130.863C131.35 130.727 131.241 130.415 131.377 130.143C131.513 129.885 131.825 129.777 132.096 129.913C144.542 136.332 148.912 147.923 148.912 177.252C148.912 177.564 148.668 177.795 148.383 177.795Z" fill="#262A39"/>
<path d="M140.308 176.75C140.294 176.75 140.281 176.75 140.267 176.75C139.982 176.723 139.751 176.478 139.779 176.18L140.905 160.721C140.932 160.423 141.19 160.205 141.475 160.233C141.76 160.26 141.991 160.504 141.964 160.803L140.837 176.261C140.81 176.533 140.579 176.75 140.308 176.75Z" fill="#262A39"/>
<path d="M143.619 172.502C142.71 172.502 141.692 172.421 140.525 172.19C140.24 172.136 140.05 171.851 140.104 171.566C140.158 171.281 140.443 171.091 140.728 171.145C145.614 172.081 147.962 170.439 147.989 170.426C148.22 170.249 148.559 170.304 148.722 170.548C148.899 170.779 148.844 171.118 148.614 171.281C148.532 171.335 146.917 172.502 143.619 172.502Z" fill="#262A39"/>
<path d="M140.878 103.935C140.661 103.935 140.457 103.8 140.376 103.583C140.281 103.311 140.43 102.999 140.702 102.904C141.747 102.538 142.575 101.9 142.805 101.289C142.914 101.004 142.887 100.732 142.737 100.447C142.33 99.7009 140.417 99.8774 139.562 100.081C139.277 100.149 138.992 99.9724 138.924 99.6874C138.856 99.4023 139.032 99.1173 139.317 99.0495C139.67 98.968 142.765 98.2894 143.674 99.9317C143.973 100.488 144.027 101.085 143.81 101.655C143.457 102.578 142.439 103.42 141.068 103.895C141 103.935 140.932 103.935 140.878 103.935Z" fill="#262A39"/>
<path d="M132.301 95.9956L132.654 96.9863C133.102 98.2757 135.111 97.5699 134.649 96.2806L134.296 95.2898C133.835 94.0005 131.84 94.7062 132.301 95.9956Z" fill="#262A39"/>
<path d="M132.124 89.4535C131.595 89.8335 131.134 90.3085 130.577 90.6343C129.994 90.9871 130.428 91.9508 131.012 91.5979C131.649 91.2179 132.179 90.7021 132.79 90.2678C133.36 89.8742 132.681 89.0599 132.124 89.4535Z" fill="#262A39"/>
<path d="M129.885 126.316C129.614 126.316 129.383 126.112 129.356 125.841C129.329 125.556 129.532 125.284 129.817 125.257C129.899 125.243 137.934 124.307 141.204 120.493C143.865 117.385 143.647 113.124 140.376 103.582C140.281 103.311 140.431 102.999 140.702 102.904C140.987 102.809 141.286 102.958 141.381 103.229C144.353 111.875 145.33 117.29 142.019 121.172C138.476 125.311 130.292 126.261 129.94 126.302C129.926 126.316 129.899 126.316 129.885 126.316Z" fill="#262A39"/>
<path d="M132.803 125.175L130.862 130.523C128.555 129.668 127.388 127.13 126.994 124.849C128.908 125.148 130.862 125.257 132.803 125.175Z" fill="#262A39"/>
<path d="M129.885 126.315C125.583 126.315 121.837 117.046 118.824 109.608C117.657 106.717 116.34 103.46 115.743 102.985C112.852 103.854 110.925 105.048 110.233 106.405C109.894 107.07 109.853 107.762 110.097 108.468C110.246 108.902 110.654 109.69 111.658 110.137C112.771 110.64 114.25 110.545 115.96 109.866C116.096 109.812 116.245 109.812 116.367 109.88C116.503 109.934 116.598 110.042 116.652 110.178C118.064 113.91 118.227 116.774 117.141 118.457C116.544 119.394 115.553 119.936 114.372 120.018C110.572 120.249 108.618 117.86 104.913 108.387L102.09 100.379C100.027 94.5159 100.814 86.3862 116.313 80.9167C126.153 77.4422 132.613 79.6545 135.531 87.4856C136.223 89.345 136.848 90.9872 137.418 92.5344C138.327 94.9502 139.141 97.0946 139.969 99.4155C140.064 99.6869 139.929 99.9991 139.644 100.094C139.372 100.189 139.06 100.053 138.965 99.7683C138.137 97.4611 137.336 95.3167 136.427 92.9144C135.843 91.3808 135.219 89.7386 134.527 87.8656C131.826 80.5774 125.977 78.6366 116.652 81.921C108.55 84.7847 99.6195 90.2407 103.067 100.04L105.89 108.034C109.636 117.602 111.278 119.163 114.304 118.986C114.902 118.946 115.716 118.729 116.259 117.914C117.1 116.611 116.965 114.195 115.852 111.074C113.639 111.834 112.133 111.535 111.237 111.128C110.233 110.667 109.473 109.852 109.12 108.848C108.876 108.169 108.713 107.111 109.31 105.957C110.151 104.301 112.282 102.958 115.621 101.967C116.775 101.804 117.603 103.718 119.842 109.242C122.421 115.634 126.329 125.284 129.926 125.297C130.225 125.297 130.455 125.528 130.455 125.827C130.415 126.071 130.17 126.315 129.885 126.315Z" fill="#262A39"/>
<path d="M129.193 136.983C129.139 136.983 129.084 136.97 129.017 136.956C128.745 136.861 128.596 136.563 128.691 136.291L132.301 125.624C132.396 125.352 132.695 125.203 132.966 125.298C133.237 125.393 133.387 125.691 133.292 125.963L129.682 136.63C129.614 136.834 129.41 136.983 129.193 136.983Z" fill="#262A39"/>
<path d="M125.705 108.21C123.411 108.21 122.108 103.623 120.452 97.8139C119.882 95.8053 119.285 93.7423 118.647 91.8558C118.254 90.7157 118.281 89.7114 118.729 88.8564C119.679 87.0241 122.298 86.2777 125.053 85.4905C127.713 84.7304 130.469 83.9432 131.161 82.1924C131.269 81.921 131.581 81.7853 131.853 81.8939C132.124 82.0024 132.26 82.3146 132.151 82.586C131.269 84.8119 128.256 85.6805 125.352 86.5084C122.922 87.2006 120.425 87.9199 119.679 89.3449C119.367 89.9421 119.367 90.6479 119.665 91.5165C120.317 93.4301 120.914 95.5067 121.484 97.5289C122.773 102.048 124.225 107.152 125.718 107.152H125.732C126.546 107.124 128.27 106.31 130.089 105.428C133.794 103.65 138.408 101.424 141.15 102.944C141.408 103.08 141.503 103.406 141.353 103.664C141.218 103.921 140.892 104.016 140.634 103.867C138.368 102.605 133.848 104.79 130.55 106.378C128.46 107.382 126.818 108.183 125.773 108.21C125.732 108.21 125.718 108.21 125.705 108.21Z" fill="#262A39"/>
<path d="M111.101 129.139C111.061 129.139 111.006 129.139 110.966 129.125C110.681 129.044 110.518 128.759 110.599 128.474L113.083 119.353C113.164 119.068 113.449 118.905 113.734 118.987C114.019 119.068 114.182 119.353 114.101 119.638L111.617 128.759C111.549 128.976 111.332 129.139 111.101 129.139Z" fill="#262A39"/>
<path d="M137.526 107.83C137.173 107.613 136.807 107.423 136.427 107.247C135.816 106.962 135.45 107.952 136.074 108.237C136.373 108.373 136.658 108.536 136.929 108.699C137.499 109.052 138.11 108.197 137.526 107.83Z" fill="#262A39"/>
</svg>
