<svg width="492" height="566" viewBox="0 0 492 566" fill="none" xmlns="http://www.w3.org/2000/svg">
<path d="M232.784 19.5728V71.2252L276.699 213.287L422.117 212.722V27.4867L232.784 19.5728Z" fill="#FFD2C4"/>
<path d="M16.1406 67.6922V217.703C65.6379 181.808 100.685 128.106 112.803 67.6922H16.1406Z" fill="#FF7E60"/>
<path d="M477.585 565.774L476.384 531.61L474.193 469.182L471.862 403.397C461.969 405.588 452.996 409.121 444.905 413.678L444.94 413.643L419.679 393.399L376.859 445.157L400.248 475.965L400.319 475.859C398.623 483.596 397.704 491.687 397.704 500.025C397.704 504.688 398.057 509.281 398.658 513.768L397.704 513.874L370.041 531.963L383.855 565.739H422.576H477.585V565.774Z" fill="#C3DDF0"/>
<path d="M352.27 335.423L344.745 339.521L327.468 348.954L329.623 375.946L352.27 393.399L380.181 373.862V348.954L352.27 335.423Z" fill="#C3DDF0"/>
<path d="M450.664 224.699L449.674 224.875V235.545L432.292 240.703C431.727 249.606 429.642 257.732 426.321 264.939L436.92 286.985L409.964 306.311L397.315 294.687C395.867 295.394 394.418 296.1 392.899 296.701C385.197 299.775 376.753 301.471 367.85 301.647C367.356 301.682 366.896 301.682 366.402 301.682C359.406 301.682 352.694 300.587 346.334 298.573L331.708 307.653L310.298 293.097L317.646 280.131C312.524 274.549 308.355 268.119 305.387 261.018C304.645 259.287 304.009 257.52 303.408 255.718L285.92 254.976L281.115 222.826L290.336 221.378L301.501 221.625L314.997 221.907L344.533 222.508L388.377 223.391L429.218 224.239L431.585 224.31L450.664 224.699Z" fill="#C3DDF0"/>
<path d="M146.155 375.911L152.62 393.399L163.855 376.193L146.155 375.911Z" fill="#C3DDF0"/>
<path d="M472.108 129.979C467.621 135.526 463.135 141.072 458.612 146.619C457.411 148.103 459.496 150.223 460.732 148.739C465.219 143.192 469.706 137.645 474.228 132.099C475.429 130.58 473.345 128.46 472.108 129.979Z" fill="#C3DDF0"/>
<path d="M257.055 193.537C254.229 190.534 251.402 187.531 248.576 184.528C247.269 183.115 245.149 185.235 246.456 186.648C249.283 189.651 252.109 192.654 254.935 195.657C256.278 197.07 258.362 194.951 257.055 193.537Z" fill="#FFD2C4"/>
<path d="M119.869 409.827C113.298 401.384 106.762 392.975 100.19 384.531C99.0244 383.012 96.9046 385.132 98.0705 386.651C104.642 395.095 111.178 403.503 117.749 411.947C118.951 413.431 121.035 411.311 119.869 409.827Z" fill="#C3DDF0"/>
<path d="M335.665 39.9582C332.238 34.906 328.811 29.8538 325.384 24.8016C324.324 23.2118 321.745 24.7309 322.805 26.3208C326.232 31.373 329.659 36.4252 333.086 41.4773C334.146 43.0319 336.725 41.548 335.665 39.9582Z" fill="#262A39"/>
<path d="M322.487 52.8183C315.951 49.6386 309.379 46.4589 302.843 43.2792C301.112 42.4313 299.628 45.0104 301.324 45.8583C307.86 49.038 314.431 52.2177 320.967 55.3974C322.699 56.21 324.218 53.6309 322.487 52.8183Z" fill="#262A39"/>
<path d="M288.182 132.275C287.828 131.993 287.369 131.887 286.91 131.993L270.729 135.808C270.163 135.95 269.704 136.409 269.598 137.01L232.254 353.229C232.184 353.653 232.29 354.077 232.572 354.43C232.855 354.748 233.244 354.96 233.703 354.96L287.192 356.126H287.228C287.616 356.126 288.005 355.985 288.252 355.702C288.535 355.419 288.712 355.031 288.712 354.642V133.441C288.747 132.982 288.535 132.558 288.182 132.275Z" fill="#262A39"/>
<path d="M215.225 196.117C214.73 196.117 214.271 195.869 213.988 195.445C213.529 194.774 213.706 193.855 214.377 193.361C218.97 190.252 221.62 184.776 221.62 178.346C221.62 172.269 218.829 166.722 214.2 163.507C213.529 163.048 213.352 162.129 213.812 161.423C214.271 160.751 215.19 160.575 215.896 161.034C221.372 164.779 224.623 171.244 224.623 178.31C224.623 185.73 221.514 192.089 216.073 195.763C215.79 196.046 215.508 196.117 215.225 196.117Z" fill="#262A39"/>
<path d="M138.453 234.591C121.883 247.062 93.5839 238.76 86.0233 219.894C78.9926 202.335 90.3689 188.485 107.787 182.727C104.218 169.089 103.37 150.859 112.379 135.985C118.386 126.057 128.278 119.168 139.301 117.083C141.209 116.73 143.152 116.518 145.095 116.448H145.13C145.872 117.684 146.614 118.956 147.356 120.228C138.241 130.685 136.157 144.641 135.344 158.243C134.885 165.803 134.779 173.364 133.719 180.889C132.871 186.931 136.404 187.284 140.255 190.958C154.281 204.348 150.359 225.652 138.453 234.591Z" fill="#262A39"/>
<path d="M137.005 177.18C138.241 160.221 146.403 133.724 146.403 133.724C153.998 140.755 207.735 143.581 213.953 140.366C211.445 126.552 201.588 114.08 171.381 114.08C135.627 114.08 123.721 128.99 123.721 152.802C123.721 176.614 123.721 176.65 123.721 176.65L124.003 177.144C129.232 176.544 131.741 177.18 137.005 177.18Z" fill="#262A39"/>
<path d="M191.272 196.823C190.459 196.823 189.788 196.152 189.788 195.339C189.788 194.527 190.459 193.855 191.272 193.855C194.063 193.855 196.359 193.114 197.419 191.877C198.02 191.17 198.232 190.322 198.055 189.263C197.666 186.895 192.437 185.588 189.964 185.306C189.222 185.235 188.622 184.599 188.622 183.822V170.184C188.622 169.372 189.293 168.701 190.106 168.701C190.918 168.701 191.59 169.372 191.59 170.184V182.55C194.345 183.044 200.281 184.564 200.987 188.768C201.305 190.676 200.846 192.442 199.68 193.82C198.02 195.728 195.017 196.823 191.272 196.823Z" fill="#262A39"/>
<path d="M199.715 167.641V170.608C199.715 174.459 205.686 174.459 205.686 170.608V167.641C205.686 163.79 199.715 163.79 199.715 167.641Z" fill="#262A39"/>
<path d="M163.855 167.641V170.608C163.855 174.459 169.826 174.459 169.826 170.608V167.641C169.826 163.79 163.855 163.79 163.855 167.641Z" fill="#262A39"/>
<path d="M164.986 153.226C162.583 153.756 160.287 154.392 158.026 155.346C156.259 156.088 157.778 158.667 159.545 157.925C161.523 157.077 163.679 156.547 165.798 156.088C167.635 155.699 166.858 152.837 164.986 153.226Z" fill="#262A39"/>
<path d="M206.428 152.095C204.732 151.389 202.93 150.965 201.305 150.152C199.609 149.304 197.949 151.742 199.644 152.625C201.517 153.579 203.531 154.109 205.438 154.922C207.205 155.628 208.159 152.837 206.428 152.095Z" fill="#262A39"/>
<path d="M172.652 210.284C170.427 209.931 167.459 208.906 167.318 206.256C167.212 204.348 164.208 204.348 164.35 206.256C164.597 210.319 168.165 212.58 171.875 213.146C173.748 213.464 174.525 210.567 172.652 210.284Z" fill="#262A39"/>
<path d="M216.532 166.651C216.497 163.966 216.426 161.211 216.391 158.384C216.32 155.028 216.249 151.565 216.214 147.997C215.825 124.538 200.739 112.597 171.38 112.597C137.852 112.597 122.236 125.386 122.236 152.802V176.65C122.236 177.462 122.908 178.134 123.72 178.134C124.533 178.134 125.204 177.462 125.204 176.65V152.802C125.204 127.046 139.442 115.564 171.38 115.564C199.185 115.564 212.858 126.199 213.211 148.032C213.246 151.601 213.317 155.063 213.388 158.42C213.458 161.246 213.494 164.002 213.529 166.687C213.776 178.805 213.953 189.581 213.706 198.908C213.14 219.823 210.632 234.944 200.422 240.88C188.056 248.016 165.728 246.638 165.516 246.638C165.021 246.603 164.526 246.815 164.208 247.239C163.89 247.663 163.82 248.193 163.996 248.652C167.741 258.651 180.283 262.678 180.813 262.855C180.955 262.89 181.096 262.926 181.273 262.926C181.838 262.926 182.403 262.572 182.651 262.042L188.445 248.864C188.551 248.617 188.586 248.37 188.551 248.122C193.285 247.168 198.019 245.72 201.905 243.459C213.317 236.817 216.073 220.883 216.673 198.978C216.956 189.616 216.779 178.805 216.532 166.651Z" fill="#262A39"/>
<path d="M127.536 199.65C120.788 199.65 117.007 197.424 114.994 195.481C112.768 193.325 111.531 190.464 111.531 187.425C111.531 185.412 112.097 182.444 114.746 179.935C118.562 176.332 125.451 174.742 135.202 175.237C136.015 175.272 136.651 175.978 136.616 176.791C136.58 177.604 135.803 178.275 135.061 178.204C126.264 177.745 119.94 179.088 116.795 182.091C115.276 183.539 114.499 185.341 114.499 187.425C114.499 188.697 114.817 191.17 117.078 193.325C119.551 195.693 123.579 196.858 128.737 196.647C129.55 196.647 130.256 197.247 130.291 198.06C130.327 198.872 129.691 199.579 128.878 199.614C128.384 199.65 127.96 199.65 127.536 199.65Z" fill="#262A39"/>
<path d="M58.8544 348.636C58.1478 348.636 57.5119 348.106 57.3706 347.399C53.5549 324.894 46.1356 250.207 110.931 234.414C111.743 234.202 112.521 234.697 112.733 235.509C112.945 236.322 112.45 237.099 111.637 237.311C49.3507 252.503 56.5933 325.036 60.3029 346.905C60.4443 347.717 59.879 348.495 59.0664 348.636C58.9957 348.636 58.9251 348.636 58.8544 348.636Z" fill="#262A39"/>
<path d="M170.78 265.893C166.858 265.893 162.548 265.151 158.52 263.632C151.03 260.806 138.029 253.068 135.414 232.895C135.308 232.082 135.874 231.341 136.686 231.235C137.499 231.129 138.241 231.694 138.347 232.506C140.785 251.125 152.691 258.262 159.545 260.841C168.413 264.162 177.068 263.208 180.319 260.346C180.919 259.816 181.873 259.852 182.439 260.488C182.968 261.088 182.933 262.042 182.297 262.572C179.789 264.763 175.585 265.893 170.78 265.893Z" fill="#262A39"/>
<path d="M245.892 318.923C245.256 318.923 244.655 318.5 244.478 317.864C234.339 283.523 216.497 263.102 184.877 249.571C184.135 249.253 183.781 248.37 184.099 247.628C184.417 246.886 185.301 246.532 186.043 246.85C218.581 260.77 236.882 281.792 247.305 317.051C247.552 317.828 247.093 318.676 246.315 318.888C246.174 318.888 246.033 318.923 245.892 318.923Z" fill="#262A39"/>
<path d="M136.863 352.664C136.227 352.664 135.627 352.24 135.415 351.568L122.272 304.368C122.06 303.59 122.519 302.742 123.296 302.53C124.074 302.318 124.922 302.778 125.134 303.555L138.276 350.756C138.488 351.533 138.029 352.381 137.252 352.593C137.146 352.664 137.004 352.664 136.863 352.664Z" fill="#262A39"/>
<path d="M167.211 353.547C166.823 353.547 166.434 353.406 166.152 353.088C165.586 352.487 165.586 351.568 166.187 350.968C193.674 324.647 218.687 312.776 233.102 319.241C249.424 326.59 249.954 340.121 249.954 340.722C249.99 341.535 249.318 342.206 248.506 342.241C247.728 342.206 246.987 341.605 246.987 340.793C246.987 340.298 246.421 328.498 231.865 321.962C218.581 315.991 194.804 327.65 168.236 353.123C167.953 353.406 167.565 353.547 167.211 353.547Z" fill="#262A39"/>
<path d="M243.348 346.41C242.571 346.41 241.899 345.81 241.864 344.997C241.581 340.263 241.44 338.072 230.982 330.794C230.311 330.335 230.134 329.381 230.629 328.71C231.088 328.039 232.042 327.862 232.714 328.357C243.419 335.811 244.478 338.638 244.867 344.856C244.902 345.668 244.302 346.375 243.454 346.446C243.419 346.41 243.383 346.41 243.348 346.41Z" fill="#262A39"/>
<path d="M233.738 350.261C232.961 350.261 232.289 349.625 232.254 348.848C232.254 348.813 231.795 342.913 224.446 336.447C223.845 335.917 223.775 334.963 224.305 334.363C224.835 333.727 225.789 333.691 226.425 334.221C234.798 341.57 235.222 348.424 235.257 348.707C235.292 349.519 234.656 350.226 233.844 350.261C233.809 350.261 233.773 350.261 233.738 350.261Z" fill="#262A39"/>
<path d="M224.481 354.748C223.704 354.748 223.068 354.147 222.998 353.37C222.962 353.158 222.432 347.929 214.907 343.336C214.2 342.913 213.988 341.994 214.412 341.287C214.836 340.581 215.755 340.369 216.461 340.793C225.4 346.234 225.965 352.876 225.965 353.158C226.036 353.971 225.4 354.677 224.587 354.748C224.552 354.748 224.517 354.748 224.481 354.748Z" fill="#262A39"/>
<path d="M126.83 167.075C126.865 167.888 126.194 168.595 125.381 168.63H125.346C124.533 168.63 123.897 167.994 123.862 167.181C123.297 149.552 125.063 129.767 139.301 117.048C141.209 116.695 143.152 116.483 145.095 116.412C128.278 128.177 126.264 148.88 126.83 167.075Z" fill="white"/>
<path d="M159.086 224.804C158.945 224.804 158.803 224.769 158.627 224.734C157.708 224.451 135.662 217.315 127.324 195.869C127.042 195.092 127.395 194.244 128.172 193.926C128.95 193.643 129.798 193.997 130.116 194.774C137.959 214.877 159.333 221.837 159.545 221.872C160.323 222.119 160.782 222.967 160.535 223.745C160.323 224.416 159.722 224.804 159.086 224.804Z" fill="white"/>
<path d="M128.702 202.971C138.321 202.971 146.12 194.413 146.12 183.857C146.12 173.301 138.321 164.744 128.702 164.744C119.082 164.744 111.284 173.301 111.284 183.857C111.284 194.413 119.082 202.971 128.702 202.971Z" fill="white"/>
<path d="M128.702 204.454C118.103 204.454 109.8 195.41 109.8 183.857C109.8 172.516 118.279 163.26 128.702 163.26C139.124 163.26 147.603 172.481 147.603 183.857C147.639 195.763 139.654 204.454 128.702 204.454ZM128.702 166.227C119.905 166.227 112.768 174.141 112.768 183.822C112.768 193.855 119.622 201.416 128.702 201.416C137.923 201.416 144.636 193.997 144.636 183.822C144.636 174.141 137.499 166.227 128.702 166.227Z" fill="#262A39"/>
<path d="M162.654 219.646C176.291 222.013 173.748 232.683 161.382 227.525C145.943 221.095 146.19 216.785 162.654 219.646Z" fill="#262A39"/>
<path d="M131.105 173.081C129.515 172.022 128.031 174.601 129.585 175.661C135.627 179.723 135.662 188.061 129.656 192.16C128.102 193.255 129.585 195.834 131.175 194.739C139.054 189.298 139.054 178.452 131.105 173.081Z" fill="#262A39"/>
<path d="M223.104 318.923C222.503 318.923 221.938 318.57 221.726 317.97L217.698 307.477C217.416 306.699 217.769 305.851 218.546 305.533C219.323 305.251 220.171 305.604 220.489 306.381L224.517 316.874C224.8 317.652 224.446 318.499 223.669 318.817C223.492 318.888 223.28 318.923 223.104 318.923Z" fill="#262A39"/>
<path d="M287.262 356.161L16.105 350.261C15.2924 350.261 14.6565 349.59 14.6565 348.777V67.6922C14.6565 66.8796 15.3278 66.2083 16.1403 66.2083H287.262C288.075 66.2083 288.746 66.8796 288.746 67.6922V354.677C288.746 355.066 288.57 355.455 288.287 355.737C288.04 355.985 287.651 356.161 287.262 356.161ZM17.6242 347.293L285.779 353.123V69.176H17.6242V347.293Z" fill="#262A39"/>
<path d="M180.496 386.686C193.638 382.871 240.98 385.308 265.287 389.619C296.343 395.13 307.931 404.528 307.931 404.528L301.395 415.056C301.395 415.056 330.189 430.672 332.768 440.035C335.347 449.397 320.296 463.706 320.296 463.706C320.296 463.706 320.332 477.873 313.054 479.428C305.776 480.982 303.868 482.501 303.868 482.501C303.868 482.501 306.836 498.647 300.088 503.84C293.339 509.034 287.051 507.126 287.051 507.126C287.051 507.126 284.012 522.53 280.903 525.109C277.794 527.688 258.222 529.667 255.006 527.9L267.655 514.651C267.655 514.651 247.976 498.93 239.355 498.612C230.77 498.294 230.77 498.294 230.77 498.294L224.199 510.023C224.199 510.023 216.32 509.776 218.087 502.215C219.853 494.69 219.853 494.69 219.853 494.69L184.029 494.796L180.496 386.686Z" fill="white"/>
<path d="M490.551 555.564H185.23C184.417 555.564 183.746 554.928 183.746 554.115L179.859 352.098C179.859 351.286 180.495 350.614 181.308 350.579H181.343C182.156 350.579 182.827 351.215 182.827 352.028L186.713 552.56H489.032L477.232 214.735L283.588 210.814C282.776 210.814 282.104 210.107 282.14 209.295C282.14 208.482 282.705 207.811 283.659 207.846L478.645 211.803C479.422 211.803 480.093 212.439 480.093 213.252L491.999 554.044C491.999 554.433 491.858 554.857 491.576 555.14C491.328 555.387 490.94 555.564 490.551 555.564Z" fill="#262A39"/>
<path d="M488.679 457.417C488.643 456.887 488.325 456.392 487.866 456.145C487.372 455.898 486.806 455.933 486.347 456.251C484.192 457.77 482.249 459.501 480.482 461.515L479.175 463.07C477.974 464.589 476.985 466.073 476.137 467.557C472.674 473.598 470.837 480.77 470.837 488.331C470.837 493.595 471.862 498.682 473.876 503.487C476.914 510.73 481.966 516.807 488.573 521.152C488.82 521.329 489.103 521.399 489.385 521.399C489.633 521.399 489.88 521.329 490.127 521.223C490.622 520.94 490.905 520.446 490.869 519.88L488.679 457.417Z" fill="#262A39"/>
<path d="M490.551 555.564H435.613C435.578 555.564 435.542 555.564 435.472 555.564H396.856C396.256 555.564 395.69 555.21 395.478 554.645L381.664 520.869C381.382 520.198 381.629 519.456 382.23 519.068L409.893 500.979C409.928 500.943 409.964 500.943 409.999 500.908C409.469 496.668 409.186 492.464 409.186 488.366C409.186 480.417 409.999 472.467 411.659 464.695L388.66 434.382C388.236 433.817 388.271 433.075 388.695 432.545L431.515 380.786C432.045 380.15 432.963 380.044 433.599 380.574L458.083 400.218C466.209 395.731 475.112 392.374 484.51 390.29C484.934 390.184 485.393 390.29 485.746 390.573C486.1 390.855 486.312 391.244 486.312 391.703L492 554.08C492 554.468 491.858 554.892 491.576 555.175C491.328 555.387 490.94 555.564 490.551 555.564ZM435.719 552.56H488.997L483.415 393.54C474.582 395.66 466.244 398.946 458.613 403.256C458.012 403.609 457.235 403.468 456.776 402.938C456.74 402.903 456.705 402.832 456.67 402.797L432.893 383.754L391.733 433.463L414.168 462.999C414.627 463.317 414.874 463.882 414.768 464.483C413.073 472.291 412.189 480.311 412.189 488.331C412.189 492.747 412.507 497.304 413.143 501.862C413.214 502.251 413.108 502.675 412.861 502.993C412.613 503.311 412.26 503.522 411.836 503.558L411.235 503.628L384.915 520.834L397.916 552.56H435.648C435.648 552.56 435.684 552.56 435.719 552.56Z" fill="#262A39"/>
<path d="M369.97 339.768C367.25 339.768 364.847 340.757 363.187 342.665L362.904 343.019C362.657 343.336 362.409 343.69 362.197 344.078C361.42 345.456 360.996 347.081 360.996 348.813C360.996 350.014 361.243 351.18 361.703 352.275C363.116 355.631 366.366 357.786 370.182 357.786C371.348 357.751 372.514 357.539 373.574 357.115C374.704 356.656 375.693 356.02 376.506 355.172C378.131 353.512 379.014 351.321 379.014 348.777C378.979 343.796 374.951 339.768 369.97 339.768Z" fill="#262A39"/>
<path d="M365.236 383.189C364.918 383.189 364.6 383.083 364.317 382.871L341.671 365.418C341.353 365.17 341.141 364.782 341.106 364.358L338.95 337.366C338.915 336.765 339.198 336.235 339.728 335.952L364.529 322.386C364.953 322.139 365.448 322.138 365.907 322.35L393.818 335.917C394.348 336.164 394.666 336.694 394.666 337.26V362.167C394.666 362.662 394.419 363.121 394.03 363.404L366.119 382.941C365.837 383.083 365.519 383.189 365.236 383.189ZM344.003 363.475L365.271 379.832L391.663 361.355V338.178L365.271 325.354L341.989 338.072L344.003 363.475Z" fill="#262A39"/>
<path d="M301.395 415.056C301.112 415.056 300.794 414.95 300.547 414.774C299.876 414.279 299.734 413.36 300.194 412.689L317.364 388.594L313.018 351.286C312.948 350.791 313.16 350.332 313.513 349.979L344.78 322.492C345.169 322.139 345.734 322.033 346.264 322.209L358.241 326.307C359.018 326.555 359.442 327.438 359.159 328.215C358.877 328.993 358.029 329.416 357.251 329.134L346.087 325.318L316.057 351.71L320.367 388.806C320.402 389.159 320.332 389.548 320.084 389.831L302.596 414.385C302.313 414.844 301.854 415.056 301.395 415.056Z" fill="#262A39"/>
<path d="M329.694 434.346C329.376 434.346 329.094 434.24 328.811 434.064C328.14 433.569 327.998 432.651 328.493 431.979L344.533 409.721C344.816 409.333 345.275 409.121 345.734 409.121H382.089L402.898 364.605L398.234 343.407L392.97 342.736C392.158 342.63 391.592 341.888 391.663 341.075C391.734 340.263 392.476 339.662 393.324 339.768L399.648 340.545C400.284 340.616 400.778 341.075 400.919 341.711L405.901 364.464C405.972 364.782 405.936 365.135 405.795 365.418L384.385 411.241C384.138 411.771 383.608 412.089 383.043 412.089H346.511L330.895 433.711C330.613 434.134 330.154 434.346 329.694 434.346Z" fill="#262A39"/>
<path d="M249.001 500.802C243.524 498.612 238.79 497.057 233.667 495.927C233.632 495.927 233.561 495.891 233.526 495.891C233.42 495.856 233.314 495.856 233.243 495.821C232.396 496.633 231.548 497.481 230.735 498.364L215.543 519.386C212.187 524.155 211.127 530.126 212.575 535.743C214.024 541.361 217.875 546.06 223.104 548.639C225.895 550.017 228.898 550.653 231.83 550.653C238.013 550.653 244.019 547.756 247.87 542.456L267.337 515.711C267.549 515.429 267.655 515.075 267.619 514.687C267.549 514.015 266.524 507.833 249.001 500.802ZM245.468 540.725C240.627 547.367 231.795 549.557 224.411 545.954C219.959 543.799 216.709 539.806 215.472 535.001C214.236 530.197 215.155 525.144 217.981 521.117L233.915 499.036C238.543 500.096 242.924 501.544 247.905 503.558C260.907 508.787 263.875 513.203 264.475 514.545L245.468 540.725Z" fill="#262A39"/>
<path d="M308.743 404.775C308.46 404.775 308.178 404.705 307.93 404.528C286.556 390.749 227.025 380.468 182.226 387.923C181.414 388.064 180.636 387.499 180.495 386.686C180.354 385.874 180.919 385.097 181.732 384.955C227.908 377.289 287.262 387.64 309.52 402.02C310.227 402.479 310.403 403.397 309.979 404.069C309.697 404.528 309.202 404.775 308.743 404.775Z" fill="#262A39"/>
<path d="M321.462 464.271C321.038 464.271 320.578 464.094 320.296 463.706C319.766 463.07 319.872 462.116 320.508 461.621C320.614 461.515 332.52 451.799 331.601 442.79C330.647 433.711 311.746 421.345 293.48 413.113C292.738 412.76 292.385 411.877 292.738 411.135C293.092 410.393 293.975 410.039 294.717 410.393C313.23 418.731 333.438 431.52 334.604 442.472C335.735 453.107 322.981 463.494 322.415 463.918C322.133 464.165 321.78 464.271 321.462 464.271Z" fill="#262A39"/>
<path d="M304.292 485.469C303.656 485.469 303.055 485.045 302.843 484.374C302.631 483.596 303.09 482.749 303.868 482.537C313.548 479.816 318.671 475.082 319.059 468.44C319.731 457.205 306.447 443.002 300.829 440.706C300.052 440.388 299.699 439.505 300.017 438.763C300.335 437.985 301.218 437.632 301.96 437.95C308.107 440.459 322.804 455.438 322.027 468.617C321.709 474.163 318.424 481.547 304.68 485.398C304.539 485.434 304.398 485.469 304.292 485.469Z" fill="#262A39"/>
<path d="M291.537 509.458C289.524 509.458 288.146 509.069 288.04 509.034C287.262 508.787 286.803 507.974 287.05 507.197C287.262 506.42 288.11 505.96 288.888 506.172C288.923 506.172 293.057 507.338 296.837 505.112C299.699 503.452 301.748 500.272 302.843 495.679C306.199 481.724 295.636 469.288 286.697 465.684C285.92 465.366 285.567 464.518 285.885 463.741C286.203 462.964 287.05 462.61 287.828 462.928C297.367 466.779 309.662 480.099 305.74 496.386C304.433 501.827 301.924 505.642 298.285 507.727C295.883 509.069 293.445 509.458 291.537 509.458Z" fill="#262A39"/>
<path d="M266.17 530.232C263.309 530.232 260.023 530.02 256.313 529.596C255.501 529.49 254.9 528.748 255.006 527.935C255.112 527.123 255.819 526.558 256.667 526.628C279.914 529.349 283.199 523.237 285.849 512.885C288.923 500.908 280.161 493.665 272.282 489.673C271.54 489.285 271.258 488.401 271.611 487.659C271.964 486.917 272.883 486.635 273.625 486.988C286.132 493.347 291.502 502.781 288.711 513.627C286.238 523.201 282.952 530.232 266.17 530.232Z" fill="#262A39"/>
<path d="M230.699 498.4C235.362 498.718 239.849 500.166 244.16 502.109C245.396 502.569 246.633 503.028 247.94 503.558C257.974 507.585 262.001 511.154 263.626 513.168C264.368 513.804 265.04 514.475 265.676 515.217C266.029 515.641 266.382 516.135 266.7 516.595L267.371 515.676C267.583 515.393 267.689 515.04 267.654 514.651C267.583 513.98 266.559 507.797 249.035 500.767C243.559 498.576 238.825 497.022 233.702 495.891C233.667 495.891 233.596 495.856 233.561 495.856C222.714 493.489 210.172 492.959 185.335 491.899L184.134 491.864C183.321 491.899 182.615 492.464 182.58 493.277C182.544 494.089 183.18 494.796 183.993 494.831L185.194 494.867C208.194 495.821 220.524 496.351 230.77 498.294L230.699 498.4Z" fill="#262A39"/>
<path d="M223.103 512.673C222.715 512.673 222.361 512.532 222.079 512.249C216.214 506.596 215.154 503.452 219.782 494.761C220.171 494.019 221.09 493.771 221.796 494.16C222.538 494.549 222.785 495.467 222.397 496.174C218.44 503.558 219.146 505.289 224.128 510.094C224.729 510.659 224.729 511.613 224.163 512.214C223.881 512.496 223.492 512.673 223.103 512.673Z" fill="#262A39"/>
<path d="M344.674 297.443C344.391 297.443 344.073 297.372 343.826 297.196L322.416 282.64C321.78 282.216 321.568 281.332 321.957 280.661L328.775 268.649C323.794 263.067 319.837 256.778 316.94 249.924C316.375 248.617 315.845 247.204 315.244 245.473L298.78 244.766C298.074 244.731 297.473 244.201 297.367 243.494L292.562 211.344C292.456 210.531 292.986 209.789 293.799 209.648L303.02 208.199L463.595 211.45C464.372 211.45 464.972 212.05 465.043 212.828C465.114 213.499 464.69 214.135 464.054 214.347V223.78C464.054 224.451 463.63 225.016 462.994 225.193L446.601 230.069C445.965 238.265 444.057 246.002 440.877 253.139L451.194 274.549C451.512 275.185 451.3 275.998 450.735 276.422L423.778 295.747C423.212 296.171 422.435 296.1 421.905 295.641L409.999 284.724C408.798 285.289 407.632 285.855 406.395 286.349C398.482 289.529 389.861 291.225 380.817 291.401C380.322 291.437 379.863 291.437 379.333 291.437C372.655 291.437 365.978 290.448 359.477 288.469L345.416 297.196C345.239 297.372 344.957 297.443 344.674 297.443ZM325.242 280.979L344.709 294.193L358.523 285.607C358.877 285.395 359.336 285.325 359.76 285.466C366.155 287.48 372.761 288.504 379.368 288.504C379.863 288.504 380.251 288.504 380.746 288.469C389.472 288.292 397.74 286.667 405.336 283.629C406.678 283.099 407.95 282.498 409.222 281.862L409.646 281.65C410.211 281.368 410.847 281.474 411.306 281.898L423.071 292.709L448.049 274.796L437.98 253.881C437.804 253.492 437.768 253.033 437.98 252.609C441.301 245.367 443.28 237.382 443.81 228.903C443.845 228.267 444.269 227.737 444.87 227.56L461.157 222.72V214.417L303.267 211.202L295.777 212.404L300.158 241.869L316.41 242.575C317.046 242.611 317.576 242.999 317.753 243.6C318.424 245.684 319.024 247.274 319.66 248.794C322.557 255.683 326.585 261.936 331.673 267.483C332.097 267.978 332.203 268.649 331.885 269.214L325.242 280.979Z" fill="#262A39"/>
<path d="M402.651 210.99C402.403 210.531 401.909 210.249 401.379 210.213L357.534 209.33C356.969 209.33 356.474 209.613 356.192 210.107C353.931 214.17 352.765 218.904 352.765 223.851C352.765 227.419 353.471 230.881 354.814 234.132C358.983 244.024 368.628 250.454 379.368 250.454H379.933C383.502 250.383 386.893 249.712 390.002 248.44C393.288 247.133 396.22 245.225 398.658 242.752C403.463 237.877 406.007 231.341 406.007 223.851C405.972 219.293 404.841 214.947 402.651 210.99Z" fill="#262A39"/>
<path d="M26.7746 107.615L2.11426 124.891L4.09274 142.698L30.1662 125.881L26.7746 107.615Z" fill="white"/>
<path d="M4.09292 144.182C3.88094 144.182 3.66895 144.146 3.45697 144.04C2.99769 143.828 2.67972 143.369 2.60906 142.874L0.630578 125.068C0.559918 124.538 0.807235 124.008 1.26652 123.69L25.9268 106.414C26.3508 106.131 26.8807 106.061 27.34 106.237C27.7993 106.414 28.1526 106.838 28.2586 107.332L31.6503 125.598C31.7563 126.199 31.509 126.799 30.979 127.117L4.90551 143.934C4.6582 144.111 4.37556 144.182 4.09292 144.182ZM3.70429 125.598L5.29414 140.119L28.5059 125.139L25.7148 110.123L3.70429 125.598Z" fill="#262A39"/>
<path d="M432.539 77.4433C432.433 77.4433 432.363 77.4786 432.257 77.4786C415.404 78.2205 398.623 77.2666 381.982 74.5462C379.156 73.557 376.329 72.4971 373.503 71.2252C362.091 60.1669 363.893 29.8185 359.724 29.0412C352.234 27.5927 349.055 38.121 348.101 44.5157C346.546 54.9381 348.949 69.5293 350.256 79.987C348.207 79.1038 304.327 78.8565 300.547 83.6967C294.894 90.904 291.114 93.6597 302.348 101.609C301.43 104.541 298.25 108.498 298.921 113.444C299.593 118.391 304.15 120.051 303.055 120.97C304.504 124.891 300.865 127.965 308.955 134.925C310.969 134.642 313.371 139.942 313.371 139.942C313.371 140.26 313.336 140.578 313.265 140.861C313.407 143.44 314.714 145.983 316.94 147.75C318.6 149.057 334.251 154.781 340.929 154.074C341.989 154.18 392.369 150.011 397.598 149.587C409.292 148.633 420.951 150.4 432.681 150.117V77.4433H432.539Z" fill="white"/>
<path d="M379.333 125.174C379.121 125.174 378.873 125.139 378.661 124.997C368.345 119.769 352.164 95.5322 348.808 80.2697C347.253 73.1683 340.116 37.3438 353.542 29.4299C355.556 28.2286 358.523 26.8154 360.89 28.052C364 29.6418 364.423 34.6587 365.095 42.2193C365.448 46.0349 365.837 50.3805 366.614 55.2207C369.476 72.9917 384.067 75.5001 432.646 74.8995C433.423 74.7935 434.129 75.5354 434.165 76.3834C434.165 77.1959 433.529 77.8672 432.681 77.9025C382.088 78.5032 366.897 75.6768 363.682 55.7153C362.869 50.7691 362.48 46.3882 362.162 42.5019C361.632 36.6372 361.173 31.585 359.548 30.7371C359.018 30.4544 357.781 30.4544 355.061 32.0443C346.617 37.0258 347.288 59.531 351.705 79.669C355.096 95.1082 371.207 117.931 380.004 122.383C380.746 122.772 381.029 123.655 380.675 124.397C380.393 124.856 379.898 125.174 379.333 125.174Z" fill="#262A39"/>
<path d="M321.603 106.308C308.673 106.308 300.617 104.365 296.519 100.266C294.399 98.1819 293.41 95.5322 293.516 92.4232C293.622 89.1021 294.929 86.3464 297.367 84.1559C304.327 77.9379 321.179 76.136 350.397 78.4678C351.21 78.5385 351.846 79.2451 351.775 80.0577C351.704 80.8703 350.998 81.5062 350.185 81.4355C322.239 79.2097 305.599 80.7996 299.381 86.3817C297.544 88.0422 296.59 90.0561 296.519 92.5291C296.448 94.7903 297.155 96.6628 298.674 98.1466C302.666 102.104 311.888 103.764 326.973 103.234C334.428 102.951 339.162 99.7011 339.268 96.8394C339.41 93.589 333.933 89.1021 318.106 87.1943C317.293 87.0883 316.692 86.3464 316.798 85.5338C316.904 84.7212 317.646 84.1206 318.459 84.2266C340.293 86.841 342.377 94.013 342.271 96.9454C342.059 101.998 335.665 105.884 327.079 106.202C325.136 106.272 323.334 106.308 321.603 106.308Z" fill="#262A39"/>
<path d="M346.37 109.629C343.331 105.884 339.445 103.481 335.064 102.704C334.252 102.563 333.474 103.093 333.333 103.905C333.192 104.718 333.722 105.495 334.534 105.637C339.162 106.484 342.272 109.276 344.073 111.501C346.052 113.974 346.617 116.024 345.699 117.649C342.66 122.984 325.878 124.291 315.668 122.878C307.754 121.782 302.879 119.451 301.147 115.988C299.628 112.95 300.335 108.64 303.267 103.163C302.349 102.81 301.465 102.351 300.617 101.786C297.19 108.251 296.484 113.338 298.498 117.331C300.723 121.782 306.2 124.573 315.279 125.845C317.717 126.199 320.826 126.411 324.183 126.411C333.757 126.411 345.204 124.644 348.313 119.168C349.373 117.225 349.903 114.01 346.37 109.629Z" fill="#262A39"/>
<path d="M331.495 140.613C329.658 140.613 327.786 140.543 325.807 140.401C316.975 139.801 306.305 136.904 302.843 130.58C301.182 127.541 301.359 124.149 303.337 120.475C303.726 119.733 304.645 119.486 305.351 119.875C306.058 120.263 306.34 121.182 305.952 121.888C304.468 124.644 304.291 127.046 305.457 129.131C308.142 134.042 317.717 136.833 326.019 137.398C345.239 138.741 356.403 132.841 356.756 128.248C356.968 125.739 353.329 122.842 344.709 122.065C343.896 121.994 343.296 121.252 343.366 120.44C343.437 119.627 344.143 119.027 344.991 119.097C359.265 120.44 359.865 126.623 359.724 128.495C359.229 134.819 348.666 140.613 331.495 140.613Z" fill="#262A39"/>
<path d="M351.952 134.89C350.609 135.561 349.266 136.232 347.853 136.762C348.065 137.257 348.56 137.645 349.16 137.645C355.273 137.857 359.194 139.977 359.123 143.016C359.017 147.114 351.563 152.625 338.032 152.449C328.775 152.307 318.741 148.562 315.632 144.076C314.678 142.698 314.749 140.013 315.244 138.635C315.526 137.857 314.82 138.317 314.078 138.034C313.301 137.751 312.735 136.833 312.453 137.61C311.605 139.907 311.675 143.581 313.195 145.771C317.222 151.636 328.952 155.275 337.996 155.416C338.279 155.416 338.526 155.416 338.809 155.416C353.223 155.416 361.95 149.198 362.127 143.086C362.197 139.624 359.512 135.844 351.952 134.89Z" fill="#262A39"/>
<path d="M432.752 148.704C432.292 148.668 390.108 146.902 351.74 150.894C348.984 151.813 346.158 152.59 343.402 153.509C343.543 154.18 344.144 154.639 344.851 154.639C344.921 154.639 344.957 154.639 345.027 154.639C384.809 149.658 432.116 151.636 432.575 151.671C433.458 151.671 434.094 151.071 434.129 150.258C434.2 149.446 433.564 148.739 432.752 148.704Z" fill="#262A39"/>
<path d="M408.797 149.304C408.515 149.658 408.444 150.082 408.515 150.506C409.539 150.506 410.528 150.506 411.553 150.576C424.943 132.063 419.043 87.7949 404.946 75.4648C404.31 74.9348 403.392 74.9701 402.827 75.6061C402.297 76.242 402.367 77.1606 402.968 77.7259C416.111 89.1728 421.657 132.452 408.797 149.304Z" fill="#262A39"/>
<path d="M287.262 196.682C286.45 196.682 285.778 196.011 285.778 195.198C285.778 194.385 286.45 193.714 287.262 193.714L431.196 193.149V10.8463L244.831 3.03837V67.6922C244.831 68.5048 244.16 69.1761 243.347 69.1761C242.535 69.1761 241.863 68.5048 241.863 67.6922V1.48386C241.863 1.0599 242.04 0.706598 242.323 0.423958C242.605 0.141319 243.029 0 243.418 0L432.751 7.91391C433.564 7.94924 434.164 8.62051 434.164 9.39777V194.633C434.164 195.445 433.493 196.117 432.68 196.117L287.262 196.682Z" fill="#262A39"/>
</svg>
