<svg width="16" height="16" viewBox="0 0 16 16" fill="none" xmlns="http://www.w3.org/2000/svg">
<path d="M12.6663 6.00016C12.6663 8.57749 10.577 10.6668 7.99967 10.6668C5.42235 10.6668 3.33301 8.57749 3.33301 6.00016C3.33301 3.42283 5.42235 1.3335 7.99967 1.3335C10.577 1.3335 12.6663 3.42283 12.6663 6.00016Z" fill="#FF542C"/>
<path d="M4.72867 10.6274L4.47616 11.5485C4.05727 13.0764 3.84782 13.8403 4.12732 14.2585C4.22527 14.4051 4.35667 14.5228 4.50915 14.6004C4.94423 14.8219 5.616 14.4719 6.95954 13.7718C7.40658 13.5389 7.63011 13.4224 7.86762 13.3971C7.95565 13.3877 8.04435 13.3877 8.13238 13.3971C8.36989 13.4224 8.59341 13.5389 9.04045 13.7718C10.384 14.4719 11.0558 14.8219 11.4909 14.6004C11.6433 14.5228 11.7747 14.4051 11.8727 14.2585C12.1522 13.8403 11.9427 13.0764 11.5238 11.5485L11.2713 10.6274C10.3472 11.2819 9.21853 11.6665 8 11.6665C6.78147 11.6665 5.65277 11.2819 4.72867 10.6274Z" fill="#FF542C"/>
</svg>
