<svg width="16" height="16" viewBox="0 0 16 16" fill="none" xmlns="http://www.w3.org/2000/svg">
<path d="M6.50065 7.99996C6.50065 7.17153 7.17222 6.49996 8.00065 6.49996C8.82908 6.49996 9.50065 7.17153 9.50065 7.99996C9.50065 8.82839 8.82908 9.49996 8.00065 9.49996C7.17222 9.49996 6.50065 8.82839 6.50065 7.99996Z" fill="#3B63B8"/>
<path fill-rule="evenodd" clip-rule="evenodd" d="M1.33398 7.99996C1.33398 9.09288 1.61729 9.46094 2.18391 10.1971C3.31529 11.6669 5.21273 13.3333 8.00065 13.3333C10.7886 13.3333 12.686 11.6669 13.8174 10.1971C14.384 9.46094 14.6673 9.09288 14.6673 7.99996C14.6673 6.90704 14.384 6.53898 13.8174 5.80285C12.686 4.333 10.7886 2.66663 8.00065 2.66663C5.21273 2.66663 3.31529 4.333 2.18391 5.80285C1.61729 6.53898 1.33398 6.90704 1.33398 7.99996ZM8.00065 5.49996C6.61994 5.49996 5.50065 6.61925 5.50065 7.99996C5.50065 9.38067 6.61994 10.5 8.00065 10.5C9.38136 10.5 10.5007 9.38067 10.5007 7.99996C10.5007 6.61925 9.38136 5.49996 8.00065 5.49996Z" fill="#3B63B8"/>
</svg>
