<svg width="16" height="16" viewBox="0 0 16 16" fill="none" xmlns="http://www.w3.org/2000/svg">
<path d="M6.3335 9.33299C7.43807 9.33299 8.3335 10.2284 8.3335 11.333C8.3335 12.4376 7.43807 13.333 6.3335 13.333C5.22893 13.333 4.3335 12.4376 4.3335 11.333C4.3335 10.2284 5.22893 9.33299 6.3335 9.33299Z" fill="#3B63B8" stroke="#3B63B8"/>
<path d="M9.6665 2.66698C8.56193 2.66698 7.6665 3.56241 7.6665 4.66698C7.6665 5.77155 8.56193 6.66698 9.6665 6.66698C10.7711 6.66698 11.6665 5.77155 11.6665 4.66698C11.6665 3.56241 10.7711 2.66698 9.6665 2.66698Z" fill="#3B63B8" stroke="#3B63B8"/>
<path d="M10.7275 11.3057L14.6667 11.3057" stroke="#3B63B8" stroke-width="2" stroke-linecap="round"/>
<path d="M5.18066 4.63867H1.33333" stroke="#3B63B8" stroke-width="2" stroke-linecap="round"/>
<path d="M1.3335 11.3057L1.979 11.3057" stroke="#3B63B8" stroke-width="2" stroke-linecap="round"/>
<path d="M14.6665 4.63867L13.9844 4.66624" stroke="#3B63B8" stroke-width="2" stroke-linecap="round"/>
</svg>
