<svg width="16" height="16" viewBox="0 0 16 16" fill="none" xmlns="http://www.w3.org/2000/svg">
<g opacity="0.9">
<path d="M6.3335 9.33336C7.43807 9.33336 8.3335 10.2288 8.3335 11.3334C8.3335 12.4379 7.43807 13.3334 6.3335 13.3334C5.22893 13.3334 4.3335 12.4379 4.3335 11.3334C4.3335 10.2288 5.22893 9.33336 6.3335 9.33336Z" stroke="#3B63B8" stroke-width="1.5"/>
<path d="M9.6665 2.66661C8.56193 2.66661 7.6665 3.56204 7.6665 4.66661C7.6665 5.77118 8.56193 6.66661 9.6665 6.66661C10.7711 6.66661 11.6665 5.77118 11.6665 4.66661C11.6665 3.56204 10.7711 2.66661 9.6665 2.66661Z" stroke="#3B63B8" stroke-width="1.5"/>
<path d="M10 11.3057L14.6667 11.3057" stroke="#3B63B8" stroke-width="1.5" stroke-linecap="round"/>
<path d="M6 4.63904L1.33333 4.63904" stroke="#3B63B8" stroke-width="1.5" stroke-linecap="round"/>
<path d="M1.3335 11.3057L2.66683 11.3057" stroke="#3B63B8" stroke-width="1.5" stroke-linecap="round"/>
<path d="M14.6665 4.63904L13.3332 4.63904" stroke="#3B63B8" stroke-width="1.5" stroke-linecap="round"/>
</g>
</svg>
