<svg width="14" height="14" viewBox="0 0 14 14" fill="none" xmlns="http://www.w3.org/2000/svg">
<path fill-rule="evenodd" clip-rule="evenodd" d="M0.378265 2.50563C0.332031 2.75067 0.332031 3.04485 0.332031 3.63321V5.16671H13.6341C13.586 4.46749 13.4635 4.00855 13.1524 3.66259C13.1052 3.61013 13.0553 3.5602 13.0028 3.51302C12.4325 3.00004 11.555 3.00004 9.80009 3.00004H9.55098C8.78186 3.00004 8.3973 3.00004 8.03893 2.89789C7.84207 2.84178 7.65232 2.76318 7.47344 2.66366C7.14781 2.48249 6.87588 2.21056 6.33203 1.66671L5.9652 1.29987C5.78292 1.11759 5.69177 1.02645 5.59599 0.947051C5.18305 0.604731 4.67647 0.394898 4.14241 0.344958C4.01854 0.333374 3.88965 0.333374 3.63186 0.333374C3.04351 0.333374 2.74933 0.333374 2.50429 0.379607C1.42557 0.583134 0.581791 1.42691 0.378265 2.50563ZM13.6639 6.16671H0.332031V8.33337C0.332031 10.8475 0.332031 12.1046 1.11308 12.8857C1.89413 13.6667 3.15121 13.6667 5.66536 13.6667H8.33203C10.8462 13.6667 12.1033 13.6667 12.8843 12.8857C13.6654 12.1046 13.6654 10.8475 13.6654 8.33337V6.86531C13.6654 6.61517 13.6639 6.16671 13.6639 6.16671Z" fill="#7545FC"/>
</svg>
