<svg width="14" height="12" viewBox="0 0 14 12" fill="none" xmlns="http://www.w3.org/2000/svg">
<path d="M8.47781 0.3331C7.53047 -0.111033 6.46882 -0.111033 5.52149 0.3331L1.06074 2.4244C0.34341 2.7607 0.156386 3.70901 0.499674 4.36444L0.499674 7.66667C0.499674 7.94281 0.723532 8.16667 0.999675 8.16667C1.27582 8.16667 1.49967 7.94281 1.49967 7.66667V5.11469L5.52154 7.00023C6.46888 7.44437 7.53053 7.44437 8.47786 7.00023L12.9386 4.90894C13.9089 4.45403 13.9089 2.87933 12.9386 2.42443L8.47781 0.3331Z" fill="#FF542C"/>
<path d="M2.33301 6.60982V9.08362C2.33301 9.75563 2.66868 10.3848 3.25656 10.7104C4.23548 11.2525 5.80234 12 6.99967 12C8.19701 12 9.76387 11.2525 10.7428 10.7104C11.3307 10.3848 11.6663 9.75563 11.6663 9.08362V6.60985L8.90235 7.90567C7.68607 8.47589 6.31334 8.47589 5.09706 7.90567L2.33301 6.60982Z" fill="#FF542C"/>
</svg>
