<svg width="16" height="16" viewBox="0 0 16 16" fill="none" xmlns="http://www.w3.org/2000/svg">
<g clip-path="url(#clip0_1131_28988)">
<path d="M13.0408 4.66667C13.1932 3.79682 12.5239 3 11.6408 3H4.35826C3.47516 3 2.80582 3.79682 2.95824 4.66667" stroke="#000" stroke-width="1.2"/>
<path d="M11.6666 3.00004C11.6855 2.82732 11.695 2.74094 11.6952 2.6696C11.6966 1.98719 11.1826 1.4138 10.5041 1.34099C10.4332 1.33337 10.3463 1.33337 10.1725 1.33337H5.82733C5.65356 1.33337 5.56668 1.33337 5.49575 1.34099C4.81723 1.4138 4.30321 1.98719 4.30469 2.6696C4.30485 2.74094 4.3143 2.82731 4.33322 3.00004" stroke="#000" stroke-width="1.2"/>
<path d="M10 12H6" stroke="#000" stroke-width="1.5" stroke-linecap="round"/>
<path d="M1.58868 9.19528C1.29133 7.08624 1.14265 6.03173 1.77455 5.34918C2.40645 4.66663 3.53139 4.66663 5.78127 4.66663H10.2181C12.468 4.66663 13.5929 4.66663 14.2248 5.34918C14.8567 6.03173 14.708 7.08624 14.4107 9.19528L14.1287 11.1953C13.8955 12.8492 13.7789 13.6762 13.1808 14.1714C12.5827 14.6666 11.7005 14.6666 9.9361 14.6666H6.06325C4.29888 14.6666 3.41669 14.6666 2.81857 14.1714C2.22044 13.6762 2.10385 12.8492 1.87066 11.1953L1.58868 9.19528Z" stroke="#000" stroke-width="1.5"/>
</g>
<defs>
<clipPath id="clip0_1131_28988">
<rect width="16" height="16" fill="white"/>
</clipPath>
</defs>
</svg>
