<svg width="16" height="16" viewBox="0 0 16 16" fill="none" xmlns="http://www.w3.org/2000/svg">
<path fill-rule="evenodd" clip-rule="evenodd" d="M2.30834 13.69C3.28465 14.6663 4.856 14.6663 7.9987 14.6663C11.1414 14.6663 12.7127 14.6663 13.6891 13.69C14.6654 12.7137 14.6654 11.1424 14.6654 7.99967C14.6654 4.85698 14.6654 3.28563 13.6891 2.30932C12.7127 1.33301 11.1414 1.33301 7.9987 1.33301C4.856 1.33301 3.28465 1.33301 2.30834 2.30932C1.33203 3.28563 1.33203 4.85698 1.33203 7.99967C1.33203 11.1424 1.33203 12.7137 2.30834 13.69ZM6.33203 5.83301C5.13541 5.83301 4.16536 6.80306 4.16536 7.99967C4.16536 9.19629 5.13541 10.1663 6.33203 10.1663C7.52865 10.1663 8.4987 9.19629 8.4987 7.99967C8.4987 7.72353 8.72256 7.49967 8.9987 7.49967C9.27484 7.49967 9.4987 7.72353 9.4987 7.99967C9.4987 9.74858 8.08093 11.1663 6.33203 11.1663C4.58313 11.1663 3.16536 9.74858 3.16536 7.99967C3.16536 6.25077 4.58313 4.83301 6.33203 4.83301C6.60817 4.83301 6.83203 5.05687 6.83203 5.33301C6.83203 5.60915 6.60817 5.83301 6.33203 5.83301ZM11.832 7.99967C11.832 9.19629 10.862 10.1663 9.66537 10.1663C9.38922 10.1663 9.16536 10.3902 9.16536 10.6663C9.16536 10.9425 9.38922 11.1663 9.66537 11.1663C11.4143 11.1663 12.832 9.74858 12.832 7.99967C12.832 6.25077 11.4143 4.83301 9.66537 4.83301C7.91646 4.83301 6.4987 6.25077 6.4987 7.99967C6.4987 8.27582 6.72256 8.49967 6.9987 8.49967C7.27484 8.49967 7.4987 8.27582 7.4987 7.99967C7.4987 6.80306 8.46875 5.83301 9.66537 5.83301C10.862 5.83301 11.832 6.80306 11.832 7.99967Z" fill="#3B63B8"/>
</svg>
