<svg width="96" height="97" viewBox="0 0 96 97" fill="none" xmlns="http://www.w3.org/2000/svg">
<path d="M96 48.5C96 37.3949 92.1495 26.6334 85.1045 18.0491C78.0595 9.4648 68.256 3.5888 57.3643 1.42231C46.4727 -0.744182 35.1667 0.932893 25.373 6.16778C15.5792 11.4027 7.9035 19.8715 3.65378 30.1312C-0.595937 40.3909 -1.15676 51.8068 2.06686 62.4337C5.29049 73.0605 12.0991 82.2409 21.3326 88.4105C30.5661 94.5802 41.6532 97.3574 52.7048 96.2689C63.7564 95.1804 74.0887 90.2936 81.9411 82.4411L77.2396 77.7396C70.4749 84.5044 61.5738 88.7142 52.0531 89.652C42.5324 90.5897 32.9811 88.1972 25.0266 82.8822C17.0721 77.5671 11.2066 69.6584 8.42949 60.5036C5.6524 51.3487 6.13554 41.5142 9.79659 32.6756C13.4576 23.8371 20.0701 16.5414 28.5072 12.0316C36.9444 7.52186 46.6842 6.07709 56.0672 7.94348C65.4502 9.80987 73.8957 14.8719 79.9648 22.2672C86.0339 29.6624 89.3511 38.9332 89.3511 48.5H96Z" fill="#3B63B8"/>
</svg>
