<svg width="34" height="34" viewBox="0 0 34 34" fill="none" xmlns="http://www.w3.org/2000/svg">
<path fill-rule="evenodd" clip-rule="evenodd" d="M17.5595 9.72166C17.7824 9.81228 18.0017 9.9117 18.2209 10.0111C18.4894 10.1329 18.7579 10.2546 19.0329 10.3601L30.6539 15.26L19.7378 19.6367L19.7345 19.6381C19.6144 19.6886 19.4907 19.7387 19.3652 19.7894C19.0739 19.9073 18.7727 20.0292 18.4855 20.1699C18.2876 20.2668 18.0812 20.3515 17.8671 20.4378L17.8115 20.4602C17.6168 20.5386 17.4159 20.6195 17.2195 20.7105C17.0777 20.7762 16.9299 20.7218 16.683 20.6194L3.6865 15.1236L15.6204 10.1718C15.8399 10.0646 16.0703 9.97578 16.3007 9.88696C16.478 9.81865 16.6553 9.75033 16.8277 9.67359C17.1034 9.55088 17.33 9.6284 17.5595 9.72166ZM9.70268 18.1148V21.2415C10.0206 21.6684 10.6881 22.1713 11.0501 22.4442C11.1271 22.5022 11.1903 22.5498 11.2334 22.584C11.51 22.804 12.2769 23.3267 13.1318 23.6574C13.4768 23.8412 14.5717 24.2424 16.1916 24.3768C16.3716 24.3943 16.5538 24.3897 16.736 24.3851C16.8923 24.3811 17.0487 24.3772 17.2039 24.3872C17.5235 24.37 18.3126 24.3092 18.9124 24.2032C20.0379 23.9684 20.8676 23.5342 21.3641 23.2743C21.4817 23.2128 21.5807 23.161 21.6604 23.1239C22.3812 22.7579 22.9694 22.2405 23.5183 21.6722C23.7622 21.4196 23.9061 21.1309 23.8987 20.7487C23.8838 19.9746 23.8839 19.2002 23.8862 18.4171L19.8972 20.0164C19.7658 20.0717 19.6359 20.1243 19.5075 20.1762C19.2229 20.2913 18.9451 20.4037 18.6717 20.5376C18.4586 20.642 18.2392 20.7317 18.0256 20.8179L17.971 20.8399C17.7746 20.919 17.5836 20.9959 17.3975 21.0822C17.0756 21.2313 16.7571 21.0973 16.5558 21.0126L16.5187 20.9971L9.70268 18.1148Z" fill="#214080"/>
<path fill-rule="evenodd" clip-rule="evenodd" d="M13.5919 3.71826C13.7926 4.24747 14.2776 4.85983 15.1761 5.5131L15.1907 5.52375L15.2039 5.53612C15.64 5.9457 16.2524 6.29752 16.9551 6.57614C17.0322 6.43284 17.1201 6.29699 17.2179 6.16852C17.872 5.30938 18.9287 4.83249 19.9904 4.62836C21.0536 4.42394 22.1679 4.48346 22.9862 4.74264C23.393 4.87148 23.7538 5.05827 23.9921 5.31211C24.2423 5.57863 24.3562 5.92242 24.234 6.30171C24.0202 6.96526 23.4021 7.37547 22.6616 7.60332C21.9146 7.83318 20.9824 7.89887 20.0205 7.83246C19.1149 7.76995 18.1571 7.58812 17.2766 7.2983C17.0888 7.91167 17.0995 8.68644 17.4284 9.65898L16.8797 9.83852C16.514 8.75725 16.4955 7.84771 16.7328 7.10135C15.9805 6.80244 15.3115 6.4193 14.8179 5.96C13.8776 5.27363 13.303 4.58386 13.0501 3.91708C12.7914 3.235 12.8776 2.59537 13.2214 2.06063C13.8901 1.02065 15.4784 0.442342 17.1649 0.504552C26.0904 0.833792 33.576 7.79161 33.576 17.0895C33.576 25.3619 27.3997 30.4877 24.0823 32.0278C20.0207 33.9335 10.1249 35.4985 2.98875 26.549C0.811262 23.8269 -0.108989 20.2182 0.0102113 16.7001C0.12938 13.183 1.28847 9.7221 3.31368 7.28935L3.76111 7.64973C1.83161 9.9675 0.704002 13.3008 0.588182 16.7191C0.472396 20.1364 1.36882 23.6042 3.44335 26.1974C10.3545 34.8649 19.9201 33.3507 23.8339 31.5142L23.835 31.5137C27.0293 30.0309 32.9977 25.0672 32.9977 17.0895C32.9977 8.11612 25.7773 1.39147 17.1432 1.07298C15.5554 1.01441 14.2214 1.56952 13.7101 2.36469C13.464 2.74754 13.3957 3.20093 13.5919 3.71826ZM17.5048 6.77348C18.313 7.03527 19.2022 7.20575 20.0609 7.26503C20.9789 7.3284 21.8333 7.26219 22.489 7.06043C23.1512 6.85666 23.5521 6.53551 23.6827 6.12988C23.7328 5.97458 23.6991 5.83842 23.5673 5.69801C23.4235 5.54491 23.1679 5.39779 22.8089 5.28409C22.0957 5.05818 21.0816 4.99814 20.1014 5.18662C19.1197 5.37538 18.218 5.80385 17.6808 6.50949C17.6174 6.59279 17.5585 6.68072 17.5048 6.77348Z" fill="#214080"/>
<path d="M0.83097 4.95459C0.908445 4.93307 0.964884 4.91677 1.02168 4.90174C3.36271 4.28225 5.70382 3.66307 8.04501 3.04419C8.07676 3.03861 8.10896 3.03583 8.14121 3.03591C8.13599 3.06561 8.12896 3.09498 8.12014 3.12384C7.4087 5.04886 6.6974 6.97393 5.98623 8.89904C5.95386 8.98683 5.9292 8.99357 5.85906 8.92955C5.33803 8.45405 4.81255 7.98328 4.29259 7.50665C4.22145 7.44144 4.17495 7.43829 4.09819 7.49444C3.70825 7.77964 3.31374 8.05876 2.92261 8.34241C2.85919 8.3884 2.84372 8.37795 2.83471 8.30345C2.74195 7.53643 2.64664 6.76973 2.54878 6.00332C2.54411 5.97825 2.53437 5.95434 2.52015 5.93302C2.50593 5.91171 2.48751 5.8934 2.46598 5.87921C1.95346 5.5875 1.43784 5.30107 0.923162 5.01303C0.898713 4.99933 0.87574 4.98307 0.83097 4.95459ZM3.08421 6.85827C3.09101 6.84856 3.09697 6.8383 3.10202 6.82761C3.10796 6.80709 3.11257 6.78619 3.118 6.76552C3.18077 6.52672 3.22388 6.30518 3.47626 6.14122C4.66206 5.37084 5.82943 4.573 7.00323 3.78477C7.28379 3.59637 7.56407 3.40757 7.84406 3.21835C7.83685 3.21683 7.82939 3.2168 7.82217 3.21824C7.81494 3.21969 7.80809 3.22259 7.80205 3.22675C7.2483 3.53396 6.69457 3.84119 6.14085 4.14843C5.10919 4.72086 4.07788 5.29391 3.04694 5.86762C3.01455 5.88569 2.97506 5.9341 2.97816 5.96447C3.00803 6.25752 3.04633 6.54973 3.08421 6.85827Z" fill="#214080"/>
</svg>
