<svg width="142" height="18" viewBox="0 0 142 18" fill="none" xmlns="http://www.w3.org/2000/svg">
<path d="M7.16029 17.7469C5.07304 17.7469 3.45362 17.315 2.30203 16.4513C1.15045 15.5734 0.545861 14.3274 0.488281 12.7133H3.55438C3.65515 13.6194 3.97903 14.2708 4.52604 14.6672C5.08743 15.0637 5.92233 15.2619 7.03074 15.2619C7.90882 15.2619 8.62856 15.1062 9.18996 14.7947C9.75136 14.469 10.0321 13.9734 10.0321 13.3079C10.0321 13.0672 9.99607 12.8548 9.9241 12.6708C9.86652 12.4725 9.73696 12.3026 9.53543 12.161C9.33391 12.0053 9.16117 11.8849 9.01722 11.8C8.87327 11.7009 8.60697 11.6017 8.21831 11.5026C7.82965 11.3894 7.53455 11.3115 7.33303 11.269C7.1315 11.2124 6.75724 11.1203 6.21023 10.9929C5.54807 10.8371 5.00107 10.7026 4.56922 10.5894C4.15177 10.4761 3.68394 10.2991 3.16572 10.0584C2.6619 9.81767 2.25885 9.55573 1.95655 9.27254C1.66866 8.9752 1.42395 8.59289 1.22242 8.12564C1.02089 7.64422 0.920128 7.09909 0.920128 6.49024C0.920128 5.03183 1.45993 3.91324 2.53955 3.13448C3.63355 2.34156 5.06584 1.9451 6.8364 1.9451C8.59257 1.9451 9.99607 2.35572 11.0469 3.17696C12.0977 3.9982 12.6807 5.16634 12.7959 6.68139H9.79454C9.70817 5.94511 9.39149 5.37873 8.84449 4.98227C8.31188 4.58581 7.63532 4.38758 6.81481 4.38758C5.96552 4.38758 5.28896 4.55041 4.78514 4.87608C4.28132 5.20174 4.02942 5.6336 4.02942 6.17165C4.02942 6.75218 4.27413 7.17696 4.76355 7.44599C5.26737 7.71502 6.14545 7.98404 7.3978 8.25307C8.14634 8.40882 8.75812 8.5575 9.23315 8.69909C9.70818 8.82652 10.2192 9.01767 10.7662 9.27254C11.3276 9.51325 11.7594 9.78228 12.0617 10.0796C12.3784 10.377 12.6375 10.7734 12.8391 11.269C13.055 11.7504 13.1629 12.3097 13.1629 12.9469C13.1629 14.4478 12.6087 15.623 11.5003 16.4725C10.3919 17.3221 8.94525 17.7469 7.16029 17.7469Z" fill="#214080"/>
<path d="M19.9991 17.7256C18.2141 17.7256 16.8106 17.1876 15.7886 16.1115C14.7666 15.0212 14.2555 13.6336 14.2555 11.9486C14.2555 10.3203 14.7666 8.96104 15.7886 7.87077C16.8106 6.76634 18.1206 6.21413 19.7184 6.21413C21.4602 6.21413 22.8061 6.80882 23.7561 7.9982C24.7062 9.18759 25.1812 10.7805 25.1812 12.777H17.1489C17.2641 13.6407 17.5592 14.3133 18.0342 14.7947C18.5092 15.2619 19.157 15.4956 19.9775 15.4956C21.0571 15.4956 21.7696 15.0495 22.1151 14.1575H25.0085C24.7926 15.177 24.2456 16.0265 23.3675 16.7062C22.4894 17.3858 21.3666 17.7256 19.9991 17.7256ZM19.7616 8.44422C18.3365 8.44422 17.48 9.22298 17.1921 10.7805H22.1151C22.0719 10.0867 21.8344 9.52741 21.4026 9.10263C20.9707 8.66369 20.4237 8.44422 19.7616 8.44422Z" fill="#214080"/>
<path d="M26.5835 17.4071V2.22121H29.5201V17.4071H26.5835Z" fill="#214080"/>
<path d="M30.8057 8.50794V6.51148H32.3171V5.53448C32.3171 4.26015 32.7634 3.35395 33.6558 2.8159C34.5483 2.27785 35.7431 2.0867 37.2402 2.24245V4.47254C36.506 4.44422 35.9878 4.50794 35.6855 4.66369C35.3976 4.81944 35.2537 5.16634 35.2537 5.7044V6.51148H37.2402V8.50794H35.2537V17.4071H32.3171V8.50794H30.8057Z" fill="#214080"/>
<path d="M44.7991 17.7469C42.7119 17.7469 41.0925 17.315 39.9409 16.4513C38.7893 15.5734 38.1847 14.3274 38.1271 12.7133H41.1932C41.294 13.6194 41.6179 14.2708 42.1649 14.6672C42.7263 15.0637 43.5612 15.2619 44.6696 15.2619C45.5477 15.2619 46.2674 15.1062 46.8288 14.7947C47.3902 14.469 47.6709 13.9734 47.6709 13.3079C47.6709 13.0672 47.6349 12.8548 47.5629 12.6708C47.5054 12.4725 47.3758 12.3026 47.1743 12.161C46.9727 12.0053 46.8 11.8849 46.6561 11.8C46.5121 11.7009 46.2458 11.6017 45.8572 11.5026C45.4685 11.3894 45.1734 11.3115 44.9719 11.269C44.7703 11.2124 44.3961 11.1203 43.8491 10.9929C43.1869 10.8371 42.6399 10.7026 42.2081 10.5894C41.7906 10.4761 41.3228 10.2991 40.8046 10.0584C40.3007 9.81767 39.8977 9.55573 39.5954 9.27254C39.3075 8.9752 39.0628 8.59289 38.8613 8.12564C38.6597 7.64422 38.559 7.09909 38.559 6.49024C38.559 5.03183 39.0988 3.91324 40.1784 3.13448C41.2724 2.34156 42.7047 1.9451 44.4752 1.9451C46.2314 1.9451 47.6349 2.35572 48.6857 3.17696C49.7366 3.9982 50.3196 5.16634 50.4347 6.68139H47.4334C47.347 5.94511 47.0303 5.37873 46.4833 4.98227C45.9507 4.58581 45.2742 4.38758 44.4537 4.38758C43.6044 4.38758 42.9278 4.55041 42.424 4.87608C41.9202 5.20174 41.6683 5.6336 41.6683 6.17165C41.6683 6.75218 41.913 7.17696 42.4024 7.44599C42.9062 7.71502 43.7843 7.98404 45.0366 8.25307C45.7852 8.40882 46.397 8.5575 46.872 8.69909C47.347 8.82652 47.858 9.01767 48.405 9.27254C48.9664 9.51325 49.3983 9.78228 49.7006 10.0796C50.0173 10.377 50.2764 10.7734 50.4779 11.269C50.6938 11.7504 50.8018 12.3097 50.8018 12.9469C50.8018 14.4478 50.2476 15.623 49.1392 16.4725C48.0308 17.3221 46.5841 17.7469 44.7991 17.7469Z" fill="#214080"/>
<path d="M51.681 8.42298V6.51148H53.214V3.11325H56.0858V6.51148H57.9859V8.42298H56.0858V14.2C56.0858 14.9221 56.4529 15.2832 57.187 15.2832L58.0507 15.2619V17.3858C57.6045 17.4141 56.9927 17.4283 56.2154 17.4283C55.3661 17.4283 54.6535 17.2301 54.0777 16.8336C53.5019 16.423 53.214 15.7504 53.214 14.8159V8.42298H51.681Z" fill="#214080"/>
<path d="M66.5778 17.4071C66.4338 17.223 66.3187 16.8195 66.2323 16.1964H66.1891C65.8724 16.6637 65.4694 17.0248 64.9799 17.2796C64.4905 17.5345 63.8068 17.6619 62.9287 17.6619C61.7627 17.6619 60.827 17.3717 60.1217 16.7911C59.4164 16.2106 59.0637 15.3894 59.0637 14.3274C59.0637 13.223 59.4523 12.4159 60.2297 11.9062C61.007 11.3823 62.101 11.0212 63.5117 10.823C64.5481 10.6814 65.2535 10.5398 65.6277 10.3982C66.002 10.2425 66.1891 9.97343 66.1891 9.59113C66.1891 9.19466 66.0308 8.88316 65.7141 8.65661C65.3974 8.4159 64.9368 8.29555 64.3322 8.29555C62.9935 8.29555 62.2809 8.80528 62.1946 9.82475H59.5819C59.6251 8.79112 60.0497 7.93449 60.8558 7.25484C61.6619 6.57519 62.8279 6.23537 64.3538 6.23537C67.4631 6.23537 69.0177 7.57343 69.0177 10.2495V15.7929C69.0177 16.6141 69.1473 17.1168 69.4064 17.3009V17.4071H66.5778ZM63.6412 15.6442C64.4473 15.6442 65.0807 15.4389 65.5414 15.0283C66.0164 14.6177 66.2539 14.1292 66.2539 13.5628V11.9274C65.9372 12.1115 65.2535 12.3239 64.2026 12.5646C63.3677 12.7486 62.7775 12.961 62.4321 13.2017C62.0866 13.4283 61.9139 13.7823 61.9139 14.2637C61.9139 15.184 62.4897 15.6442 63.6412 15.6442Z" fill="#214080"/>
<path d="M73.7132 6.51148V8.25307H73.778C74.1234 7.6159 74.5049 7.14865 74.9223 6.8513C75.3398 6.53979 75.8652 6.38404 76.4986 6.38404C76.8009 6.38404 77.0312 6.41236 77.1895 6.469V8.99643H77.1248C76.1315 8.89732 75.3326 9.10971 74.728 9.6336C74.1234 10.1575 73.8211 10.9787 73.8211 12.0973V17.4071H70.8846V6.51148H73.7132Z" fill="#214080"/>
<path d="M77.9122 8.42298V6.51148H79.4453V3.11325H82.317V6.51148H84.2171V8.42298H82.317V14.2C82.317 14.9221 82.6841 15.2832 83.4182 15.2832L84.2819 15.2619V17.3858C83.8357 17.4141 83.2239 17.4283 82.4466 17.4283C81.5973 17.4283 80.8847 17.2301 80.3089 16.8336C79.7332 16.423 79.4453 15.7504 79.4453 14.8159V8.42298H77.9122Z" fill="#214080"/>
<path d="M100.632 5.87508H99.7254C99.4724 4.60296 98.9382 3.69035 98.1229 3.13725C97.3075 2.57032 96.2673 2.28686 95.0021 2.28686C93.9759 2.28686 93.0622 2.49427 92.2609 2.90909C91.4737 3.32392 90.806 3.86319 90.2578 4.52691C89.7236 5.20445 89.3159 5.97187 89.0347 6.82917C88.7536 7.67265 88.613 8.53686 88.613 9.42182C88.613 10.3759 88.7536 11.2954 89.0347 12.1804C89.3299 13.0515 89.7587 13.8259 90.321 14.5034C90.8833 15.181 91.5651 15.7271 92.3663 16.142C93.1817 16.543 94.1165 16.7435 95.1708 16.7435C95.6488 16.7435 96.0635 16.7089 96.4149 16.6397C96.7663 16.5706 97.0686 16.4946 97.3216 16.4116C97.5746 16.3148 97.7785 16.218 97.9331 16.1212C98.1018 16.0244 98.2283 15.9415 98.3127 15.8723V12.6782C98.3127 12.0145 98.158 11.6066 97.8488 11.4545C97.5536 11.2885 97.0334 11.2056 96.2884 11.2056V10.4174C96.6398 10.4312 97.0615 10.4451 97.5536 10.4589C98.0596 10.4589 98.5727 10.4589 99.0929 10.4589C99.613 10.4589 100.112 10.4589 100.59 10.4589C101.068 10.4451 101.469 10.4312 101.792 10.4174V11.1848C101.272 11.1848 100.878 11.2678 100.611 11.4337C100.358 11.5996 100.232 12.0145 100.232 12.6782V15.4368L100.569 15.7894V16.3494C99.5708 16.778 98.6219 17.103 97.7223 17.3242C96.8366 17.5316 95.9088 17.6353 94.9389 17.6353C93.6878 17.6353 92.5421 17.4279 91.5018 17.0131C90.4616 16.5844 89.576 16.0037 88.845 15.2708C88.0999 14.538 87.5236 13.6807 87.1159 12.6989C86.7082 11.7172 86.5044 10.6732 86.5044 9.56701C86.5044 8.4055 86.7153 7.32696 87.137 6.33139C87.5587 5.32198 88.1421 4.45085 88.8871 3.718C89.6181 2.98515 90.4827 2.41131 91.4807 1.99648C92.4788 1.56783 93.5472 1.35351 94.6858 1.35351C95.6839 1.35351 96.6187 1.47104 97.4903 1.70611C98.3759 1.92735 99.2826 2.20389 100.21 2.53575L100.632 5.87508Z" fill="#214080"/>
<path d="M102.942 3.61429C102.942 3.26861 102.928 2.99897 102.9 2.80539C102.872 2.59798 102.816 2.44588 102.731 2.34908C102.633 2.25229 102.493 2.19698 102.31 2.18315C102.127 2.1555 101.881 2.14167 101.572 2.14167V1.51944C102.036 1.43647 102.485 1.30511 102.921 1.12535C103.371 0.93177 103.765 0.68979 104.102 0.399414H104.882C104.84 0.772755 104.805 1.19449 104.777 1.66462C104.763 2.12093 104.756 2.5081 104.756 2.82613V15.0634C104.756 15.6165 104.847 16.0037 105.03 16.2249C105.213 16.4323 105.62 16.536 106.253 16.536V17.3035C105.958 17.3035 105.592 17.3035 105.156 17.3035C104.721 17.2896 104.278 17.2827 103.828 17.2827C103.378 17.2827 102.942 17.2827 102.521 17.2827C102.099 17.2827 101.754 17.2896 101.487 17.3035V16.536C102.134 16.536 102.535 16.4462 102.689 16.2664C102.858 16.0866 102.942 15.6857 102.942 15.0634V3.61429Z" fill="#214080"/>
<path d="M116.787 12.2841C116.787 13.017 116.646 13.7083 116.365 14.3582C116.098 15.0081 115.732 15.575 115.268 16.059C114.805 16.543 114.256 16.9301 113.624 17.2205C113.005 17.497 112.338 17.6353 111.621 17.6353C110.89 17.6353 110.194 17.5178 109.533 17.2827C108.886 17.0338 108.317 16.6812 107.825 16.2249C107.333 15.7686 106.946 15.2155 106.665 14.5656C106.384 13.9157 106.244 13.1898 106.244 12.3878C106.244 11.6688 106.37 10.9843 106.623 10.3344C106.876 9.67071 107.228 9.09687 107.677 8.61291C108.127 8.12895 108.661 7.74179 109.28 7.45141C109.913 7.16103 110.601 7.01584 111.346 7.01584C112.12 7.01584 112.837 7.14029 113.497 7.38919C114.158 7.63808 114.734 7.99068 115.226 8.44699C115.704 8.90329 116.084 9.45639 116.365 10.1063C116.646 10.7562 116.787 11.4821 116.787 12.2841ZM114.678 12.5123C114.678 12.0283 114.615 11.5167 114.488 10.9774C114.362 10.4243 114.172 9.91269 113.919 9.44256C113.652 8.98626 113.307 8.606 112.886 8.3018C112.478 7.98377 111.986 7.82475 111.41 7.82475C110.847 7.82475 110.369 7.96302 109.976 8.23957C109.582 8.51612 109.266 8.86181 109.027 9.27663C108.774 9.70528 108.591 10.1754 108.479 10.687C108.38 11.1986 108.331 11.6895 108.331 12.1597C108.331 12.6021 108.387 13.093 108.5 13.6323C108.612 14.1715 108.802 14.6762 109.069 15.1464C109.322 15.6303 109.653 16.0313 110.06 16.3494C110.482 16.6674 110.988 16.8264 111.578 16.8264C112.127 16.8264 112.598 16.6881 112.991 16.4116C113.385 16.135 113.708 15.7824 113.961 15.3538C114.2 14.939 114.376 14.4758 114.488 13.9641C114.615 13.4525 114.678 12.9686 114.678 12.5123Z" fill="#214080"/>
<path d="M120.278 0.399414C120.236 0.772755 120.2 1.19449 120.172 1.66462C120.158 2.12093 120.151 2.5081 120.151 2.82613V8.57143C120.306 8.43316 120.503 8.27414 120.742 8.09439C120.995 7.91463 121.269 7.74179 121.564 7.57586C121.859 7.42375 122.168 7.29239 122.492 7.18177C122.815 7.07115 123.138 7.01584 123.462 7.01584C124.094 7.01584 124.664 7.14721 125.17 7.40993C125.69 7.67265 126.133 8.02525 126.498 8.46773C126.85 8.89638 127.124 9.40108 127.32 9.98183C127.531 10.5488 127.637 11.1364 127.637 11.7448C127.637 12.533 127.503 13.2866 127.236 14.0056C126.969 14.7108 126.604 15.3331 126.14 15.8723C125.662 16.4116 125.092 16.8402 124.432 17.1583C123.785 17.4763 123.068 17.6353 122.281 17.6353C121.564 17.6353 120.945 17.5454 120.425 17.3657C119.919 17.1859 119.519 16.9854 119.223 16.7642L118.696 17.4694L118 17.1168C118.099 16.4669 118.176 15.8032 118.232 15.1256C118.303 14.4481 118.338 13.7705 118.338 13.093V3.61429C118.338 3.26861 118.324 2.99897 118.296 2.80539C118.268 2.59798 118.211 2.44588 118.127 2.34908C118.029 2.25229 117.888 2.19698 117.705 2.18315C117.522 2.1555 117.276 2.14167 116.967 2.14167V1.51944C117.431 1.43647 117.881 1.30511 118.317 1.12535C118.767 0.93177 119.16 0.68979 119.498 0.399414H120.278ZM120.151 14.7316C120.151 15.3538 120.334 15.8654 120.699 16.2664C121.079 16.6674 121.655 16.8679 122.429 16.8679C123.019 16.8679 123.532 16.7365 123.968 16.4738C124.404 16.1973 124.769 15.8516 125.064 15.4368C125.345 15.0219 125.556 14.5656 125.697 14.0678C125.852 13.5562 125.929 13.0654 125.929 12.5952C125.929 11.9592 125.844 11.3784 125.676 10.853C125.507 10.3275 125.282 9.87813 125.001 9.50478C124.72 9.13144 124.39 8.84107 124.01 8.63366C123.63 8.41242 123.23 8.3018 122.808 8.3018C122.358 8.3018 121.88 8.44007 121.374 8.71662C120.882 8.99317 120.475 9.30429 120.151 9.64997V14.7316Z" fill="#214080"/>
<path d="M133.7 12.3878C132.295 12.7335 131.282 13.0999 130.664 13.4871C130.045 13.8604 129.736 14.3375 129.736 14.9182C129.736 15.5128 129.87 15.9069 130.137 16.1005C130.404 16.2941 130.79 16.3909 131.297 16.3909C131.732 16.3909 132.168 16.2595 132.604 15.9968C133.054 15.7202 133.419 15.4298 133.7 15.1256V12.3878ZM137.369 16.3909C137.06 16.6812 136.716 16.9647 136.336 17.2412C135.971 17.504 135.563 17.6353 135.113 17.6353C134.691 17.6353 134.354 17.497 134.101 17.2205C133.862 16.9301 133.735 16.619 133.721 16.2871C133.426 16.5913 132.976 16.8956 132.372 17.1998C131.782 17.4901 131.107 17.6353 130.348 17.6353C129.631 17.6353 129.04 17.421 128.576 16.9923C128.113 16.5637 127.895 16.0244 127.923 15.3745C127.937 14.8353 128.098 14.379 128.408 14.0056C128.717 13.6323 129.132 13.3004 129.652 13.01C130.172 12.7197 130.776 12.4639 131.465 12.2426C132.168 12.0214 132.913 11.7932 133.7 11.5582V10.21C133.7 9.62923 133.56 9.16601 133.279 8.82033C133.012 8.47464 132.534 8.3018 131.845 8.3018C131.339 8.3018 130.903 8.44699 130.537 8.73736C130.172 9.02774 129.982 9.40108 129.968 9.85738C129.968 10.2031 129.877 10.4658 129.694 10.6455C129.525 10.8253 129.293 10.9152 128.998 10.9152C128.703 10.9152 128.499 10.8391 128.387 10.687C128.274 10.5211 128.218 10.3137 128.218 10.0648C128.218 9.6638 128.394 9.29737 128.745 8.96551C129.097 8.61983 129.708 8.21883 130.58 7.76253C131.043 7.51363 131.423 7.33388 131.718 7.22326C132.028 7.09881 132.379 7.03659 132.773 7.03659C133.532 7.03659 134.178 7.25091 134.712 7.67956C135.247 8.09439 135.514 8.69588 135.514 9.48404V15.0842C135.514 15.8032 135.633 16.1973 135.872 16.2664C136.125 16.3355 136.575 16.1489 137.222 15.7064L137.369 16.3909Z" fill="#214080"/>
<path d="M138.688 3.61429C138.688 3.26861 138.674 2.99897 138.646 2.80539C138.618 2.59798 138.562 2.44588 138.478 2.34908C138.379 2.25229 138.239 2.19698 138.056 2.18315C137.873 2.1555 137.627 2.14167 137.318 2.14167V1.51944C137.782 1.43647 138.232 1.30511 138.667 1.12535C139.117 0.93177 139.511 0.68979 139.848 0.399414H140.628C140.586 0.772755 140.551 1.19449 140.523 1.66462C140.509 2.12093 140.502 2.5081 140.502 2.82613V15.0634C140.502 15.6165 140.593 16.0037 140.776 16.2249C140.959 16.4323 141.366 16.536 141.999 16.536V17.3035C141.704 17.3035 141.338 17.3035 140.903 17.3035C140.467 17.2896 140.024 17.2827 139.574 17.2827C139.124 17.2827 138.688 17.2827 138.267 17.2827C137.845 17.2827 137.501 17.2896 137.234 17.3035V16.536C137.88 16.536 138.281 16.4462 138.435 16.2664C138.604 16.0866 138.688 15.6857 138.688 15.0634V3.61429Z" fill="#214080"/>
</svg>
