<svg width="16" height="17" viewBox="0 0 16 17" fill="none" xmlns="http://www.w3.org/2000/svg">
<g opacity="0.9">
<g clip-path="url(#clip0_4299_62037)">
<path d="M6 4.73885C6.00807 3.28883 6.07237 2.50356 6.58463 1.9913C7.17041 1.40552 8.11322 1.40552 9.99884 1.40552L10.6655 1.40552C12.5511 1.40552 13.4939 1.40552 14.0797 1.9913C14.6655 2.57709 14.6655 3.5199 14.6655 5.40552L14.6655 10.7389C14.6655 12.6245 14.6655 13.5673 14.0797 14.1531C13.4939 14.7389 12.5511 14.7389 10.6655 14.7389L9.99884 14.7389C8.11322 14.7389 7.17041 14.7389 6.58463 14.1531C6.07237 13.6408 6.00807 12.8555 6 11.4055" stroke="#262A39" stroke-width="1.5" stroke-linecap="round"/>
<path d="M10 8.07227L1.33333 8.07227M1.33333 8.07227L3.66667 6.07227M1.33333 8.07227L3.66667 10.0723" stroke="#262A39" stroke-width="1.5" stroke-linecap="round" stroke-linejoin="round"/>
</g>
</g>
<defs>
<clipPath id="clip0_4299_62037">
<rect y="0.0722656" width="16" height="16" rx="5" fill="white"/>
</clipPath>
</defs>
</svg>
