<svg width="16" height="16" viewBox="0 0 16 16" fill="none" xmlns="http://www.w3.org/2000/svg">
<g clip-path="url(#clip0_5354_55994)">
<path d="M2 8C2 10.5142 2 13.1046 2.87868 13.8856C3.75736 14.6667 5.17157 14.6667 8 14.6667C10.8284 14.6667 12.2426 14.6667 13.1213 13.8856C14 13.1046 14 10.5142 14 8" stroke="#626C76" stroke-width="1.5"/>
<path d="M9.7742 9.46798L13.779 8.26652C14.176 8.14742 14.3746 8.08787 14.5005 7.94514C14.525 7.91734 14.5472 7.88753 14.5668 7.85604C14.6673 7.69438 14.6673 7.48714 14.6673 7.07266C14.6673 5.43922 14.6673 4.62251 14.2187 4.0711C14.1324 3.96512 14.0356 3.86826 13.9296 3.78203C13.3782 3.33337 12.5615 3.33337 10.928 3.33337H5.07327C3.43983 3.33337 2.62312 3.33337 2.07171 3.78203C1.96573 3.86826 1.86887 3.96512 1.78264 4.0711C1.33398 4.62251 1.33398 5.43922 1.33398 7.07266C1.33398 7.48714 1.33398 7.69438 1.4345 7.85604C1.45408 7.88753 1.47626 7.91734 1.50079 7.94514C1.62675 8.08787 1.82525 8.14742 2.22225 8.26652L6.22711 9.46798" stroke="#626C76" stroke-width="1.5"/>
<path d="M4.33398 3.33337C4.88295 3.31946 5.44015 2.96998 5.62695 2.45359C5.63269 2.4377 5.63858 2.42003 5.65036 2.38469L5.66747 2.33337C5.69559 2.249 5.70966 2.2068 5.72471 2.16937C5.91683 1.69146 6.36706 1.36695 6.88121 1.33581C6.92148 1.33337 6.96595 1.33337 7.05489 1.33337H8.94671C9.03566 1.33337 9.08013 1.33337 9.12039 1.33581C9.63454 1.36695 10.0848 1.69146 10.2769 2.16937C10.2919 2.2068 10.306 2.24899 10.3341 2.33337L10.3512 2.38469C10.363 2.41983 10.3689 2.43775 10.3747 2.45359C10.5615 2.96998 11.1184 3.31946 11.6673 3.33337" stroke="#626C76" stroke-width="1.2"/>
<path d="M9.33398 8.33337H6.66732C6.48322 8.33337 6.33398 8.48261 6.33398 8.66671V10.1077C6.33398 10.244 6.41697 10.3666 6.54352 10.4172L7.01028 10.6039C7.64604 10.8582 8.35526 10.8582 8.99103 10.6039L9.45778 10.4172C9.58433 10.3666 9.66732 10.244 9.66732 10.1077V8.66671C9.66732 8.48261 9.51808 8.33337 9.33398 8.33337Z" stroke="#626C76" stroke-width="1.2" stroke-linecap="round"/>
</g>
<defs>
<clipPath id="clip0_5354_55994">
<rect width="16" height="16" fill="white"/>
</clipPath>
</defs>
</svg>
