<svg width="576" height="383" viewBox="0 0 576 383" fill="none" xmlns="http://www.w3.org/2000/svg">
<path d="M227.14 30.0385C221.739 24.6714 216.339 19.3043 210.972 13.9039C209.772 12.7038 207.905 14.5706 209.105 15.7707C214.506 21.1378 219.906 26.5049 225.273 31.9053C226.473 33.1054 228.34 31.2386 227.14 30.0385Z" fill="#FFD2C4"/>
<path d="M334.548 0.436142C331.381 4.1031 328.215 7.73673 325.048 11.4037C323.914 12.7038 325.848 14.5706 326.948 13.2705C330.115 9.60354 333.282 5.96992 336.449 2.30296C337.582 1.03619 335.648 -0.863961 334.548 0.436142Z" fill="#C3DDF0"/>
<path d="M363.351 20.0044C355.483 23.5713 347.649 27.1716 339.782 30.7386C338.215 31.472 339.582 33.7388 341.149 33.0387C349.016 29.4718 356.85 25.8715 364.718 22.3045C366.318 21.5712 364.951 19.3043 363.351 20.0044Z" fill="#FFD2C4"/>
<path d="M344.882 222.154C322.714 225.254 324.481 258.357 348.982 258.19C376.785 257.99 372.284 218.287 344.882 222.154Z" fill="#FFD2C4"/>
<path d="M213.705 241.922L217.605 253.556L228.773 244.656L213.705 241.922Z" fill="#FFD2C4"/>
<path d="M38.2246 117.812L49.7255 146.448L68.4937 122.979L38.2246 117.812Z" fill="#C3DDF0"/>
<path d="M499.662 59.8742L473.827 92.3768L505.796 120.946L537.465 92.3768L499.662 59.8742Z" fill="#FFD2C4"/>
<path d="M484.228 84.2428H467.726L465.093 103.644L480.594 108.778L484.228 84.2428Z" fill="#FFD2C4"/>
<path d="M72.0274 72.0752C71.294 77.209 70.5606 82.3094 69.8272 87.4431C69.5938 89.1099 72.1274 89.8433 72.394 88.1432C73.1274 83.0094 73.8608 77.909 74.5942 72.7753C74.8276 71.1085 72.2607 70.3751 72.0274 72.0752Z" fill="#FFD2C4"/>
<path d="M490.361 45.4397C490.094 43.7729 487.527 44.473 487.794 46.1398C488.161 48.34 488.527 50.5401 488.894 52.7403C489.161 54.4071 491.727 53.7071 491.461 52.0403C491.094 49.8401 490.727 47.6399 490.361 45.4397Z" fill="#C3DDF0"/>
<path d="M545.099 110.345C541.065 110.712 537.031 111.078 533.031 111.445C531.331 111.612 531.331 114.245 533.031 114.079C537.065 113.712 541.098 113.345 545.099 112.978C546.765 112.845 546.799 110.212 545.099 110.345Z" fill="#C3DDF0"/>
<path d="M54.4265 95.0771C52.2264 93.6103 50.0262 92.1435 47.826 90.71C46.3926 89.7766 45.0591 92.0435 46.4926 93.0102C48.6927 94.477 50.8929 95.9438 53.0931 97.3772C54.5265 98.3106 55.86 96.0105 54.4265 95.0771Z" fill="#FFD2C4"/>
<path d="M186.903 35.639C150.233 45.5731 116.731 64.608 89.3952 91.0101C88.1618 92.2102 90.0286 94.077 91.262 92.8769C118.298 66.8081 151.367 48.04 187.603 38.2058C189.237 37.7391 188.536 35.2056 186.903 35.639Z" fill="#C3DDF0"/>
<path d="M449.525 47.8399C435.39 35.8723 418.989 27.505 400.954 23.1713C399.287 22.7713 398.587 25.3381 400.254 25.7382C417.822 29.9718 433.857 38.0391 447.624 49.7067C448.925 50.8068 450.825 48.94 449.525 47.8399Z" fill="#C3DDF0"/>
<path d="M394.12 376.633C393.42 376.633 392.82 376.066 392.786 375.333L387.952 205.786C387.919 205.053 388.519 204.452 389.253 204.419C389.953 204.419 390.586 204.986 390.619 205.719L395.453 375.266C395.486 375.999 394.886 376.6 394.153 376.633C394.12 376.633 394.12 376.633 394.12 376.633Z" fill="#262A39"/>
<path d="M180.703 383C179.969 383 179.369 382.4 179.369 381.667V356.098C179.369 355.364 179.969 354.764 180.703 354.764C181.436 354.764 182.036 355.364 182.036 356.098V381.667C182.036 382.433 181.436 383 180.703 383Z" fill="#262A39"/>
<path d="M261.576 284.626C261.543 284.626 261.509 284.626 261.476 284.626L223.84 281.492C223.473 281.459 223.14 281.292 222.94 281.025C222.706 280.759 222.606 280.392 222.64 280.025L225.006 258.59C225.073 257.923 225.64 257.423 226.307 257.423H261.576C262.309 257.423 262.909 258.023 262.909 258.757V283.325C262.909 283.692 262.743 284.059 262.476 284.292C262.209 284.492 261.876 284.626 261.576 284.626ZM225.373 278.958L260.243 281.859V260.057H227.473L225.373 278.958Z" fill="#262A39"/>
<path d="M356.35 249.056C343.049 249.056 336.282 239.622 335.648 230.821C335.015 222.187 339.949 212.12 352.25 210.386C360.85 209.153 368.351 212.086 372.818 218.354C377.152 224.421 377.852 232.755 374.585 239.155C371.351 245.489 364.917 249.023 356.517 249.089C356.483 249.056 356.417 249.056 356.35 249.056ZM352.616 213.02C341.982 214.52 337.749 223.187 338.282 230.655C338.849 238.522 344.682 246.422 356.35 246.422C356.417 246.422 356.483 246.422 356.55 246.422C363.917 246.356 369.518 243.356 372.285 237.955C375.118 232.455 374.485 225.187 370.718 219.92C368.418 216.687 363.017 211.553 352.616 213.02Z" fill="#262A39"/>
<path d="M175.169 245.456C174.235 238.789 171.135 229.288 174.902 221.82C180.269 211.22 189.403 199.519 192.837 203.586C198.47 210.22 214.005 306.727 211.138 334.096C208.271 361.465 181.702 375.333 181.702 375.333L180.736 356.131C180.736 356.131 193.637 344.064 194.337 320.562C195.037 297.06 180.602 230.921 180.602 230.921L175.169 245.456Z" fill="#262A39"/>
<path d="M404.353 331.996C402.386 341.397 398.219 349.064 393.486 355.164C393.319 352.531 393.152 349.864 392.986 347.23C392.086 333.596 388.052 211.42 389.719 207.353C387.219 194.585 395.786 209.62 400.12 219.32C403.787 227.521 408.187 238.188 407.554 248.689C408.254 281.059 407.554 316.728 404.353 331.996Z" fill="#262A39"/>
<path d="M157.734 290.359C157 290.359 156.4 289.759 156.4 289.026L156.333 188.251C156.333 180.617 162.301 174.483 169.901 174.283C202.537 173.45 202.671 173.617 203.237 174.317C203.504 174.65 203.604 175.083 203.504 175.483C203.337 176.184 202.604 176.65 201.904 176.45C201.87 176.45 201.837 176.417 201.804 176.417C200.904 176.35 195.837 176.25 169.968 176.95C163.801 177.117 158.967 182.084 158.967 188.251L159.034 289.026C159.067 289.759 158.467 290.359 157.734 290.359Z" fill="#262A39"/>
<path d="M398.553 234.988C397.819 234.988 397.219 234.388 397.219 233.655V185.784C397.219 179.55 392.152 174.483 385.918 174.483C385.185 174.483 384.585 173.883 384.585 173.15C384.585 172.417 385.185 171.817 385.918 171.817C393.619 171.817 399.853 178.084 399.853 185.751V233.621C399.853 234.388 399.286 234.988 398.553 234.988Z" fill="#262A39"/>
<path d="M163.534 383C162.8 383 162.2 382.4 162.2 381.667V371.232C162.2 370.499 162.8 369.899 163.534 369.899C164.267 369.899 164.867 370.499 164.867 371.232V381.667C164.867 382.433 164.267 383 163.534 383Z" fill="#262A39"/>
<path d="M365.05 173.183C363.784 153.148 347.849 155.649 347.849 155.649C343.415 143.681 331.948 142.181 331.948 142.181C330.981 127.546 323.68 112.412 291.945 114.045C260.209 115.679 246.441 129.246 247.541 150.415C234.307 150.581 229.573 158.582 229.64 163.849C227.073 157.982 226.373 150.982 226.306 142.914C225.906 107.145 243.174 95.4104 308.746 94.777C363.417 94.2436 368.784 105.978 370.351 132.847C371.384 151.248 371.518 164.416 365.05 173.183Z" fill="#262A39"/>
<path d="M311.846 188.618C237.473 188.618 225.306 175.15 224.972 142.948C224.806 127.48 227.906 117.312 235.073 110.012C246.207 98.644 267.542 93.8436 308.712 93.4769C363.583 92.9769 370.017 105.045 371.651 132.78C372.784 152.448 372.917 167.083 364.25 176.284C356.083 184.918 340.415 188.618 311.846 188.618ZM308.746 96.1105C268.342 96.4772 247.574 101.044 236.973 111.845C230.339 118.612 227.439 128.18 227.606 142.914C227.939 172.183 236.34 185.951 311.846 185.951C339.615 185.951 354.716 182.517 362.316 174.45C370.284 166.016 370.117 151.915 369.017 132.913C367.584 108.378 364.217 95.6104 308.746 96.1105Z" fill="#262A39"/>
<path d="M261.543 168.25C261.376 168.25 261.176 168.216 261.009 168.15C260.343 167.85 260.043 167.083 260.343 166.416C265.043 155.649 276.81 129.213 276.81 129.213C277.111 128.546 277.877 128.246 278.511 128.513C278.877 128.646 314.647 143.181 331.715 140.547C332.448 140.447 333.115 140.947 333.215 141.647C333.315 142.381 332.848 143.048 332.115 143.148C315.947 145.648 285.245 134.013 278.711 131.447C276.377 136.68 266.876 158.049 262.743 167.483C262.543 167.95 262.076 168.25 261.543 168.25Z" fill="#262A39"/>
<path d="M246.408 178.55C245.774 178.55 245.208 178.084 245.108 177.45C244.674 174.683 245.308 172.183 246.941 170.216C249.541 167.149 254.475 165.616 261.542 165.616C262.276 165.616 262.876 166.216 262.876 166.949C262.876 167.683 262.276 168.283 261.542 168.283C255.342 168.283 251.008 169.55 248.941 171.95C247.775 173.317 247.375 175.017 247.708 177.05C247.808 177.784 247.341 178.45 246.608 178.584C246.541 178.55 246.474 178.55 246.408 178.55Z" fill="#262A39"/>
<path d="M303.412 182.551C302.679 182.551 302.079 181.951 302.079 181.217C302.079 180.484 302.679 179.884 303.412 179.884C305.879 179.884 307.912 179.217 308.879 178.117C309.413 177.484 309.579 176.717 309.446 175.783C309.079 173.683 304.446 172.517 302.245 172.283C301.579 172.217 301.079 171.65 301.079 170.983V158.849C301.079 158.115 301.679 157.515 302.412 157.515C303.145 157.515 303.745 158.115 303.745 158.849V169.816C306.212 170.25 311.479 171.616 312.079 175.35C312.38 177.05 311.979 178.617 310.946 179.817C309.413 181.584 306.746 182.551 303.412 182.551Z" fill="#262A39"/>
<path d="M284.877 152.148C282.71 152.382 280.61 152.748 278.51 153.382C276.877 153.882 277.977 156.282 279.61 155.782C281.444 155.215 283.377 154.948 285.311 154.748C287.011 154.548 286.577 151.948 284.877 152.148Z" fill="#262A39"/>
<path d="M323.147 153.148C321.78 152.248 320.28 151.615 318.98 150.615C317.647 149.581 315.78 151.482 317.147 152.515C318.613 153.648 320.314 154.415 321.847 155.449C323.28 156.382 324.547 154.048 323.147 153.148Z" fill="#262A39"/>
<path d="M333.748 186.951C333.014 186.951 332.414 186.351 332.414 185.651C332.314 173.183 331.981 162.582 330.614 142.281C329.314 122.913 316.68 114.112 292.011 115.379C274.943 116.245 262.742 120.612 255.742 128.38C250.708 133.98 248.374 141.347 248.841 150.348C248.874 151.082 248.308 151.715 247.574 151.748C246.774 151.748 246.207 151.215 246.174 150.481C245.674 140.781 248.208 132.747 253.741 126.613C261.242 118.312 274.043 113.645 291.844 112.745C317.913 111.412 331.848 121.279 333.214 142.114C334.581 162.416 334.915 173.45 335.015 185.651C335.081 186.351 334.515 186.951 333.748 186.951Z" fill="#262A39"/>
<path d="M184.903 222.221C184.703 222.221 184.503 222.187 184.336 222.087C183.67 221.787 183.403 220.987 183.703 220.32L184.536 218.587C189.637 208.053 205.138 176.05 204.171 146.648C203.238 118.912 203.505 99.8441 214.739 88.0431C226.806 75.3755 250.342 70.8085 308.046 69.9084C356.017 69.0083 383.286 72.4086 386.552 153.115C386.753 158.282 386.919 163.082 387.053 167.549C387.586 184.651 387.953 197.019 390.986 206.953C391.186 207.653 390.819 208.386 390.119 208.619C389.419 208.819 388.686 208.453 388.453 207.753C385.319 197.485 384.952 184.984 384.419 167.65C384.286 163.182 384.119 158.382 383.919 153.215C380.585 71.1418 351.75 71.7085 308.113 72.5419C251.242 73.4086 228.173 77.7757 216.672 89.8433C206.138 100.878 205.938 119.479 206.838 146.548C207.838 176.584 192.104 209.053 186.937 219.72L186.103 221.454C185.87 221.954 185.403 222.221 184.903 222.221Z" fill="#262A39"/>
<path d="M229.639 163.883L228.306 163.849C228.272 160.649 229.673 157.315 232.239 154.682C234.673 152.182 239.307 149.181 247.541 149.081C248.207 149.081 248.874 149.648 248.874 150.381C248.874 151.115 248.307 151.715 247.574 151.715C240.24 151.815 236.24 154.382 234.14 156.515C232.106 158.582 230.939 161.316 230.973 163.816L229.639 163.883Z" fill="#262A39"/>
<path d="M363.817 175.217C363.817 175.317 363.817 175.383 363.85 175.483C364.651 174.717 365.517 173.983 366.417 173.317C366.417 173.25 366.417 173.183 366.417 173.117C365.984 166.049 363.717 160.849 359.717 157.649C355.616 154.348 350.883 154.148 348.783 154.248C343.882 142.548 332.648 140.914 332.181 140.847C331.448 140.747 330.781 141.247 330.681 141.981C330.581 142.714 331.081 143.381 331.815 143.481C332.248 143.548 342.549 145.081 346.682 156.115C346.916 156.715 347.482 157.049 348.116 156.949C348.183 156.949 353.683 156.149 358.083 159.716C361.45 162.449 363.384 166.983 363.784 173.283C363.784 173.917 363.817 174.55 363.817 175.217Z" fill="#262A39"/>
<path d="M282.51 178.817C280.677 178.817 278.777 178.384 277.043 177.517C272.443 175.217 269.776 170.55 269.776 164.683C269.776 163.949 270.376 163.349 271.109 163.349C271.843 163.349 272.443 163.949 272.443 164.683C272.476 169.516 274.576 173.317 278.243 175.15C281.377 176.717 285.044 176.45 287.611 174.55C290.544 172.35 291.644 168.35 290.744 163.282C290.611 162.549 291.111 161.882 291.811 161.749C292.544 161.616 293.211 162.116 293.344 162.816C294.811 171.05 291.378 175.017 289.177 176.65C287.277 178.084 284.91 178.817 282.51 178.817Z" fill="#262A39"/>
<path d="M320.046 177.317C318.413 177.317 316.779 176.95 315.279 176.15C310.979 173.983 308.545 169.183 308.545 163.049C308.545 162.316 309.145 161.716 309.879 161.716C310.612 161.716 311.212 162.316 311.212 163.049C311.212 168.15 313.146 172.083 316.513 173.783C319.146 175.117 322.246 174.883 324.613 173.183C327.514 171.083 328.747 167.116 327.98 162.316C327.88 161.582 328.347 160.916 329.08 160.782C329.814 160.682 330.48 161.149 330.614 161.882C331.547 167.683 329.947 172.583 326.18 175.317C324.313 176.65 322.213 177.317 320.046 177.317Z" fill="#262A39"/>
<path d="M292.344 169.583C291.877 169.583 291.41 169.35 291.177 168.883C290.81 168.25 291.077 167.45 291.71 167.083C292.111 166.849 301.711 161.716 310.412 165.849C311.079 166.149 311.345 166.949 311.045 167.616C310.745 168.283 309.945 168.55 309.279 168.25C301.778 164.683 293.077 169.35 292.977 169.416C292.777 169.516 292.544 169.583 292.344 169.583Z" fill="#262A39"/>
<path d="M314.78 163.549L314.513 166.183C314.146 169.583 319.413 170.116 319.78 166.749L320.047 164.116C320.38 160.716 315.113 160.149 314.78 163.549Z" fill="#262A39"/>
<path d="M279.077 164.383L278.81 167.016C278.444 170.416 283.711 170.95 284.077 167.583L284.344 164.949C284.711 161.549 279.444 160.982 279.077 164.383Z" fill="#262A39"/>
<path d="M136.999 304.427C135.199 304.427 133.299 304.227 131.265 303.76C118.398 300.927 114.064 279.258 109.03 254.19C107.63 247.156 106.163 239.889 104.463 232.821C104.163 231.655 103.896 230.555 103.63 229.388C100.529 216.587 97.4626 204.452 93.5289 196.919C82.528 175.683 63.0265 161.682 55.6592 160.149C54.5591 159.916 54.0591 160.049 53.9591 160.116C53.7924 160.516 53.2257 162.949 60.693 170.616C64.0932 174.083 64.8933 179.217 62.7931 183.684C61.1263 187.251 60.4929 190.518 60.9263 193.452C61.0263 194.185 60.5263 194.852 59.8262 194.952C59.0928 195.052 58.4261 194.552 58.3261 193.852C57.8261 190.385 58.5261 186.584 60.4263 182.551C62.0597 179.084 61.4263 175.117 58.8261 172.45C52.6923 166.149 50.3255 161.749 51.5922 158.982C51.8589 158.415 52.5923 157.415 54.4591 157.349C54.4925 157.349 54.5591 157.349 54.5925 157.349C62.1931 157.349 84.1282 172.983 95.8958 195.685C99.9628 203.486 103.096 215.787 106.23 228.754C106.497 229.888 106.763 231.021 107.063 232.155C108.763 239.289 110.23 246.589 111.664 253.656C116.297 276.825 120.664 298.693 131.865 301.16C153.1 305.861 161.434 281.525 171.035 253.39C174.835 242.322 178.736 230.855 183.736 220.287C184.036 219.62 184.836 219.354 185.503 219.654C186.17 219.954 186.436 220.754 186.136 221.42C181.203 231.821 177.302 243.222 173.569 254.223C164.735 279.992 156.401 304.427 136.999 304.427Z" fill="#262A39"/>
<path d="M41.6249 190.685C41.4583 190.685 41.2916 190.651 41.1249 190.585C33.691 187.451 13.156 180.284 7.35554 184.551C6.25546 185.384 5.78875 186.651 5.95543 188.451C6.02211 189.185 5.48873 189.818 4.75534 189.885C4.02194 189.951 3.38856 189.418 3.32189 188.685C2.98853 185.251 4.45531 183.351 5.78875 182.417C10.9225 178.65 23.1235 181.517 32.0575 184.418C29.1906 183.117 26.157 182.051 23.4235 181.084C17.7564 179.117 13.6227 177.684 12.756 175.017C12.5226 174.317 12.4226 173.183 13.356 171.816C18.8231 163.783 51.0257 176.117 60.7598 180.117C61.4265 180.384 61.7599 181.151 61.4932 181.851C61.2265 182.517 60.4264 182.851 59.7597 182.584C36.4912 173.083 18.2898 169.283 15.5562 173.35C15.1895 173.883 15.2562 174.117 15.2895 174.217C15.7562 175.617 20.2899 177.217 24.2902 178.617C30.5241 180.784 38.3247 183.517 42.6584 188.518C43.0584 188.985 43.0917 189.651 42.725 190.151C42.4583 190.485 42.0583 190.685 41.6249 190.685Z" fill="#262A39"/>
<path d="M35.2241 194.818C33.1573 194.285 30.6571 193.485 27.9902 192.685C17.6894 189.485 6.02181 185.851 2.32151 190.118C0.654713 192.018 0.821393 194.985 2.82155 199.185C2.82155 199.219 2.85489 199.219 2.85489 199.252C3.62162 199.219 4.38835 199.252 5.12174 199.319C5.35509 198.952 5.38843 198.452 5.18841 198.052C3.72163 195.018 3.4216 192.852 4.28834 191.851C6.85521 188.885 19.0562 192.718 27.1568 195.218C29.857 196.052 32.3906 196.852 34.5241 197.419C35.2241 197.585 35.9575 197.185 36.1242 196.485C36.3576 195.718 35.9575 194.985 35.2241 194.818Z" fill="#262A39"/>
<path d="M128.532 383C123.998 383 119.231 382.533 114.197 381.533C64.4598 371.566 55.5591 302.56 51.2921 269.424C50.8921 266.291 50.5254 263.524 50.192 261.224C49.5586 257.023 48.8252 253.023 48.0585 249.389C47.8918 248.456 47.6918 247.556 47.4585 246.656C43.8582 230.788 39.1578 220.22 34.5241 217.587C29.257 214.587 22.6231 212.853 16.756 211.32C8.55536 209.186 2.08818 207.486 0.754741 203.052C0.354709 201.719 -0.0453196 199.785 1.22145 198.419C3.62164 195.852 9.85546 197.119 29.2903 201.486C29.9904 201.652 30.4571 202.352 30.2904 203.052C30.1237 203.752 29.4237 204.219 28.7236 204.052C15.2559 201.019 4.65505 198.619 3.18827 200.185C2.95492 200.452 2.98825 201.185 3.32161 202.252C4.22168 205.252 10.6555 206.953 17.4561 208.719C23.4566 210.286 30.2904 212.053 35.8575 215.253C43.0914 219.354 47.8585 236.288 50.0587 245.989C50.292 246.889 50.5254 247.889 50.6921 248.856C51.4921 252.523 52.2255 256.557 52.8589 260.824C53.1923 263.157 53.5589 265.924 53.959 269.091C58.1593 301.627 66.8933 369.366 114.764 378.966C166.801 389.434 191.437 338.263 191.67 337.73C191.97 337.063 192.77 336.796 193.437 337.096C194.103 337.396 194.37 338.196 194.07 338.863C193.803 339.33 172.768 383 128.532 383Z" fill="#262A39"/>
<path d="M48.7251 246.256C48.9918 247.189 49.1585 248.123 49.3585 249.056C59.8927 250.989 70.8269 250.689 81.3277 247.923C90.7284 245.422 100.363 240.222 105.83 232.488C105.53 231.321 105.263 230.188 104.996 229.054C99.3291 239.189 85.8281 244.789 74.3938 246.722C65.7931 248.189 57.1258 247.989 48.7251 246.256Z" fill="#262A39"/>
<path d="M147.5 380.133C146.933 380.133 146.4 379.766 146.233 379.2C143.7 370.932 134.966 362.598 123.498 357.531C109.063 351.131 93.0288 351.064 79.5611 357.331C78.8944 357.631 78.1276 357.365 77.7943 356.698C77.4943 356.031 77.761 355.264 78.4277 354.931C92.5955 348.331 109.397 348.364 124.565 355.098C136.732 360.498 146 369.432 148.767 378.433C148.967 379.133 148.6 379.866 147.9 380.1C147.767 380.1 147.633 380.133 147.5 380.133Z" fill="#262A39"/>
<path d="M436.156 287.726C416.088 287.726 406.154 256.99 398.72 234.021L398.22 232.488C394.586 221.154 391.452 211.353 388.119 206.986C387.685 206.419 387.785 205.586 388.352 205.119C388.919 204.686 389.752 204.786 390.219 205.352C393.819 210.086 397.053 220.054 400.753 231.621L401.253 233.155C410.987 263.29 421.388 289.893 441.456 284.259C462.925 278.225 467.959 241.889 472.426 209.82L472.526 209.053C472.726 207.853 472.859 206.719 473.026 205.553C474.859 192.318 476.793 179.784 480.06 171.616C489.594 147.748 510.095 129.98 517.563 129.413C519.463 129.28 520.229 130.18 520.563 130.747C522.13 133.38 520.163 138.047 514.562 144.981C512.295 147.781 512.062 151.748 513.962 154.882C516.329 158.782 517.429 162.549 517.229 166.083C517.196 166.816 516.562 167.383 515.829 167.349C515.096 167.316 514.529 166.683 514.562 165.949C514.696 162.949 513.729 159.682 511.662 156.249C509.195 152.182 509.529 146.981 512.462 143.314C519.263 134.847 518.463 132.447 518.229 132.08C518.163 132.047 517.663 131.947 516.562 132.28C509.362 134.547 491.327 150.381 482.46 172.583C479.293 180.484 477.393 192.851 475.559 205.886C475.392 207.053 475.226 208.186 475.059 209.386L474.959 210.12C470.392 242.989 465.225 280.258 442.09 286.726C440.056 287.459 438.056 287.726 436.156 287.726Z" fill="#262A39"/>
<path d="M533.464 161.449C533.097 161.449 532.73 161.282 532.464 161.016C532.064 160.549 532.03 159.882 532.364 159.382C536.197 153.982 543.665 150.515 549.665 147.748C553.532 145.981 557.899 143.948 558.199 142.514C558.232 142.414 558.266 142.181 557.866 141.681C554.732 137.914 536.997 143.481 514.762 155.182C514.129 155.515 513.329 155.282 512.962 154.615C512.629 153.982 512.862 153.182 513.529 152.815C522.83 147.915 553.665 132.48 559.899 139.947C560.933 141.181 560.966 142.314 560.799 143.048C560.199 145.748 556.232 147.581 550.799 150.115C548.165 151.348 545.231 152.682 542.498 154.282C551.099 150.515 562.999 146.448 568.467 149.715C569.867 150.548 571.534 152.248 571.534 155.715C571.534 156.449 570.933 157.049 570.2 157.049C569.467 157.049 568.867 156.449 568.867 155.715C568.867 153.915 568.3 152.682 567.1 151.982C560.933 148.315 541.164 157.449 534.097 161.282C533.897 161.416 533.697 161.449 533.464 161.449Z" fill="#262A39"/>
<path d="M540.831 167.483C540.298 167.483 539.798 167.149 539.598 166.616C539.331 165.916 539.698 165.183 540.398 164.916C542.398 164.183 544.832 163.149 547.399 162.082C557.333 157.882 568.6 153.115 572.701 157.015C574.534 158.749 574.667 161.716 573.067 166.083C572.801 166.783 572.067 167.116 571.367 166.883C570.667 166.649 570.334 165.883 570.567 165.183C571.734 162.016 571.834 159.849 570.867 158.915C568.034 156.215 556.233 161.216 548.432 164.516C545.832 165.616 543.365 166.649 541.331 167.416C541.131 167.449 540.965 167.483 540.831 167.483Z" fill="#262A39"/>
<path d="M448.99 364.432C411.554 364.432 393.219 338.463 393.019 338.163C392.619 337.563 392.753 336.73 393.353 336.33C393.953 335.93 394.786 336.063 395.186 336.663C395.419 336.996 418.555 369.632 466.125 359.998C515.896 349.931 524.13 277.658 528.53 238.822C528.797 236.488 529.03 234.288 529.297 232.188C529.53 230.121 529.663 228.054 529.797 225.988C529.93 223.987 530.063 222.02 530.263 220.087C530.33 219.154 530.463 218.154 530.63 217.153C531.864 207.319 534.964 190.018 541.764 185.218C546.998 181.517 553.599 179.084 559.432 176.917C566.033 174.483 572.267 172.183 572.867 169.116C573.067 168.016 573.067 167.283 572.8 167.049C571.2 165.616 560.866 169.05 547.765 173.383C547.065 173.617 546.331 173.25 546.098 172.55C545.865 171.85 546.231 171.116 546.931 170.883C565.833 164.649 571.933 162.749 574.567 165.083C575.967 166.316 575.767 168.283 575.5 169.65C574.634 174.183 568.333 176.517 560.366 179.417C554.699 181.517 548.265 183.884 543.298 187.384C538.931 190.451 535.264 201.452 533.264 217.52C533.097 218.487 532.997 219.42 532.93 220.32C532.697 222.254 532.597 224.154 532.464 226.121C532.33 228.221 532.197 230.321 531.93 232.455C531.697 234.555 531.43 236.755 531.164 239.055C526.663 278.558 518.296 352.064 466.658 362.498C460.358 363.899 454.491 364.432 448.99 364.432Z" fill="#262A39"/>
<path d="M531.963 217.453C531.797 218.42 531.697 219.354 531.63 220.32C521.329 223.287 510.428 224.054 499.728 222.321C490.127 220.754 480.059 216.52 473.859 209.353C474.059 208.153 474.192 207.019 474.359 205.853C480.993 215.387 494.961 219.654 506.528 220.454C515.162 221.02 523.763 219.954 531.963 217.453Z" fill="#262A39"/>
<path d="M433.722 363.198C433.555 363.198 433.422 363.165 433.255 363.132C432.555 362.865 432.222 362.132 432.455 361.432C442.789 333.229 484.293 322.029 506.161 328.529C506.861 328.729 507.261 329.462 507.061 330.162C506.861 330.863 506.128 331.263 505.428 331.063C484.493 324.862 444.79 335.496 434.955 362.365C434.755 362.865 434.255 363.198 433.722 363.198Z" fill="#262A39"/>
</svg>
