<svg width="16" height="16" viewBox="0 0 16 16" fill="none" xmlns="http://www.w3.org/2000/svg">
<path d="M2 5.33337C2 3.44776 2 2.50495 2.58579 1.91916C3.17157 1.33337 4.11438 1.33337 6 1.33337H10C11.8856 1.33337 12.8284 1.33337 13.4142 1.91916C14 2.50495 14 3.44776 14 5.33337V10.6667C14 12.5523 14 13.4951 13.4142 14.0809C12.8284 14.6667 11.8856 14.6667 10 14.6667H6C4.11438 14.6667 3.17157 14.6667 2.58579 14.0809C2 13.4951 2 12.5523 2 10.6667V5.33337Z" stroke="#626C76" stroke-width="1.5"/>
<path d="M5.33301 1.66663V14.6666" stroke="#626C76" stroke-width="1.5" stroke-linecap="round"/>
<path d="M1.33301 8H2.66634" stroke="#626C76" stroke-width="1.5" stroke-linecap="round"/>
<path d="M1.33301 10.6666H2.66634" stroke="#626C76" stroke-width="1.5" stroke-linecap="round"/>
<path d="M1.33301 5.33337H2.66634" stroke="#626C76" stroke-width="1.5" stroke-linecap="round"/>
<path d="M7.66699 4.33337H11.0003" stroke="#626C76" stroke-width="1.5" stroke-linecap="round"/>
<path d="M7.66699 6.66663H11.0003" stroke="#626C76" stroke-width="1.5" stroke-linecap="round"/>
</svg>
