<svg width="16" height="16" viewBox="0 0 16 16" fill="none" xmlns="http://www.w3.org/2000/svg">
<path d="M2.18342 10.1974C1.61681 9.46131 1.3335 9.09324 1.3335 8.00033C1.3335 6.90741 1.61681 6.53934 2.18342 5.80321C3.31481 4.33336 5.21224 2.66699 8.00016 2.66699C10.7881 2.66699 12.6855 4.33336 13.8169 5.80321C14.3835 6.53934 14.6668 6.90741 14.6668 8.00033C14.6668 9.09324 14.3835 9.46131 13.8169 10.1974C12.6855 11.6673 10.7881 13.3337 8.00016 13.3337C5.21224 13.3337 3.31481 11.6673 2.18342 10.1974Z" stroke="#3B63B8" stroke-width="1.5"/>
<path d="M10 8C10 9.10457 9.10457 10 8 10C6.89543 10 6 9.10457 6 8C6 6.89543 6.89543 6 8 6C9.10457 6 10 6.89543 10 8Z" stroke="#3B63B8" stroke-width="1.5"/>
</svg>
