<svg width="16" height="16" viewBox="0 0 16 16" fill="none" xmlns="http://www.w3.org/2000/svg">
<path fill-rule="evenodd" clip-rule="evenodd" d="M2.11454 3.44755C1.3335 4.2286 1.3335 5.48568 1.3335 7.99984C1.3335 10.514 1.3335 11.7711 2.11454 12.5521C2.89559 13.3332 4.15267 13.3332 6.66683 13.3332H9.3335C11.8477 13.3332 13.1047 13.3332 13.8858 12.5521C14.6668 11.7711 14.6668 10.514 14.6668 7.99984C14.6668 5.48568 14.6668 4.2286 13.8858 3.44755C13.1047 2.6665 11.8477 2.6665 9.3335 2.6665H6.66683C4.15267 2.6665 2.89559 2.6665 2.11454 3.44755ZM12.3843 5.01308C12.5611 5.22522 12.5324 5.5405 12.3203 5.71728L10.8559 6.93755C10.265 7.42999 9.78609 7.82912 9.36338 8.10099C8.92305 8.38419 8.49422 8.56309 8.00016 8.56309C7.50611 8.56309 7.07728 8.38419 6.63695 8.10099C6.21424 7.82912 5.7353 7.42999 5.1444 6.93756L3.68007 5.71728C3.46793 5.5405 3.43927 5.22522 3.61605 5.01308C3.79283 4.80094 4.10812 4.77228 4.32025 4.94906L5.75952 6.14845C6.38149 6.66676 6.81332 7.02545 7.17788 7.25992C7.53079 7.4869 7.77012 7.56309 8.00016 7.56309C8.23021 7.56309 8.46953 7.4869 8.82244 7.25992C9.18701 7.02545 9.61883 6.66676 10.2408 6.14845L11.6801 4.94906C11.8922 4.77228 12.2075 4.80094 12.3843 5.01308Z" fill="#7545FC"/>
</svg>
