<svg width="12" height="12" viewBox="0 0 12 12" fill="none" xmlns="http://www.w3.org/2000/svg">
<path d="M2.87476 0.5C3.08186 0.5 3.24976 0.667893 3.24976 0.875V1.8L4.11009 1.62793C4.93536 1.46288 5.79081 1.54142 6.57222 1.85399L6.67404 1.89471C7.45462 2.20695 8.31375 2.26525 9.12935 2.06135C9.50798 1.96669 9.87476 2.25306 9.87476 2.64334V6.32685C9.87476 6.649 9.65551 6.92981 9.34298 7.00794L9.23574 7.03475C8.35097 7.25595 7.41899 7.1927 6.57222 6.85399C5.79081 6.54142 4.93536 6.46288 4.11009 6.62793L3.24976 6.8V10.875C3.24976 11.0821 3.08186 11.25 2.87476 11.25C2.66765 11.25 2.49976 11.0821 2.49976 10.875V0.875C2.49976 0.667893 2.66765 0.5 2.87476 0.5Z" fill="#FD9B53"/>
</svg>
