<svg width="16" height="16" viewBox="0 0 16 16" fill="none" xmlns="http://www.w3.org/2000/svg">
<path d="M6.69205 3.54444L7.12473 4.31973C7.51519 5.01938 7.35845 5.93721 6.74347 6.55219C6.74347 6.55219 6.74347 6.55219 6.74346 6.55219C6.74335 6.55231 5.99761 7.29826 7.35 8.65065C8.70174 10.0024 9.44764 9.258 9.44846 9.25719C9.44848 9.25716 9.44847 9.25717 9.44849 9.25715C10.0635 8.6422 10.9813 8.48546 11.6809 8.87592L12.4562 9.3086C13.5127 9.89821 13.6375 11.3798 12.7088 12.3085C12.1508 12.8665 11.4673 13.3006 10.7116 13.3293C9.43951 13.3775 7.27918 13.0556 5.11213 10.8885C2.94508 8.72147 2.62314 6.56114 2.67136 5.28905C2.70001 4.53339 3.13419 3.84982 3.6922 3.29181C4.62083 2.36318 6.10244 2.48795 6.69205 3.54444Z" stroke="#626C76" stroke-width="1.2" stroke-linecap="round"/>
</svg>
