<svg width="14" height="14" viewBox="0 0 14 14" fill="none" xmlns="http://www.w3.org/2000/svg">
<path d="M5.02253 2.97541L3.3271 4.66575C3.01547 4.97644 2.72959 5.26144 2.50384 5.51908C2.35886 5.68453 2.21398 5.86562 2.09125 6.06571L2.07473 6.04924C2.04338 6.01798 2.02768 6.00233 2.01193 5.98705C1.71725 5.70112 1.37061 5.47379 0.99058 5.31721C0.970271 5.30884 0.94966 5.30068 0.908437 5.28434L0.656004 5.18432C0.314029 5.04881 0.222889 4.60857 0.483103 4.34914C1.22991 3.6046 2.12655 2.71067 2.55928 2.53112C2.94091 2.37278 3.35316 2.32009 3.75077 2.37885C4.11508 2.43269 4.45972 2.61983 5.02253 2.97541Z" fill="#3B63B8"/>
<path d="M7.91747 11.8755C8.05409 12.0141 8.14483 12.1121 8.22684 12.2167C8.33508 12.3549 8.43186 12.5015 8.51621 12.6553C8.61117 12.8285 8.68489 13.0134 8.83233 13.3833C8.95236 13.6844 9.35111 13.7639 9.58271 13.533L9.63874 13.4772C10.3855 12.7326 11.2821 11.8386 11.4622 11.4072C11.6211 11.0267 11.6739 10.6157 11.615 10.2193C11.561 9.85614 11.3733 9.51258 11.0168 8.95158L9.31566 10.6476C8.99696 10.9653 8.70474 11.2567 8.44045 11.4849C8.28208 11.6217 8.10879 11.7584 7.91747 11.8755Z" fill="#3B63B8"/>
<path fill-rule="evenodd" clip-rule="evenodd" d="M8.63079 9.918L12.5287 6.03179C13.09 5.47212 13.3707 5.19228 13.5186 4.83643C13.6664 4.48058 13.6664 4.08483 13.6664 3.29335V2.91522C13.6664 1.69813 13.6664 1.08958 13.2872 0.711477C12.9079 0.333374 12.2976 0.333374 11.0768 0.333374H10.6976C9.90367 0.333374 9.50673 0.333374 9.14981 0.480773C8.79289 0.628171 8.51221 0.908007 7.95085 1.46768L4.05295 5.35389C3.397 6.00787 2.99028 6.41337 2.83278 6.80503C2.78302 6.92878 2.75814 7.05115 2.75814 7.17954C2.75814 7.71425 3.18974 8.14456 4.05295 9.00518L4.16896 9.12084L5.52797 7.74156C5.72179 7.54486 6.03836 7.54252 6.23506 7.73633C6.43176 7.93014 6.43411 8.24671 6.2403 8.44342L4.87714 9.8269L4.96851 9.918C5.83172 10.7786 6.26332 11.2089 6.79965 11.2089C6.91815 11.2089 7.03154 11.1879 7.1456 11.1459C7.54778 10.9978 7.95831 10.5885 8.63079 9.918ZM10.462 5.35418C9.95635 5.85831 9.13652 5.85831 8.63087 5.35418C8.12521 4.85004 8.12521 4.03267 8.63087 3.52853C9.13652 3.0244 9.95635 3.0244 10.462 3.52853C10.9677 4.03267 10.9677 4.85004 10.462 5.35418Z" fill="#3B63B8"/>
</svg>
