<svg width="16" height="16" viewBox="0 0 16 16" fill="none" xmlns="http://www.w3.org/2000/svg">
<g clip-path="url(#clip0_29_52570)">
<path d="M5.05324 10.0052L5.40627 9.65109L5.05324 10.0052ZM5.05324 6.35389L4.70022 5.99981L5.05324 6.35389ZM9.63108 10.918L9.27806 10.5639L9.63108 10.918ZM5.96881 10.918L5.61579 11.2721L5.96881 10.918ZM7.79995 12.2089V12.7089V12.2089ZM13.529 7.03179L13.882 7.38588L13.529 7.03179ZM8.95115 2.46768L9.30417 2.82177V2.82177L8.95115 2.46768ZM7.2374 9.44644C7.43296 9.25147 7.43343 8.93489 7.23846 8.73934C7.0435 8.54378 6.72691 8.5433 6.53136 8.73827L7.2374 9.44644ZM3.71559 7.68753L4.06914 7.33398L4.06861 7.33345L3.71559 7.68753ZM6.61309 4.94801C6.8453 5.09746 7.15469 5.03038 7.30414 4.79817C7.45359 4.56597 7.38651 4.25657 7.1543 4.10712L6.61309 4.94801ZM6.46422 4.25759L6.73482 3.83714V3.83714L6.46422 4.25759ZM4.75114 3.37858L4.82423 2.88395L4.75114 3.37858ZM1.48347 5.34887L1.83649 5.70295H1.83649L1.48347 5.34887ZM3.55965 3.53084L3.75126 3.99267L3.55965 3.53084ZM1.9088 6.28406L1.72461 6.7489H1.72461L1.9088 6.28406ZM1.99095 6.31693L2.18142 5.85463L1.99095 6.31693ZM3.0751 7.04897L3.42812 6.69488L3.0751 7.04897ZM3.0123 6.98677L2.66412 7.34562L3.0123 6.98677ZM1.65637 6.18404L1.84056 5.7192H1.84056L1.65637 6.18404ZM8.33337 12.3334L7.97982 12.6869C7.98755 12.6947 7.99553 12.7021 8.00374 12.7093L8.33337 12.3334ZM11.8826 8.82128C11.7325 8.58949 11.4229 8.52325 11.1911 8.67334C10.9594 8.82342 10.8931 9.133 11.0432 9.36479L11.8826 8.82128ZM11.7337 9.51126L11.314 9.78301H11.314L11.7337 9.51126ZM12.6154 11.2192L13.1099 11.1457L12.6154 11.2192ZM10.6391 14.4771L10.9922 14.8311V14.8311L10.6391 14.4771ZM12.4626 12.4071L12.924 12.5997L12.4626 12.4071ZM9.83273 14.3832L10.2972 14.198L9.83273 14.3832ZM9.51661 13.6552L9.95499 13.4148L9.51661 13.6552ZM8.68196 12.639L9.03498 12.2849L9.02364 12.2736L9.01159 12.263L8.68196 12.639ZM9.22724 13.2166L9.62078 12.9082L9.22724 13.2166ZM10.5831 14.5329L10.2301 14.1788L10.5831 14.5329ZM3.83308 7.80503L4.29698 7.99157L3.83308 7.80503ZM13.176 6.67771L9.27806 10.5639L9.98411 11.2721L13.882 7.38588L13.176 6.67771ZM6.32183 10.5639L5.40627 9.65109L4.70022 10.3593L5.61579 11.2721L6.32183 10.5639ZM5.40627 6.70798L9.30417 2.82177L8.59812 2.1136L4.70022 5.99981L5.40627 6.70798ZM11.6979 1.83337H12.0771V0.833374H11.6979V1.83337ZM14.1667 3.91522V4.29333H15.1667V3.91522H14.1667ZM12.0771 1.83337C12.7016 1.83337 13.1198 1.83443 13.4314 1.8762C13.7288 1.91607 13.8533 1.98463 13.9344 2.06556L14.6405 1.35739C14.3424 1.06022 13.972 0.939727 13.5643 0.885069C13.1707 0.832318 12.6734 0.833374 12.0771 0.833374V1.83337ZM15.1667 3.91522C15.1667 3.32085 15.1678 2.82462 15.1148 2.43191C15.0599 2.02465 14.9388 1.65477 14.6405 1.35739L13.9344 2.06556C14.0154 2.14629 14.0839 2.26973 14.1238 2.56555C14.1656 2.8759 14.1667 3.2925 14.1667 3.91522H15.1667ZM5.40627 9.65109C4.96464 9.2108 4.66982 8.91536 4.47921 8.66628C4.29738 8.42868 4.25844 8.29315 4.25844 8.17954H3.25844C3.25844 8.60064 3.43529 8.94763 3.68507 9.27401C3.92606 9.58892 4.27864 9.93894 4.70022 10.3593L5.40627 9.65109ZM5.61579 11.2721C6.03739 11.6924 6.38844 12.0439 6.70425 12.2841C7.03165 12.5332 7.37897 12.7089 7.79995 12.7089V11.7089C7.6846 11.7089 7.54796 11.6695 7.30967 11.4882C7.05979 11.2982 6.76344 11.0042 6.32183 10.5639L5.61579 11.2721ZM13.882 7.38588C14.4144 6.85509 14.7857 6.49746 14.9806 6.02826L14.0571 5.64459C13.9564 5.8871 13.7663 6.08914 13.176 6.67771L13.882 7.38588ZM14.1667 4.29333C14.1667 5.12572 14.1578 5.40225 14.0571 5.64459L14.9806 6.02826C15.1756 5.5589 15.1667 5.04393 15.1667 4.29333H14.1667ZM9.30417 2.82177C9.89433 2.23337 10.0972 2.04358 10.341 1.94292L9.95925 1.01863C9.48918 1.21276 9.13068 1.58264 8.59812 2.1136L9.30417 2.82177ZM11.6979 0.833374C10.9447 0.833374 10.4292 0.824568 9.95925 1.01863L10.341 1.94292C10.5849 1.84218 10.8633 1.83337 11.6979 1.83337V0.833374ZM5.86405 10.8157L7.2374 9.44644L6.53136 8.73827L5.15801 10.1075L5.86405 10.8157ZM7.1543 4.10712L6.73482 3.83714L6.19362 4.67803L6.61309 4.94801L7.1543 4.10712ZM6.73482 3.83714C6.32054 3.57051 5.98617 3.35488 5.69838 3.19981C5.40431 3.04135 5.12883 2.92896 4.82423 2.88395L4.67804 3.8732C4.82431 3.89482 4.98463 3.95115 5.22402 4.08014C5.46969 4.21251 5.76642 4.40308 6.19362 4.67803L6.73482 3.83714ZM1.83649 5.70295C2.21186 5.32872 2.61449 4.92744 2.97631 4.59736C3.15709 4.43245 3.32172 4.29082 3.46294 4.18197C3.61189 4.06716 3.70638 4.01129 3.75126 3.99267L3.36803 3.06902C3.19653 3.14018 3.01667 3.26337 2.85246 3.38994C2.68051 3.52247 2.49318 3.68451 2.30236 3.85859C1.921 4.20649 1.50191 4.62445 1.13045 4.99478L1.83649 5.70295ZM4.82423 2.88395C4.33445 2.81157 3.83084 2.87699 3.36803 3.06902L3.75126 3.99267C4.05171 3.86801 4.37261 3.82807 4.67804 3.8732L4.82423 2.88395ZM1.47218 6.64888L1.72461 6.7489L2.09299 5.81923L1.84056 5.7192L1.47218 6.64888ZM2.72208 7.40305L3.36257 8.04162L4.06861 7.33345L3.42812 6.69488L2.72208 7.40305ZM1.72461 6.7489C1.76703 6.76571 1.78401 6.77245 1.80048 6.77923L2.18142 5.85463C2.15726 5.84468 2.13302 5.83509 2.09299 5.81923L1.72461 6.7489ZM3.42812 6.69488C3.39767 6.66452 3.37922 6.64611 3.36048 6.62793L2.66412 7.34562C2.67687 7.358 2.6898 7.37087 2.72208 7.40305L3.42812 6.69488ZM1.80048 6.77923C2.12191 6.91167 2.41501 7.10391 2.66412 7.34562L3.36048 6.62793C3.02022 6.29777 2.62005 6.03535 2.18142 5.85463L1.80048 6.77923ZM1.13045 4.99478C0.614592 5.50908 0.79648 6.38113 1.47218 6.64888L1.84056 5.7192C1.83759 5.71803 1.83639 5.71714 1.8362 5.717C1.83595 5.71682 1.83587 5.71673 1.83579 5.71663C1.83548 5.71625 1.83434 5.71458 1.83372 5.71156C1.83309 5.70854 1.8335 5.7067 1.83356 5.70647C1.83357 5.70645 1.83355 5.70648 1.83363 5.70634C1.83367 5.70627 1.83433 5.7051 1.83649 5.70295L1.13045 4.99478ZM11.0432 9.36479L11.314 9.78301L12.1534 9.2395L11.8826 8.82128L11.0432 9.36479ZM10.2861 14.123L10.2301 14.1788L10.9361 14.887L10.9922 14.8311L10.2861 14.123ZM11.314 9.78301C11.5898 10.209 11.7809 10.5047 11.9136 10.7496C12.0429 10.9881 12.0992 11.1476 12.1208 11.2927L13.1099 11.1457C13.0647 10.8413 12.9517 10.5663 12.7927 10.273C12.6371 9.98596 12.4208 9.65251 12.1534 9.2395L11.314 9.78301ZM10.9922 14.8311C11.3636 14.4608 11.7828 14.043 12.1318 13.6627C12.3064 13.4725 12.4689 13.2857 12.6019 13.1142C12.7288 12.9506 12.8525 12.7711 12.924 12.5997L12.0012 12.2145C11.9827 12.2589 11.9268 12.3529 11.8116 12.5015C11.7025 12.6422 11.5604 12.8063 11.395 12.9866C11.064 13.3473 10.6615 13.7487 10.2861 14.123L10.9922 14.8311ZM12.1208 11.2927C12.1659 11.5964 12.126 11.9155 12.0012 12.2145L12.924 12.5997C13.1169 12.1377 13.1826 11.6348 13.1099 11.1457L12.1208 11.2927ZM9.01159 12.263L8.663 11.9574L8.00374 12.7093L8.35233 13.015L9.01159 12.263ZM10.2972 14.198C10.1541 13.839 10.068 13.6209 9.95499 13.4148L9.07822 13.8957C9.15509 14.0358 9.21651 14.1876 9.36827 14.5683L10.2972 14.198ZM8.32894 12.9931C8.61947 13.2828 8.73501 13.3991 8.83369 13.5251L9.62078 12.9082C9.47575 12.7232 9.30901 12.5581 9.03498 12.2849L8.32894 12.9931ZM9.95499 13.4148C9.85756 13.2371 9.74579 13.0677 9.62078 12.9082L8.83369 13.5251C8.92517 13.6418 9.00695 13.7657 9.07822 13.8957L9.95499 13.4148ZM11.1092 5.99981C10.7987 6.30939 10.2946 6.30939 9.98411 5.99981L9.27806 6.70798C9.97886 7.40667 11.1144 7.40667 11.8152 6.70798L11.1092 5.99981ZM9.98411 5.99981C9.67442 5.69105 9.67442 5.19109 9.98411 4.88233L9.27806 4.17417C8.57644 4.87369 8.57644 6.00846 9.27806 6.70798L9.98411 5.99981ZM9.98411 4.88233C10.2946 4.57275 10.7987 4.57275 11.1092 4.88233L11.8152 4.17417C11.1144 3.47547 9.97886 3.47547 9.27806 4.17417L9.98411 4.88233ZM11.1092 4.88233C11.4189 5.19109 11.4189 5.69105 11.1092 5.99981L11.8152 6.70798C12.5169 6.00846 12.5169 4.87369 11.8152 4.17417L11.1092 4.88233ZM10.2301 14.1788C10.2343 14.1746 10.2413 14.1703 10.249 14.1681C10.2556 14.1663 10.2605 14.1665 10.2639 14.1672C10.2674 14.1679 10.2731 14.1698 10.2799 14.1753C10.2878 14.1815 10.2941 14.1902 10.2972 14.198L9.36827 14.5683C9.62422 15.2104 10.4562 15.3655 10.9361 14.887L10.2301 14.1788ZM9.27806 10.5639C8.93718 10.9038 8.6807 11.1591 8.46032 11.3494C8.23911 11.5405 8.09001 11.6336 7.97308 11.6767L8.31873 12.6151C8.60397 12.51 8.86122 12.3245 9.11394 12.1062C9.36749 11.8873 9.65252 11.6027 9.98411 11.2721L9.27806 10.5639ZM7.97308 11.6767C7.91148 11.6994 7.85649 11.7089 7.79995 11.7089V12.7089C7.98041 12.7089 8.1522 12.6764 8.31873 12.6151L7.97308 11.6767ZM8.68693 11.9798L8.49946 11.7923L7.79235 12.4995L7.97982 12.6869L8.68693 11.9798ZM4.70022 5.99981C4.37657 6.32249 4.09714 6.60073 3.88019 6.84831C3.66414 7.09487 3.47936 7.3445 3.36918 7.61848L4.29698 7.99157C4.3443 7.8739 4.44163 7.72495 4.6323 7.50735C4.82207 7.29078 5.07397 7.03927 5.40627 6.70798L4.70022 5.99981ZM3.36918 7.61848C3.29725 7.79736 3.25844 7.98288 3.25844 8.17954H4.25844C4.25844 8.11942 4.26938 8.0602 4.29698 7.99157L3.36918 7.61848ZM3.36204 8.04109L3.47953 8.15858L4.18663 7.45147L4.06914 7.33398L3.36204 8.04109Z" fill="#7545FC"/>
</g>
<defs>
<clipPath id="clip0_29_52570">
<rect width="16" height="16" fill="white"/>
</clipPath>
</defs>
</svg>
