<svg width="16" height="16" viewBox="0 0 16 16" fill="none" xmlns="http://www.w3.org/2000/svg">
<path d="M5.22872 2.53478C6.5812 1.73384 7.25744 1.33337 8 1.33337C8.74256 1.33337 9.4188 1.73384 10.7713 2.53478L11.2287 2.80568C12.5812 3.60662 13.2574 4.00709 13.6287 4.66671C14 5.32633 14 6.12727 14 7.72915V8.27094C14 9.87281 14 10.6738 13.6287 11.3334C13.2574 11.993 12.5812 12.3935 11.2287 13.1944L10.7713 13.4653C9.4188 14.2662 8.74256 14.6667 8 14.6667C7.25744 14.6667 6.5812 14.2662 5.22872 13.4653L4.77128 13.1944C3.4188 12.3935 2.74256 11.993 2.37128 11.3334C2 10.6738 2 9.87282 2 8.27094V7.72915C2 6.12727 2 5.32633 2.37128 4.66671C2.74256 4.00709 3.4188 3.60662 4.77128 2.80568L5.22872 2.53478Z" stroke="#000" stroke-width="1.5"/>
<circle cx="8" cy="8" r="2" stroke="#000" stroke-width="1.5"/>
</svg>
