<svg width="594" height="560" viewBox="0 0 594 560" fill="none" xmlns="http://www.w3.org/2000/svg">
<path d="M336.326 386.963L260.917 385.454L257.871 438H343.453C341.245 420.979 338.954 403.957 336.326 386.963Z" fill="#C3DDF0"/>
<path d="M230.34 165.488H116.807L121.083 251.155L182.797 287.993L226.482 243.245L230.34 165.488Z" fill="#FF7E60"/>
<path d="M156.943 312.165H82.6796C82.0647 312.165 81.5616 311.689 81.5616 311.075L75.0771 133.424C75.0771 133.117 75.189 132.809 75.3846 132.614C75.6082 132.39 75.8877 132.278 76.1951 132.278L298.565 130.294C298.845 130.322 299.152 130.406 299.376 130.629C299.6 130.853 299.711 131.132 299.711 131.44V162.548C299.711 163.163 299.208 163.666 298.593 163.666C297.978 163.666 297.475 163.163 297.475 162.548V132.558L77.397 134.514L83.7696 309.901H156.943C157.558 309.901 158.061 310.404 158.061 311.019C158.089 311.661 157.586 312.165 156.943 312.165Z" fill="#262A39"/>
<path d="M195.067 283.152C194.871 283.152 194.675 283.096 194.48 282.984L132.794 246.174C132.459 245.978 132.263 245.643 132.235 245.251L127.959 159.585C127.931 159.277 128.042 158.97 128.266 158.746C128.49 158.523 128.769 158.383 129.077 158.383H242.609C242.917 158.383 243.224 158.523 243.42 158.746C243.644 158.97 243.755 159.277 243.727 159.585L239.87 237.37C239.842 237.649 239.731 237.901 239.563 238.096L195.877 282.844C195.653 283.04 195.346 283.152 195.067 283.152ZM134.471 244.525L194.871 280.608L237.634 236.811L241.408 160.647H130.278L134.471 244.525Z" fill="#262A39"/>
<path d="M195.905 260.463C195.737 260.463 195.542 260.407 195.374 260.323L148.669 235.895C148.334 235.699 148.082 235.364 148.055 234.972L143.778 173.287C143.75 172.979 143.862 172.672 144.058 172.448C144.253 172.224 144.561 172.085 144.84 172.057L226.846 168.675C227.153 168.675 227.46 168.787 227.684 169.01C227.908 169.234 228.019 169.541 228.019 169.849L225.308 232.82C225.308 233.128 225.169 233.407 224.945 233.603L196.66 260.155C196.464 260.351 196.184 260.463 195.905 260.463ZM150.291 234.218L195.709 257.975L223.072 232.289L225.728 170.995L146.154 174.321L150.291 234.218Z" fill="#262A39"/>
<path d="M133.381 246.32C133.018 246.32 132.654 246.152 132.431 245.816C132.095 245.285 132.235 244.587 132.766 244.251L148.614 233.966C149.145 233.63 149.844 233.77 150.179 234.301C150.514 234.832 150.375 235.531 149.844 235.866L133.996 246.152C133.8 246.264 133.577 246.32 133.381 246.32Z" fill="#262A39"/>
<path d="M195.066 283.153C195.039 283.153 195.039 283.153 195.011 283.153C194.396 283.125 193.893 282.594 193.921 281.979L194.787 259.283C194.815 258.669 195.262 258.193 195.961 258.193C196.576 258.221 197.079 258.752 197.051 259.367L196.184 282.063C196.157 282.678 195.653 283.153 195.066 283.153Z" fill="#262A39"/>
<path d="M238.752 238.434C238.64 238.434 238.529 238.406 238.417 238.378L223.855 233.85C223.268 233.655 222.933 233.04 223.1 232.425C223.296 231.838 223.911 231.502 224.526 231.67L239.088 236.198C239.675 236.394 240.01 237.009 239.842 237.623C239.675 238.127 239.227 238.434 238.752 238.434Z" fill="#262A39"/>
<path d="M168.291 231.31C168.039 231.31 167.76 231.226 167.536 231.03C167.061 230.611 167.005 229.912 167.425 229.437L212.899 177.226C213.318 176.751 214.017 176.695 214.492 177.114C214.967 177.534 215.023 178.232 214.604 178.708L169.129 230.918C168.906 231.17 168.598 231.31 168.291 231.31Z" fill="#262A39"/>
<path d="M187.408 236.173C187.129 236.173 186.849 236.061 186.626 235.866C186.178 235.446 186.15 234.72 186.598 234.273L214.855 204.785C215.274 204.338 216.001 204.31 216.448 204.757C216.895 205.177 216.923 205.903 216.476 206.35L188.219 235.81C187.995 236.061 187.716 236.173 187.408 236.173Z" fill="#262A39"/>
<path d="M97.6611 122.498C97.3816 122.498 97.1021 122.386 96.8785 122.191L81.8973 108.16C81.4501 107.74 81.4222 107.014 81.8414 106.567C82.2607 106.119 82.9874 106.091 83.4346 106.511L98.4158 120.542C98.863 120.961 98.8909 121.687 98.4717 122.135C98.276 122.358 97.9686 122.498 97.6611 122.498Z" fill="#C3DDF0"/>
<path d="M82.6799 122.498C82.3725 122.498 82.065 122.386 81.8414 122.135C81.4222 121.687 81.4501 120.961 81.8973 120.542L96.8785 106.511C97.3257 106.091 98.0524 106.119 98.4717 106.567C98.8909 107.014 98.863 107.74 98.4158 108.16L83.4625 122.191C83.2389 122.386 82.9594 122.498 82.6799 122.498Z" fill="#C3DDF0"/>
<path d="M123.291 120.066H110.881C110.266 120.066 109.763 119.563 109.763 118.948V107.348C109.763 106.734 110.266 106.23 110.881 106.23H122.788C123.403 106.23 123.878 106.706 123.906 107.321L124.381 118.92C124.381 119.227 124.269 119.535 124.073 119.758C123.906 119.954 123.598 120.066 123.291 120.066ZM112.027 117.802H122.117L121.726 108.466H112.027V117.802Z" fill="#C3DDF0"/>
<path d="M149.229 114.278H133.381C132.766 114.278 132.263 113.775 132.263 113.16C132.263 112.545 132.766 112.042 133.381 112.042H149.229C149.843 112.042 150.347 112.545 150.347 113.16C150.347 113.775 149.843 114.278 149.229 114.278Z" fill="#C3DDF0"/>
<path d="M111.189 262.467C108.421 266.296 105.626 270.153 102.859 273.982C101.993 275.156 103.977 276.302 104.816 275.128C107.583 271.299 110.378 267.442 113.145 263.613C113.984 262.439 112.027 261.321 111.189 262.467Z" fill="#262A39"/>
<path d="M461.682 141.538C434.487 140.671 430.658 169.153 459.67 174.267L460.536 219.379L475.909 218.792V207.165L466.881 207.696L466.35 201.351L471.744 199.506L471.213 192.575L465.539 192.295L465.26 175.553C490.834 177.09 492.036 142.516 461.682 141.538ZM461.906 169.32C440.832 166.022 442.145 147.016 461.906 147.575C484.965 148.246 482.98 172.59 461.906 169.32Z" fill="#FF7E60"/>
<path d="M425.71 209.313C423.474 211.158 421.238 213.002 418.974 214.847C417.856 215.769 419.449 217.363 420.567 216.44C422.803 214.596 425.039 212.751 427.303 210.906C428.449 209.984 426.828 208.391 425.71 209.313Z" fill="#FF7E60"/>
<path d="M508.051 143.297C504.865 146.036 501.651 148.748 498.464 151.487C497.346 152.437 498.967 154.03 500.057 153.08C503.244 150.341 506.458 147.63 509.644 144.89C510.762 143.968 509.141 142.375 508.051 143.297Z" fill="#FF7E60"/>
<path d="M532.731 201.961C525.073 197.88 517.414 193.799 509.784 189.719C508.498 189.048 507.352 190.976 508.638 191.675C516.296 195.756 523.955 199.837 531.585 203.917C532.871 204.588 534.017 202.632 532.731 201.961Z" fill="#FF7E60"/>
<path d="M320.646 225.524C320.143 225.524 319.695 225.189 319.556 224.686C319.388 224.071 319.751 223.456 320.338 223.288C322.546 222.674 324.195 221.583 324.782 220.354C325.118 219.655 325.09 218.9 324.698 218.09C323.86 216.301 319.416 216.357 317.403 216.692C316.844 216.776 316.285 216.441 316.146 215.882L313.211 205.177C313.043 204.562 313.407 203.947 313.994 203.779C314.581 203.612 315.223 203.975 315.391 204.562L318.074 214.316C320.31 214.093 325.313 213.981 326.767 217.139C327.41 218.565 327.437 219.99 326.823 221.304C325.956 223.177 323.86 224.658 320.925 225.469C320.841 225.524 320.729 225.524 320.646 225.524Z" fill="#262A39"/>
<path d="M321.344 200.845L321.987 203.193C322.798 206.212 327.493 204.926 326.655 201.908L326.012 199.56C325.202 196.541 320.506 197.827 321.344 200.845Z" fill="#262A39"/>
<path d="M293.171 208.531L293.814 210.879C294.624 213.898 299.32 212.612 298.481 209.593L297.838 207.246C297.028 204.255 292.36 205.541 293.171 208.531Z" fill="#262A39"/>
<path d="M290.963 197.016C289.202 197.938 287.525 198.944 285.96 200.174C284.758 201.152 286.491 202.829 287.692 201.879C289.062 200.789 290.655 199.923 292.192 199.084C293.59 198.357 292.36 196.289 290.963 197.016Z" fill="#262A39"/>
<path d="M323.385 187.678C321.987 187.203 320.478 186.98 319.108 186.393C317.683 185.778 316.481 187.902 317.906 188.489C319.472 189.16 321.149 189.467 322.77 189.998C324.251 190.529 324.866 188.182 323.385 187.678Z" fill="#262A39"/>
<path d="M309.242 240.146C307.425 240.341 304.882 240.202 304.183 238.133C303.68 236.652 301.332 237.295 301.835 238.776C302.897 241.907 306.196 242.913 309.242 242.549C310.779 242.382 310.779 239.95 309.242 240.146Z" fill="#262A39"/>
<path d="M333.279 193.215C332.217 189.609 331.099 185.836 329.981 181.923C329.255 179.407 328.36 177.144 327.326 175.103C329.366 172.336 329.366 168.311 327.214 165.125C322.323 157.942 311.478 156.992 303.68 158.138C298.174 158.948 292.92 160.877 287.805 163.001C286.072 163.728 284.087 164.398 282.271 165.349C271.258 169.038 263.852 174.013 259.687 180.498C255.355 187.233 254.628 195.535 257.451 205.876L262.566 224.575C262.734 225.19 263.348 225.525 263.963 225.357C264.466 225.218 264.774 224.77 264.802 224.295C267.234 223.373 268.994 223.037 271.147 222.562C271.65 223.261 273.522 222.87 273.746 222.031C273.802 221.221 273.075 214.569 272.768 210.628C273.438 206.966 274.92 203.472 277.1 199.587C279.252 195.758 281.348 191.454 280.566 186.898C280.538 186.786 280.51 186.674 280.482 186.563C294.457 186.06 319.807 180.274 325.761 177.032C326.571 178.709 327.27 180.553 327.857 182.566C329.003 186.479 330.093 190.252 331.183 193.858C341.245 228.013 347.338 248.612 337.779 258.282C329.59 266.556 311.758 270.301 311.562 270.329C311.199 270.413 310.863 270.664 310.724 271.028C310.584 271.391 310.64 271.782 310.863 272.09C315.867 278.993 323.441 281.062 323.748 281.145C323.832 281.173 323.944 281.173 324.028 281.173C324.279 281.173 324.531 281.09 324.727 280.95C325.006 280.726 325.174 280.391 325.174 280.055V268.484C330.205 266.472 335.655 263.621 339.372 259.848C349.798 249.255 343.593 228.152 333.279 193.215Z" fill="#262A39"/>
<path d="M322.993 278.713L322.854 287.322C317.403 302.247 307.537 303.98 300.214 302.778C286.882 300.598 274.78 287.825 274.584 279.272L273.326 240.031C273.326 239.667 273.13 239.36 272.851 239.136C272.571 238.941 272.18 238.885 271.845 238.969C267.82 240.254 264.41 240.198 261.923 238.857C259.687 237.627 258.876 235.754 258.596 234.72C258.149 233.043 258.373 231.45 259.239 229.969C261.084 226.922 265.752 224.518 272.795 222.953C273.41 222.813 273.801 222.226 273.662 221.612C273.522 220.997 272.907 220.605 272.32 220.745C264.578 222.45 259.519 225.161 257.311 228.795C255.774 231.338 255.969 233.742 256.416 235.307C257.059 237.655 258.624 239.639 260.832 240.813C262.761 241.875 266.059 242.77 271.09 241.484L272.32 279.272C272.571 289.81 286.463 302.778 299.851 304.958C306.559 306.049 318.745 305.266 325.034 287.853C325.09 287.741 325.09 287.602 325.09 287.462V282.794C324.391 281.592 323.776 279.887 322.993 278.713Z" fill="#262A39"/>
<path d="M200.544 460.831C195.206 460.831 189.197 460.635 182.461 460.216C148.501 458.092 121.949 444.34 109.567 422.512C98.8063 403.533 99.7845 380.614 112.362 356.186C144.197 294.445 226.929 280.805 273.41 278.15C274.025 278.094 274.556 278.597 274.612 279.212C274.64 279.827 274.165 280.358 273.55 280.414C227.544 283.013 145.678 296.457 114.374 357.22C102.16 380.922 101.182 403.114 111.524 421.394C123.514 442.552 149.424 455.856 182.6 457.952C234.084 461.194 240.289 451.607 246.829 441.49C247.975 439.701 249.177 437.856 250.603 436.095C260.05 424.496 262.733 422.204 269.413 424.608C271.649 425.418 272.823 425.251 273.019 424.971C273.27 424.608 273.13 422.651 269.469 418.403C267.848 416.502 265.975 415.58 263.767 415.552C263.739 415.552 263.711 415.552 263.683 415.552C259.379 415.552 253.789 419.102 247.947 425.586C247.528 426.061 246.802 426.089 246.354 425.67C245.879 425.251 245.851 424.524 246.27 424.077C250.715 419.158 257.367 413.288 263.683 413.288C263.739 413.288 263.767 413.288 263.795 413.288C266.646 413.316 269.134 414.546 271.174 416.922C274.919 421.254 276.149 424.384 274.891 426.257C274.221 427.263 272.571 428.157 268.658 426.76C263.432 424.887 261.755 426.005 252.364 437.549C250.994 439.226 249.848 441.014 248.73 442.747C242.944 451.635 236.991 460.831 200.544 460.831Z" fill="#262A39"/>
<path d="M240.764 420.499C240.457 420.499 240.149 420.387 239.926 420.135C239.507 419.66 239.535 418.961 240.01 418.542C257.143 402.89 262.006 400.598 268.826 404.903C272.627 407.306 274.724 409.934 275.059 412.757C275.339 415.104 274.36 417.452 272.18 419.716C271.733 420.163 271.034 420.163 270.587 419.744C270.14 419.297 270.14 418.598 270.559 418.151C272.264 416.418 273.019 414.685 272.823 413.036C272.571 410.968 270.783 408.816 267.624 406.831C262.621 403.673 259.295 404.036 241.519 420.219C241.323 420.387 241.044 420.499 240.764 420.499Z" fill="#262A39"/>
<path d="M234.644 414.8C234.336 414.8 234.029 414.688 233.805 414.436C233.386 413.961 233.414 413.263 233.889 412.843C246.047 401.747 254.348 395.57 260.693 396.688C263.795 397.247 266.311 399.511 268.379 403.62C268.659 404.179 268.435 404.85 267.876 405.129C267.317 405.409 266.646 405.185 266.367 404.626C264.634 401.188 262.621 399.315 260.274 398.896C254.879 397.89 246.746 404.123 235.398 414.492C235.175 414.688 234.923 414.8 234.644 414.8Z" fill="#262A39"/>
<path d="M257.954 395.706C249.709 391.011 244.734 389.306 230.787 404.902C228.02 408.004 225.923 410.045 224.582 411.274L223.939 398.92C223.184 399.172 222.458 399.424 221.703 399.703L222.43 413.706C222.458 414.125 222.709 414.489 223.072 414.684C223.212 414.768 223.38 414.796 223.548 414.796C223.799 414.796 224.023 414.712 224.218 414.572C224.33 414.489 227.209 412.281 232.436 406.439C245.824 391.458 249.709 393.666 256.808 397.691C257.339 397.998 258.038 397.802 258.345 397.271C258.681 396.712 258.485 396.014 257.954 395.706Z" fill="#262A39"/>
<path d="M220.808 378.236C221.171 378.739 221.87 378.879 222.373 378.516C237.494 367.811 233.944 355.709 233.805 355.178C233.665 354.73 233.246 354.395 232.771 354.395C193.752 353.081 170.33 365.379 165.159 390.171C164.014 395.705 165.159 400.513 168.597 404.481C177.765 415.102 201.578 416.835 209.572 416.835C210.355 416.835 210.997 416.807 211.445 416.779C214.351 416.612 215.414 414.348 217.538 409.876C218.851 407.081 220.668 403.28 223.687 398.249C223.994 397.718 223.827 397.019 223.295 396.711C222.764 396.376 222.066 396.572 221.758 397.103C218.684 402.217 216.867 406.103 215.525 408.925C213.541 413.118 212.842 414.46 211.333 414.543C211.025 414.571 180.756 415.074 170.33 403C167.395 399.59 166.389 395.426 167.395 390.618C172.706 365.24 197.274 357.749 220.752 356.687C220.752 356.687 221.702 376.252 221.115 376.671C220.556 377.007 220.445 377.733 220.808 378.236Z" fill="#262A39"/>
<path d="M195.485 360.938C195.429 360.938 195.345 360.938 195.29 360.91C194.675 360.798 194.255 360.211 194.367 359.596C195.485 353 199.706 319.264 172.985 302.997C172.454 302.662 172.287 301.991 172.594 301.432C172.93 300.901 173.6 300.733 174.159 301.041C195.849 314.233 199.957 340.115 196.603 359.96C196.491 360.546 196.016 360.938 195.485 360.938Z" fill="#262A39"/>
<path d="M465.315 246.099C468.864 243.332 473.253 239.866 472.442 234.835C472.358 234.304 472.079 232.655 470.625 232.096C468.166 231.173 464.029 233.829 450.501 245.009C432.278 260.102 421.992 295.989 420.176 322.905C419.868 327.601 419.617 331.933 419.365 335.874C418.107 357.144 417.464 367.793 411.371 368.352C405.502 368.939 398.095 352.868 390.968 337.383C389.123 333.331 387.223 329.194 385.266 325.141C374.282 302.362 359.273 280.98 324.056 278.884C323.748 278.856 323.441 278.968 323.217 279.191C323.133 279.275 323.049 279.387 322.993 279.471C323.72 280.561 324.419 281.651 325.118 282.769V281.232C358.322 283.663 372.689 304.235 383.226 326.12C385.182 330.172 387.083 334.309 388.927 338.334C397.201 356.333 403.769 370.616 411.064 370.616C411.232 370.616 411.399 370.616 411.567 370.588C419.617 369.889 420.231 359.268 421.629 336.014C421.853 332.073 422.132 327.769 422.44 323.073C424.228 296.604 434.206 261.443 451.927 246.769C457.517 242.13 467.914 233.493 469.815 234.22C469.927 234.248 470.094 234.527 470.206 235.198C470.793 238.916 467.299 241.655 463.917 244.31C461.178 246.462 458.579 248.502 458.383 251.074C458.243 252.918 459.334 254.456 460.507 256.077C463.079 259.654 466.265 264.071 458.942 274.999C458.607 275.53 458.747 276.229 459.25 276.564C459.781 276.928 460.479 276.76 460.815 276.257C469.004 264.043 464.979 258.453 462.324 254.763C461.318 253.394 460.535 252.276 460.619 251.269C460.759 249.676 462.967 247.943 465.315 246.099Z" fill="#262A39"/>
<path d="M460.508 255.265C459.977 255.265 459.501 254.902 459.39 254.343C459.278 253.728 459.669 253.141 460.284 253.029C467.188 251.66 473.504 249.899 479.066 248.306C489.548 245.343 497.15 243.219 500.867 246.182C502.544 247.523 503.299 249.759 503.131 253.001C503.103 253.616 502.516 254.119 501.93 254.064C501.315 254.036 500.84 253.505 500.867 252.862C501.007 250.402 500.532 248.781 499.47 247.915C496.647 245.651 489.156 247.775 479.709 250.458C474.091 252.051 467.719 253.84 460.731 255.209C460.675 255.265 460.591 255.265 460.508 255.265Z" fill="#262A39"/>
<path d="M475.013 262.451C474.566 262.451 474.147 262.172 473.951 261.725C473.727 261.138 474.007 260.495 474.594 260.271C495.78 252.026 504.305 250.153 507.155 253.172C508.441 254.541 508.385 256.638 507.016 259.628C506.764 260.187 506.065 260.439 505.506 260.187C504.947 259.936 504.696 259.265 504.947 258.678C505.842 256.722 506.037 255.296 505.478 254.709C502.656 251.746 483.566 259.181 475.376 262.367C475.292 262.423 475.153 262.451 475.013 262.451Z" fill="#262A39"/>
<path d="M479.653 269.27C479.178 269.27 478.731 268.962 478.563 268.459C478.395 267.872 478.731 267.229 479.318 267.062C485.607 265.161 490.749 263.4 494.886 261.975C504.501 258.649 508.889 257.111 511.097 260.046C512.047 261.332 512.439 262.645 512.215 263.931C511.88 265.888 510.286 266.978 510.119 267.09C509.588 267.425 508.889 267.285 508.554 266.754C508.218 266.223 508.358 265.524 508.889 265.189C508.889 265.189 509.839 264.546 510.007 263.512C510.119 262.869 509.867 262.142 509.308 261.388C508.106 259.795 503.411 261.416 495.641 264.099C491.476 265.524 486.333 267.313 479.989 269.214C479.877 269.27 479.765 269.27 479.653 269.27Z" fill="#262A39"/>
<path d="M416.206 437.277C413.132 437.277 409.973 437.025 406.815 436.522C386.467 433.308 368.663 420.255 359.188 401.64C358.909 401.081 359.132 400.411 359.691 400.131C360.25 399.852 360.921 400.075 361.201 400.634C370.368 418.606 387.557 431.212 407.178 434.314C423.501 436.885 439.293 432.413 449.411 422.296C471.911 399.796 469.227 337.383 468.221 313.877C467.494 296.604 475.041 292.021 483.063 287.129C484.097 286.514 485.131 285.872 486.193 285.201C489.491 283.077 494.103 281.092 498.547 279.136C504.612 276.508 511.488 273.518 512.298 271.086C512.41 270.751 512.382 270.471 512.187 270.108C510.621 267.397 510.146 267.453 501.761 270.862C497.848 272.456 492.482 274.636 484.823 277.235C484.237 277.431 483.594 277.123 483.398 276.536C483.202 275.949 483.51 275.306 484.097 275.111C491.699 272.539 497.01 270.359 500.895 268.766C509.056 265.44 511.516 264.434 514.115 268.99C514.618 269.884 514.73 270.834 514.423 271.785C513.305 275.167 506.876 277.962 499.441 281.176C495.081 283.077 490.553 285.033 487.395 287.045C486.333 287.716 485.271 288.387 484.209 289.002C476.131 293.921 469.786 297.778 470.457 313.71C471.463 337.467 474.175 400.606 450.976 423.805C442.367 432.553 429.79 437.277 416.206 437.277Z" fill="#262A39"/>
<path d="M367.518 410.054C366.987 410.054 366.539 409.691 366.428 409.16C363.381 395.045 370.983 383.39 375.791 377.688C383.729 368.297 395.02 362.064 403.294 362.371C403.909 362.399 404.412 362.93 404.384 363.545C404.356 364.16 403.825 364.663 403.21 364.635C395.579 364.216 385.042 370.281 377.524 379.169C372.996 384.536 365.785 395.52 368.636 408.712C368.775 409.327 368.384 409.914 367.769 410.054C367.657 410.054 367.574 410.054 367.518 410.054Z" fill="#262A39"/>
<path d="M380.263 423.104C372.689 415.25 369.949 403.707 366.484 389.061C364.08 378.943 361.369 367.484 356.478 355.158C356.282 354.655 355.779 354.375 355.248 354.459C354.717 354.543 354.325 354.99 354.297 355.521L353.291 378.44C353.291 378.58 353.291 378.692 353.347 378.804C353.347 378.804 353.683 379.894 354.27 381.654C354.381 382.018 354.745 382.325 355.136 382.409C355.499 382.493 355.863 382.577 356.226 382.633L356.701 382.689C357.26 382.689 357.875 382.521 358.462 382.353C358.63 382.297 358.853 382.241 359.077 382.185C359.468 387.328 359.804 396.552 359.552 401.136C359.552 401.331 359.58 401.527 359.664 401.695C363.745 409.828 371.515 420.561 378.893 424.809C379.061 424.921 379.257 424.949 379.452 424.949C379.788 424.949 380.123 424.809 380.347 424.502C380.682 424.138 380.654 423.496 380.263 423.104Z" fill="#262A39"/>
<path d="M223.072 405.276C222.625 405.276 222.178 404.997 222.01 404.55C221.787 403.963 222.094 403.32 222.681 403.096C234.783 398.624 243.811 383.447 245.013 381.323C245.013 375.761 244.734 295.517 237.998 283.526C237.69 282.967 237.886 282.296 238.417 281.989C238.948 281.681 239.647 281.877 239.954 282.408C247.193 295.293 247.249 378.081 247.249 381.603C247.249 381.798 247.193 381.966 247.109 382.134C246.718 382.86 237.159 400.134 223.436 405.192C223.324 405.248 223.212 405.276 223.072 405.276Z" fill="#262A39"/>
<path d="M343.592 382.719H257.395C257.087 382.719 256.808 382.607 256.584 382.384C256.36 382.16 256.249 381.881 256.249 381.573C256.64 350.856 255.829 290.484 250.044 281.903C249.708 281.372 249.82 280.674 250.351 280.338C250.854 279.975 251.581 280.115 251.916 280.646C259.127 291.378 258.624 369.555 258.513 380.455H342.502C342.838 370.673 345.13 298.338 339.847 283.301C339.651 282.714 339.959 282.071 340.546 281.875C341.133 281.68 341.776 281.987 341.999 282.574C347.757 299.037 344.85 378.275 344.738 381.629C344.71 382.244 344.207 382.719 343.592 382.719Z" fill="#262A39"/>
<path d="M360.166 427.745C359.551 427.745 359.048 427.269 359.048 426.655L357.707 382.717H354.241C353.934 382.717 353.626 382.577 353.43 382.354C353.235 382.13 353.095 381.823 353.123 381.515C353.179 380.733 357.204 302.389 349.601 287.24C349.322 286.681 349.545 286.01 350.104 285.731C350.663 285.451 351.334 285.675 351.614 286.234C359.02 301.075 355.918 370.112 355.415 380.453H358.797C359.412 380.453 359.915 380.928 359.915 381.543L361.284 426.571C361.312 427.186 360.809 427.717 360.194 427.745H360.166Z" fill="#262A39"/>
<path d="M257.199 382.716H245.963C245.348 382.716 244.845 382.213 244.845 381.598C244.845 380.984 245.348 380.48 245.963 380.48H257.199C257.814 380.48 258.317 380.984 258.317 381.598C258.345 382.213 257.842 382.716 257.199 382.716Z" fill="#262A39"/>
<path d="M354.689 382.716H343.453C342.838 382.716 342.335 382.213 342.335 381.598C342.335 380.984 342.838 380.48 343.453 380.48H354.689C355.304 380.48 355.807 380.984 355.807 381.598C355.807 382.213 355.304 382.716 354.689 382.716Z" fill="#262A39"/>
<path d="M280.006 432.974C279.811 432.974 279.643 432.918 279.475 432.834C278.916 432.527 278.721 431.856 279.028 431.297L290.096 411.201C290.404 410.642 291.074 410.446 291.633 410.754C292.192 411.061 292.388 411.732 292.081 412.291L281.012 432.387C280.789 432.778 280.398 432.974 280.006 432.974Z" fill="#262A39"/>
<path d="M223.938 398.959L221.73 355.525C221.702 354.91 221.143 354.351 220.556 354.463C219.942 354.491 219.466 355.022 219.494 355.636L221.758 399.742C222.457 399.462 223.184 399.183 223.938 398.959Z" fill="#262A39"/>
</svg>
