<svg width="596" height="562" viewBox="0 0 596 562" fill="none" xmlns="http://www.w3.org/2000/svg">
<path d="M371.268 99.0789C371.268 114.837 362.659 126.418 350.378 131.352C346.312 132.979 341.826 133.876 337.143 133.96C336.891 133.96 336.639 133.96 336.386 133.96C317.095 133.96 301.477 118.342 301.477 99.0509C301.477 92.2373 303.103 85.9003 306.216 80.5167C307.001 79.1147 307.926 77.7688 308.908 76.5351L310.113 75.1051L310.169 75.049C316.198 68.3475 325.142 64.1416 336.414 64.1416C355.65 64.1696 371.268 79.8157 371.268 99.0789Z" fill="#C3DDF0"/>
<path d="M214.947 356.986V365.679L241.22 364.809V356.986H214.947Z" fill="#FFD2C4"/>
<path d="M345.863 231.426L333.302 225.173C332.012 224.528 330.89 226.463 332.18 227.107L344.742 233.36C346.032 234.005 347.153 232.071 345.863 231.426Z" fill="#FFD2C4"/>
<path d="M343.116 249.203L332.18 250.493C330.778 250.661 330.75 252.905 332.18 252.736L343.116 251.447C344.518 251.278 344.546 249.035 343.116 249.203Z" fill="#FFD2C4"/>
<path d="M138.595 249.203V258.737L149.082 251.026L138.595 249.203Z" fill="#FFD2C4"/>
<path d="M126.202 235.324C125.36 237.511 124.519 239.698 123.678 241.857C123.173 243.203 125.332 243.792 125.837 242.446C126.678 240.259 127.519 238.072 128.361 235.913C128.865 234.567 126.706 234.006 126.202 235.324Z" fill="#FFD2C4"/>
<path d="M347.266 242.782L348.752 292.384L349.228 293.057C350.35 291.767 351.528 290.562 352.705 289.356C352.846 288.879 353.126 288.375 353.546 287.926C357.023 284.169 360.276 280.159 364.678 277.383C368.071 275.252 371.211 279.626 369.473 282.402C369.305 283.019 369.024 283.608 368.576 284.113C367.118 285.767 365.968 287.814 364.706 289.692C364.678 290.281 364.454 290.898 363.949 291.431C361.398 294.123 359.239 297.095 357.108 300.123C357.248 300.095 357.36 300.039 357.5 300.011C361.874 299.506 365.8 301.609 368.155 305.198C371.268 305.563 373.23 308.03 374.24 310.806C375.978 313.162 377.38 315.713 378.53 318.377L408.841 318.181V245.895L347.266 242.782Z" fill="#FF7E60"/>
<path d="M390.446 250.631L371.323 249.902C371.015 249.874 370.65 250.043 370.426 250.295C370.202 250.547 370.118 250.884 370.174 251.22L373.791 272.586L369.136 277.465C369.669 278.11 369.977 278.98 369.837 279.989L375.782 273.736C376.034 273.484 376.146 273.119 376.062 272.783L372.585 252.23L389.269 252.875V277.914L379.483 298.243L363.837 289.859C363.304 290.42 362.799 291.008 362.267 291.569L379.455 300.766C379.623 300.85 379.791 300.906 379.988 300.906C380.1 300.906 380.212 300.878 380.324 300.85C380.604 300.766 380.857 300.542 380.997 300.262L391.4 278.643C391.484 278.503 391.512 278.335 391.512 278.166V251.809C391.54 251.164 391.063 250.66 390.446 250.631Z" fill="#262A39"/>
<path d="M380.016 299.757L393.84 294.065V251.753H390.419V278.11L380.016 299.757Z" fill="#262A39"/>
<path d="M380.016 300.85C379.707 300.85 379.427 300.738 379.203 300.486C378.894 300.149 378.81 299.645 379.006 299.224L389.297 277.83V251.725C389.297 251.108 389.802 250.604 390.419 250.604H393.839C394.456 250.604 394.961 251.108 394.961 251.725V294.037C394.961 294.485 394.681 294.906 394.26 295.074L380.408 300.766C380.296 300.85 380.156 300.85 380.016 300.85ZM391.54 252.875V278.11C391.54 278.279 391.512 278.447 391.428 278.587L382.287 297.57L392.718 293.28V252.875H391.54Z" fill="#262A39"/>
<path d="M375.249 311.926C374.632 311.926 374.128 311.421 374.128 310.804C374.128 310.188 374.632 309.683 375.249 309.683L415.121 309.43V239.303L355.762 236.275L357.192 284.671C357.22 285.288 356.715 285.793 356.098 285.821C355.537 285.849 354.977 285.344 354.948 284.728L353.462 235.126C353.462 234.817 353.575 234.509 353.799 234.284C354.023 234.06 354.332 233.948 354.64 233.976L416.243 237.116C416.832 237.144 417.309 237.649 417.309 238.238V310.552C417.309 311.169 416.804 311.674 416.187 311.674L375.249 311.926Z" fill="#262A39"/>
<path d="M375.249 311.926C374.632 311.926 374.128 311.421 374.128 310.804C374.128 310.188 374.632 309.683 375.249 309.683L415.121 309.43V239.303L355.762 236.275L357.192 284.671C357.22 285.288 356.715 285.793 356.098 285.821C355.537 285.849 354.977 285.344 354.948 284.728L353.462 235.126C353.462 234.817 353.575 234.509 353.799 234.284C354.023 234.06 354.332 233.948 354.64 233.976L416.243 237.116C416.832 237.144 417.309 237.649 417.309 238.238V310.552C417.309 311.169 416.804 311.674 416.187 311.674L375.249 311.926Z" fill="#262A39"/>
<path d="M345.892 131.632C326.012 131.632 309.861 115.481 309.861 95.6012C309.861 88.6474 311.543 82.0581 314.74 76.5062C315.553 75.0762 316.506 73.6742 317.544 72.3844L318.749 70.9263C325.451 63.4678 334.788 59.5703 345.892 59.5703C365.744 59.5703 381.923 75.7211 381.923 95.6012C381.923 111.051 373.847 123.501 360.332 128.912C356.098 130.623 351.5 131.52 346.705 131.604C346.424 131.632 346.172 131.632 345.892 131.632ZM345.892 61.8135C335.461 61.8135 326.685 65.4586 320.488 72.3283L319.254 73.7864C318.301 74.9921 317.432 76.2819 316.674 77.5998C313.674 82.8151 312.104 89.0399 312.104 95.5731C312.104 114.191 327.273 129.361 345.892 129.361C346.144 129.361 346.368 129.361 346.621 129.361C351.163 129.277 355.481 128.408 359.491 126.809C372.137 121.734 379.679 110.07 379.679 95.5731C379.679 76.9829 364.538 61.8135 345.892 61.8135Z" fill="#262A39"/>
<path d="M324.273 124.09C324.021 124.09 323.768 124.006 323.572 123.837C314.88 116.94 309.889 106.649 309.889 95.6014C309.889 88.6476 311.571 82.0583 314.768 76.5065C315.132 75.8335 315.553 75.1886 315.973 74.5717C316.141 74.2913 316.45 74.1231 316.758 74.095C317.067 74.067 317.403 74.1511 317.656 74.3754C320.628 77.0672 321.749 80.5442 322.815 83.9089C323.824 87.0774 324.89 90.33 327.469 93.0498C329.881 95.5734 333.414 96.022 337.171 96.4987C342.33 97.1436 348.219 97.9007 349.817 105.303C350.63 109.088 350.266 112.117 348.667 114.584C345.695 119.155 339.246 120.501 332.993 121.818C330.077 122.435 327.329 122.996 325.114 123.865L324.722 124.034C324.553 124.062 324.413 124.09 324.273 124.09ZM317.067 76.9831C316.927 77.2074 316.814 77.4037 316.702 77.628C313.702 82.8434 312.132 89.0682 312.132 95.6014C312.132 105.752 316.618 115.201 324.469 121.678C326.825 120.781 329.6 120.192 332.517 119.603C338.321 118.398 344.293 117.136 346.761 113.35C348.023 111.416 348.303 108.948 347.602 105.78C346.34 99.9195 341.966 99.3868 336.891 98.7418C332.909 98.2371 328.815 97.7324 325.843 94.62C322.899 91.5357 321.777 88.0307 320.684 84.6379C319.759 81.8059 318.917 79.1422 317.067 76.9831Z" fill="#262A39"/>
<path d="M378.754 109.229C378.586 109.229 378.418 109.201 378.277 109.117C376.679 108.359 375.249 107.406 374.015 106.285C370.791 103.34 368.856 99.499 366.977 95.7697C364.762 91.3675 362.687 87.2176 358.65 84.5258C353.659 81.1891 347.967 81.4134 341.938 81.6658L340.76 81.7219C340.256 81.7499 339.723 81.7779 339.19 81.806C335.405 82.0023 330.694 82.2827 328.451 79.4507C327.077 77.6842 326.909 75.1326 327.946 71.6557C329.068 67.9264 332.545 64.2252 338.573 60.3557C338.714 60.2716 338.854 60.2155 338.994 60.1875C341.377 59.7949 343.62 59.5986 345.864 59.5986C365.716 59.5986 381.895 75.7494 381.895 95.6295C381.895 100.144 381.194 104.462 379.792 108.5C379.679 108.808 379.455 109.032 379.175 109.173C379.063 109.201 378.922 109.229 378.754 109.229ZM346.509 79.2824C351.135 79.2824 355.734 79.8432 359.94 82.6472C364.454 85.6755 366.781 90.302 369.024 94.7603C370.875 98.4615 372.641 101.966 375.558 104.63C376.315 105.331 377.184 105.948 378.137 106.481C379.175 103.032 379.707 99.3868 379.707 95.6015C379.707 76.9551 364.566 61.8138 345.92 61.8138C343.873 61.8138 341.826 61.982 339.639 62.3185C334.283 65.7954 331.087 69.1321 330.161 72.2445C329.348 74.9363 329.404 76.8991 330.274 78.0206C331.788 79.9273 335.854 79.703 339.134 79.5348C339.695 79.5067 340.228 79.4787 340.732 79.4507L341.91 79.3946C343.424 79.3385 344.966 79.2824 346.509 79.2824Z" fill="#262A39"/>
<path d="M445.236 290.027C445.208 290.027 445.208 290.027 445.18 290.027L417.224 289.467C416.607 289.439 416.131 288.906 416.159 288.289C416.187 287.672 416.663 287.167 417.336 287.223L444.086 287.728L442.376 176.243L349.032 173.691C348.443 173.663 347.966 173.214 347.938 172.626L345.527 130.538C345.499 129.921 345.976 129.389 346.593 129.361C347.209 129.333 347.742 129.809 347.77 130.426L350.126 171.476L443.497 174.028C444.086 174.056 444.591 174.532 444.591 175.121L446.329 288.878C446.329 289.186 446.217 289.495 445.993 289.691C445.797 289.915 445.516 290.027 445.236 290.027Z" fill="#262A39"/>
<path d="M396.812 309.823C396.223 309.851 395.634 309.851 395.045 309.907C394.905 310.104 394.821 310.356 394.821 310.636L398.382 374.735C398.41 375.324 398.915 375.8 399.503 375.8C399.531 375.8 399.531 375.8 399.559 375.8C400.176 375.772 400.653 375.24 400.625 374.623L397.064 310.524C397.064 310.244 396.952 309.991 396.812 309.823Z" fill="#262A39"/>
<path d="M416.467 191.132C416.159 191.132 415.85 190.992 415.626 190.767L389.577 161.494C389.156 161.017 389.213 160.316 389.661 159.924C390.11 159.503 390.839 159.559 391.231 160.008L417.28 189.281C417.701 189.758 417.645 190.459 417.196 190.851C417 191.048 416.747 191.132 416.467 191.132Z" fill="#FFD2C4"/>
<path d="M390.839 190.851C390.587 190.851 390.362 190.767 390.138 190.627C389.661 190.234 389.549 189.533 389.942 189.057L412.542 160.036C412.934 159.559 413.635 159.447 414.112 159.84C414.588 160.232 414.701 160.933 414.308 161.41L391.708 190.431C391.484 190.711 391.175 190.851 390.839 190.851Z" fill="#FFD2C4"/>
<path d="M434.777 469.874C432.478 469.874 430.683 468.079 430.683 465.864C430.683 465.107 430.879 464.406 431.216 463.789C431.3 463.621 431.412 463.481 431.524 463.313C431.552 463.284 431.693 463.116 431.721 463.088C432.422 462.303 433.487 461.854 434.693 461.854C436.908 461.854 438.702 463.649 438.702 465.864C438.702 467.547 437.777 468.977 436.291 469.565C435.786 469.762 435.282 469.846 434.777 469.874ZM434.693 464.098C434.132 464.098 433.683 464.266 433.375 464.63C433.263 464.771 433.235 464.827 433.179 464.883C433.01 465.163 432.926 465.5 432.926 465.864C432.926 466.846 433.711 467.631 434.693 467.631C434.973 467.631 435.226 467.575 435.422 467.49C436.067 467.238 436.431 466.649 436.431 465.864C436.431 464.911 435.646 464.098 434.693 464.098Z" fill="#262A39"/>
<path d="M445.32 469.875C443.021 469.875 441.226 468.081 441.226 465.865C441.226 465.108 441.422 464.379 441.759 463.79C441.843 463.622 441.955 463.482 442.067 463.314C442.095 463.286 442.207 463.146 442.235 463.118C442.936 462.332 444.002 461.884 445.208 461.884C447.423 461.884 449.217 463.678 449.217 465.893C449.217 467.576 448.292 469.006 446.806 469.595C446.329 469.763 445.825 469.847 445.32 469.875ZM445.236 464.099C444.675 464.099 444.226 464.267 443.918 464.632L443.722 464.884C443.553 465.164 443.469 465.501 443.469 465.865C443.469 466.847 444.254 467.632 445.236 467.632C445.516 467.632 445.768 467.576 445.965 467.492C446.61 467.239 446.974 466.651 446.974 465.865C447.002 464.912 446.189 464.099 445.236 464.099Z" fill="#262A39"/>
<path d="M472.658 480.978H363.668C363.36 480.978 363.052 480.838 362.855 480.614C362.631 480.389 362.547 480.081 362.547 479.773L368.491 375.606C368.519 375.017 369.024 374.54 369.613 374.54H469.125C469.742 374.54 470.219 375.017 470.247 375.634L473.78 479.801C473.78 480.109 473.668 480.389 473.472 480.614C473.275 480.866 472.967 480.978 472.658 480.978ZM364.874 478.735H471.537L468.088 376.811H370.734L364.874 478.735Z" fill="#262A39"/>
<path d="M436.936 387.55L376.819 386.934C376.567 386.934 376.23 387.046 376.006 387.27C375.782 387.494 375.669 387.775 375.669 388.055V435.274C375.669 435.582 375.782 435.863 376.006 436.059C376.202 436.255 376.511 436.395 376.791 436.395L436.908 435.779C437.525 435.779 438.029 435.274 438.029 434.657V388.672C438.029 388.055 437.553 387.55 436.936 387.55Z" fill="#262A39"/>
<path d="M458.106 480.979C457.489 480.979 456.984 480.474 456.984 479.857V375.69C456.984 375.073 457.489 374.568 458.106 374.568C458.723 374.568 459.228 375.073 459.228 375.69V479.857C459.228 480.474 458.723 480.979 458.106 480.979Z" fill="#262A39"/>
<path d="M471.761 454.004H365.21C364.594 454.004 364.089 453.499 364.089 452.882C364.089 452.265 364.594 451.761 365.21 451.761H471.761C472.378 451.761 472.882 452.265 472.882 452.882C472.882 453.527 472.378 454.004 471.761 454.004Z" fill="#262A39"/>
<path d="M403.429 460.734C403.232 460.397 402.868 460.201 402.475 460.201H376.791C376.174 460.201 375.669 460.706 375.669 461.323V467.94C375.669 468.557 376.174 469.062 376.791 469.062H399.363C399.783 469.062 400.204 468.809 400.372 468.417L403.485 461.799C403.681 461.463 403.653 461.042 403.429 460.734Z" fill="#262A39"/>
<path d="M251.174 210.06C195.684 210.592 181.075 220.518 181.411 250.801C181.692 275.532 188.646 288.346 253.81 288.346C303.44 288.346 305.206 275.196 303.299 242.277C301.982 219.565 297.439 209.639 251.174 210.06Z" fill="#FF7E60"/>
<path d="M202.946 268.522C202.357 268.522 201.852 268.046 201.824 267.457L200.899 249.54C200.394 239.978 203.338 232.351 209.647 226.828C216.208 221.079 226.246 217.799 239.537 217.126C254.51 216.369 264.801 219.93 270.156 227.809C270.437 228.23 270.661 228.706 270.801 229.267C270.885 229.547 270.829 229.856 270.661 230.108C270.493 230.361 270.241 230.557 269.96 230.613C265.838 231.566 260.455 231.763 256.137 231.931C254.09 232.015 252.323 232.071 251.09 232.183C247.108 232.604 243.07 232.716 239.173 232.8C235.387 232.884 231.462 232.996 227.648 233.389C222.405 233.95 218.788 235.66 216.573 238.604C212.255 244.352 214.049 254.334 215.648 263.111C215.844 264.148 216.012 265.158 216.18 266.167C216.292 266.784 215.872 267.345 215.255 267.457C214.638 267.569 214.077 267.149 213.965 266.532C213.797 265.522 213.601 264.513 213.432 263.475C211.778 254.222 209.871 243.764 214.778 237.23C217.386 233.753 221.508 231.763 227.424 231.146C231.322 230.725 235.275 230.641 239.117 230.529C242.958 230.445 246.94 230.333 250.837 229.912C252.127 229.772 253.95 229.716 256.025 229.632C259.754 229.491 264.324 229.351 268.025 228.678C263.062 221.752 253.501 218.612 239.621 219.341C226.863 219.986 217.274 223.07 211.105 228.482C205.357 233.529 202.665 240.567 203.114 249.399L204.039 267.317C204.067 267.934 203.59 268.466 202.974 268.494C202.974 268.522 202.974 268.522 202.946 268.522Z" fill="#262A39"/>
<path d="M199.16 279.233C198.74 279.233 198.319 278.981 198.123 278.56C197.73 277.663 197.506 276.681 197.45 275.672C197.338 273.513 198.123 271.438 199.693 269.784C202.553 266.783 207.712 265.241 215.087 265.241C215.704 265.241 216.208 265.746 216.208 266.363C216.208 266.98 215.704 267.484 215.087 267.484C206.703 267.484 202.974 269.559 201.319 271.326C199.861 272.868 199.637 274.466 199.693 275.56C199.721 276.317 199.889 277.018 200.198 277.691C200.45 278.252 200.17 278.925 199.609 279.177C199.469 279.205 199.301 279.233 199.16 279.233Z" fill="#262A39"/>
<path d="M255.296 276.765C254.679 276.765 254.174 276.261 254.174 275.644C254.174 275.027 254.679 274.522 255.296 274.522C257.398 274.522 259.109 273.961 259.922 273.008C260.371 272.475 260.511 271.83 260.399 271.045C260.118 269.279 256.165 268.297 254.314 268.073C253.753 268.017 253.305 267.54 253.305 266.951V256.689C253.305 256.072 253.809 255.567 254.426 255.567C255.043 255.567 255.548 256.072 255.548 256.689V265.998C257.623 266.363 262.081 267.512 262.614 270.681C262.866 272.139 262.53 273.429 261.632 274.466C260.371 275.952 258.128 276.765 255.296 276.765Z" fill="#262A39"/>
<path d="M264.913 260.671L264.689 262.886C264.381 265.746 268.839 266.222 269.147 263.362L269.372 261.147C269.68 258.287 265.222 257.811 264.913 260.671Z" fill="#262A39"/>
<path d="M234.715 261.399L234.49 263.614C234.182 266.474 238.64 266.951 238.949 264.091L239.173 261.876C239.481 259.016 235.023 258.539 234.715 261.399Z" fill="#262A39"/>
<path d="M239.622 251.025C237.799 251.221 236.005 251.53 234.238 252.062C232.864 252.483 233.789 254.53 235.163 254.109C236.734 253.633 238.36 253.408 239.986 253.24C241.444 253.072 241.08 250.885 239.622 251.025Z" fill="#262A39"/>
<path d="M272.007 251.866C270.858 251.109 269.568 250.577 268.474 249.735C267.353 248.866 265.754 250.464 266.904 251.334C268.166 252.287 269.568 252.96 270.886 253.801C272.119 254.614 273.213 252.652 272.007 251.866Z" fill="#262A39"/>
<path d="M275.821 284.504C275.204 284.504 274.699 284 274.699 283.383C274.643 274.719 273.886 264.316 273.045 252.259C272.821 249.006 272.568 245.613 272.344 242.137C271.25 225.733 260.567 218.275 239.678 219.368C225.406 220.097 215.143 223.827 209.171 230.472C204.797 235.323 202.778 241.716 203.198 249.427C203.226 250.044 202.75 250.576 202.133 250.605C201.46 250.633 200.983 250.156 200.955 249.539C200.507 241.183 202.722 234.257 207.516 228.958C213.909 221.864 224.705 217.882 239.594 217.125C261.661 216.004 273.437 224.331 274.615 241.968C274.839 245.473 275.092 248.838 275.316 252.091C276.185 264.176 276.914 274.606 276.998 283.355C276.942 284 276.438 284.504 275.821 284.504Z" fill="#262A39"/>
<path d="M317.656 337.331C317.319 337.331 316.983 337.163 316.758 336.882C313.113 331.919 313.197 329.872 313.786 313.862C314.179 303.123 314.796 286.916 314.796 259.493C314.796 230.164 310.085 211.882 299.963 201.956C289.168 191.357 273.409 190.824 250.641 191.273C209.507 191.918 185.281 194.273 175.074 204.956C166.747 213.704 166.775 228.117 167.616 252.82C168.373 276.233 166.046 293.169 160.494 304.581C160.213 305.142 159.569 305.366 159.008 305.085C158.447 304.805 158.223 304.132 158.503 303.599C163.803 292.664 166.13 275.616 165.401 252.876C164.56 227.556 164.532 212.779 173.504 203.358C184.299 192.03 207.937 189.618 250.641 188.974C270.521 188.609 289.28 188.244 301.561 200.302C312.132 210.676 317.067 229.463 317.067 259.437C317.067 286.888 316.478 303.151 316.057 313.89C315.469 329.957 315.497 331.274 318.581 335.508C318.946 336.013 318.833 336.714 318.329 337.079C318.132 337.275 317.908 337.331 317.656 337.331Z" fill="#262A39"/>
<path d="M289.168 228.201L282.466 234.229C281.401 235.183 282.971 236.781 284.064 235.828C286.308 233.809 288.523 231.818 290.766 229.799C291.831 228.818 290.233 227.219 289.168 228.201Z" fill="white"/>
<path d="M204.376 417.775C204.404 417.747 204.404 417.719 204.404 417.691C204.404 417.663 204.432 417.635 204.432 417.607C204.46 417.551 204.46 417.495 204.488 417.467C204.488 417.439 204.488 417.41 204.516 417.382C204.516 417.354 204.516 417.354 204.516 417.326C205.386 409.223 205.666 401.484 205.414 394.138C205.386 393.689 205.386 393.268 205.358 392.82C205.33 392.455 205.33 392.091 205.302 391.726C204.04 366.294 196.525 345.545 186.347 329.759C179.085 318.515 170.476 309.823 161.812 303.822C160.662 303.009 159.176 302.757 157.494 303.093C155.391 303.514 153.036 304.832 150.708 306.906C148.353 308.981 145.998 311.757 143.839 315.094C139.549 321.739 135.847 327.488 138.175 333.236C138.203 333.292 138.231 333.376 138.287 333.432C138.287 333.432 138.287 333.432 138.287 333.46C138.483 333.74 138.792 333.937 139.128 333.937C139.212 333.937 139.268 333.937 139.352 333.909C139.437 333.909 139.549 333.881 139.633 333.853C139.661 333.853 139.689 333.824 139.717 333.796C139.745 333.796 139.745 333.768 139.773 333.768C139.801 333.74 139.829 333.74 139.857 333.712C139.913 333.684 139.941 333.628 139.997 333.6C140.081 333.544 140.138 333.46 140.194 333.376C140.81 332.282 141.427 331.245 142.072 330.263C145.129 325.553 147.876 321.795 149.755 319.328C151.157 319.076 152.811 319.58 154.718 320.87C167.027 329.114 184.216 365.061 187.917 399.045L188.113 400.895C188.113 401.007 188.141 401.091 188.197 401.204L188.31 401.456C188.45 401.764 188.562 402.073 188.674 402.297C188.842 402.718 189.039 403.11 189.235 403.503C189.74 404.54 190.356 405.578 191.142 406.699C191.338 406.98 191.534 407.26 191.758 407.625C192.572 408.746 193.357 409.728 194.198 410.653C194.562 411.074 194.955 411.522 195.376 411.943C195.796 412.363 196.189 412.756 196.609 413.177C197.478 414.018 198.404 414.859 199.525 415.756L200.787 416.738C201.348 417.158 201.965 417.635 202.638 418.083C202.694 418.14 202.834 418.196 202.89 418.252C202.918 418.252 202.946 418.28 202.974 418.28C203.002 418.28 203.03 418.308 203.086 418.308C203.142 418.308 203.171 418.336 203.227 418.336C203.255 418.336 203.255 418.336 203.283 418.336C203.311 418.336 203.339 418.336 203.367 418.336H203.395C203.451 418.336 203.535 418.336 203.591 418.308C203.619 418.308 203.619 418.308 203.647 418.308C203.703 418.308 203.731 418.28 203.787 418.28C203.815 418.28 203.815 418.28 203.843 418.252C203.871 418.224 203.928 418.224 203.956 418.196C203.984 418.196 203.984 418.168 204.012 418.168C204.068 418.14 204.096 418.111 204.124 418.083C204.152 418.055 204.152 418.055 204.18 418.027C204.208 417.999 204.236 417.971 204.264 417.943C204.292 417.915 204.292 417.887 204.32 417.859C204.32 417.831 204.348 417.803 204.376 417.775Z" fill="#262A39"/>
<path d="M152.25 454.002C152.222 454.002 152.222 454.002 152.194 454.002L125.136 452.656C115.042 452.152 106.967 443.852 106.714 433.758L103.742 308.421C103.518 298.635 110.64 290.195 120.313 288.793L165.093 282.26C165.709 282.176 166.27 282.596 166.354 283.213C166.438 283.83 166.018 284.391 165.401 284.475L120.622 291.008C112.07 292.27 105.761 299.728 105.985 308.365L108.957 433.702C109.182 442.618 116.332 449.964 125.248 450.413L152.307 451.759C152.923 451.787 153.4 452.32 153.372 452.937C153.344 453.554 152.839 454.002 152.25 454.002Z" fill="#262A39"/>
<path d="M120.454 355.247C119.837 355.247 119.332 354.742 119.332 354.125V289.943C119.332 289.326 119.837 288.821 120.454 288.821C121.07 288.821 121.575 289.326 121.575 289.943V354.125C121.575 354.742 121.07 355.247 120.454 355.247Z" fill="#262A39"/>
<path d="M315.917 304.383C315.581 304.13 315.132 304.074 314.74 304.243C314.347 304.411 314.095 304.803 314.095 305.224C314.067 305.729 313.674 317.618 314.095 324.487C314.543 331.469 316.534 336.432 316.618 336.628C316.786 337.049 317.207 337.329 317.656 337.329C317.684 337.329 317.684 337.329 317.712 337.329C318.188 337.301 318.581 336.993 318.721 336.544L323.852 320.618C323.993 320.309 326.881 312.991 315.917 304.383Z" fill="#262A39"/>
<path d="M243.94 488.944C239.622 488.944 235.219 488.748 230.761 488.327C212.844 486.645 196.889 482.663 183.318 476.467C183.01 476.298 182.617 475.934 182.561 475.597C182.505 475.261 182.421 474.84 182.645 474.56C194.983 460.316 211.414 453.839 227.761 456.727C242.538 459.362 253.305 469.064 260.679 486.393C260.82 486.729 260.792 487.094 260.623 487.374C260.455 487.682 260.147 487.879 259.782 487.935C254.651 488.608 249.379 488.944 243.94 488.944ZM185.309 474.924C198.432 480.729 213.769 484.486 230.957 486.112C240.351 486.981 249.436 486.925 257.988 485.944C250.978 470.242 240.94 461.409 227.34 458.97C212.255 456.278 197.002 462.082 185.309 474.924Z" fill="#262A39"/>
<path d="M243.94 488.944C239.622 488.944 235.22 488.748 230.761 488.327C212.844 486.645 196.889 482.663 183.318 476.467L183.487 475.317L183.01 476.327C157.83 464.774 140.081 445.09 131.725 419.462C121.042 386.74 127.632 351.326 138.259 332.287C138.904 331.138 139.548 330.072 140.193 329.035C143.418 324.044 146.306 320.146 148.185 317.65C148.549 317.146 149.25 317.062 149.755 317.426C150.26 317.791 150.344 318.492 149.979 318.996C148.101 321.464 145.269 325.333 142.072 330.24C141.427 331.222 140.81 332.259 140.193 333.353C129.791 351.999 123.342 386.656 133.828 418.733C141.988 443.745 159.316 462.952 183.935 474.252L183.767 475.401L184.244 474.392C197.59 480.476 213.321 484.402 230.986 486.056C240.912 486.982 250.501 486.869 259.502 485.692C262.166 485.355 264.97 484.879 268.082 484.234C358.818 464.999 367.931 336.437 368.015 335.119C368.043 334.895 368.099 334.671 368.239 334.502L374.1 326.904C374.464 326.399 375.165 326.315 375.67 326.707C376.147 327.072 376.259 327.801 375.866 328.278L370.23 335.596C369.641 343.11 358.594 467.326 268.559 486.421C265.39 487.066 262.53 487.57 259.782 487.907C254.651 488.608 249.38 488.944 243.94 488.944Z" fill="#262A39"/>
<path d="M336.386 311.677C336.19 311.677 335.966 311.621 335.769 311.509C335.237 311.173 335.097 310.472 335.433 309.967C339.33 303.938 359.211 273.964 367.735 276.656C369.333 277.161 370.37 278.086 370.735 279.348C371.772 282.825 367.65 287.9 363.304 293.283C360.977 296.143 358.79 298.835 357.668 300.994C357.388 301.527 356.687 301.751 356.154 301.471C355.593 301.191 355.397 300.49 355.678 299.957C356.911 297.601 359.183 294.826 361.566 291.881C365.015 287.619 369.305 282.348 368.604 280.021C368.548 279.824 368.351 279.236 367.062 278.815C361.706 277.161 345.976 297.77 337.34 311.201C337.115 311.481 336.751 311.677 336.386 311.677Z" fill="#262A39"/>
<path d="M347.266 311.93C347.041 311.93 346.817 311.874 346.621 311.706C346.116 311.341 346.004 310.64 346.368 310.136C351.079 303.63 354.752 299.004 359.238 298.639C362.155 298.415 365.099 299.957 368.8 303.63C369.249 304.079 369.249 304.78 368.8 305.229C368.351 305.677 367.65 305.677 367.202 305.229C364.061 302.088 361.594 300.714 359.407 300.883C356.182 301.135 353.098 304.64 348.191 311.454C347.939 311.762 347.602 311.93 347.266 311.93Z" fill="#262A39"/>
<path d="M356.126 316.305C355.902 316.136 355.762 315.912 355.706 315.66C355.622 315.351 355.678 315.015 355.874 314.734C360.557 308.285 364.286 303.322 368.66 303.659C371.801 303.911 374.689 306.939 377.829 313.164C378.053 313.641 377.969 314.23 377.549 314.566C376.96 315.015 376.147 314.818 375.838 314.202C373.146 308.79 370.735 306.07 368.492 305.902C365.436 305.65 361.818 310.36 357.697 316.052C357.528 316.277 357.276 316.445 357.024 316.501C356.715 316.557 356.379 316.501 356.126 316.305Z" fill="#262A39"/>
<path d="M372.053 340.586C371.184 340.586 370.258 340.39 369.361 340.025C368.8 339.801 368.52 339.128 368.744 338.567C368.968 338.007 369.641 337.726 370.202 337.951C371.969 338.68 373.539 338.399 374.997 337.137C378.334 334.277 380.268 326.482 379.007 321.127C377.857 316.22 376.483 314.986 375.558 314.79C372.698 314.229 367.202 321.772 364.594 325.417C364.23 325.922 363.529 326.034 363.024 325.669C362.519 325.305 362.407 324.604 362.772 324.099C368.436 316.276 372.389 311.874 376.006 312.575C378.362 313.051 380.016 315.575 381.194 320.594C382.511 326.174 380.885 335.034 376.483 338.82C375.109 339.997 373.623 340.586 372.053 340.586Z" fill="#262A39"/>
<path d="M333.134 314.761C332.826 314.761 332.545 314.649 332.321 314.425C331.9 313.976 331.9 313.275 332.349 312.827L335.601 309.742C336.05 309.322 336.751 309.35 337.2 309.77C337.62 310.219 337.62 310.92 337.172 311.369L333.919 314.453C333.667 314.649 333.414 314.761 333.134 314.761Z" fill="#262A39"/>
<path d="M240.042 429.723C225.181 429.723 211.862 424.508 202.75 418.143C202.721 418.115 202.693 418.115 202.693 418.087C202.665 418.059 202.637 418.059 202.609 418.031C201.992 417.61 201.376 417.134 200.815 416.713L199.553 415.732C198.431 414.806 197.506 413.965 196.637 413.152C196.216 412.76 195.796 412.339 195.403 411.918C194.983 411.498 194.59 411.049 194.225 410.629C193.384 409.703 192.599 408.722 191.786 407.6C191.562 407.236 191.365 406.955 191.169 406.675C190.412 405.525 189.795 404.488 189.262 403.478C189.066 403.086 188.87 402.693 188.702 402.301C188.561 402.048 188.449 401.74 188.309 401.432L188.197 401.179C188.169 401.095 188.141 400.983 188.113 400.871L187.917 399.02C184.215 365.036 167.027 329.089 154.718 320.846C152.643 319.472 150.876 318.967 149.418 319.388C148.829 319.556 148.213 319.219 148.044 318.631C147.876 318.042 148.213 317.425 148.801 317.257C150.932 316.64 153.344 317.229 155.979 318.995C168.681 327.519 186.402 364.223 190.16 398.796L190.384 400.618C190.496 400.871 190.58 401.123 190.721 401.375C190.889 401.768 191.057 402.133 191.253 402.469C191.73 403.422 192.319 404.404 193.02 405.441C193.216 405.722 193.44 406.03 193.637 406.367C194.366 407.376 195.123 408.301 195.908 409.142C196.272 409.535 196.637 409.956 197.001 410.348C197.394 410.741 197.786 411.133 198.207 411.526C199.02 412.339 199.946 413.124 200.983 413.993L202.217 414.975C202.75 415.395 203.338 415.816 203.927 416.236C204.011 416.293 204.095 416.349 204.151 416.405C217.19 425.433 239.033 432.051 261.436 423.583C278.316 417.19 300.804 399.749 312.216 352.867C319.086 324.603 324.834 307.275 335.601 296.648C339.499 292.778 343.761 291.236 345.92 292.918C346.621 293.479 348.051 295.162 345.864 298.947C345.555 299.48 344.854 299.648 344.321 299.339C343.789 299.031 343.592 298.33 343.929 297.797C344.91 296.087 344.966 294.993 344.574 294.685C343.845 294.124 340.873 294.601 337.199 298.246C326.825 308.536 321.189 325.556 314.403 353.428C302.767 401.263 279.606 419.125 262.25 425.714C254.679 428.518 247.192 429.723 240.042 429.723Z" fill="#262A39"/>
<path d="M364.51 362.653C346.733 367.644 327.582 362.961 314.151 350.316C314.011 350.175 313.843 350.091 313.702 350.035C313.45 350.708 313.198 351.409 312.945 352.082C312.945 352.11 312.945 352.166 312.945 352.194C326.937 365.149 346.761 369.943 365.127 364.784C366.473 364.419 365.884 362.26 364.51 362.653Z" fill="#262A39"/>
</svg>
