<svg width="598" height="564" viewBox="0 0 598 564" fill="none" xmlns="http://www.w3.org/2000/svg">
<path d="M239.85 144.563C235.291 140.032 230.733 135.501 226.202 130.943C225.189 129.93 223.613 131.506 224.626 132.519C229.185 137.049 233.744 141.58 238.274 146.138C239.287 147.151 240.863 145.576 239.85 144.563Z" fill="#FF7E60"/>
<path d="M302.358 135.168C301.852 139.226 301.33 143.262 300.824 147.32C300.638 148.764 302.87 149.169 303.033 147.741C303.539 143.682 304.061 139.647 304.567 135.589C304.769 134.168 302.522 133.739 302.358 135.168Z" fill="#C3DDF0"/>
<path d="M350.601 132.025C346.497 138.052 342.431 144.089 338.327 150.116C337.52 151.333 339.501 152.366 340.323 151.173C344.427 145.146 348.492 139.11 352.597 133.083C353.428 131.852 351.447 130.818 350.601 132.025Z" fill="#FF7E60"/>
<path d="M339.241 306.736C320.528 309.353 322.019 337.296 342.702 337.155C366.171 336.986 362.372 303.471 339.241 306.736Z" fill="#FF7E60"/>
<path d="M441.671 99.0908L444.964 108.912L454.391 101.398L441.671 99.0908Z" fill="#FF7E60"/>
<path d="M313.634 106.689L323.342 130.862L339.185 111.051L313.634 106.689Z" fill="#C3DDF0"/>
<path d="M154.22 74.6074L132.411 102.044L159.397 126.16L186.131 102.044L154.22 74.6074Z" fill="#FF7E60"/>
<path d="M280.822 83.0469H266.893L264.67 99.4244L277.755 103.758L280.822 83.0469Z" fill="#FF7E60"/>
<path d="M390.853 85.7289C387.551 88.6023 384.267 91.4544 380.964 94.3277C379.895 95.2632 381.108 97.1303 382.217 96.1919C385.519 93.3185 388.803 90.4665 392.106 87.5931C393.175 86.6576 391.941 84.7721 390.853 85.7289Z" fill="#FF7E60"/>
<path d="M464.569 160.68C465.909 160.197 464.926 158.178 463.585 158.66C461.818 159.31 460.05 159.959 458.283 160.609C456.942 161.092 457.926 163.111 459.267 162.628C461.034 161.978 462.801 161.329 464.569 160.68Z" fill="#C3DDF0"/>
<path d="M225 85.1927C222.531 82.8269 220.063 80.4612 217.613 78.1167C216.565 77.1262 214.888 78.5853 215.936 79.5758C218.404 81.9415 220.873 84.3073 223.322 86.6518C224.331 87.6395 226.026 86.2016 225 85.1927Z" fill="#C3DDF0"/>
<path d="M366.915 90.6964C366.319 88.5451 365.724 86.3937 365.111 84.2637C364.711 82.8763 362.608 83.5876 362.989 84.9963C363.584 87.1477 364.18 89.299 364.793 91.429C365.193 92.8165 367.315 92.0838 366.915 90.6964Z" fill="#FF7E60"/>
<path d="M193.183 185.648C173.57 160.274 147.888 140.314 118.457 127.547C117.123 126.973 116.271 129.033 117.606 129.606C146.68 142.248 172.014 161.956 191.408 187.025C192.3 188.147 194.049 186.781 193.183 185.648Z" fill="#C3DDF0"/>
<path d="M423.217 134.142C409.391 141.441 397.67 151.649 388.594 164.407C387.756 165.586 389.545 166.943 390.384 165.764C399.235 153.34 410.605 143.324 424.08 136.219C425.351 135.547 424.488 133.471 423.217 134.142Z" fill="#C3DDF0"/>
<path d="M380.803 437.135C380.212 437.135 379.706 436.656 379.678 436.037L375.597 292.916C375.569 292.297 376.076 291.791 376.695 291.763C377.286 291.763 377.82 292.241 377.849 292.86L381.929 435.981C381.957 436.6 381.45 437.107 380.831 437.135C380.803 437.135 380.803 437.135 380.803 437.135Z" fill="#262A39"/>
<path d="M200.651 442.508C200.031 442.508 199.525 442.001 199.525 441.382V419.798C199.525 419.179 200.031 418.673 200.651 418.673C201.27 418.673 201.776 419.179 201.776 419.798V441.382C201.776 442.029 201.27 442.508 200.651 442.508Z" fill="#262A39"/>
<path d="M268.919 359.466C268.891 359.466 268.863 359.466 268.834 359.466L237.064 356.821C236.755 356.793 236.473 356.652 236.304 356.427C236.107 356.202 236.023 355.892 236.051 355.583L238.049 337.489C238.105 336.926 238.584 336.504 239.147 336.504H268.919C269.538 336.504 270.044 337.01 270.044 337.63V358.369C270.044 358.678 269.904 358.988 269.679 359.185C269.454 359.354 269.172 359.466 268.919 359.466ZM238.359 354.682L267.793 357.131V338.727H240.131L238.359 354.682Z" fill="#262A39"/>
<path d="M348.921 329.443C337.693 329.443 331.98 321.48 331.446 314.051C330.911 306.762 335.076 298.264 345.46 296.801C352.72 295.76 359.051 298.236 362.822 303.526C366.48 308.648 367.071 315.683 364.313 321.086C361.584 326.432 356.153 329.415 349.061 329.472C349.033 329.443 348.977 329.443 348.921 329.443ZM345.769 299.024C336.792 300.29 333.219 307.607 333.669 313.91C334.147 320.551 339.072 327.22 348.921 327.22C348.977 327.22 349.033 327.22 349.09 327.22C355.309 327.164 360.036 324.631 362.372 320.073C364.764 315.43 364.229 309.295 361.049 304.849C359.107 302.119 354.549 297.786 345.769 299.024Z" fill="#262A39"/>
<path d="M195.98 326.401C195.192 320.773 192.575 312.753 195.754 306.449C200.285 297.501 207.995 287.624 210.894 291.057C215.65 296.657 228.763 378.122 226.343 401.225C223.923 424.328 201.495 436.035 201.495 436.035L200.679 419.826C200.679 419.826 211.569 409.639 212.16 389.8C212.751 369.962 200.566 314.132 200.566 314.132L195.98 326.401Z" fill="#262A39"/>
<path d="M389.443 399.453C387.782 407.388 384.265 413.86 380.269 419.01C380.128 416.787 379.988 414.536 379.847 412.313C379.087 400.803 375.682 297.67 377.089 294.237C374.979 283.459 382.211 296.15 385.869 304.339C388.964 311.261 392.679 320.266 392.144 329.13C392.735 356.455 392.144 386.564 389.443 399.453Z" fill="#262A39"/>
<path d="M181.262 364.303C180.643 364.303 180.136 363.797 180.136 363.177L180.08 278.11C180.08 271.666 185.117 266.488 191.533 266.319C219.082 265.616 219.195 265.756 219.673 266.347C219.898 266.629 219.983 266.994 219.898 267.332C219.758 267.923 219.139 268.317 218.548 268.148C218.519 268.148 218.491 268.12 218.463 268.12C217.703 268.064 213.426 267.979 191.589 268.57C186.383 268.711 182.303 272.904 182.303 278.11L182.359 363.177C182.388 363.797 181.881 364.303 181.262 364.303Z" fill="#262A39"/>
<path d="M384.546 317.563C383.927 317.563 383.42 317.056 383.42 316.437V276.028C383.42 270.766 379.143 266.489 373.881 266.489C373.262 266.489 372.755 265.982 372.755 265.363C372.755 264.744 373.262 264.237 373.881 264.237C380.381 264.237 385.644 269.528 385.644 276V316.409C385.644 317.056 385.165 317.563 384.546 317.563Z" fill="#262A39"/>
<path d="M186.158 442.506C185.539 442.506 185.033 442 185.033 441.381V432.573C185.033 431.954 185.539 431.447 186.158 431.447C186.777 431.447 187.284 431.954 187.284 432.573V441.381C187.284 442.028 186.777 442.506 186.158 442.506Z" fill="#262A39"/>
<path d="M308.004 199.546C252.315 200.081 237.654 210.042 237.992 240.434C238.273 265.253 245.252 278.113 310.649 278.113C360.457 278.113 362.23 264.916 360.317 231.879C358.994 209.086 354.435 199.124 308.004 199.546Z" fill="#FF7E60"/>
<path d="M259.603 258.218C259.012 258.218 258.506 257.74 258.477 257.149L257.549 239.167C257.042 229.571 259.997 221.917 266.329 216.373C272.913 210.605 282.987 207.312 296.326 206.637C311.353 205.877 321.68 209.451 327.055 217.358C327.336 217.781 327.561 218.259 327.702 218.822C327.787 219.103 327.73 219.413 327.561 219.666C327.393 219.919 327.139 220.116 326.858 220.172C322.721 221.129 317.318 221.326 312.985 221.495C310.931 221.579 309.158 221.636 307.92 221.748C303.924 222.17 299.872 222.283 295.96 222.367C292.161 222.452 288.222 222.564 284.394 222.958C279.132 223.521 275.502 225.238 273.279 228.192C268.946 233.961 270.747 243.979 272.35 252.787C272.547 253.828 272.716 254.841 272.885 255.854C272.998 256.473 272.576 257.036 271.957 257.149C271.337 257.261 270.775 256.839 270.662 256.22C270.493 255.207 270.296 254.194 270.127 253.153C268.467 243.866 266.554 233.37 271.478 226.813C274.095 223.324 278.232 221.326 284.169 220.707C288.081 220.285 292.049 220.201 295.904 220.088C299.759 220.004 303.755 219.891 307.666 219.469C308.961 219.328 310.79 219.272 312.872 219.188C316.615 219.047 321.202 218.906 324.916 218.231C319.935 211.28 310.34 208.128 296.41 208.86C283.607 209.507 273.983 212.603 267.792 218.034C262.023 223.099 259.322 230.162 259.772 239.026L260.7 257.008C260.729 257.627 260.25 258.162 259.631 258.19C259.631 258.218 259.631 258.218 259.603 258.218Z" fill="#262A39"/>
<path d="M255.804 268.964C255.382 268.964 254.96 268.711 254.763 268.288C254.369 267.388 254.144 266.403 254.088 265.39C253.975 263.223 254.763 261.141 256.339 259.481C259.209 256.47 264.387 254.922 271.788 254.922C272.407 254.922 272.913 255.428 272.913 256.047C272.913 256.667 272.407 257.173 271.788 257.173C263.374 257.173 259.631 259.255 257.971 261.028C256.508 262.576 256.283 264.18 256.339 265.277C256.367 266.037 256.536 266.741 256.845 267.416C257.099 267.979 256.817 268.654 256.255 268.908C256.114 268.936 255.945 268.964 255.804 268.964Z" fill="#262A39"/>
<path d="M312.141 266.488C311.522 266.488 311.015 265.981 311.015 265.362C311.015 264.743 311.522 264.237 312.141 264.237C314.252 264.237 315.968 263.674 316.784 262.717C317.234 262.182 317.375 261.535 317.263 260.747C316.981 258.974 313.013 257.989 311.156 257.764C310.593 257.708 310.143 257.23 310.143 256.639V246.339C310.143 245.72 310.65 245.214 311.269 245.214C311.888 245.214 312.394 245.72 312.394 246.339V255.682C314.477 256.048 318.951 257.202 319.486 260.381C319.739 261.845 319.401 263.139 318.501 264.18C317.234 265.672 314.983 266.488 312.141 266.488Z" fill="#262A39"/>
<path d="M321.793 250.339L321.568 252.562C321.259 255.432 325.733 255.91 326.042 253.04L326.267 250.817C326.577 247.947 322.103 247.468 321.793 250.339Z" fill="#262A39"/>
<path d="M291.486 251.067L291.26 253.29C290.951 256.16 295.425 256.639 295.735 253.769L295.96 251.545C296.269 248.675 291.795 248.197 291.486 251.067Z" fill="#262A39"/>
<path d="M295.231 240.412C293.433 240.801 291.675 241.299 289.968 242.017C288.642 242.582 289.782 244.527 291.108 243.962C292.625 243.32 294.224 242.924 295.829 242.584C297.267 242.262 296.672 240.118 295.231 240.412Z" fill="#262A39"/>
<path d="M328.839 240.754C327.512 240.37 326.117 240.243 324.819 239.761C323.485 239.261 322.428 241.268 323.789 241.76C325.281 242.299 326.825 242.527 328.339 242.942C329.763 243.355 330.228 241.148 328.839 240.754Z" fill="#262A39"/>
<path d="M332.74 274.258C332.121 274.258 331.614 273.752 331.614 273.132C331.558 264.437 330.798 253.997 329.954 241.897C329.729 238.633 329.476 235.228 329.251 231.738C328.153 215.276 317.432 207.791 296.467 208.889C282.144 209.62 271.845 213.363 265.851 220.032C261.461 224.9 259.435 231.316 259.857 239.055C259.885 239.674 259.407 240.209 258.788 240.237C258.112 240.265 257.634 239.786 257.606 239.167C257.156 230.782 259.379 223.831 264.191 218.512C270.606 211.393 281.44 207.397 296.383 206.637C318.529 205.512 330.348 213.869 331.53 231.569C331.755 235.087 332.008 238.464 332.233 241.728C333.106 253.856 333.837 264.325 333.922 273.104C333.866 273.752 333.359 274.258 332.74 274.258Z" fill="#262A39"/>
<path d="M376.245 294.094C375.963 293.813 375.907 293.672 375.907 293.306C372.586 282.838 371.855 276.676 371.855 249.155C371.855 219.72 367.127 201.373 356.968 191.411C346.134 180.774 330.32 180.239 307.47 180.69C266.188 181.337 241.875 183.701 231.632 194.422C223.274 203.202 223.303 217.666 224.147 242.457C224.907 265.954 216.859 281.009 211.287 292.462C211.006 293.025 210.358 293.25 209.796 292.969C209.233 292.687 209.008 292.012 209.289 291.477C214.608 280.503 222.655 265.335 221.924 242.514C221.08 217.103 221.051 202.273 230.056 192.818C240.89 181.449 264.612 179.029 307.47 178.382C327.421 178.016 346.247 177.651 358.573 189.751C369.181 200.163 374.134 219.017 374.134 249.098C374.134 276.648 374.838 282.698 378.186 293.335C378.33 293.791 377.792 294.235 377.37 294.376C376.948 294.517 376.526 294.376 376.245 294.094Z" fill="#262A39"/>
<path d="M346.134 217.749L339.409 223.799C338.34 224.756 339.915 226.36 341.013 225.403C343.264 223.377 345.487 221.379 347.738 219.353C348.808 218.368 347.204 216.764 346.134 217.749Z" fill="white"/>
<path d="M163.759 376.185C162.24 376.185 160.636 376.016 158.919 375.622C148.057 373.23 144.399 354.939 140.15 333.777C138.968 327.84 137.73 321.705 136.295 315.74C136.041 314.755 135.816 313.826 135.591 312.841C132.974 302.035 130.385 291.792 127.065 285.433C117.778 267.507 101.316 255.688 95.0973 254.394C94.1687 254.197 93.7466 254.31 93.6622 254.366C93.5215 254.704 93.0431 256.758 99.3465 263.23C102.217 266.157 102.892 270.49 101.119 274.261C99.7123 277.272 99.1777 280.03 99.5435 282.506C99.6279 283.125 99.2058 283.688 98.6149 283.772C97.9958 283.857 97.433 283.435 97.3486 282.844C96.9265 279.917 97.5174 276.709 99.1214 273.304C100.5 270.378 99.9656 267.029 97.7707 264.778C92.5929 259.459 90.5949 255.745 91.6643 253.409C91.8894 252.931 92.5085 252.087 94.0843 252.03C94.1124 252.03 94.1687 252.03 94.1969 252.03C100.613 252.03 119.129 265.228 129.062 284.391C132.496 290.976 135.141 301.36 137.786 312.306C138.011 313.263 138.236 314.22 138.489 315.177C139.925 321.199 141.163 327.361 142.373 333.327C146.284 352.885 149.971 371.344 159.426 373.427C177.351 377.395 184.386 356.852 192.49 333.102C195.698 323.759 198.991 314.079 203.212 305.159C203.465 304.596 204.14 304.371 204.703 304.624C205.266 304.877 205.491 305.553 205.238 306.116C201.073 314.895 197.781 324.519 194.629 333.806C187.172 355.558 180.137 376.185 163.759 376.185Z" fill="#262A39"/>
<path d="M83.25 280.169C83.1093 280.169 82.9686 280.14 82.8279 280.084C76.5526 277.439 59.2183 271.389 54.3219 274.991C53.3933 275.694 52.9993 276.764 53.14 278.283C53.1963 278.902 52.7461 279.437 52.127 279.493C51.5079 279.549 50.9732 279.099 50.917 278.48C50.6356 275.582 51.8737 273.978 52.9993 273.19C57.3329 270.01 67.6322 272.43 75.1738 274.878C72.7537 273.781 70.1929 272.88 67.8855 272.064C63.1016 270.404 59.6123 269.194 58.8806 266.943C58.6836 266.352 58.5992 265.395 59.3871 264.241C64.0021 257.46 91.1855 267.871 99.4024 271.248C99.9652 271.473 100.247 272.121 100.021 272.711C99.7964 273.274 99.121 273.556 98.5582 273.331C78.9164 265.311 63.5519 262.103 61.2444 265.536C60.9348 265.986 60.9911 266.183 61.0193 266.267C61.4132 267.449 65.2403 268.8 68.6171 269.982C73.8793 271.811 80.4641 274.118 84.1223 278.339C84.46 278.733 84.4881 279.296 84.1786 279.718C83.9535 280 83.6158 280.169 83.25 280.169Z" fill="#262A39"/>
<path d="M77.8469 283.661C76.1022 283.21 73.9917 282.535 71.7405 281.86C63.0452 279.158 53.1962 276.091 50.0726 279.693C48.6656 281.297 48.8063 283.801 50.4947 287.347C50.4947 287.375 50.5228 287.375 50.5228 287.403C51.1701 287.375 51.8173 287.403 52.4364 287.46C52.6334 287.15 52.6615 286.728 52.4927 286.39C51.2545 283.829 51.0012 282 51.7329 281.156C53.8997 278.652 64.199 281.888 71.037 283.998C73.3164 284.702 75.455 285.377 77.256 285.856C77.8469 285.996 78.466 285.659 78.6067 285.068C78.8037 284.42 78.466 283.801 77.8469 283.661Z" fill="#262A39"/>
<path d="M156.611 442.511C152.784 442.511 148.76 442.117 144.511 441.273C102.526 432.859 95.0127 374.609 91.4107 346.638C91.0731 343.993 90.7635 341.657 90.4821 339.715C89.9475 336.17 89.3284 332.793 88.6811 329.726C88.5404 328.938 88.3716 328.178 88.1746 327.418C85.1355 314.024 81.1677 305.103 77.2563 302.88C72.8101 300.347 67.2102 298.884 62.2576 297.59C55.3351 295.789 49.8759 294.354 48.7503 290.611C48.4126 289.485 48.0749 287.853 49.1443 286.699C51.1703 284.533 56.4325 285.602 72.8382 289.288C73.4292 289.429 73.8232 290.02 73.6824 290.611C73.5417 291.202 72.9508 291.596 72.3599 291.455C60.9913 288.894 52.0427 286.868 50.8045 288.191C50.6075 288.416 50.6357 289.035 50.9171 289.936C51.6769 292.468 57.1079 293.903 62.8485 295.395C67.9137 296.717 73.6825 298.209 78.3819 300.91C84.4883 304.371 88.5123 318.667 90.3696 326.855C90.5665 327.615 90.7635 328.459 90.9042 329.275C91.5796 332.371 92.1987 335.776 92.7333 339.378C93.0147 341.348 93.3243 343.683 93.6619 346.357C97.2076 373.821 104.58 431.002 144.99 439.106C188.916 447.942 209.712 404.747 209.909 404.297C210.162 403.734 210.837 403.509 211.4 403.762C211.963 404.016 212.188 404.691 211.935 405.254C211.71 405.648 193.953 442.511 156.611 442.511Z" fill="#262A39"/>
<path d="M89.2437 327.079C89.4688 327.867 89.6095 328.655 89.7783 329.443C98.6706 331.075 107.901 330.822 116.765 328.486C124.7 326.375 132.833 321.986 137.448 315.457C137.194 314.472 136.969 313.515 136.744 312.559C131.96 321.113 120.564 325.841 110.912 327.473C103.651 328.711 96.335 328.542 89.2437 327.079Z" fill="#262A39"/>
<path d="M172.623 440.091C172.145 440.091 171.694 439.781 171.554 439.303C169.415 432.324 162.042 425.289 152.362 421.012C140.178 415.609 126.642 415.553 115.273 420.843C114.711 421.096 114.063 420.871 113.782 420.308C113.529 419.746 113.754 419.098 114.317 418.817C126.276 413.245 140.459 413.273 153.263 418.958C163.534 423.516 171.357 431.058 173.692 438.656C173.861 439.247 173.552 439.866 172.961 440.063C172.848 440.063 172.736 440.091 172.623 440.091Z" fill="#262A39"/>
<path d="M416.288 362.081C399.348 362.081 390.962 336.136 384.687 316.748L384.265 315.453C381.197 305.885 378.552 297.612 375.738 293.926C375.372 293.448 375.457 292.744 375.935 292.35C376.413 291.984 377.117 292.069 377.511 292.547C380.55 296.543 383.28 304.957 386.403 314.722L386.825 316.016C395.042 341.455 403.822 363.91 420.762 359.155C438.885 354.061 443.134 323.389 446.904 296.318L446.989 295.671C447.158 294.658 447.27 293.701 447.411 292.716C448.959 281.544 450.591 270.964 453.349 264.069C461.397 243.921 478.703 228.922 485.006 228.444C486.61 228.331 487.257 229.091 487.539 229.569C488.861 231.793 487.201 235.732 482.474 241.585C480.56 243.949 480.363 247.298 481.967 249.943C483.965 253.235 484.894 256.415 484.725 259.398C484.697 260.017 484.162 260.495 483.543 260.467C482.924 260.439 482.445 259.905 482.474 259.285C482.586 256.753 481.77 253.995 480.025 251.097C477.943 247.664 478.224 243.274 480.701 240.178C486.441 233.031 485.766 231.005 485.569 230.695C485.513 230.667 485.091 230.582 484.162 230.864C478.084 232.777 462.86 246.144 455.375 264.885C452.701 271.555 451.097 281.995 449.55 292.997C449.409 293.982 449.268 294.939 449.128 295.952L449.043 296.571C445.188 324.317 440.826 355.778 421.297 361.237C419.58 361.856 417.892 362.081 416.288 362.081Z" fill="#262A39"/>
<path d="M498.429 255.486C498.119 255.486 497.81 255.345 497.585 255.12C497.247 254.726 497.219 254.163 497.5 253.741C500.736 249.182 507.04 246.256 512.105 243.92C515.369 242.429 519.056 240.712 519.309 239.502C519.337 239.418 519.365 239.221 519.028 238.799C516.382 235.619 501.412 240.318 482.642 250.195C482.108 250.477 481.432 250.28 481.123 249.717C480.841 249.182 481.038 248.507 481.601 248.198C489.452 244.061 515.482 231.032 520.744 237.335C521.616 238.377 521.645 239.333 521.504 239.952C520.997 242.232 517.649 243.78 513.062 245.918C510.839 246.959 508.362 248.085 506.055 249.436C513.315 246.256 523.361 242.823 527.976 245.581C529.158 246.284 530.565 247.719 530.565 250.646C530.565 251.265 530.058 251.771 529.439 251.771C528.82 251.771 528.314 251.265 528.314 250.646C528.314 249.126 527.835 248.085 526.822 247.494C521.616 244.399 504.929 252.109 498.964 255.345C498.795 255.458 498.626 255.486 498.429 255.486Z" fill="#262A39"/>
<path d="M504.648 260.578C504.198 260.578 503.776 260.296 503.607 259.846C503.382 259.255 503.691 258.636 504.282 258.411C505.971 257.792 508.025 256.92 510.192 256.019C518.577 252.473 528.089 248.449 531.55 251.742C533.098 253.205 533.21 255.71 531.86 259.396C531.634 259.987 531.015 260.268 530.424 260.071C529.833 259.874 529.552 259.227 529.749 258.636C530.734 255.963 530.818 254.134 530.002 253.346C527.61 251.066 517.649 255.287 511.064 258.073C508.869 259.002 506.787 259.874 505.07 260.522C504.901 260.55 504.761 260.578 504.648 260.578Z" fill="#262A39"/>
<path d="M427.122 426.831C395.521 426.831 380.044 404.91 379.875 404.656C379.537 404.15 379.65 403.446 380.157 403.109C380.663 402.771 381.367 402.884 381.704 403.39C381.901 403.671 401.43 431.221 441.586 423.088C483.6 414.59 490.55 353.582 494.265 320.799C494.49 318.829 494.687 316.972 494.912 315.199C495.109 313.454 495.222 311.709 495.334 309.965C495.447 308.276 495.559 306.616 495.728 304.984C495.784 304.196 495.897 303.352 496.038 302.508C497.079 294.206 499.696 279.602 505.436 275.549C509.854 272.426 515.426 270.372 520.351 268.543C525.922 266.488 531.185 264.547 531.691 261.958C531.86 261.029 531.86 260.41 531.635 260.213C530.284 259.003 521.561 261.901 510.502 265.56C509.911 265.757 509.292 265.447 509.095 264.856C508.898 264.265 509.207 263.646 509.798 263.449C525.754 258.187 530.903 256.583 533.126 258.553C534.308 259.594 534.139 261.254 533.914 262.408C533.183 266.235 527.864 268.205 521.139 270.653C516.355 272.426 510.924 274.424 506.731 277.379C503.045 279.967 499.949 289.254 498.261 302.817C498.12 303.633 498.036 304.421 497.979 305.181C497.782 306.813 497.698 308.417 497.585 310.077C497.473 311.85 497.36 313.623 497.135 315.424C496.938 317.197 496.713 319.054 496.488 320.996C492.689 354.342 485.626 416.391 442.037 425.199C436.718 426.381 431.766 426.831 427.122 426.831Z" fill="#262A39"/>
<path d="M497.163 302.763C497.022 303.579 496.938 304.366 496.882 305.183C488.186 307.687 478.984 308.334 469.951 306.871C461.847 305.548 453.349 301.975 448.115 295.924C448.284 294.911 448.396 293.955 448.537 292.97C454.137 301.018 465.927 304.62 475.692 305.295C482.98 305.774 490.241 304.873 497.163 302.763Z" fill="#262A39"/>
<path d="M414.234 425.789C414.093 425.789 413.981 425.76 413.84 425.732C413.249 425.507 412.967 424.888 413.164 424.297C421.888 400.491 456.922 391.036 475.382 396.523C475.973 396.692 476.311 397.311 476.142 397.902C475.973 398.493 475.354 398.83 474.763 398.661C457.091 393.427 423.576 402.404 415.275 425.085C415.106 425.507 414.684 425.789 414.234 425.789Z" fill="#262A39"/>
<path d="M238.217 342.22V350.943L264.585 350.071V342.22H238.217Z" fill="#FFD2C4"/>
</svg>
