<svg width="14" height="14" viewBox="0 0 14 14" fill="none" xmlns="http://www.w3.org/2000/svg">
<path fill-rule="evenodd" clip-rule="evenodd" d="M13.6673 6.99992C13.6673 10.6818 10.6825 13.6666 7.00065 13.6666C3.31875 13.6666 0.333984 10.6818 0.333984 6.99992C0.333984 3.31802 3.31875 0.333252 7.00065 0.333252C10.6825 0.333252 13.6673 3.31802 13.6673 6.99992ZM9.68754 4.9797C9.8828 5.17496 9.8828 5.49154 9.68754 5.68681L6.35421 9.02014C6.15894 9.2154 5.84236 9.2154 5.6471 9.02014L4.31376 7.68681C4.1185 7.49154 4.1185 7.17496 4.31376 6.9797C4.50903 6.78444 4.82561 6.78444 5.02087 6.9797L6.00065 7.95948L7.49054 6.46959L8.98043 4.9797C9.17569 4.78444 9.49228 4.78444 9.68754 4.9797Z" fill="#1ABE8C"/>
</svg>
