<svg width="16" height="16" viewBox="0 0 16 16" fill="none" xmlns="http://www.w3.org/2000/svg">
<g clip-path="url(#clip0_5908_19419)">
<path d="M1.33398 8.00016C1.33398 4.85747 1.33398 3.28612 2.3103 2.30981C3.28661 1.3335 4.85795 1.3335 8.00065 1.3335C11.1433 1.3335 12.7147 1.3335 13.691 2.30981C14.6673 3.28612 14.6673 4.85747 14.6673 8.00016C14.6673 11.1429 14.6673 12.7142 13.691 13.6905C12.7147 14.6668 11.1433 14.6668 8.00065 14.6668C4.85795 14.6668 3.28661 14.6668 2.3103 13.6905C1.33398 12.7142 1.33398 11.1429 1.33398 8.00016Z" stroke="#626C76" stroke-width="1.5"/>
<path d="M1.33398 8.6665H3.44082C4.04427 8.6665 4.346 8.6665 4.61121 8.78849C4.87643 8.91047 5.07279 9.13956 5.46551 9.59773L5.86913 10.0686C6.26185 10.5268 6.4582 10.7559 6.72342 10.8779C6.98864 10.9998 7.29036 10.9998 7.89381 10.9998H8.10749C8.71094 10.9998 9.01266 10.9998 9.27788 10.8779C9.5431 10.7559 9.73946 10.5268 10.1322 10.0686L10.5358 9.59773C10.9285 9.13956 11.1249 8.91047 11.3901 8.78849C11.6553 8.6665 11.957 8.6665 12.5605 8.6665H14.6673" stroke="#626C76" stroke-width="1.2" stroke-linecap="round"/>
</g>
<defs>
<clipPath id="clip0_5908_19419">
<rect width="16" height="16" fill="white"/>
</clipPath>
</defs>
</svg>
