<svg xmlns="http://www.w3.org/2000/svg" width="16" height="16" viewBox="0 0 16 16" fill="none">
    <g clip-path="url(#clip0_1784_41786)">
        <path d="M12.4235 10.4468L13.5678 7.01391C14.5674 4.01498 15.0672 2.51552 14.2757 1.72401C13.4842 0.932498 11.9847 1.43232 8.98581 2.43196L5.55292 3.57626C3.1325 4.38306 1.92229 4.78647 1.57838 5.37803C1.25122 5.94079 1.25122 6.63583 1.57838 7.1986C1.92229 7.79016 3.1325 8.19356 5.55292 9.00037C5.94156 9.12992 6.13587 9.19469 6.2983 9.30342C6.4557 9.4088 6.59092 9.54402 6.6963 9.70142C6.80503 9.86384 6.8698 10.0582 6.99935 10.4468C7.80615 12.8672 8.20955 14.0774 8.80112 14.4213C9.36388 14.7485 10.0589 14.7485 10.6217 14.4213C11.2132 14.0774 11.6167 12.8672 12.4235 10.4468Z" stroke="#626C76" stroke-width="1.2"/>
        <path d="M10.878 5.97012C11.1136 5.73711 11.1157 5.35722 10.8827 5.12161C10.6497 4.886 10.2698 4.88389 10.0342 5.11691L10.878 5.97012ZM7.17874 9.62864L10.878 5.97012L10.0342 5.11691L6.33493 8.77542L7.17874 9.62864Z" fill="#626C76"/>
    </g>
    <defs>
        <clipPath id="clip0_1784_41786">
            <rect width="16" height="16" fill="white"/>
        </clipPath>
    </defs>
</svg>