<svg width="16" height="16" viewBox="0 0 16 16" fill="none" xmlns="http://www.w3.org/2000/svg">
<g opacity="0.8">
<path d="M13.6666 3.33334H2.33325" stroke="#3B63B8" stroke-width="1.5" stroke-linecap="round"/>
<path d="M13 5.33334L12.6635 10.3007C12.534 12.2122 12.4692 13.168 11.8363 13.7507C11.2033 14.3333 10.2299 14.3333 8.28294 14.3333H7.71706C5.77013 14.3333 4.79667 14.3333 4.16374 13.7507C3.5308 13.168 3.46605 12.2122 3.33654 10.3007L3 5.33334" stroke="#3B63B8" stroke-width="1.5" stroke-linecap="round"/>
<path d="M4.33325 3.33334C4.37051 3.33334 4.38913 3.33334 4.40602 3.33291C4.95498 3.319 5.43927 2.96994 5.62606 2.45355C5.63181 2.43766 5.6377 2.41999 5.64948 2.38465L5.7142 2.19048C5.76946 2.02472 5.79708 1.94184 5.83373 1.87147C5.97993 1.59072 6.25041 1.39576 6.56299 1.34585C6.64134 1.33334 6.7287 1.33334 6.90343 1.33334H9.09641C9.27114 1.33334 9.3585 1.33334 9.43685 1.34585C9.74942 1.39576 10.0199 1.59072 10.1661 1.87147C10.2028 1.94184 10.2304 2.02472 10.2856 2.19048L10.3504 2.38465C10.3621 2.41995 10.368 2.43768 10.3738 2.45355C10.5606 2.96994 11.0449 3.319 11.5938 3.33291C11.6107 3.33334 11.6293 3.33334 11.6666 3.33334" stroke="#3B63B8" stroke-width="1.5"/>
</g>
</svg>
