<svg width="58" height="58" viewBox="0 0 58 58" fill="none" xmlns="http://www.w3.org/2000/svg">
<rect x="1" y="1" width="56" height="56" rx="16" stroke="#EAF0F5" stroke-linecap="round"/>
<circle cx="29" cy="30" r="3" stroke="#DFE1E6" stroke-width="1.5" stroke-linecap="round"/>
<path d="M26.7778 38H31.2222C34.3433 38 35.9038 38 37.0248 37.2646C37.51 36.9462 37.9267 36.5371 38.251 36.0607C39 34.9601 39 33.4279 39 30.3636C39 27.2994 39 25.7672 38.251 24.6666C37.9267 24.1901 37.51 23.781 37.0248 23.4627C36.3044 22.9901 35.4027 22.8212 34.022 22.7609C33.3631 22.7609 32.7959 22.2707 32.6667 21.6364C32.4728 20.6849 31.6219 20 30.6337 20H27.3663C26.3781 20 25.5272 20.6849 25.3333 21.6364C25.2041 22.2707 24.6369 22.7609 23.978 22.7609C22.5973 22.8212 21.6956 22.9901 20.9752 23.4627C20.49 23.781 20.0733 24.1901 19.749 24.6666C19 25.7672 19 27.2994 19 30.3636C19 33.4279 19 34.9601 19.749 36.0607C20.0733 36.5371 20.49 36.9462 20.9752 37.2646C22.0962 38 23.6568 38 26.7778 38Z" stroke="#DFE1E6" stroke-width="1.5" stroke-linecap="round"/>
<path d="M36 27H35" stroke="#DFE1E6" stroke-width="1.5" stroke-linecap="round"/>
</svg>
