<svg width="489" height="480" viewBox="0 0 489 480" fill="none" xmlns="http://www.w3.org/2000/svg">
<path d="M297.208 262.853C293.245 261.512 289.312 260.082 285.379 258.622C272.418 253.825 259.725 248.73 248.582 240.447H200.105C200.105 240.506 200.135 240.536 200.135 240.596C201.863 258.682 201.655 275.426 197.543 292.469C195.964 303.434 193.431 314.25 189.707 325.065L192.567 344.819H305.074L297.208 262.853Z" fill="#C3DDF0"/>
<path d="M218.787 224.417C222.034 220.246 226.027 216.283 229.156 211.844C226.146 201.475 225.64 188.663 228.619 172.246C178.057 173.229 127.465 173.676 76.8724 173.527C96.5075 189.884 122.34 201.177 162.623 211.456C179.696 215.806 195.517 225.877 200.701 244.171C208.031 238.808 213.245 231.598 218.787 224.417Z" fill="#FF7E60"/>
<path d="M336.001 369.37C337.401 367.762 338.355 365.735 338.534 363.262C338.295 362.547 338.027 361.862 337.729 361.147C335.405 360.462 332.575 360.521 330.906 360.909C327.748 361.654 324.887 363.173 322.206 364.901C320.984 365.706 319.196 365.378 318.183 364.395L317.886 364.097C317.23 363.441 316.872 362.488 316.932 361.534C300.992 362.696 285.021 363.829 269.081 364.842C241.133 366.659 213.126 366.6 185.208 368.685C185.535 413.944 206.183 453.542 206.183 453.542L317.796 399.791C316.604 399.642 315.412 399.434 314.25 399.166C312.403 399.166 310.556 399.076 308.858 398.689C306.683 398.182 304.656 396.722 304.746 394.279C304.805 392.73 305.729 391.419 307.07 390.972L307.278 389.661C307.1 389.482 306.921 389.303 306.772 389.065C305.878 388.38 305.312 387.337 305.193 386.115C305.044 384.208 306.265 382.838 308.053 382.6C300.545 369.579 326.973 372.499 336.001 369.37Z" fill="#FF7E60"/>
<path d="M233.744 325.661C233.744 327.061 233.238 328.223 232.433 329.058C231.986 329.505 231.48 329.832 230.884 330.071C230.318 330.279 229.722 330.428 229.066 330.428C229.036 330.428 229.007 330.428 228.947 330.428C226.981 330.428 225.282 329.236 224.567 327.508C224.329 326.942 224.21 326.317 224.21 325.661C224.21 324.737 224.418 323.873 224.865 323.128C224.984 322.95 225.103 322.741 225.223 322.592L225.372 322.384C226.206 321.46 227.427 320.894 228.947 320.894C231.629 320.924 233.744 323.039 233.744 325.661Z" fill="#FF7E60"/>
<path d="M234.072 267.948C232.969 274.681 231.867 281.415 230.765 288.119C230.496 289.788 233.059 290.533 233.357 288.834C234.459 282.1 235.562 275.367 236.664 268.663C236.932 266.965 234.34 266.249 234.072 267.948Z" fill="#FF7E60"/>
<path d="M228.887 257.609C228.083 261.989 227.278 266.369 226.504 270.749C226.206 272.417 228.768 273.162 229.096 271.464C229.9 267.084 230.705 262.704 231.48 258.324C231.778 256.655 229.215 255.94 228.887 257.609Z" fill="#FF7E60"/>
<path d="M97.3715 299.62C89.1183 294.197 80.865 288.804 72.6118 283.382C71.1816 282.428 69.8408 284.752 71.271 285.676C79.5242 291.099 87.7775 296.492 96.0308 301.914C97.4609 302.868 98.8017 300.544 97.3715 299.62Z" fill="#C3DDF0"/>
<path d="M101.275 230.257L94.7197 241.013L107.412 244.231L112.329 233.624L101.275 230.257Z" fill="#FF7E60"/>
<path d="M357.156 38.0185C355.427 42.1601 353.67 46.2718 351.941 50.4133C351.286 51.9925 353.848 52.6778 354.534 51.1284C356.262 46.9869 358.02 42.8751 359.748 38.7336C360.403 37.1545 357.811 36.4394 357.156 38.0185Z" fill="#FF7E60"/>
<path d="M164.649 158.004L118.824 162.771L112.329 181.572L170.608 178.324L164.649 158.004Z" fill="#FF7E60"/>
<path d="M207.256 210.86L204.724 217.236L215.241 219.56L216.344 210.86H207.256Z" fill="#FF7E60"/>
<path d="M215.241 415.136V433.668L235.591 426.369L215.241 415.136Z" fill="#FF7E60"/>
<path d="M261.215 308.678C258.563 305.698 255.882 302.719 253.23 299.769C252.068 298.488 250.191 300.395 251.353 301.646C254.005 304.626 256.686 307.605 259.338 310.555C260.5 311.836 262.377 309.959 261.215 308.678Z" fill="white"/>
<path d="M259.547 298.577C256.597 302.659 253.617 306.741 250.668 310.823C249.655 312.223 251.979 313.564 252.962 312.164C255.912 308.082 258.891 304 261.841 299.918C262.854 298.547 260.56 297.207 259.547 298.577Z" fill="white"/>
<path d="M206.154 454.942C205.677 454.942 205.2 454.674 204.962 454.227C204.664 453.661 174.839 395.62 186.578 340.141C187.71 334.778 188.813 329.624 189.885 324.678C204.992 254.391 211.219 225.281 162.295 212.797C97.5502 196.261 68.4105 177.043 42.4887 133.691C42.31 133.363 42.2504 133.005 42.3398 132.648C42.4292 132.29 42.6675 131.992 42.9953 131.814L214.615 40.0148C214.943 39.836 215.301 39.8062 215.628 39.9254C215.956 40.0446 216.254 40.2531 216.433 40.5809C216.731 41.147 246.377 98.7708 231.33 165.81C217.237 228.618 250.101 242.532 288.15 258.652C298.757 263.151 309.751 267.799 320.299 273.698C344.403 287.195 364.872 303.166 381.2 321.192C381.707 321.728 381.647 322.592 381.111 323.069C380.574 323.545 379.71 323.516 379.234 322.979C363.114 305.162 342.854 289.37 319.018 276.022C308.589 270.182 297.684 265.564 287.137 261.095C247.986 244.529 214.168 230.197 228.738 165.214C242.355 104.491 218.816 51.6051 214.675 43.0241L45.4981 133.482C70.8239 175.285 99.6061 193.996 162.951 210.175C214.377 223.315 207.524 255.255 192.478 325.214C191.405 330.16 190.303 335.315 189.17 340.678C178.563 390.912 202.638 443.411 206.72 451.814L317.23 398.599C317.885 398.272 318.69 398.57 319.018 399.225C319.345 399.881 319.047 400.685 318.392 401.013L206.69 454.793C206.541 454.883 206.362 454.942 206.154 454.942Z" fill="#262A39"/>
<path d="M43.6508 132.946L38.5558 122.398L210.712 34.324L215.241 41.1471L43.6508 132.946Z" fill="#262A39"/>
<path d="M43.6508 134.287C43.5018 134.287 43.3826 134.257 43.2337 134.227C42.8761 134.108 42.608 133.87 42.4292 133.542L37.3342 122.994C37.0065 122.339 37.2746 121.564 37.9301 121.236L210.087 33.1321C210.682 32.8342 211.427 33.013 211.815 33.5791L216.344 40.4022C216.552 40.7299 216.612 41.1172 216.522 41.4748C216.433 41.8323 216.195 42.1601 215.867 42.3388L44.2467 134.138C44.0679 134.227 43.8594 134.287 43.6508 134.287ZM40.3137 122.994L44.2169 131.128L213.304 40.6703L210.236 36.0819L40.3137 122.994Z" fill="#262A39"/>
<path d="M313.297 402.026L206.154 453.601L211.815 465.341L333.141 406.942C326.228 406.734 319.494 405.423 313.297 402.026Z" fill="#262A39"/>
<path d="M211.785 466.652C211.636 466.652 211.487 466.622 211.338 466.562C211.01 466.443 210.742 466.205 210.563 465.877L204.902 454.138C204.574 453.482 204.872 452.678 205.528 452.35L312.671 400.775C313.059 400.596 313.506 400.596 313.893 400.804C319.375 403.814 325.662 405.363 333.111 405.542C333.737 405.572 334.243 405.989 334.392 406.585C334.511 407.181 334.213 407.806 333.677 408.074L212.351 466.473C212.202 466.622 211.993 466.652 211.785 466.652ZM207.941 454.227L212.44 463.553L328.016 407.925C322.534 407.3 317.677 405.84 313.297 403.546L207.941 454.227Z" fill="#262A39"/>
<path d="M224.716 340.856C221.409 340.856 218.101 340.559 214.854 339.903C206.243 338.205 200.016 334.212 196.381 328.045C189.885 317.05 190.988 299.501 199.986 271.166C200.195 270.45 200.969 270.093 201.655 270.301C202.37 270.54 202.757 271.285 202.519 271.97C193.878 299.173 192.656 316.544 198.645 326.674C201.923 332.216 207.405 335.702 215.331 337.251C241.044 342.316 268.664 324.618 273.848 313.117C275.874 308.588 276.321 304.03 276.768 299.62C277.513 291.873 278.258 284.573 287.554 279.925C294.645 276.38 299.651 275.843 301.349 278.436C302.69 280.521 301.29 283.56 297.625 286.599C293.692 289.847 291.189 294.048 290.951 297.892C290.831 299.62 291.219 301.139 292.023 302.004C292.142 302.033 292.798 302.063 294.198 301.318C299.532 298.458 307.576 289.281 308.232 284.156C308.56 281.475 308.172 279.091 307.874 277.214C307.487 274.92 307.189 273.102 308.291 271.702C309.275 270.51 310.884 270.272 312.046 270.212C314.012 270.093 315.77 270.778 317.141 272.179C320.239 275.337 320.686 281.356 320.478 284.395C320.15 289.013 314.012 300.812 313.297 302.153C312.94 302.808 312.135 303.046 311.48 302.719C310.824 302.391 310.586 301.557 310.913 300.901C312.731 297.415 317.528 287.642 317.796 284.186C318.005 281.356 317.468 276.32 315.204 274.026C314.37 273.162 313.357 272.804 312.165 272.864C310.854 272.923 310.466 273.221 310.377 273.341C310.02 273.788 310.258 275.277 310.496 276.737C310.824 278.793 311.271 281.385 310.884 284.454C309.99 291.516 299.055 302.689 293.751 304.387C291.755 305.043 290.623 304.417 290.057 303.791C288.746 302.361 288.09 300.216 288.269 297.683C288.567 293.125 291.427 288.208 295.926 284.514C298.787 282.16 299.413 280.313 299.115 279.866C298.697 279.21 295.48 278.912 288.746 282.279C280.761 286.272 280.165 292.261 279.42 299.858C278.973 304.268 278.496 309.274 276.291 314.19C270.958 326.227 247.926 340.856 224.716 340.856Z" fill="#262A39"/>
<path d="M320.299 310.018C320.061 310.018 319.792 309.959 319.584 309.81C318.958 309.422 318.779 308.588 319.167 307.962C319.226 307.873 324.44 299.679 325.781 292.439C327.122 285.229 326.318 280.909 318.124 278.853C317.409 278.674 316.962 277.959 317.141 277.214C317.319 276.499 318.034 276.052 318.779 276.26C329.506 278.972 329.744 285.884 328.433 292.946C326.973 300.722 321.669 309.065 321.431 309.422C321.163 309.81 320.746 310.018 320.299 310.018Z" fill="#262A39"/>
<path d="M327.658 316.693C327.42 316.693 327.152 316.633 326.943 316.484C326.317 316.097 326.139 315.262 326.526 314.637C326.556 314.607 329.059 310.585 330.578 303.97C332.277 296.432 331.681 286.897 328.344 285.884C327.629 285.676 327.241 284.931 327.45 284.216C327.658 283.501 328.403 283.113 329.118 283.322C335.435 285.199 334.601 298.428 333.2 304.536C331.591 311.657 328.91 315.888 328.82 316.037C328.522 316.454 328.105 316.693 327.658 316.693Z" fill="#262A39"/>
<path d="M140.038 340.856C139.889 340.856 139.74 340.827 139.591 340.767C138.906 340.499 138.548 339.754 138.787 339.039C143.554 326.018 165.304 304.03 193.967 312.193C194.682 312.402 195.1 313.147 194.891 313.832C194.682 314.547 193.938 314.964 193.252 314.756C165.692 306.949 145.193 329.296 141.289 339.933C141.081 340.529 140.574 340.856 140.038 340.856Z" fill="#262A39"/>
<path d="M225.103 403.516C217.506 403.516 209.938 402.592 202.459 400.745C175.405 394.011 152.939 375.3 142.392 350.659C121.625 302.153 131.398 227.128 227.308 175.344C227.964 174.987 228.768 175.225 229.126 175.881C229.483 176.536 229.245 177.341 228.589 177.698C134.288 228.618 124.545 302.123 144.865 349.616C155.085 373.482 176.865 391.627 203.115 398.153C232.254 405.393 263.509 397.825 288.895 377.355C341.543 334.897 336.865 305.281 332.723 299.68C332.277 299.084 332.426 298.249 332.992 297.802C333.588 297.355 334.422 297.475 334.869 298.071C340.351 305.49 343.956 336.387 290.563 379.441C270.988 395.203 248.016 403.516 225.103 403.516Z" fill="#262A39"/>
<path d="M224.716 117.154C227.397 110.242 222.124 96.4171 225.342 87.6871C228.053 80.2979 235.025 76.6629 242.206 74.607C252.813 71.5381 264.105 71.7169 274.891 69.3035C277.126 68.797 280.85 67.5456 284.753 66.6219C278.883 59.5605 268.276 55.1508 249.178 57.3854C217.297 61.1098 205.081 70.4655 207.554 94.2122C209.61 113.847 213.215 118.138 213.215 118.138L213.543 118.555C218.101 117.423 224.329 118.108 224.716 117.154Z" fill="#262A39"/>
<path d="M271.882 129.013C271.226 129.013 270.63 128.506 270.541 127.821C270.452 127.076 270.988 126.421 271.703 126.331C274.176 126.033 276.142 125.14 276.977 123.918C277.424 123.233 277.543 122.428 277.275 121.505C276.679 119.449 271.822 118.853 269.647 118.853C268.962 118.853 268.396 118.346 268.306 117.661L266.876 105.505C266.787 104.76 267.323 104.104 268.038 104.015C268.783 103.955 269.438 104.462 269.528 105.177L270.809 116.201C273.342 116.35 278.764 117.095 279.837 120.76C280.314 122.428 280.105 124.037 279.211 125.378C277.93 127.315 275.368 128.596 272.031 128.983C271.971 129.013 271.911 129.013 271.882 129.013Z" fill="#262A39"/>
<path d="M273.222 102.495L273.52 105.147C273.908 108.574 279.241 107.948 278.824 104.521L278.526 101.87C278.139 98.4432 272.835 99.0688 273.222 102.495Z" fill="#262A39"/>
<path d="M241.252 106.22L241.55 108.871C241.938 112.298 247.271 111.672 246.854 108.246L246.556 105.594C246.168 102.168 240.865 102.793 241.252 106.22Z" fill="#262A39"/>
<path d="M248.195 93.7355C245.99 93.7653 243.844 93.944 241.699 94.4208C240.031 94.7783 240.925 97.3109 242.593 96.9534C244.5 96.5362 246.466 96.4468 248.403 96.417C250.101 96.3872 249.893 93.7057 248.195 93.7355Z" fill="#262A39"/>
<path d="M282.965 83.188C281.505 82.4431 279.926 81.9366 278.526 81.0725C277.066 80.1787 275.397 82.2643 276.857 83.1582C278.466 84.1414 280.224 84.7671 281.893 85.6014C283.442 86.4357 284.485 83.9925 282.965 83.188Z" fill="#262A39"/>
<path d="M294.407 95.7616C293.841 91.6498 293.245 87.3593 292.679 82.9199C289.908 62.0037 275.219 52.9757 249.059 56.0148C219.174 59.5009 206.571 72.5214 209.431 96.9832L211.904 118.227C211.993 118.972 212.649 119.479 213.394 119.389C214.139 119.3 214.645 118.644 214.556 117.899L212.083 96.6554C209.401 73.6834 220.902 61.9739 249.357 58.6368C274.116 55.7467 287.435 63.7914 290.027 83.2178C290.623 87.6573 291.219 91.9478 291.755 96.0595C297.059 134.912 300.276 158.391 288.299 167.3C278.019 174.957 257.997 176.06 257.789 176.089C257.342 176.119 256.925 176.357 256.686 176.745C256.448 177.132 256.448 177.609 256.656 178.026C261.096 186.637 277.722 188.276 278.407 188.335C278.437 188.335 278.496 188.335 278.526 188.335C278.884 188.335 279.241 188.186 279.479 187.948C279.748 187.65 279.897 187.262 279.837 186.845L278.466 175.106C278.466 175.076 278.466 175.017 278.437 174.987C282.548 173.646 286.6 171.858 289.848 169.445C303.137 159.642 299.859 135.598 294.407 95.7616Z" fill="#262A39"/>
<path d="M227.934 177.847C227.308 177.847 226.742 177.4 226.623 176.775L218.876 138.19C212.947 138.845 209.371 137.266 207.405 135.776C205.17 134.078 203.77 131.665 203.472 128.953C203.263 127.136 203.442 124.454 205.558 121.922C208.567 118.316 214.556 116.171 223.316 115.605C224.09 115.546 224.686 116.112 224.746 116.857C224.805 117.601 224.239 118.227 223.494 118.287C215.599 118.793 210.116 120.641 207.614 123.65C206.422 125.08 205.915 126.778 206.124 128.655C206.273 129.788 206.809 131.963 209.014 133.631C211.457 135.479 215.181 136.104 219.74 135.359C220.455 135.27 221.111 135.717 221.26 136.402L229.245 176.208C229.394 176.924 228.917 177.639 228.202 177.788C228.113 177.847 228.023 177.847 227.934 177.847Z" fill="#262A39"/>
<path d="M287.465 54.0781C284.276 51.6349 279.509 52.2606 275.815 52.5585C267.8 53.1842 259.844 54.4654 252.038 56.3127C248.373 57.1768 243.189 57.7727 242.087 62.1526C241.282 65.3705 243.308 68.0222 245.513 70.1377C244.708 69.8993 243.874 69.661 243.07 69.3928C241.461 68.8565 240.358 71.2997 241.997 71.836C253.975 75.7988 266.846 76.0073 278.735 71.4785C284.753 69.214 296.075 60.633 287.465 54.0781Z" fill="#262A39"/>
<path d="M287.524 131.784C286.451 133.393 285.379 135.032 284.276 136.641C283.323 138.071 285.647 139.411 286.571 137.981C287.643 136.372 288.716 134.734 289.818 133.125C290.802 131.695 288.478 130.354 287.524 131.784Z" fill="#262A39"/>
<path d="M259.487 208.238C248.82 208.238 235.71 201.892 226.802 187.769C226.414 187.143 226.593 186.309 227.219 185.922C227.844 185.534 227.695 184.253 228.083 184.879C228.291 185.236 229.483 187.024 229.722 187.382C239.911 202.756 255.286 207.791 265.416 204.782C273.044 202.518 277.334 196.052 277.185 187.113C277.185 186.369 277.751 185.773 278.496 185.743C279.181 185.683 279.837 186.309 279.867 187.054C280.046 197.154 274.921 204.722 266.191 207.344C264.135 207.94 261.871 208.238 259.487 208.238Z" fill="#262A39"/>
<path d="M342.169 351.613C341.453 351.613 340.858 351.017 340.828 350.302L339.129 242.95C339.129 242.205 339.696 241.609 340.44 241.579C340.44 241.579 340.44 241.579 340.47 241.579C341.185 241.579 341.781 242.175 341.811 242.89L343.509 350.242C343.509 350.987 342.913 351.613 342.169 351.613Z" fill="#262A39"/>
<path d="M336.835 406.704C325.334 406.704 317.021 404.529 313.893 400.685C313.416 400.119 313.506 399.255 314.101 398.808C314.668 398.331 315.532 398.421 315.979 399.017C318.6 402.264 326.705 404.141 337.64 404.052C364.008 403.814 399.316 392.521 415.792 371.367C438.973 341.572 442.012 276.678 411.442 234.458C381.409 193.013 307.546 173.527 277.334 176.715C276.589 176.804 275.934 176.268 275.874 175.523C275.785 174.778 276.321 174.123 277.066 174.063C307.844 170.815 383.018 190.659 413.617 232.909C444.902 276.082 441.684 342.495 417.938 373.035C400.18 395.858 363.889 406.525 337.699 406.763C337.401 406.704 337.133 406.704 336.835 406.704Z" fill="#262A39"/>
<path d="M316.187 383.97C312.105 383.97 308.5 383.493 306.414 382.093C306.236 381.974 306.087 381.825 305.997 381.646C305.938 381.527 304.388 378.696 305.699 375.925C306.742 373.75 309.155 372.35 312.91 371.724C314.936 371.396 317.2 371.098 319.554 370.801C326.973 369.877 337.133 368.625 337.64 364.99C337.818 363.59 337.401 362.607 336.358 362.011C334.332 360.879 330.757 361.475 328.522 363.322C323.904 367.106 318.094 368 315.561 365.318C314.638 364.335 312.969 361.534 317.498 356.588C324.768 348.633 330.31 348.216 344.224 349.02C350.452 349.378 359.897 347.173 367.852 339.843C376.373 332.007 381.021 320.119 381.379 305.49C382.005 278.495 368.358 259.694 340.887 249.594C340.202 249.326 339.844 248.581 340.083 247.866C340.351 247.18 341.096 246.823 341.811 247.061C370.087 257.46 384.686 277.661 384.06 305.519C383.614 324.946 375.986 335.94 369.669 341.78C361.088 349.676 350.809 352.089 344.075 351.672C331.025 350.897 326.198 351.017 319.465 358.376C317.438 360.581 316.664 362.607 317.498 363.471C318.66 364.722 322.891 364.454 326.824 361.236C329.923 358.674 334.69 357.989 337.669 359.657C339.695 360.789 340.649 362.845 340.321 365.348C339.547 371.009 329.565 372.231 319.911 373.423C317.587 373.72 315.353 373.989 313.357 374.316C310.586 374.793 308.768 375.717 308.142 377.028C307.576 378.19 307.993 379.471 308.232 380.007C313.684 383.046 332.306 379.769 339.189 378.249C339.904 378.071 340.619 378.547 340.798 379.262C340.947 379.977 340.5 380.693 339.785 380.871C337.878 381.318 325.692 383.97 316.187 383.97Z" fill="#262A39"/>
<path d="M319.465 392.223C315.353 392.223 311.241 391.806 307.606 390.614C304.209 389.512 303.018 386.681 303.345 384.536C303.733 382.123 305.818 380.543 308.679 380.543C309.424 380.543 310.02 381.139 310.02 381.884C310.02 382.629 309.424 383.225 308.679 383.225C307.159 383.225 306.176 383.881 305.997 384.953C305.818 385.996 306.533 387.426 308.44 388.052C320.597 392.015 339.904 386.681 340.113 386.651C340.828 386.473 341.573 386.86 341.751 387.575C341.96 388.29 341.543 389.035 340.828 389.214C340.232 389.393 329.982 392.223 319.465 392.223Z" fill="#262A39"/>
<path d="M321.52 401.162C316.664 401.162 311.718 400.685 307.606 399.344C304.209 398.242 303.018 395.411 303.345 393.266C303.733 390.853 305.818 389.274 308.679 389.274C309.424 389.274 310.02 389.869 310.02 390.614C310.02 391.359 309.424 391.955 308.679 391.955C307.159 391.955 306.176 392.611 305.997 393.683C305.818 394.726 306.533 396.156 308.44 396.782C320.656 400.774 341.692 396.335 341.9 396.275C342.615 396.126 343.33 396.573 343.479 397.318C343.628 398.033 343.182 398.748 342.466 398.897C341.841 399.076 331.889 401.162 321.52 401.162Z" fill="#262A39"/>
<path d="M369.163 267.262C369.103 267.262 369.044 267.262 368.984 267.262C368.239 267.173 367.733 266.488 367.852 265.773C369.61 252.842 375.062 242.681 383.613 236.424C391.301 230.793 401.52 228.38 410.936 229.959C411.651 230.078 412.157 230.763 412.038 231.508C411.919 232.223 411.234 232.73 410.489 232.611C401.759 231.121 392.314 233.356 385.193 238.599C377.118 244.529 372.202 253.795 370.504 266.16C370.384 266.786 369.818 267.262 369.163 267.262Z" fill="#262A39"/>
<path d="M351.941 253.616C351.941 253.616 344.612 241.609 340.47 241.609V247.836L351.941 253.616Z" fill="#262A39"/>
<path d="M365.439 148.946C348.664 148.946 333.617 138.935 327.122 123.441C324.977 118.346 323.904 112.953 323.904 107.412C323.904 99.3966 325.841 91.7989 329.535 85.3929C330.429 83.784 331.532 82.175 332.753 80.6257L334.154 78.9571C341.871 70.3463 352.656 65.8771 365.439 65.8771C388.351 65.8771 406.973 84.5288 406.973 107.412C406.973 119.121 403.01 129.311 395.532 136.909C391.777 140.752 387.249 143.732 382.064 145.817C377.178 147.784 371.904 148.827 366.362 148.946H365.439ZM365.439 68.5288C353.431 68.5288 343.331 72.7002 336.209 80.6257L334.809 82.2942C333.677 83.6946 332.694 85.1843 331.83 86.7039C328.373 92.7225 326.556 99.8733 326.556 107.412C326.556 112.626 327.569 117.661 329.565 122.428C335.643 136.909 349.736 146.294 365.439 146.294H366.273C371.517 146.175 376.463 145.192 381.051 143.374C385.878 141.438 390.109 138.637 393.595 135.061C400.567 127.97 404.262 118.436 404.262 107.441C404.321 85.9888 386.891 68.5288 365.439 68.5288Z" fill="#262A39"/>
<path d="M380.187 117.87H364.902C364.187 117.87 363.621 117.333 363.561 116.618L362.161 93.825C362.101 93.0801 362.668 92.4544 363.412 92.4246C364.187 92.365 364.783 92.9311 364.843 93.676L366.154 115.188H380.187C380.932 115.188 381.528 115.784 381.528 116.529C381.528 117.274 380.932 117.87 380.187 117.87Z" fill="#262A39"/>
</svg>
