<svg
  width="288"
  height="272"
  viewBox="0 0 288 272"
  fill="none"
  xmlns="http://www.w3.org/2000/svg"
>
  <path
    d="M53.8184 150.198L127.435 147.247L133.977 223.883H59.68L53.8184 150.198Z"
    fill="#C3DDF0"
  />
  <path
    d="M177.443 123.406L155.629 137.686L183.631 155.625L186.623 128.234L177.443 123.406Z"
    fill="#FFD2C4"
  />
  <path
    d="M167.704 151.626C167.65 155.053 167.609 158.467 167.555 161.894C167.541 162.588 168.629 162.588 168.643 161.894C168.697 158.467 168.738 155.053 168.792 151.626C168.806 150.919 167.718 150.919 167.704 151.626Z"
    fill="#262A39"
  />
  <path
    d="M158.484 149.124C157.111 151.504 155.723 153.884 154.35 156.264C153.996 156.862 154.935 157.42 155.288 156.808C156.662 154.428 158.049 152.048 159.423 149.668C159.776 149.069 158.838 148.525 158.484 149.124Z"
    fill="#262A39"
  />
  <path
    d="M180.501 148.689C180.393 148.689 180.297 148.662 180.216 148.607L152.2 130.682C152.05 130.587 151.955 130.41 151.955 130.234C151.955 130.043 152.05 129.88 152.2 129.771L174.014 115.491C174.177 115.382 174.395 115.369 174.558 115.464L183.738 120.292C183.942 120.401 184.051 120.605 184.024 120.836L181.045 148.226C181.032 148.417 180.909 148.58 180.746 148.662C180.665 148.675 180.583 148.689 180.501 148.689ZM153.492 130.206L180.066 147.22L182.922 121.067L174.341 116.566L153.492 130.206Z"
    fill="#262A39"
  />
  <path
    d="M168.152 145.084C166.941 145.084 165.772 144.812 164.725 144.255C162.032 142.827 160.427 139.726 160.196 135.523C160.182 135.224 160.413 134.966 160.713 134.952C161.012 134.925 161.27 135.17 161.284 135.469C161.488 139.277 162.902 142.065 165.241 143.303C167.322 144.418 170.029 144.2 172.504 142.731C172.762 142.582 173.089 142.663 173.252 142.922C173.401 143.18 173.32 143.507 173.061 143.67C171.457 144.608 169.757 145.084 168.152 145.084Z"
    fill="#262A39"
  />
  <path
    d="M183.494 121.298C183.426 121.298 183.372 121.284 183.304 121.27C183.018 121.175 182.882 120.862 182.978 120.577L185.793 112.784L179.741 109.778L174.736 116.266C174.559 116.497 174.219 116.551 173.974 116.361C173.743 116.184 173.689 115.83 173.879 115.599L179.156 108.758C179.319 108.554 179.591 108.486 179.822 108.609L186.704 112.036C186.949 112.158 187.071 112.444 186.976 112.702L183.998 120.958C183.93 121.162 183.712 121.298 183.494 121.298Z"
    fill="#262A39"
  />
  <path
    d="M209.741 210.704C209.645 196.669 208.911 122.318 204.885 112.73C202.587 107.263 198.915 105.59 196.236 105.155C191.761 104.42 186.729 106.528 183.085 110.663C182.881 110.894 182.908 111.234 183.139 111.424C183.37 111.628 183.71 111.601 183.901 111.37C187.246 107.576 192.02 105.549 196.059 106.216C199.514 106.787 202.22 109.18 203.893 113.138C207.782 122.4 208.544 196.819 208.653 210.65C209.02 210.677 209.373 210.691 209.741 210.704Z"
    fill="#262A39"
  />
  <path
    d="M220.867 216.063C217.263 214.254 213.672 212.445 210.191 210.677C209.796 210.473 209.402 210.269 208.994 210.065C208.599 210.283 208.205 210.487 207.824 210.705C203.078 213.261 198.563 215.682 194.51 217.831H196.849C200.616 215.832 204.723 213.629 209.007 211.317C212.856 213.275 216.841 215.301 220.853 217.301V216.063H220.867Z"
    fill="#262A39"
  />
  <path
    d="M220.921 218.47L69.3757 217.545C69.0901 217.545 68.8453 217.314 68.8317 217.029L62.8613 73.9838C62.8613 73.8614 62.8885 73.739 62.9701 73.6302L84.7845 44.4718C84.8797 44.3358 85.0429 44.2542 85.2061 44.2542L217.004 42.6494C217.303 42.6494 217.534 42.8806 217.548 43.1798L221.451 217.913C221.451 218.062 221.397 218.198 221.301 218.307C221.206 218.416 221.07 218.47 220.921 218.47ZM69.8925 216.471L220.363 217.382L216.487 43.7374L85.4917 45.3286L63.9493 74.1334L69.8925 216.471Z"
    fill="#262A39"
  />
  <path
    d="M94.1419 75.861C94.1283 75.861 94.1283 75.861 94.1147 75.861L63.3787 74.3514C63.0795 74.3378 62.8483 74.0794 62.8619 73.7802C62.8755 73.481 63.1203 73.2362 63.4331 73.2634L93.4075 74.7458L84.6899 44.9618C84.6083 44.6762 84.7715 44.377 85.0571 44.2954C85.3427 44.2138 85.6419 44.377 85.7235 44.6626L94.6587 75.181C94.7131 75.3442 94.6723 75.5346 94.5635 75.6706C94.4683 75.7794 94.3187 75.861 94.1419 75.861Z"
    fill="#262A39"
  />
  <path
    d="M94.1423 75.3162L63.9911 87.801L63.4062 73.8066L94.1423 75.3162Z"
    fill="#262A39"
  />
  <path
    d="M63.9902 88.3458C63.8814 88.3458 63.7862 88.3186 63.7046 88.2642C63.555 88.169 63.4598 88.0058 63.4598 87.829L62.875 73.8346C62.875 73.685 62.9294 73.5354 63.0382 73.4266C63.147 73.3178 63.2966 73.2498 63.4462 73.2634L94.1822 74.773C94.4406 74.7866 94.6446 74.977 94.6854 75.2218C94.7262 75.4666 94.5902 75.725 94.359 75.8202L64.2078 88.305C64.1262 88.3322 64.0582 88.3458 63.9902 88.3458ZM63.9766 74.3786L64.507 86.9994L91.7206 75.7386L63.9766 74.3786Z"
    fill="#262A39"
  />
  <path
    d="M90.0616 60.4378C89.7624 60.4378 89.5176 60.193 89.5176 59.8938C89.5176 59.5946 89.7624 59.3498 90.0616 59.3498L217.371 58.833C217.67 58.833 217.915 59.0778 217.915 59.377C217.915 59.6762 217.67 59.921 217.371 59.921L90.0616 60.4378Z"
    fill="#262A39"
  />
  <path
    d="M92.251 69.5091C91.9518 69.5091 91.707 69.2643 91.707 68.9651C91.707 68.6659 91.9518 68.4211 92.251 68.4211L217.589 67.9043C217.888 67.9043 218.133 68.1491 218.133 68.4483C218.133 68.7475 217.888 68.9923 217.589 68.9923L92.251 69.5091Z"
    fill="#262A39"
  />
  <path
    d="M160.74 121.298H147.439C147.154 121.298 146.909 121.067 146.895 120.782L144.828 82.2528C144.815 82.1032 144.869 81.9536 144.978 81.8448C145.087 81.736 145.223 81.6816 145.372 81.6816H176.367C176.666 81.6816 176.911 81.9264 176.911 82.2256V103.931C176.911 104.23 176.666 104.475 176.367 104.475C176.067 104.475 175.823 104.23 175.823 103.931V82.7696H145.943L147.956 120.224H160.74C161.039 120.224 161.284 120.469 161.284 120.768C161.284 121.067 161.039 121.298 160.74 121.298Z"
    fill="#262A39"
  />
  <path
    d="M156.538 93.5547H149.697L150.078 99.8787H156.538V93.5547Z"
    fill="#C3DDF0"
  />
  <path
    d="M160.74 103.197V109.086H166.751L165.759 103.197H160.74Z"
    fill="#C3DDF0"
  />
  <path
    d="M224.266 91.2014C223.491 91.2014 222.675 91.147 221.872 91.0654C208.707 89.787 208.245 89.0118 205.226 63.7158L204.614 58.575C202.737 43.071 201.799 35.2782 204.777 32.4222C206.015 31.2254 207.919 30.899 210.734 31.3614C220.716 33.007 220.716 33.007 224.769 68.639C224.796 68.9382 224.592 69.2102 224.293 69.2374C223.98 69.2782 223.722 69.0606 223.695 68.7614C219.737 33.9318 219.737 33.9318 210.557 32.4222C208.095 32.0142 206.491 32.259 205.525 33.1974C202.927 35.6862 203.907 43.7646 205.688 58.439L206.314 63.5798C209.306 88.7398 209.551 88.767 221.899 89.9638C225.408 90.3038 227.244 89.991 228.332 88.8758C230.93 86.1966 229.883 77.9142 227.557 59.7854C226.782 53.6926 225.803 46.1038 224.796 37.2502C224.755 36.951 224.973 36.679 225.272 36.6518C225.571 36.611 225.843 36.8286 225.871 37.1278C226.891 45.9678 227.856 53.5566 228.631 59.6494C231.066 78.6894 232.072 86.5774 229.107 89.6238C227.924 90.8614 226.17 91.2014 224.266 91.2014Z"
    fill="#262A39"
  />
  <path
    d="M205.852 152.443L199.079 150.471C198.929 150.43 198.766 150.443 198.644 150.525C198.508 150.607 198.426 150.743 198.399 150.892L188.485 209.005H143.455C142.136 209.78 140.803 210.501 139.389 211.059V217.423C139.389 217.723 139.633 217.967 139.933 217.967H192.823C193.081 217.967 193.299 217.791 193.353 217.532L206.246 153.055C206.287 152.783 206.124 152.511 205.852 152.443Z"
    fill="#262A39"
  />
  <path
    d="M153.112 211.072C152.812 211.072 152.568 210.828 152.568 210.528V206.979L148.705 207.4V210.528C148.705 210.828 148.46 211.072 148.161 211.072C147.862 211.072 147.617 210.828 147.617 210.528V206.911C147.617 206.639 147.821 206.408 148.107 206.367L153.044 205.823C153.193 205.809 153.356 205.85 153.465 205.959C153.574 206.068 153.642 206.204 153.642 206.367V210.528C153.656 210.828 153.424 211.072 153.112 211.072Z"
    fill="#262A39"
  />
  <path
    d="M177.672 210.624C177.373 210.624 177.128 210.379 177.128 210.08V206.979L173.266 206.952V210.08C173.266 210.379 173.021 210.624 172.722 210.624C172.423 210.624 172.178 210.379 172.178 210.08V206.462C172.178 206.19 172.382 205.959 172.667 205.918L177.604 205.823C177.754 205.809 177.917 205.85 178.026 205.959C178.135 206.068 178.203 206.204 178.203 206.367V210.066C178.216 210.379 177.971 210.624 177.672 210.624Z"
    fill="#262A39"
  />
  <path
    d="M167.99 211.072C167.691 211.072 167.446 210.827 167.446 210.528V206.937L159.014 207.413V209.535C159.014 209.834 158.769 210.079 158.47 210.079C158.171 210.079 157.926 209.834 157.926 209.535V206.897C157.926 206.611 158.157 206.366 158.443 206.353L167.949 205.809C168.099 205.809 168.248 205.849 168.357 205.958C168.466 206.067 168.534 206.203 168.534 206.353V210.514C168.534 210.827 168.289 211.072 167.99 211.072Z"
    fill="#262A39"
  />
  <path
    d="M109.427 124.536C109.781 125.27 110.447 126.195 111.385 125.977C112.065 125.814 112.378 126.848 111.698 127.011C110.257 127.351 109.101 126.345 108.502 125.107C108.203 124.495 109.128 123.91 109.427 124.536Z"
    fill="#262A39"
  />
  <path
    d="M117.845 123.257C117.546 123.257 117.301 123.013 117.301 122.713C117.301 122.414 117.546 122.169 117.845 122.169C118.974 122.169 119.994 121.843 120.429 121.326C120.633 121.081 120.701 120.809 120.647 120.497C120.511 119.64 118.593 119.164 117.696 119.069C117.397 119.041 117.179 118.769 117.22 118.47C117.247 118.171 117.519 117.953 117.818 117.994C118.185 118.035 121.409 118.429 121.721 120.333C121.83 120.973 121.667 121.557 121.259 122.047C120.606 122.795 119.328 123.257 117.845 123.257Z"
    fill="#262A39"
  />
  <path
    d="M112.08 112.621V113.709C112.08 115.11 114.256 115.11 114.256 113.709V112.621C114.256 111.234 112.08 111.234 112.08 112.621Z"
    fill="#262A39"
  />
  <path
    d="M114.146 106.257C113.507 106.434 112.895 106.733 112.242 106.869C111.562 107.005 111.657 108.093 112.337 107.943C113.085 107.794 113.779 107.481 114.513 107.263C115.193 107.087 114.826 106.067 114.146 106.257Z"
    fill="#262A39"
  />
  <path
    d="M101.907 147.125C101.839 147.125 101.771 147.111 101.703 147.084C98.0855 145.575 99.0239 140.665 99.0647 140.461C99.0919 140.311 99.1735 140.189 99.2959 140.107C99.4183 140.026 99.5679 139.999 99.7175 140.039C99.7991 140.053 107.891 141.889 112.338 139.319C115.956 137.224 117.207 133.035 117.302 122.713C117.302 122.414 117.547 122.169 117.846 122.169C118.145 122.169 118.39 122.414 118.39 122.713C118.309 132.07 117.411 137.646 112.882 140.257C108.734 142.651 102.07 141.617 100.057 141.223C99.9487 142.406 99.9351 145.18 102.125 146.091C102.397 146.2 102.533 146.527 102.41 146.799C102.329 147.003 102.125 147.125 101.907 147.125Z"
    fill="#262A39"
  />
  <path
    d="M105.525 141.222L101.921 146.581C99.6094 145.588 99.8678 142.922 99.6094 140.569C101.541 140.977 103.54 141.209 105.525 141.222Z"
    fill="#262A39"
  />
  <path
    d="M117.764 119.055C117.465 119.055 117.22 118.81 117.22 118.511C117.207 116.008 117.166 113.669 117.098 111.044C117.057 109.358 117.016 107.549 116.989 105.509C116.867 97.5529 111.875 93.6905 101.757 93.6905C90.129 93.6905 84.9474 97.8657 84.9474 107.25V115.927C84.9474 116.226 84.7026 116.471 84.4034 116.471C84.1042 116.471 83.8594 116.226 83.8594 115.927V107.25C83.8594 97.2537 89.5442 92.6025 101.757 92.6025C112.447 92.6025 117.927 96.9409 118.077 105.495C118.104 107.535 118.145 109.344 118.186 111.031C118.24 113.669 118.295 116.008 118.308 118.524C118.308 118.81 118.063 119.055 117.764 119.055Z"
    fill="#262A39"
  />
  <path
    d="M85.6284 116.008L84.418 115.913C84.418 115.913 84.418 115.913 84.418 107.236C84.418 98.5592 88.7564 93.1328 101.772 93.1328C108.272 93.1328 112.189 94.724 114.501 97.0496C109.592 104.693 102.356 110.337 94.1284 113.982C91.082 113.533 87.7364 113.914 85.6284 116.008Z"
    fill="#262A39"
  />
  <path
    d="M93.7607 121.734C93.0671 120.822 92.1015 120.442 90.9999 120.224C89.7895 119.979 89.0415 120.02 87.8447 119.53C85.0839 118.415 85.1247 115.314 87.5591 113.941C87.7903 113.954 88.0215 113.859 88.1303 113.642C88.3615 113.478 88.3479 113.193 88.1847 112.975C88.3071 109.466 87.8855 106.039 86.9199 102.666C87.5455 102.816 87.8039 101.823 87.1647 101.619C83.8735 100.545 80.0927 99.6609 76.7879 101.211C74.3263 102.367 72.6535 104.598 72.5719 107.29C67.3631 106.774 64.3439 112.105 65.4591 116.906C66.8055 122.726 72.9255 127.595 78.2159 129.758C82.9351 131.689 91.0135 132.015 93.9239 126.779C94.7671 125.242 94.8623 123.175 93.7607 121.734Z"
    fill="#262A39"
  />
  <path
    d="M122.743 97.5662C121.111 93.1326 114.066 93.7174 110.571 94.8598C109.904 95.0774 110.19 96.1246 110.856 95.907C111.196 95.7982 111.55 95.6894 111.931 95.5942C111.971 95.7574 112.08 95.9206 112.271 95.9886C116.351 97.403 116.895 102.027 117.18 105.753C117.207 106.134 117.507 106.325 117.86 106.27C121.451 105.753 123.994 100.925 122.743 97.5662Z"
    fill="#262A39"
  />
  <path
    d="M66.9412 159.351C66.846 159.351 66.7508 159.324 66.6556 159.269C66.3972 159.106 66.3156 158.78 66.4788 158.521C76.2844 142.569 85.3148 134.436 86.4164 133.47L90.7956 121.529C88.5516 121.461 87.2596 120.686 86.566 120.02C85.75 119.231 85.3012 118.197 85.3012 117.096C85.3012 116.361 85.5052 115.287 86.4708 114.362C87.858 113.043 90.3604 112.472 93.9236 112.649C94.2228 112.662 94.454 112.921 94.4404 113.22C94.4268 113.519 94.1412 113.75 93.8692 113.737C90.6596 113.56 88.3612 114.063 87.2188 115.151C86.6612 115.681 86.3892 116.334 86.3892 117.096C86.3892 117.558 86.5116 118.469 87.3276 119.245C88.2252 120.115 89.694 120.523 91.5708 120.455C91.7476 120.441 91.9244 120.537 92.0332 120.673C92.142 120.822 92.1692 121.013 92.1012 121.176L87.3956 133.987C87.3684 134.082 87.314 134.15 87.2324 134.218C87.1372 134.3 77.726 142.324 67.4036 159.106C67.3084 159.269 67.1316 159.351 66.9412 159.351Z"
    fill="#262A39"
  />
  <path
    d="M100.398 149.451C100.371 149.451 100.343 149.451 100.316 149.451C91.245 148.105 86.553 134.545 86.3626 133.974C86.2674 133.689 86.417 133.376 86.7026 133.281C86.9882 133.185 87.2874 133.335 87.3962 133.621C87.437 133.757 91.9386 146.772 100.139 148.309L104.913 140.924C105.076 140.679 105.416 140.597 105.661 140.761C105.906 140.924 105.987 141.264 105.824 141.509L100.847 149.193C100.751 149.369 100.588 149.451 100.398 149.451Z"
    fill="#262A39"
  />
  <path
    d="M182.067 196.302C181.332 196.302 180.421 195.881 179.537 195.092C175.797 191.774 173.934 190.563 170.48 189.19C170.208 189.081 170.072 188.768 170.18 188.482C170.289 188.197 170.126 187.925 170.412 188.034C174.002 189.462 176.409 190.862 180.272 194.276C181.251 195.133 182.012 195.296 182.284 195.187C182.325 195.174 182.393 195.146 182.42 194.956C182.543 193.854 180.503 190.291 171.948 184.661C159.681 176.596 145.823 183.94 134.684 189.842C127.204 193.814 120.744 197.227 116.188 195.432C106.097 191.434 105.784 181.614 105.444 171.21C105.186 163.241 104.914 154.999 100.018 149.274C99.8276 149.042 99.8548 148.702 100.072 148.512C100.304 148.322 100.644 148.349 100.834 148.566C105.975 154.591 106.247 163.023 106.519 171.17C106.845 181.206 107.158 190.686 116.583 194.412C120.663 196.03 126.932 192.712 134.168 188.877C145.564 182.838 159.736 175.331 172.533 183.75C180.911 189.271 183.685 193.215 183.495 195.065C183.44 195.595 183.141 196.003 182.679 196.194C182.475 196.275 182.271 196.302 182.067 196.302Z"
    fill="#262A39"
  />
  <path
    d="M115.263 217.885C107.688 217.885 101.228 215.886 95.9782 211.901C94.0878 210.46 92.3606 208.773 90.8238 206.828C84.391 204.462 80.3518 200.858 78.815 196.125C76.2174 188.115 81.7118 179.846 81.943 179.492C82.0654 179.302 82.3102 179.207 82.5278 179.275C82.7454 179.329 82.9086 179.533 82.9222 179.764C83.9422 194.208 88.675 205.033 96.6174 211.044C103.934 216.58 113.713 218.144 125.681 215.668C135.745 213.588 143.347 208.583 149.453 204.557C153.697 201.756 157.355 199.348 160.646 198.764C163.393 198.274 166.345 199.022 167.677 200.518C169.785 202.898 171.173 204.312 172.723 204.081C173.158 204.013 173.253 203.456 173.281 203.224C173.444 201.28 171.241 197.567 164.454 195.268C164.169 195.173 164.019 194.86 164.114 194.575C164.209 194.289 164.522 194.14 164.808 194.235C172.764 196.914 174.532 201.348 174.369 203.306C174.287 204.312 173.716 205.02 172.9 205.142C170.642 205.496 168.901 203.51 166.875 201.225C165.814 200.028 163.162 199.403 160.85 199.811C157.777 200.355 154.2 202.708 150.065 205.441C143.877 209.521 136.193 214.58 125.925 216.702C122.145 217.504 118.595 217.885 115.263 217.885ZM81.9838 181.573C80.5558 184.252 78.0126 190.196 79.835 195.799C81.1406 199.797 84.4182 202.952 89.5862 205.169C85.479 199.199 82.8814 191.216 81.9838 181.573Z"
    fill="#262A39"
  />
  <path
    d="M175.089 205.374C174.245 205.374 173.348 204.884 173.13 204.762C172.872 204.612 172.79 204.272 172.94 204.014C173.089 203.755 173.429 203.674 173.688 203.823C174.191 204.122 175.061 204.422 175.388 204.231C175.537 204.136 175.605 203.81 175.565 203.361L175.537 203.062C175.293 200.233 174.789 194.33 166.017 192.508C165.718 192.44 165.541 192.154 165.596 191.869C165.65 191.57 165.936 191.393 166.235 191.447C175.796 193.433 176.367 200.124 176.612 202.966L176.639 203.252C176.721 204.177 176.489 204.802 175.959 205.142C175.701 205.306 175.401 205.374 175.089 205.374Z"
    fill="#262A39"
  />
  <path
    d="M176.939 204.802C176.259 204.802 175.783 204.313 175.715 204.245C175.511 204.027 175.525 203.687 175.742 203.483C175.96 203.279 176.3 203.293 176.504 203.51C176.572 203.578 176.803 203.755 176.994 203.714C177.266 203.66 177.565 203.225 177.796 202.545C178.517 200.518 180.706 194.344 168.63 188.346C168.358 188.21 168.249 187.884 168.385 187.626C168.521 187.354 168.847 187.245 169.106 187.381C182.039 193.8 179.618 200.654 178.816 202.912C178.422 204.014 177.878 204.639 177.211 204.775C177.13 204.789 177.034 204.802 176.939 204.802Z"
    fill="#262A39"
  />
  <path
    d="M85.8325 200.043C85.7781 200.043 85.7101 200.029 85.6557 200.015C85.3701 199.92 85.2205 199.607 85.3157 199.322C89.4501 187.259 99.5141 183.301 107.661 184.729C107.96 184.784 108.15 185.056 108.096 185.355C108.041 185.654 107.756 185.844 107.47 185.79C99.7861 184.444 90.2661 188.211 86.3493 199.675C86.2677 199.893 86.0637 200.043 85.8325 200.043Z"
    fill="#262A39"
  />
  <path
    d="M82.3928 179.806C72.2472 194.834 85.752 206.434 90.3488 205.659C85.4528 200.369 82.624 187.394 82.3928 179.806Z"
    fill="#262A39"
  />
  <path
    d="M183.071 190.645C182.949 190.645 182.826 190.604 182.731 190.522C182.5 190.332 182.459 189.992 182.65 189.761C182.663 189.747 184.35 187.408 180.31 182.09C176.244 176.732 161.42 168.246 141.578 176.174C138.504 177.398 135.716 178.595 133.254 179.656C119.695 185.49 113.494 188.156 105.932 175.957C105.769 175.698 105.85 175.372 106.109 175.209C106.367 175.046 106.694 175.127 106.857 175.386C113.942 186.796 119.464 184.416 132.833 178.663C135.294 177.602 138.096 176.406 141.183 175.168C161.597 167.008 176.951 175.862 181.181 181.424C185.791 187.49 183.588 190.318 183.493 190.441C183.384 190.577 183.221 190.645 183.071 190.645Z"
    fill="#262A39"
  />
  <path
    d="M182.432 192.916C182.364 192.916 182.296 192.903 182.228 192.875C181.956 192.767 181.82 192.454 181.929 192.168C182.84 189.911 179.073 185.341 174.041 182.567C173.783 182.417 173.688 182.091 173.824 181.832C173.973 181.574 174.3 181.479 174.558 181.615C179.604 184.389 184.173 189.462 182.922 192.563C182.854 192.78 182.65 192.916 182.432 192.916Z"
    fill="#262A39"
  />
  <path
    d="M183.07 186.32C182.853 186.32 182.662 186.197 182.567 185.993C182.554 185.953 181.044 182.498 175.55 180.322C175.278 180.213 175.142 179.901 175.25 179.615C175.359 179.343 175.672 179.207 175.958 179.316C181.901 181.682 183.519 185.422 183.574 185.572C183.682 185.844 183.56 186.17 183.288 186.279C183.206 186.306 183.138 186.32 183.07 186.32Z"
    fill="#262A39"
  />
</svg>
