<svg width="288" height="272" viewBox="0 0 288 272" fill="none" xmlns="http://www.w3.org/2000/svg">
<path d="M148.616 217.439L46.0244 215.647L37.6504 113.721C61.9445 111.631 80.9454 115.892 95.7797 123.71C96.3362 124.009 96.879 124.294 97.4219 124.606L71.6621 129.614L63.451 147.176L66.6811 162.798C66.7083 162.933 66.6947 163.069 66.6268 163.191L60.0444 176.261L120.861 175.08L124.471 161.101L123.277 146.973C123.738 147.556 124.186 148.14 124.62 148.737C147.096 178.948 148.616 217.439 148.616 217.439Z" fill="#FFD2C4"/>
<path d="M118.865 102.7C117.712 103.433 116.558 104.166 115.391 104.913C114.753 105.32 115.336 106.351 115.988 105.944C117.142 105.211 118.295 104.478 119.462 103.732C120.114 103.325 119.517 102.293 118.865 102.7Z" fill="#C3DDF0"/>
<path d="M121.581 96.4571L118.744 93.9327C118.174 93.4305 117.333 94.2584 117.903 94.7741C118.853 95.6156 119.789 96.4571 120.739 97.2985C121.309 97.8007 122.164 96.9592 121.581 96.4571Z" fill="#C3DDF0"/>
<path d="M232.723 120.358L234.623 124.036L240.296 122.135L237.975 117.385L232.723 120.358Z" fill="#C3DDF0"/>
<path d="M136.548 131.527C136.44 131.527 136.345 131.5 136.25 131.446C135.965 131.283 135.87 130.916 136.046 130.631C145.872 114.073 161.236 110.463 168.619 108.726C168.931 108.658 169.257 108.848 169.338 109.174C169.42 109.5 169.216 109.812 168.891 109.893C161.67 111.59 146.632 115.132 137.064 131.256C136.942 131.419 136.752 131.527 136.548 131.527Z" fill="#262A39"/>
<path d="M142.738 140.078C142.67 140.078 142.615 140.064 142.548 140.051C142.235 139.942 142.073 139.616 142.168 139.304L143.348 135.735C143.457 135.422 143.783 135.26 144.095 135.355C144.407 135.463 144.57 135.789 144.475 136.101L143.294 139.671C143.213 139.915 142.982 140.078 142.738 140.078Z" fill="#262A39"/>
<path d="M84.5947 181.717C84.3369 181.717 84.0926 181.54 84.0247 181.269C83.9433 180.957 84.1333 180.631 84.4455 180.549C84.5269 180.522 92.6837 178.378 95.1538 175.759C95.3846 175.514 95.751 175.514 95.9953 175.731C96.2396 175.962 96.2396 176.329 96.0225 176.573C93.308 179.45 85.0969 181.608 84.744 181.703C84.6898 181.717 84.6355 181.717 84.5947 181.717Z" fill="#262A39"/>
<path d="M66.1367 206.5C63.6937 206.323 61.2371 206.052 58.8484 205.658C58.4684 205.957 58.0613 206.323 57.627 206.635C57.6677 206.649 57.722 206.676 57.7627 206.676C60.4771 207.151 63.2729 207.477 66.0552 207.68C66.0688 207.68 66.0824 207.68 66.0959 207.68C66.4081 207.68 66.666 207.436 66.6931 207.124C66.7067 206.812 66.4624 206.527 66.1367 206.5Z" fill="#262A39"/>
<path d="M84.5941 206.961C84.2955 206.961 84.0377 206.744 84.0105 206.445C83.9698 206.119 84.2005 205.821 84.5263 205.78C106.337 203.093 113.557 195.927 115.253 193.782C115.457 193.525 115.837 193.484 116.095 193.687C116.353 193.891 116.394 194.271 116.19 194.529C113.937 197.379 106.337 204.287 84.6891 206.961C84.6484 206.961 84.6213 206.961 84.5941 206.961Z" fill="#262A39"/>
<path d="M57.7623 190.77C57.4908 190.77 57.2194 190.715 56.948 190.62C55.3057 190.037 53.6907 187.621 51.7091 182.803C51.1934 181.527 51.6141 179.491 53.0663 178.5C54.2743 177.686 57.5451 177.333 62.4854 182.043C62.7161 182.273 62.7297 182.64 62.4989 182.884C62.2682 183.128 61.9018 183.128 61.6575 182.898C58.4952 179.885 55.2786 178.433 53.7314 179.478C52.7135 180.17 52.5099 181.608 52.8085 182.341C54.5864 186.698 56.0658 189.046 57.3415 189.494C57.708 189.629 58.0744 189.589 58.468 189.358C58.8888 189.127 58.5766 186.711 57.5858 184.038C57.4773 183.726 57.6266 183.386 57.9387 183.278C58.2509 183.169 58.5902 183.318 58.6988 183.631C59.3502 185.368 60.6803 189.507 59.0381 190.403C58.6173 190.647 58.183 190.77 57.7623 190.77Z" fill="#262A39"/>
<path d="M59.2142 189.657C59.0107 189.657 58.8207 189.562 58.7121 189.372C58.5356 189.087 58.6306 188.72 58.9157 188.557C59.6214 188.123 60.3272 187.879 60.9515 187.851C61.2636 187.824 61.5622 188.096 61.5758 188.422C61.5894 188.747 61.3315 189.032 61.0058 189.046C60.585 189.059 60.0557 189.249 59.5264 189.575C59.4178 189.629 59.3093 189.657 59.2142 189.657Z" fill="#262A39"/>
<path d="M56.3921 196.293C54.777 196.293 52.334 195.75 49.8232 193.172C46.498 189.765 45.3172 187.661 45.738 185.883C46.1451 184.2 47.9231 182.952 51.9133 181.581C52.2254 181.472 52.5647 181.635 52.6733 181.947C52.7819 182.26 52.619 182.599 52.3069 182.707C48.8595 183.888 47.1902 184.96 46.9052 186.155C46.593 187.444 47.7602 189.358 50.6782 192.344C52.4426 194.149 54.4105 195.099 56.3921 195.099H56.4056C58.075 195.099 59.6901 194.42 60.8301 193.226C61.0609 192.995 61.4409 192.982 61.6716 193.212C61.9023 193.443 61.9159 193.823 61.6852 194.054C60.328 195.479 58.4007 196.293 56.3921 196.293C56.4056 196.293 56.4056 196.293 56.3921 196.293Z" fill="#262A39"/>
<path d="M60.6412 194.909C60.5733 194.583 60.2612 194.38 59.9354 194.448C59.6097 194.515 59.4061 194.828 59.474 195.153C59.759 196.619 59.3247 197.881 58.2389 198.723C56.8953 199.754 54.873 199.917 53.2308 199.103C50.34 197.691 47.4084 193.28 47.7884 189.697C47.4355 189.412 47.0826 189.127 46.7976 188.774C46.7433 188.842 46.7026 188.924 46.6891 189.019C45.8747 193.24 49.2542 198.478 52.7151 200.175C53.5837 200.596 54.5337 200.813 55.4702 200.813C56.746 200.813 57.9946 200.433 58.9718 199.673C60.4105 198.533 61.0212 196.809 60.6412 194.909Z" fill="#262A39"/>
<path d="M56.0797 204.45C55.7811 204.45 55.4689 204.423 55.1568 204.382C50.7322 203.677 47.3392 198.248 46.9999 193.05C46.9728 192.724 47.2442 193.402 47.57 193.375C47.8957 193.348 48.1807 193.592 48.2078 193.918C48.52 197.556 51.9402 202.659 55.3468 203.202C56.7854 203.432 58.0748 203.012 58.9569 202.007C59.8934 200.949 60.2056 199.415 59.7713 197.908C59.6763 197.596 59.8663 197.257 60.1784 197.176C60.4906 197.081 60.8299 197.271 60.9113 197.583C61.4542 199.483 61.047 201.437 59.8391 202.794C58.8891 203.88 57.5454 204.45 56.0797 204.45Z" fill="#262A39"/>
<path d="M62.8935 201.125L60.9662 200.908C60.7898 200.894 60.6134 200.948 60.4777 201.071C60.3555 201.193 60.2876 201.369 60.3012 201.546C60.3284 201.803 60.3419 202.102 60.3419 202.428C60.3555 203.717 58.944 205.482 57.1118 205.794C54.6281 206.228 52.2394 204.056 50.4207 199.781C49.8778 199.279 49.3078 198.804 48.7649 198.315C48.7106 198.451 48.6971 198.6 48.7514 198.75C51.2893 205.889 54.6552 207.029 56.5417 207.029C56.8403 207.029 57.1118 207.002 57.3289 206.961C59.8262 206.513 61.5498 204.206 61.5363 202.414C61.5363 202.319 61.5363 202.238 61.5363 202.156L62.7713 202.292C63.0971 202.333 63.3957 202.088 63.4228 201.763C63.4499 201.451 63.2192 201.152 62.8935 201.125Z" fill="#262A39"/>
<path d="M75.0947 210.652C65.9471 210.652 61.7669 205.739 60.6811 193.714C60.5318 192.154 60.4368 190.43 60.3825 188.462C60.3554 187.485 60.3418 186.467 60.3418 185.422C60.3418 185.096 60.6132 184.825 60.939 184.825C61.2647 184.825 61.5361 185.096 61.5361 185.422C61.5361 186.467 61.5497 187.471 61.5769 188.435C61.6311 190.376 61.7261 192.072 61.8754 193.606C62.9069 205.02 66.6257 209.458 75.1082 209.458C88.2189 209.444 88.4496 195.75 88.5718 188.394C88.5989 187.173 88.6125 186.114 88.6803 185.34C88.7075 185.015 89.0061 184.77 89.3318 184.811C89.6575 184.838 89.9018 185.137 89.8611 185.463C89.7933 186.195 89.7661 187.227 89.7525 188.421C89.6304 195.628 89.3725 210.639 75.0947 210.652Z" fill="#262A39"/>
<path d="M61.0874 188.408H59.228C58.9023 188.408 58.6309 188.137 58.6309 187.811C58.6309 187.485 58.9023 187.214 59.228 187.214H61.0874C61.4131 187.214 61.6846 187.485 61.6846 187.811C61.6846 188.137 61.4267 188.408 61.0874 188.408Z" fill="#262A39"/>
<path d="M75.1088 191.787C67.0198 191.787 62.6767 190.62 61.0481 188C60.5731 187.254 60.3288 186.385 60.3423 185.395C60.383 181.825 66.8705 179.029 75.1088 179.029C83.3878 179.029 89.8616 181.825 89.8616 185.408C89.8616 186.67 89.2509 187.783 88.0701 188.733C85.6679 190.674 80.9448 191.787 75.1088 191.787ZM75.1088 180.224C67.0198 180.224 61.5638 182.911 61.5367 185.408C61.5231 186.168 61.6995 186.806 62.0524 187.363C63.8575 190.267 70.3721 190.593 75.1088 190.593C80.5919 190.593 85.1657 189.548 87.3237 187.783C88.233 187.064 88.6673 186.29 88.6673 185.395C88.6673 182.897 83.2249 180.224 75.1088 180.224Z" fill="#262A39"/>
<path d="M87.7023 188.259C85.3543 190.159 80.6041 191.19 75.1074 191.19C68.7285 191.19 63.3132 190.512 61.5488 187.689C63.8289 185.734 68.6878 184.391 74.3338 184.391C80.5091 184.391 85.7615 186.019 87.7023 188.259Z" fill="#262A39"/>
<path d="M177.904 53.5417C169.136 53.0939 164.535 55.4961 162.173 58.9434C161.291 60.2463 162.458 61.9972 163.992 61.6443C165.729 61.2371 167.914 60.9521 170.249 60.83C175.393 64.6301 181.785 66.1502 188.015 65.0644C190.241 67.7517 190.363 73.3706 190.444 78.9759C190.458 79.8852 191.014 79.4237 191.923 79.4373C193.077 79.4373 194.014 79.4102 195.466 79.668L197.325 79.6273C197.325 79.6273 197.325 79.6273 197.814 70.1268C198.33 60.6264 192.154 54.2746 177.904 53.5417Z" fill="#262A39"/>
<path d="M191.069 79.8445C194.584 79.8445 197.068 80.5096 198.262 81.7582C198.832 82.369 199.104 83.1018 199.063 83.9297C199.036 84.4455 198.859 85.4227 197.923 86.2234C196.891 87.1192 195.263 87.4992 193.213 87.3092C192.874 87.282 192.603 87.5128 192.562 87.8385L190.472 109.242C190.445 109.513 190.607 109.771 190.879 109.866C190.92 109.88 191.367 110.029 192.141 110.341C192.412 110.015 192.684 109.703 192.969 109.391C192.426 109.16 191.992 108.997 191.707 108.889L193.702 88.5171C196.348 88.6257 197.868 87.8385 198.71 87.1056C199.646 86.2913 200.203 85.1784 200.257 83.9705C200.298 83.1561 200.135 81.9754 199.131 80.9167C197.692 79.3967 194.978 78.623 191.069 78.623C190.743 78.623 190.472 78.8945 190.472 79.2202C190.485 79.5867 190.743 79.8445 191.069 79.8445Z" fill="#262A39"/>
<path d="M169.57 84.5949C168.063 84.5949 166.882 84.1606 166.217 83.3734C165.756 82.8305 165.58 82.1248 165.702 81.3647C165.987 79.6818 168.348 79.0846 169.448 78.881V73.9544C169.448 73.6286 169.719 73.3572 170.045 73.3572C170.37 73.3572 170.642 73.6286 170.642 73.9544V79.3968C170.642 79.6953 170.411 79.9532 170.113 79.9939C169.122 80.1025 167.032 80.6318 166.882 81.5683C166.815 81.989 166.896 82.3283 167.127 82.6134C167.547 83.1155 168.47 83.4141 169.57 83.4141C169.895 83.4141 170.167 83.6855 170.167 84.0113C170.167 84.3234 169.895 84.5949 169.57 84.5949Z" fill="#262A39"/>
<path d="M164.467 76.058L164.589 77.2387C164.752 78.7588 162.391 79.0167 162.228 77.483L162.106 76.3022C161.943 74.7822 164.304 74.5379 164.467 76.058Z" fill="#262A39"/>
<path d="M180.497 76.4381L180.619 77.6189C180.782 79.1389 178.42 79.3968 178.257 77.8632L178.135 76.6824C177.972 75.1623 180.334 74.918 180.497 76.4381Z" fill="#262A39"/>
<path d="M177.877 70.9412C178.854 71.0498 179.791 71.2127 180.727 71.4977C181.46 71.7284 180.958 72.8006 180.239 72.5834C179.411 72.3256 178.542 72.217 177.687 72.122C176.927 72.027 177.117 70.8462 177.877 70.9412Z" fill="#262A39"/>
<path d="M160.708 71.3892C161.318 70.9956 161.997 70.697 162.58 70.2627C163.178 69.8013 164.019 70.6563 163.408 71.1177C162.743 71.6335 161.997 71.9728 161.291 72.4342C160.653 72.8414 160.07 71.8099 160.708 71.3892Z" fill="#262A39"/>
<path d="M176.994 89.9694C177.876 89.8337 179.057 89.4265 179.125 88.3679C179.166 87.6078 180.36 87.6078 180.319 88.3679C180.224 89.983 178.799 90.8787 177.306 91.1094C176.56 91.2316 176.234 90.0915 176.994 89.9694Z" fill="#262A39"/>
<path d="M193.782 58.1021C190.308 55.0484 184.974 53.3111 177.93 52.9583C166.231 52.3475 159.974 56.7856 159.35 66.1503C159.214 68.1454 159.078 70.0591 158.942 71.9049C157.667 89.7387 156.907 100.501 163.068 104.492C164.575 105.469 166.421 106.147 168.294 106.622C168.294 106.636 168.294 106.663 168.294 106.677L168.022 111.915C168.009 112.092 168.09 112.268 168.212 112.39C168.321 112.486 168.47 112.54 168.606 112.54C168.633 112.54 168.674 112.54 168.701 112.526C169.013 112.472 176.342 111.278 178.065 107.328C178.147 107.138 178.133 106.935 178.011 106.758C177.903 106.595 177.699 106.473 177.509 106.487C177.414 106.473 168.497 106.568 163.72 103.474C158.142 99.8635 158.902 89.3586 160.137 71.9592C160.272 70.1134 160.408 68.1997 160.544 66.2046C161.128 57.5049 166.814 53.5419 177.889 54.1255C184.662 54.4783 189.751 56.107 193.022 58.9843C196.076 61.658 197.501 65.4039 197.256 70.0863C196.836 78.2431 196.415 79.6682 196.347 79.8582C196.211 80.0889 196.252 80.4011 196.456 80.5911C196.7 80.8082 197.066 80.7946 197.297 80.5639C197.718 80.1025 198.111 76.6009 198.437 70.1541C198.681 65.0917 197.121 61.0337 193.782 58.1021Z" fill="#262A39"/>
<path d="M171.987 130.849C171.946 130.849 171.905 130.849 171.864 130.835C171.661 130.794 171.498 130.645 171.417 130.455C170.222 127.13 168.119 112.649 168.024 112.038C167.969 111.712 168.2 111.414 168.526 111.359C168.851 111.305 169.15 111.536 169.204 111.861C169.218 111.997 171.064 124.565 172.244 129.084L190.635 108.93C190.852 108.686 191.232 108.672 191.476 108.889C191.72 109.106 191.734 109.486 191.517 109.731L172.421 130.659C172.299 130.781 172.149 130.849 171.987 130.849Z" fill="#262A39"/>
<path d="M187.865 57.4506C185.015 52.8225 179.41 50.2574 174.022 51.3975C171.877 51.8453 171.104 51.316 169.163 50.5288C167.48 49.8502 165.702 49.4159 163.897 49.2802C161.345 49.0902 158.183 49.3209 156.582 51.601C152.659 57.1656 160.3 61.5901 164.684 62.6759C171.579 64.386 178.908 62.9066 184.716 58.8757C184.757 58.8485 184.784 58.8078 184.811 58.7671C185.775 58.7128 186.739 58.6585 187.702 58.6042C188.408 58.5771 188.462 57.5728 187.865 57.4506Z" fill="#262A39"/>
<path d="M236.496 160.87C228.76 123.94 195.943 110.518 191.708 108.93C191.314 109.147 190.921 109.35 190.527 109.568C190.595 109.717 190.717 109.853 190.894 109.907C191.26 110.029 227.253 122.502 235.342 161.128C239.305 180.034 237.446 194.638 229.981 203.364C224.797 209.431 216.925 212.526 207.832 212.064C196.54 211.494 185.791 201.912 177.946 194.909C173.074 190.566 169.233 187.132 166.613 187.01C160.261 186.711 159.311 185.924 158.226 183.739C158.076 183.441 157.724 183.332 157.425 183.468C157.126 183.617 157.018 183.97 157.153 184.268C158.511 186.983 159.99 187.879 166.545 188.191C168.744 188.299 172.639 191.774 177.145 195.791C185.126 202.916 196.051 212.661 207.764 213.258C208.375 213.286 208.972 213.299 209.569 213.299C218.282 213.299 225.801 210.083 230.877 204.138C238.586 195.099 240.527 180.143 236.496 160.87Z" fill="#262A39"/>
<path d="M158.767 180.116C156.161 180.116 154.085 179.586 152.551 178.541C151.072 177.537 150.176 176.071 149.877 174.198C149.823 173.872 150.04 173.574 150.366 173.52C150.692 173.465 150.99 173.682 151.045 174.008C151.289 175.542 152.022 176.736 153.216 177.55C155.456 179.084 159.351 179.315 164.467 178.229C164.78 178.161 165.105 178.365 165.173 178.691C165.241 179.016 165.037 179.328 164.712 179.396C162.5 179.885 160.518 180.116 158.767 180.116Z" fill="#262A39"/>
<path d="M162.527 184.852C156.868 184.852 153.244 182.708 152.62 178.84C152.565 178.514 152.783 178.215 153.108 178.161C153.434 178.107 153.733 178.324 153.787 178.65C154.411 182.545 158.904 184.336 165.798 183.441C166.124 183.4 166.422 183.631 166.463 183.956C166.504 184.282 166.273 184.581 165.947 184.621C164.74 184.771 163.599 184.852 162.527 184.852Z" fill="#262A39"/>
<path d="M190.635 178.025C190.987 185.721 187.323 192.995 180.849 197.23C180.211 197.651 180.808 198.682 181.446 198.261C188.015 193.973 191.91 186.712 191.842 178.908C191.408 178.65 191.015 178.351 190.635 178.025Z" fill="#262A39"/>
<path d="M212.228 170.602C208.917 159.866 202.999 152.306 202.945 152.238C202.796 152.048 202.538 151.967 202.307 152.035C202.076 152.103 201.9 152.306 201.886 152.551C201.289 158.658 205.578 171.918 205.768 172.474C205.863 172.787 206.202 172.963 206.514 172.854C206.826 172.746 207.003 172.42 206.894 172.108C206.894 172.081 206.772 171.755 206.596 171.172L208.374 163.87C209.351 166.014 210.301 168.389 211.088 170.968C213.192 177.795 211.292 183.196 208.632 185.314C206.759 186.807 204.465 186.888 202.158 185.572C193.906 180.821 177.959 169.014 174.62 164.019C170.983 158.577 164.685 157.83 164.414 157.803C164.197 157.776 163.966 157.884 163.844 158.074C163.721 158.264 163.721 158.509 163.83 158.699L168.526 166.72C166.952 167.331 162.609 168.878 157.628 169.543C153.99 170.031 152.09 169.014 150.557 168.186C149.471 167.602 148.439 167.059 147.15 167.29C145.847 167.521 145.508 168.281 145.426 168.701C145.046 170.52 147.611 172.963 150.136 174.646C154.357 177.455 163.369 175.555 163.749 175.474C164.074 175.406 164.278 175.094 164.21 174.768C164.142 174.442 163.83 174.239 163.504 174.307C163.409 174.32 154.601 176.193 150.801 173.655C147.842 171.687 146.431 169.76 146.607 168.946C146.661 168.715 146.919 168.552 147.381 168.457C148.263 168.294 148.996 168.688 150.014 169.231C151.602 170.086 153.787 171.253 157.804 170.71C164.21 169.841 169.422 167.643 169.639 167.548C169.802 167.48 169.91 167.344 169.965 167.181C170.019 167.018 170.005 166.842 169.91 166.693L165.54 159.228C167.481 159.717 171.24 161.087 173.629 164.671C177.334 170.235 193.974 182.219 201.561 186.603C202.823 187.336 204.112 187.689 205.347 187.689C206.786 187.689 208.157 187.2 209.364 186.25C212.445 183.78 214.508 177.998 212.228 170.602Z" fill="#262A39"/>
<path d="M201.873 186.671C201.778 186.671 201.669 186.644 201.574 186.589C201.289 186.427 201.194 186.06 201.357 185.775C203.813 181.459 207.98 162.988 208.021 162.798C208.089 162.472 208.414 162.282 208.726 162.35C209.052 162.417 209.242 162.743 209.174 163.055C208.998 163.829 204.926 181.893 202.388 186.359C202.28 186.562 202.076 186.671 201.873 186.671Z" fill="#262A39"/>
<path d="M131.839 116.992C131.703 116.829 131.486 116.761 131.283 116.802L95.7646 123.71L71.1312 128.501C70.9412 128.541 70.7919 128.664 70.7105 128.84L62.2822 146.864C62.2279 146.986 62.2143 147.108 62.2415 147.244L65.4716 162.865L58.5499 176.627C58.4549 176.817 58.4684 177.035 58.577 177.211C58.6856 177.387 58.8756 177.482 59.0792 177.482H59.0927L121.348 176.275C121.619 176.275 121.85 176.085 121.918 175.827L125.664 161.318C125.677 161.25 125.691 161.182 125.677 161.114L124.632 148.75L124.049 141.815L131.975 117.589C132.029 117.372 131.975 117.154 131.839 116.992ZM122.868 141.544C122.841 141.625 122.827 141.706 122.841 141.774L123.275 146.972L124.47 161.101L120.859 175.08L60.0428 176.261L66.6253 163.191C66.6795 163.069 66.7067 162.933 66.6795 162.797L63.4494 147.176L71.6605 129.614L97.4204 124.606L130.523 118.159L122.868 141.544Z" fill="#262A39"/>
<path d="M164.359 158.97C164.142 158.97 163.938 158.848 163.83 158.644L158.224 147.597L139.101 138.843C138.965 138.775 138.843 138.666 138.789 138.517L130.836 117.616C130.714 117.304 130.877 116.964 131.175 116.842C131.487 116.72 131.827 116.883 131.949 117.181L139.821 137.865L158.916 146.606C159.039 146.66 159.134 146.755 159.201 146.877L164.888 158.115C165.037 158.413 164.915 158.766 164.63 158.916C164.549 158.943 164.454 158.97 164.359 158.97Z" fill="#262A39"/>
<path d="M141.366 232.423C141.176 232.423 141 232.328 140.878 232.178C140.769 232.015 140.728 231.812 140.796 231.635L143.606 223.601L115.566 200.935C115.43 200.827 115.348 200.664 115.348 200.474L115.118 179.912L110.883 176.315C110.639 176.098 110.598 175.732 110.815 175.474C111.032 175.23 111.399 175.189 111.657 175.406L116.095 179.179C116.231 179.288 116.298 179.451 116.298 179.627L116.529 200.189L144.678 222.949C144.868 223.112 144.949 223.37 144.868 223.614L142.208 231.242L189.221 230.563L193.225 216.57L172.65 194.584C172.541 194.475 172.487 194.326 172.487 194.176V191.435C172.487 191.109 172.758 190.838 173.084 190.838C173.41 190.838 173.681 191.109 173.681 191.435V193.946L194.338 216C194.474 216.15 194.528 216.367 194.474 216.57L190.266 231.31C190.199 231.568 189.968 231.73 189.71 231.744L141.366 232.423Z" fill="#262A39"/>
<path d="M115.945 201.057C115.647 201.057 115.389 200.826 115.348 200.528C115.307 200.202 115.552 199.904 115.877 199.876L173.002 193.552C173.342 193.511 173.627 193.755 173.654 194.081C173.695 194.407 173.45 194.705 173.125 194.733L116 201.057C115.986 201.057 115.973 201.057 115.945 201.057Z" fill="#262A39"/>
<path d="M144.311 223.994C144.026 223.994 143.768 223.777 143.728 223.478C143.687 223.152 143.904 222.854 144.23 222.8L193.795 215.783C194.121 215.729 194.419 215.959 194.474 216.285C194.514 216.611 194.297 216.909 193.971 216.964L144.406 223.98C144.365 223.994 144.338 223.994 144.311 223.994Z" fill="#262A39"/>
<path d="M152.619 177.333C152.497 177.252 152.375 177.17 152.239 177.103L115.676 179.043C115.35 179.057 115.092 179.342 115.119 179.668C115.133 179.98 115.404 180.224 115.716 180.224C115.73 180.224 115.743 180.224 115.743 180.224L152.605 178.27C152.85 178.256 153.053 178.093 153.135 177.876C153.012 177.795 152.89 177.713 152.768 177.618C152.673 177.537 152.632 177.442 152.619 177.333Z" fill="#262A39"/>
<path d="M124.144 150.773C123.846 150.773 123.574 150.542 123.547 150.23C123.52 149.904 123.764 149.619 124.09 149.592L158.604 146.552C158.943 146.525 159.214 146.769 159.242 147.095C159.269 147.42 159.024 147.705 158.699 147.733L124.185 150.773C124.185 150.773 124.171 150.773 124.144 150.773Z" fill="#262A39"/>
<path d="M66.0957 163.531C65.77 163.531 65.5121 163.273 65.4986 162.96C65.485 162.635 65.7429 162.363 66.0686 162.35L125.039 160.572C125.365 160.572 125.637 160.816 125.65 161.142C125.664 161.468 125.406 161.739 125.08 161.753L66.1093 163.531C66.1093 163.531 66.1093 163.531 66.0957 163.531Z" fill="#262A39"/>
<path d="M124.143 140.851C123.844 140.851 123.586 140.634 123.559 140.335C123.519 140.01 123.749 139.711 124.075 139.67L139.276 137.716C139.615 137.675 139.9 137.906 139.941 138.232C139.982 138.558 139.751 138.856 139.425 138.897L124.224 140.851C124.197 140.838 124.17 140.851 124.143 140.851Z" fill="#262A39"/>
<path d="M158.671 209.553C158.399 209.553 158.155 209.363 158.087 209.078C158.019 208.752 158.223 208.44 158.549 208.372L166.448 206.703C166.773 206.635 167.086 206.839 167.153 207.164C167.221 207.49 167.018 207.802 166.692 207.87L158.793 209.54C158.752 209.553 158.712 209.553 158.671 209.553Z" fill="#262A39"/>
<path d="M141.407 213.924C141.149 213.924 140.905 213.747 140.837 213.476C140.756 213.164 140.946 212.838 141.258 212.756L147.732 211.074C148.044 210.992 148.37 211.182 148.451 211.494C148.533 211.806 148.343 212.132 148.03 212.214L141.557 213.897C141.502 213.924 141.462 213.924 141.407 213.924Z" fill="#262A39"/>
<path d="M134.146 190.77C133.848 190.77 133.59 190.539 133.549 190.227C133.522 189.901 133.766 189.616 134.092 189.575L145.927 188.503C146.266 188.476 146.537 188.72 146.578 189.046C146.605 189.372 146.361 189.657 146.035 189.697L134.2 190.77C134.173 190.77 134.16 190.77 134.146 190.77Z" fill="#262A39"/>
<path d="M131.743 170.439C131.662 170.439 131.567 170.425 131.486 170.384C131.187 170.235 131.065 169.882 131.214 169.584L138.814 153.976C138.964 153.677 139.317 153.555 139.615 153.704C139.914 153.854 140.036 154.207 139.887 154.505L132.286 170.113C132.178 170.317 131.974 170.439 131.743 170.439Z" fill="#262A39"/>
<path d="M143.918 160.884C143.605 160.884 143.348 160.639 143.32 160.327C143.293 160.001 143.538 159.716 143.877 159.689L155.454 158.848C155.78 158.821 156.065 159.065 156.092 159.404C156.119 159.73 155.875 160.015 155.535 160.042L143.958 160.884C143.945 160.884 143.931 160.884 143.918 160.884Z" fill="#262A39"/>
<path d="M93.1308 157.518C93.0222 157.518 92.9136 157.491 92.8051 157.423C92.5336 157.246 92.4522 156.88 92.6286 156.608L97.9217 148.329C98.0982 148.058 98.4646 147.977 98.7361 148.153C99.0075 148.329 99.0889 148.696 98.9125 148.967L93.6194 157.246C93.5108 157.423 93.3208 157.518 93.1308 157.518Z" fill="#262A39"/>
<path d="M68.8784 154.831C68.5663 154.831 68.3084 154.586 68.2813 154.274C68.2541 153.949 68.512 153.664 68.8377 153.65L91.8289 152.198C92.1546 152.184 92.4396 152.429 92.4532 152.754C92.4803 153.08 92.2224 153.365 91.8967 153.379L68.9056 154.831C68.892 154.831 68.892 154.831 68.8784 154.831Z" fill="#262A39"/>
<path d="M95.7777 134.187C95.4791 134.187 95.2213 133.97 95.1941 133.658C95.1534 133.332 95.3841 133.034 95.7098 132.993L102.889 132.152C103.215 132.111 103.514 132.342 103.555 132.667C103.595 132.993 103.365 133.292 103.039 133.332L95.8591 134.174C95.8184 134.187 95.7913 134.187 95.7777 134.187Z" fill="#262A39"/>
<path d="M107.315 132.505C107.016 132.505 106.758 132.274 106.731 131.975C106.69 131.65 106.935 131.351 107.26 131.324L115.892 130.347C116.231 130.306 116.516 130.55 116.544 130.876C116.584 131.202 116.34 131.5 116.014 131.527L107.382 132.505C107.355 132.505 107.342 132.505 107.315 132.505Z" fill="#262A39"/>
<path d="M109.663 169.434H95.7788C95.4531 169.434 95.1816 169.163 95.1816 168.837C95.1816 168.511 95.4531 168.24 95.7788 168.24H109.663C109.989 168.24 110.26 168.511 110.26 168.837C110.26 169.163 109.989 169.434 109.663 169.434Z" fill="#262A39"/>
<path d="M116.123 173.967H110.341C110.016 173.967 109.744 173.696 109.744 173.37C109.744 173.044 110.016 172.773 110.341 172.773H115.729L118.376 165.905H113.029C112.703 165.905 112.431 165.634 112.431 165.308C112.431 164.982 112.703 164.711 113.029 164.711H119.245C119.435 164.711 119.625 164.806 119.733 164.969C119.842 165.132 119.869 165.335 119.801 165.525L116.693 173.587C116.598 173.818 116.367 173.967 116.123 173.967Z" fill="#262A39"/>
<path d="M170.52 214.765C170.425 214.765 170.33 214.738 170.248 214.697C169.95 214.548 169.841 214.195 169.99 213.896L174.958 204.233L165.064 201.301C164.752 201.206 164.575 200.881 164.657 200.569C164.752 200.256 165.077 200.08 165.389 200.161L175.962 203.297C176.125 203.351 176.274 203.473 176.342 203.636C176.41 203.799 176.41 203.989 176.329 204.138L171.035 214.439C170.94 214.643 170.737 214.765 170.52 214.765Z" fill="#262A39"/>
<path d="M74.7696 171.144C74.661 171.144 74.5388 171.117 74.4438 171.049L70.4265 168.403C70.2365 168.281 70.1415 168.063 70.1686 167.833C70.1958 167.616 70.3451 167.426 70.5622 167.344L75.611 165.525C75.9232 165.417 76.2625 165.58 76.3711 165.878C76.4797 166.19 76.3168 166.53 76.0182 166.638L72.0823 168.05L75.1089 170.031C75.3803 170.208 75.4617 170.574 75.2853 170.859C75.1496 171.049 74.9596 171.144 74.7696 171.144Z" fill="#262A39"/>
<path d="M124.511 185.124C124.456 185.626 124.402 186.128 124.348 186.63C124.266 187.39 125.447 187.39 125.542 186.63C125.596 186.128 125.651 185.626 125.705 185.124C125.786 184.364 124.592 184.377 124.511 185.124Z" fill="#262A39"/>
<path d="M124.388 190.172L124.049 191.679C123.886 192.425 125.026 192.737 125.189 191.991L125.528 190.484C125.705 189.751 124.551 189.426 124.388 190.172Z" fill="#262A39"/>
<path d="M62.8258 147.705C62.5272 147.705 62.2558 147.474 62.2286 147.162C62.2015 146.837 62.4458 146.551 62.7715 146.511L123.385 141.123C123.724 141.096 123.995 141.34 124.036 141.666C124.063 141.991 123.819 142.276 123.493 142.317L62.8801 147.705C62.8529 147.705 62.8394 147.705 62.8258 147.705Z" fill="#262A39"/>
</svg>
